<?xml version="1.0" encoding="utf-8" standalone="no"?>
<!DOCTYPE svg PUBLIC "-//W3C//DTD SVG 1.1//EN"
  "http://www.w3.org/Graphics/SVG/1.1/DTD/svg11.dtd">
<svg xmlns:xlink="http://www.w3.org/1999/xlink" width="1105.92pt" height="552.24pt" viewBox="0 0 1105.92 552.24" xmlns="http://www.w3.org/2000/svg" version="1.1">
 <metadata>
  <rdf:RDF xmlns:dc="http://purl.org/dc/elements/1.1/" xmlns:cc="http://creativecommons.org/ns#" xmlns:rdf="http://www.w3.org/1999/02/22-rdf-syntax-ns#">
   <cc:Work>
    <dc:type rdf:resource="http://purl.org/dc/dcmitype/StillImage"/>
    <dc:date>2024-04-04T12:13:38.030584</dc:date>
    <dc:format>image/svg+xml</dc:format>
    <dc:creator>
     <cc:Agent>
      <dc:title>Matplotlib v3.8.3, https://matplotlib.org/</dc:title>
     </cc:Agent>
    </dc:creator>
   </cc:Work>
  </rdf:RDF>
 </metadata>
 <defs>
  <style type="text/css">*{stroke-linejoin: round; stroke-linecap: butt}</style>
 </defs>
 <g id="figure_1">
  <g id="patch_1">
   <path d="M 0 552.24 
L 1105.92 552.24 
L 1105.92 0 
L 0 0 
z
" style="fill: #ffffff"/>
  </g>
  <g id="axes_1">
   <g id="patch_2">
    <path d="M 138.24 491.4936 
L 995.328 491.4936 
L 995.328 66.2688 
L 138.24 66.2688 
z
" style="fill: #ffffff"/>
   </g>
   <g id="matplotlib.axis_1">
    <g id="xtick_1">
     <g id="text_1">
      <!-- 6部位1 -->
      <g transform="translate(132.543561 530.753859) rotate(-30) scale(0.15 -0.15)">
       <defs>
        <path id="DengXian-36" d="M 3047 1191 
Q 3047 491 2697 89 
Q 2347 -313 1747 -313 
Q 1075 -313 720 234 
Q 366 781 366 1850 
Q 366 3031 739 3625 
Q 1113 4219 1841 4219 
Q 2284 4219 2553 4026 
Q 2822 3834 2944 3428 
L 2566 3344 
Q 2400 3888 1816 3888 
Q 1303 3888 1033 3402 
Q 763 2916 756 1969 
Q 913 2263 1183 2417 
Q 1453 2572 1800 2572 
Q 2372 2572 2709 2201 
Q 3047 1831 3047 1191 
z
M 2647 1166 
Q 2647 1675 2405 1964 
Q 2163 2253 1716 2253 
Q 1466 2253 1256 2137 
Q 1047 2022 926 1806 
Q 806 1591 806 1306 
Q 806 747 1064 383 
Q 1322 19 1738 19 
Q 2166 19 2406 325 
Q 2647 631 2647 1166 
z
" transform="scale(0.015625)"/>
        <path id="DengXian-90e8" d="M 788 2438 
L 2169 2438 
Q 2472 2981 2669 3653 
L 3091 3463 
Q 3144 3438 3138 3406 
Q 3138 3366 3072 3341 
Q 2963 3291 2881 3128 
Q 2688 2725 2534 2438 
L 3144 2438 
Q 3391 2444 3669 2478 
L 3669 2081 
Q 3413 2113 3144 2119 
L 788 2119 
Q 556 2113 269 2081 
L 269 2478 
Q 550 2444 788 2438 
z
M 1088 4084 
L 2106 4084 
Q 1856 4416 1472 4744 
L 1766 5006 
Q 2138 4653 2419 4359 
L 2131 4084 
L 2950 4084 
Q 3206 4091 3481 4122 
L 3481 3725 
Q 3219 3756 2950 3763 
L 1088 3763 
Q 850 3756 569 3725 
L 569 4122 
Q 872 4091 1088 4084 
z
M 1275 -838 
L 838 -838 
Q 872 -588 878 -331 
L 878 1044 
Q 872 1269 838 1563 
Q 1119 1522 1350 1522 
L 2675 1522 
Q 2931 1528 3206 1563 
Q 3175 1300 3169 1038 
L 3169 -159 
Q 3175 -391 3206 -678 
L 2772 -678 
Q 2803 -453 2809 -288 
L 1234 -288 
L 1234 -331 
Q 1241 -588 1275 -838 
z
M 1234 1203 
L 1234 19 
L 2809 19 
L 2809 1203 
L 1234 1203 
z
M 1203 3597 
Q 1497 3169 1741 2784 
L 1403 2547 
Q 1166 2994 878 3384 
L 1203 3597 
z
M 3903 4453 
Q 4250 4416 4469 4416 
L 5350 4416 
Q 5613 4416 5900 4453 
Q 5453 3263 5069 2463 
Q 5697 2094 5941 1484 
Q 6050 1184 6050 906 
Q 6050 597 5913 325 
Q 5716 -122 4916 -172 
Q 4825 103 4628 319 
Q 4878 247 5075 247 
Q 5491 247 5631 575 
Q 5697 722 5697 888 
Q 5697 1172 5509 1522 
Q 5222 2028 4647 2344 
Q 5069 3188 5356 4097 
L 4300 4097 
L 4300 -475 
Q 4306 -756 4341 -1025 
L 3903 -1025 
Q 3938 -769 3944 -481 
L 3944 3909 
Q 3938 4159 3903 4453 
z
" transform="scale(0.015625)"/>
        <path id="DengXian-4f4d" d="M 4500 -122 
L 5819 -122 
Q 5972 -128 6222 -84 
L 6222 -466 
Q 5972 -428 5813 -428 
L 2322 -428 
Q 2138 -428 1894 -466 
L 1894 -84 
Q 2113 -128 2309 -122 
L 4122 -122 
Q 4622 1509 4819 2931 
L 5356 2759 
Q 5428 2741 5422 2713 
Q 5422 2681 5350 2638 
Q 5228 2572 5184 2356 
Q 4819 856 4500 -122 
z
M 5978 3669 
L 5978 3272 
Q 5734 3316 5550 3309 
L 2516 3309 
Q 2328 3316 2069 3272 
L 2069 3669 
Q 2303 3628 2491 3628 
L 5544 3628 
Q 5741 3622 5978 3669 
z
M 3009 2688 
Q 3450 1491 3781 409 
L 3341 263 
Q 3009 1594 2578 2522 
L 3009 2688 
z
M 3028 4769 
L 3341 5063 
Q 3916 4506 4378 4000 
L 4025 3675 
Q 3616 4288 3028 4769 
z
M 1684 4966 
L 2156 4756 
Q 2228 4722 2228 4703 
Q 2228 4678 2156 4647 
Q 2059 4581 1997 4453 
Q 1906 4238 1650 3675 
L 1650 -544 
Q 1644 -716 1691 -1031 
L 1253 -1031 
Q 1300 -738 1294 -556 
L 1294 2950 
Q 1019 2438 684 1925 
Q 481 2075 184 2181 
Q 1131 3097 1684 4966 
z
" transform="scale(0.015625)"/>
        <path id="DengXian-31" d="M 484 -250 
L 484 84 
L 1609 84 
L 1609 3744 
L 603 3075 
L 603 3434 
L 1653 4153 
L 2000 4153 
L 2000 84 
L 2959 84 
L 2959 -250 
L 484 -250 
z
" transform="scale(0.015625)"/>
       </defs>
       <use xlink:href="#DengXian-36"/>
       <use xlink:href="#DengXian-90e8" x="52.685547"/>
       <use xlink:href="#DengXian-4f4d" x="152.685547"/>
       <use xlink:href="#DengXian-31" x="252.685547"/>
      </g>
     </g>
    </g>
    <g id="xtick_2">
     <g id="text_2">
      <!-- 6部位2 -->
      <g transform="translate(203.967561 530.753859) rotate(-30) scale(0.15 -0.15)">
       <defs>
        <path id="DengXian-32" d="M 347 -250 
L 347 31 
Q 491 394 764 751 
Q 1038 1109 1566 1569 
Q 2109 2038 2326 2359 
Q 2544 2681 2544 3034 
Q 2544 3441 2316 3661 
Q 2088 3881 1681 3881 
Q 1313 3881 1077 3664 
Q 841 3447 800 3069 
L 400 3119 
Q 447 3613 795 3916 
Q 1144 4219 1684 4219 
Q 2281 4219 2615 3912 
Q 2950 3606 2950 3059 
Q 2950 2778 2850 2531 
Q 2750 2284 2550 2039 
Q 2350 1794 1869 1366 
Q 1025 616 803 103 
L 3016 103 
L 3016 -250 
L 347 -250 
z
" transform="scale(0.015625)"/>
       </defs>
       <use xlink:href="#DengXian-36"/>
       <use xlink:href="#DengXian-90e8" x="52.685547"/>
       <use xlink:href="#DengXian-4f4d" x="152.685547"/>
       <use xlink:href="#DengXian-32" x="252.685547"/>
      </g>
     </g>
    </g>
    <g id="xtick_3">
     <g id="text_3">
      <!-- 1 -->
      <g transform="translate(308.21663 511.160896) rotate(-30) scale(0.15 -0.15)">
       <use xlink:href="#DengXian-31"/>
      </g>
     </g>
    </g>
    <g id="xtick_4">
     <g id="text_4">
      <!-- 4 -->
      <g transform="translate(379.64063 511.160896) rotate(-30) scale(0.15 -0.15)">
       <defs>
        <path id="DengXian-34" d="M 2516 803 
L 2516 -250 
L 2125 -250 
L 2125 803 
L 141 803 
L 141 1116 
L 2088 4153 
L 2516 4153 
L 2516 1131 
L 3113 1131 
L 3113 803 
L 2516 803 
z
M 2125 3628 
L 538 1131 
L 2125 1131 
L 2125 3628 
z
" transform="scale(0.015625)"/>
       </defs>
       <use xlink:href="#DengXian-34"/>
      </g>
     </g>
    </g>
    <g id="xtick_5">
     <g id="text_5">
      <!-- 14 -->
      <g transform="translate(444.220323 515.112459) rotate(-30) scale(0.15 -0.15)">
       <use xlink:href="#DengXian-31"/>
       <use xlink:href="#DengXian-34" x="52.685547"/>
      </g>
     </g>
    </g>
    <g id="xtick_6">
     <g id="text_6">
      <!-- 16 -->
      <g transform="translate(515.644323 515.112459) rotate(-30) scale(0.15 -0.15)">
       <use xlink:href="#DengXian-31"/>
       <use xlink:href="#DengXian-36" x="52.685547"/>
      </g>
     </g>
    </g>
    <g id="xtick_7">
     <g id="text_7">
      <!-- 13 -->
      <g transform="translate(587.068323 515.112459) rotate(-30) scale(0.15 -0.15)">
       <defs>
        <path id="DengXian-33" d="M 3019 963 
Q 3019 356 2662 21 
Q 2306 -313 1656 -313 
Q 409 -313 266 828 
L 669 872 
Q 778 25 1656 25 
Q 2122 25 2367 262 
Q 2613 500 2613 963 
Q 2613 1375 2320 1590 
Q 2028 1806 1500 1806 
L 1200 1806 
L 1200 2172 
L 1491 2172 
Q 1784 2172 2011 2269 
Q 2238 2366 2369 2555 
Q 2500 2744 2500 3022 
Q 2500 3434 2283 3659 
Q 2066 3884 1644 3884 
Q 1266 3884 1027 3689 
Q 788 3494 747 3091 
L 353 3125 
Q 413 3647 755 3933 
Q 1097 4219 1647 4219 
Q 2244 4219 2573 3914 
Q 2903 3609 2903 3056 
Q 2903 2653 2672 2376 
Q 2441 2100 2022 2009 
L 2022 1997 
Q 2491 1938 2755 1658 
Q 3019 1378 3019 963 
z
" transform="scale(0.015625)"/>
       </defs>
       <use xlink:href="#DengXian-31"/>
       <use xlink:href="#DengXian-33" x="52.685547"/>
      </g>
     </g>
    </g>
    <g id="xtick_8">
     <g id="text_8">
      <!-- 3部位2 -->
      <g transform="translate(632.511561 530.753859) rotate(-30) scale(0.15 -0.15)">
       <use xlink:href="#DengXian-33"/>
       <use xlink:href="#DengXian-90e8" x="52.685547"/>
       <use xlink:href="#DengXian-4f4d" x="152.685547"/>
       <use xlink:href="#DengXian-32" x="252.685547"/>
      </g>
     </g>
    </g>
    <g id="xtick_9">
     <g id="text_9">
      <!-- 5 -->
      <g transform="translate(736.76063 511.160896) rotate(-30) scale(0.15 -0.15)">
       <defs>
        <path id="DengXian-35" d="M 3047 1169 
Q 3047 469 2676 78 
Q 2306 -313 1641 -313 
Q 575 -313 366 672 
L 763 734 
Q 859 350 1075 186 
Q 1291 22 1669 22 
Q 2134 22 2387 315 
Q 2641 609 2641 1153 
Q 2641 1619 2392 1895 
Q 2144 2172 1713 2172 
Q 1459 2172 1265 2095 
Q 1072 2019 875 1844 
L 503 1844 
L 641 4153 
L 2828 4153 
L 2828 3816 
L 997 3816 
L 894 2222 
Q 1113 2381 1323 2442 
Q 1534 2503 1775 2503 
Q 2359 2503 2703 2142 
Q 3047 1781 3047 1169 
z
" transform="scale(0.015625)"/>
       </defs>
       <use xlink:href="#DengXian-35"/>
      </g>
     </g>
    </g>
    <g id="xtick_10">
     <g id="text_10">
      <!-- 21 -->
      <g transform="translate(801.340323 515.112459) rotate(-30) scale(0.15 -0.15)">
       <use xlink:href="#DengXian-32"/>
       <use xlink:href="#DengXian-31" x="52.685547"/>
      </g>
     </g>
    </g>
    <g id="xtick_11">
     <g id="text_11">
      <!-- 3部位1 -->
      <g transform="translate(846.783561 530.753859) rotate(-30) scale(0.15 -0.15)">
       <use xlink:href="#DengXian-33"/>
       <use xlink:href="#DengXian-90e8" x="52.685547"/>
       <use xlink:href="#DengXian-4f4d" x="152.685547"/>
       <use xlink:href="#DengXian-31" x="252.685547"/>
      </g>
     </g>
    </g>
    <g id="xtick_12">
     <g id="text_12">
      <!-- 18 -->
      <g transform="translate(944.188323 515.112459) rotate(-30) scale(0.15 -0.15)">
       <defs>
        <path id="DengXian-38" d="M 3050 972 
Q 3050 359 2697 23 
Q 2344 -313 1688 -313 
Q 1038 -313 680 25 
Q 322 363 322 966 
Q 322 1391 553 1684 
Q 784 1978 1159 2053 
L 1159 2066 
Q 819 2156 619 2440 
Q 419 2725 419 3109 
Q 419 3606 759 3912 
Q 1100 4219 1675 4219 
Q 2266 4219 2606 3911 
Q 2947 3603 2947 3103 
Q 2947 2706 2742 2428 
Q 2538 2150 2200 2075 
L 2200 2063 
Q 2588 1988 2819 1702 
Q 3050 1416 3050 972 
z
M 2541 3088 
Q 2541 3494 2316 3700 
Q 2091 3906 1675 3906 
Q 1263 3906 1042 3695 
Q 822 3484 822 3088 
Q 822 2684 1048 2454 
Q 1275 2225 1681 2225 
Q 2100 2225 2320 2450 
Q 2541 2675 2541 3088 
z
M 2644 1009 
Q 2644 1428 2394 1667 
Q 2144 1906 1678 1906 
Q 1231 1906 978 1656 
Q 725 1406 725 997 
Q 725 516 973 259 
Q 1222 3 1694 3 
Q 2172 3 2408 258 
Q 2644 513 2644 1009 
z
" transform="scale(0.015625)"/>
       </defs>
       <use xlink:href="#DengXian-31"/>
       <use xlink:href="#DengXian-38" x="52.685547"/>
      </g>
     </g>
    </g>
   </g>
   <g id="matplotlib.axis_2">
    <g id="ytick_1">
     <g id="line2d_1">
      <defs>
       <path id="md18714aa6c" d="M 0 0 
L -3.5 0 
" style="stroke: #000000; stroke-width: 0.8"/>
      </defs>
      <g>
       <use xlink:href="#md18714aa6c" x="138.24" y="491.4936" style="stroke: #000000; stroke-width: 0.8"/>
      </g>
     </g>
     <g id="text_13">
      <!-- 0.0 -->
      <g transform="translate(112.145469 496.525631) scale(0.15 -0.15)">
       <defs>
        <path id="DengXian-30" d="M 3106 1953 
Q 3106 850 2750 268 
Q 2394 -313 1697 -313 
Q 1006 -313 654 256 
Q 303 825 303 1953 
Q 303 3100 645 3659 
Q 988 4219 1719 4219 
Q 2422 4219 2764 3656 
Q 3106 3094 3106 1953 
z
M 2706 1953 
Q 2706 2963 2473 3425 
Q 2241 3888 1716 3888 
Q 1172 3888 936 3423 
Q 700 2959 700 1953 
Q 700 969 944 495 
Q 1188 22 1703 22 
Q 2216 22 2461 508 
Q 2706 994 2706 1953 
z
" transform="scale(0.015625)"/>
        <path id="DengXian-2e" d="M 475 -250 
L 475 291 
L 928 291 
L 928 -250 
L 475 -250 
z
" transform="scale(0.015625)"/>
       </defs>
       <use xlink:href="#DengXian-30"/>
       <use xlink:href="#DengXian-2e" x="52.685547"/>
       <use xlink:href="#DengXian-30" x="74.609375"/>
      </g>
     </g>
    </g>
    <g id="ytick_2">
     <g id="line2d_2">
      <g>
       <use xlink:href="#md18714aa6c" x="138.24" y="442.814522" style="stroke: #000000; stroke-width: 0.8"/>
      </g>
     </g>
     <g id="text_14">
      <!-- 2.5 -->
      <g transform="translate(112.145469 447.846553) scale(0.15 -0.15)">
       <use xlink:href="#DengXian-32"/>
       <use xlink:href="#DengXian-2e" x="52.685547"/>
       <use xlink:href="#DengXian-35" x="74.609375"/>
      </g>
     </g>
    </g>
    <g id="ytick_3">
     <g id="line2d_3">
      <g>
       <use xlink:href="#md18714aa6c" x="138.24" y="394.135443" style="stroke: #000000; stroke-width: 0.8"/>
      </g>
     </g>
     <g id="text_15">
      <!-- 5.0 -->
      <g transform="translate(112.145469 399.167474) scale(0.15 -0.15)">
       <use xlink:href="#DengXian-35"/>
       <use xlink:href="#DengXian-2e" x="52.685547"/>
       <use xlink:href="#DengXian-30" x="74.609375"/>
      </g>
     </g>
    </g>
    <g id="ytick_4">
     <g id="line2d_4">
      <g>
       <use xlink:href="#md18714aa6c" x="138.24" y="345.456365" style="stroke: #000000; stroke-width: 0.8"/>
      </g>
     </g>
     <g id="text_16">
      <!-- 7.5 -->
      <g transform="translate(112.145469 350.488396) scale(0.15 -0.15)">
       <defs>
        <path id="DengXian-37" d="M 3031 3809 
Q 2278 2631 1928 1634 
Q 1578 638 1578 -250 
L 1172 -250 
Q 1172 625 1545 1651 
Q 1919 2678 2638 3797 
L 331 3797 
L 331 4153 
L 3031 4153 
L 3031 3809 
z
" transform="scale(0.015625)"/>
       </defs>
       <use xlink:href="#DengXian-37"/>
       <use xlink:href="#DengXian-2e" x="52.685547"/>
       <use xlink:href="#DengXian-35" x="74.609375"/>
      </g>
     </g>
    </g>
    <g id="ytick_5">
     <g id="line2d_5">
      <g>
       <use xlink:href="#md18714aa6c" x="138.24" y="296.777286" style="stroke: #000000; stroke-width: 0.8"/>
      </g>
     </g>
     <g id="text_17">
      <!-- 10.0 -->
      <g transform="translate(104.242344 301.809318) scale(0.15 -0.15)">
       <use xlink:href="#DengXian-31"/>
       <use xlink:href="#DengXian-30" x="52.685547"/>
       <use xlink:href="#DengXian-2e" x="105.371094"/>
       <use xlink:href="#DengXian-30" x="127.294922"/>
      </g>
     </g>
    </g>
    <g id="ytick_6">
     <g id="line2d_6">
      <g>
       <use xlink:href="#md18714aa6c" x="138.24" y="248.098208" style="stroke: #000000; stroke-width: 0.8"/>
      </g>
     </g>
     <g id="text_18">
      <!-- 12.5 -->
      <g transform="translate(104.242344 253.130239) scale(0.15 -0.15)">
       <use xlink:href="#DengXian-31"/>
       <use xlink:href="#DengXian-32" x="52.685547"/>
       <use xlink:href="#DengXian-2e" x="105.371094"/>
       <use xlink:href="#DengXian-35" x="127.294922"/>
      </g>
     </g>
    </g>
    <g id="ytick_7">
     <g id="line2d_7">
      <g>
       <use xlink:href="#md18714aa6c" x="138.24" y="199.41913" style="stroke: #000000; stroke-width: 0.8"/>
      </g>
     </g>
     <g id="text_19">
      <!-- 15.0 -->
      <g transform="translate(104.242344 204.451161) scale(0.15 -0.15)">
       <use xlink:href="#DengXian-31"/>
       <use xlink:href="#DengXian-35" x="52.685547"/>
       <use xlink:href="#DengXian-2e" x="105.371094"/>
       <use xlink:href="#DengXian-30" x="127.294922"/>
      </g>
     </g>
    </g>
    <g id="ytick_8">
     <g id="line2d_8">
      <g>
       <use xlink:href="#md18714aa6c" x="138.24" y="150.740051" style="stroke: #000000; stroke-width: 0.8"/>
      </g>
     </g>
     <g id="text_20">
      <!-- 17.5 -->
      <g transform="translate(104.242344 155.772083) scale(0.15 -0.15)">
       <use xlink:href="#DengXian-31"/>
       <use xlink:href="#DengXian-37" x="52.685547"/>
       <use xlink:href="#DengXian-2e" x="105.371094"/>
       <use xlink:href="#DengXian-35" x="127.294922"/>
      </g>
     </g>
    </g>
    <g id="ytick_9">
     <g id="line2d_9">
      <g>
       <use xlink:href="#md18714aa6c" x="138.24" y="102.060973" style="stroke: #000000; stroke-width: 0.8"/>
      </g>
     </g>
     <g id="text_21">
      <!-- 20.0 -->
      <g transform="translate(104.242344 107.093004) scale(0.15 -0.15)">
       <use xlink:href="#DengXian-32"/>
       <use xlink:href="#DengXian-30" x="52.685547"/>
       <use xlink:href="#DengXian-2e" x="105.371094"/>
       <use xlink:href="#DengXian-30" x="127.294922"/>
      </g>
     </g>
    </g>
   </g>
   <g id="LineCollection_1">
    <path d="M 316.8 491.4936 
L 316.8 399.08045 
L 388.224 399.08045 
L 388.224 491.4936 
" clip-path="url(#p30e0a5b101)" style="fill: none; stroke: #ff7f0e; stroke-width: 1.5"/>
    <path d="M 459.648 491.4936 
L 459.648 392.212145 
L 531.072 392.212145 
L 531.072 491.4936 
" clip-path="url(#p30e0a5b101)" style="fill: none; stroke: #ff7f0e; stroke-width: 1.5"/>
    <path d="M 673.92 491.4936 
L 673.92 398.862852 
L 745.344 398.862852 
L 745.344 491.4936 
" clip-path="url(#p30e0a5b101)" style="fill: none; stroke: #ff7f0e; stroke-width: 1.5"/>
    <path d="M 602.496 491.4936 
L 602.496 382.638586 
L 709.632 382.638586 
L 709.632 398.862852 
" clip-path="url(#p30e0a5b101)" style="fill: none; stroke: #ff7f0e; stroke-width: 1.5"/>
    <path d="M 495.36 392.212145 
L 495.36 351.050459 
L 656.064 351.050459 
L 656.064 382.638586 
" clip-path="url(#p30e0a5b101)" style="fill: none; stroke: #ff7f0e; stroke-width: 1.5"/>
    <path d="M 352.512 399.08045 
L 352.512 333.891266 
L 575.712 333.891266 
L 575.712 351.050459 
" clip-path="url(#p30e0a5b101)" style="fill: none; stroke: #ff7f0e; stroke-width: 1.5"/>
    <path d="M 245.376 491.4936 
L 245.376 293.397 
L 464.112 293.397 
L 464.112 333.891266 
" clip-path="url(#p30e0a5b101)" style="fill: none; stroke: #ff7f0e; stroke-width: 1.5"/>
    <path d="M 173.952 491.4936 
L 173.952 258.007237 
L 354.744 258.007237 
L 354.744 293.397 
" clip-path="url(#p30e0a5b101)" style="fill: none; stroke: #ff7f0e; stroke-width: 1.5"/>
   </g>
   <g id="LineCollection_2">
    <path d="M 888.192 491.4936 
L 888.192 307.141875 
L 959.616 307.141875 
L 959.616 491.4936 
" clip-path="url(#p30e0a5b101)" style="fill: none; stroke: #2ca02c; stroke-width: 1.5"/>
    <path d="M 816.768 491.4936 
L 816.768 245.296902 
L 923.904 245.296902 
L 923.904 307.141875 
" clip-path="url(#p30e0a5b101)" style="fill: none; stroke: #2ca02c; stroke-width: 1.5"/>
   </g>
   <g id="LineCollection_3">
    <path d="M 264.348 258.007237 
L 264.348 86.5176 
L 870.336 86.5176 
L 870.336 245.296902 
" clip-path="url(#p30e0a5b101)" style="fill: none; stroke: #1f77b4; stroke-width: 1.5"/>
   </g>
   <g id="patch_3">
    <path d="M 138.24 491.4936 
L 138.24 66.2688 
" style="fill: none; stroke: #000000; stroke-width: 0.8; stroke-linejoin: miter; stroke-linecap: square"/>
   </g>
   <g id="patch_4">
    <path d="M 995.328 491.4936 
L 995.328 66.2688 
" style="fill: none; stroke: #000000; stroke-width: 0.8; stroke-linejoin: miter; stroke-linecap: square"/>
   </g>
   <g id="patch_5">
    <path d="M 138.24 491.4936 
L 995.328 491.4936 
" style="fill: none; stroke: #000000; stroke-width: 0.8; stroke-linejoin: miter; stroke-linecap: square"/>
   </g>
   <g id="patch_6">
    <path d="M 138.24 66.2688 
L 995.328 66.2688 
" style="fill: none; stroke: #000000; stroke-width: 0.8; stroke-linejoin: miter; stroke-linecap: square"/>
   </g>
   <g id="text_22">
    <!-- 高钾-未风化-聚类图 -->
    <g transform="translate(485.784 60.2688) scale(0.18 -0.18)">
     <defs>
      <path id="DengXian-9ad8" d="M 691 1925 
Q 997 1888 1247 1888 
L 5069 1888 
Q 5269 1881 5606 1925 
Q 5569 1606 5569 1409 
L 5569 -225 
Q 5581 -647 5375 -763 
Q 5203 -903 4500 -953 
Q 4469 -709 4306 -481 
Q 4597 -519 4772 -519 
Q 4934 -519 5075 -473 
Q 5216 -428 5209 -206 
L 5209 1569 
L 1088 1569 
L 1088 -372 
Q 1088 -575 1125 -941 
L 691 -941 
Q 728 -600 728 -372 
L 728 1344 
Q 728 1544 691 1925 
z
M 4403 1153 
Q 4366 884 4366 659 
L 4366 366 
Q 4366 178 4403 -109 
Q 4091 -72 3903 -72 
L 2328 -72 
Q 2119 -72 1791 -109 
Q 1838 200 1831 359 
L 1831 659 
Q 1831 831 1791 1153 
Q 2131 1113 2328 1113 
L 3903 1113 
Q 4091 1113 4403 1153 
z
M 2175 806 
L 2175 238 
L 4019 238 
L 4019 806 
L 2175 806 
z
M 953 4219 
L 3284 4219 
Q 3047 4469 2619 4750 
L 2869 5038 
Q 3278 4763 3669 4428 
L 3488 4219 
L 5453 4219 
Q 5684 4219 5978 4256 
L 5978 3859 
Q 5684 3897 5453 3897 
L 953 3897 
Q 728 3897 434 3859 
L 434 4256 
Q 738 4219 953 4219 
z
M 4788 3519 
Q 4750 3213 4750 3016 
L 4750 2719 
Q 4750 2553 4788 2234 
Q 4488 2272 4256 2272 
L 2069 2272 
Q 1863 2272 1544 2234 
Q 1581 2484 1581 2688 
L 1581 3016 
Q 1581 3206 1544 3519 
Q 1850 3481 2069 3481 
L 4238 3481 
Q 4475 3481 4788 3519 
z
M 1941 3163 
L 1941 2591 
L 4391 2591 
L 4391 3163 
L 1941 3163 
z
" transform="scale(0.015625)"/>
      <path id="DengXian-94be" d="M 2944 4538 
Q 3256 4494 3463 4500 
L 5434 4500 
Q 5638 4500 5966 4538 
Q 5919 4294 5925 4031 
L 5925 1153 
Q 5919 831 5966 634 
L 5528 634 
Q 5575 838 5569 984 
L 4616 984 
L 4616 -366 
Q 4616 -538 4653 -884 
L 4219 -884 
Q 4256 -563 4256 -366 
L 4256 984 
L 3341 984 
Q 3334 788 3378 556 
L 2944 556 
Q 2988 897 2981 1075 
L 2981 4031 
Q 2988 4281 2944 4538 
z
M 3341 2875 
L 4256 2875 
L 4256 4178 
L 3341 4178 
L 3341 2875 
z
M 3341 2553 
L 3341 1306 
L 4256 1306 
L 4256 2553 
L 3341 2553 
z
M 4616 2553 
L 4616 1306 
L 5569 1306 
L 5569 2553 
L 4616 2553 
z
M 4616 4178 
L 4616 2875 
L 5569 2875 
L 5569 4178 
L 4616 4178 
z
M 225 3053 
Q 1025 3706 1428 4972 
L 1850 4794 
Q 1953 4756 1947 4728 
Q 1947 4709 1844 4666 
Q 1741 4603 1678 4488 
Q 1594 4313 1434 4013 
Q 1403 3950 1381 3909 
L 2156 3909 
Q 2350 3903 2675 3950 
L 2675 3553 
Q 2356 3591 2169 3591 
L 1184 3591 
Q 941 3225 647 2841 
Q 481 2988 225 3053 
z
M 947 1613 
L 1356 1613 
L 1356 2478 
L 1269 2478 
Q 1088 2484 756 2438 
L 756 2834 
Q 1031 2791 1269 2797 
L 1906 2797 
Q 2125 2791 2431 2834 
L 2431 2438 
Q 2119 2484 1919 2478 
L 1716 2478 
L 1716 1613 
L 2175 1613 
Q 2400 1606 2694 1650 
L 2694 1253 
Q 2369 1300 2181 1294 
L 1716 1294 
L 1716 -172 
Q 2175 147 2553 459 
Q 2572 269 2675 91 
Q 1825 -475 1447 -800 
L 1131 -409 
Q 1363 -269 1356 -84 
L 1356 1294 
L 947 1294 
Q 756 1300 434 1253 
L 434 1650 
Q 750 1606 947 1613 
z
" transform="scale(0.015625)"/>
      <path id="DengXian-2d" d="M 694 1166 
L 694 1522 
L 2506 1522 
L 2506 1166 
L 694 1166 
z
" transform="scale(0.015625)"/>
      <path id="DengXian-672a" d="M 331 -244 
Q 1650 325 2625 2144 
L 1019 2144 
Q 819 2150 531 2106 
L 531 2516 
Q 800 2472 1006 2478 
L 2950 2478 
L 2950 3500 
L 1550 3500 
Q 1338 3506 1088 3463 
L 1088 3872 
Q 1325 3828 1528 3834 
L 2950 3834 
L 2950 4481 
Q 2956 4775 2913 5038 
L 3397 4972 
Q 3481 4966 3481 4947 
Q 3488 4928 3425 4891 
Q 3316 4844 3322 4469 
L 3322 3834 
L 4697 3834 
Q 4891 3828 5166 3872 
L 5166 3463 
Q 4897 3506 4697 3500 
L 3322 3500 
L 3322 2478 
L 5313 2478 
Q 5491 2472 5747 2516 
L 5747 2106 
Q 5491 2150 5313 2144 
L 3647 2144 
Q 4306 569 6022 -141 
Q 5722 -269 5619 -506 
Q 3938 519 3322 2034 
L 3322 -422 
Q 3316 -750 3359 -997 
L 2913 -997 
Q 2956 -709 2950 -428 
L 2950 1991 
Q 1966 294 756 -575 
Q 616 -331 331 -244 
z
" transform="scale(0.015625)"/>
      <path id="DengXian-98ce" d="M 206 -459 
Q 838 128 1075 1166 
Q 1259 1938 1259 3163 
Q 1259 3559 1241 3994 
Q 1228 4300 1178 4628 
Q 1538 4588 1825 4588 
L 4538 4588 
Q 4850 4588 5178 4628 
Q 5172 4581 5153 4488 
Q 5094 4159 5094 4031 
Q 5053 3291 5053 2625 
Q 5053 1681 5141 1025 
Q 5313 -159 5678 -225 
Q 5825 -256 5825 200 
Q 5825 303 5819 416 
Q 5978 281 6228 184 
Q 6138 -697 5778 -738 
Q 4672 -709 4672 2756 
Q 4672 3481 4716 4294 
L 1631 4294 
Q 1666 3600 1666 3044 
Q 1666 1878 1522 1184 
Q 1331 172 634 -709 
Q 428 -563 206 -459 
z
M 1394 447 
Q 2175 850 3003 2022 
Q 2606 2450 1838 3169 
L 2088 3431 
Q 2631 2913 3188 2338 
Q 3681 3188 3816 3756 
L 4213 3572 
Q 4306 3525 4306 3506 
Q 4313 3481 4231 3450 
Q 4116 3400 4025 3213 
Q 3763 2663 3444 2059 
Q 4153 1300 4634 728 
L 4341 475 
Q 3803 1153 3238 1766 
Q 2584 844 1819 184 
Q 1625 347 1394 447 
z
" transform="scale(0.015625)"/>
      <path id="DengXian-5316" d="M 238 2034 
Q 1325 2931 2113 4972 
L 2584 4728 
Q 2650 4697 2644 4678 
Q 2644 4659 2572 4628 
Q 2431 4569 2291 4281 
Q 2100 3884 1875 3488 
L 1875 -319 
Q 1881 -575 1913 -922 
L 1478 -922 
Q 1516 -556 1516 -319 
L 1516 2894 
Q 1147 2303 684 1728 
Q 488 1900 238 2034 
z
M 3866 4250 
L 3866 1991 
Q 4897 2913 5447 3828 
L 5838 3488 
Q 5900 3438 5894 3414 
Q 5888 3391 5806 3366 
Q 5684 3366 5453 3091 
Q 4588 2106 3866 1484 
L 3866 44 
Q 3853 -244 3994 -294 
Q 4128 -372 4665 -372 
Q 5203 -372 5381 -294 
Q 5569 -231 5619 6 
Q 5663 206 5697 569 
Q 5850 428 6156 366 
Q 6144 306 6125 231 
Q 6094 97 6069 -6 
Q 5913 -728 5166 -722 
Q 4903 -731 4703 -731 
Q 4366 -731 4044 -709 
Q 3513 -659 3494 -134 
L 3494 1209 
Q 3066 903 2547 563 
Q 2350 831 2169 966 
Q 2681 1081 3494 1684 
L 3494 4269 
Q 3494 4469 3456 4878 
L 3950 4813 
Q 4019 4806 4019 4781 
Q 4025 4769 3969 4709 
Q 3859 4622 3866 4250 
z
" transform="scale(0.015625)"/>
      <path id="DengXian-805a" d="M 2956 4263 
L 2956 2484 
L 3250 2547 
Q 3225 2363 3225 2209 
L 2956 2144 
Q 2963 1934 2994 1716 
L 2559 1716 
Q 2584 1869 2597 2094 
Q 1222 1900 494 1747 
L 269 2163 
Q 481 2156 1006 2194 
L 1006 4263 
L 788 4263 
Q 603 4263 331 4225 
L 331 4622 
Q 603 4581 800 4581 
L 2875 4581 
Q 3059 4581 3347 4622 
L 3347 4225 
Q 3122 4256 2956 4263 
z
M 1363 2772 
L 1363 2241 
Q 2150 2309 2597 2406 
L 2597 2772 
L 1363 2772 
z
M 2597 3066 
L 2597 3500 
L 1363 3500 
L 1363 3066 
L 2597 3066 
z
M 1363 4263 
L 1363 3794 
L 2597 3794 
L 2597 4263 
L 1363 4263 
z
M 2400 1166 
L 2694 878 
Q 2753 819 2747 794 
Q 2731 775 2656 769 
Q 2497 763 2247 641 
Q 1631 353 678 72 
Q 575 281 341 428 
Q 1556 550 2400 1166 
z
M 3359 1356 
L 3359 959 
Q 3541 722 3803 506 
Q 4575 1006 5013 1484 
L 5388 1172 
Q 5459 1106 5447 1075 
Q 5434 1038 5331 1031 
Q 5153 1019 4978 897 
Q 4581 628 4063 300 
Q 4959 -269 6138 -359 
Q 5881 -525 5791 -813 
Q 4091 -325 3359 447 
L 3359 -428 
Q 3359 -659 3397 -972 
L 2963 -972 
Q 3003 -647 3003 -428 
L 3003 1313 
Q 2163 1216 1191 1159 
Q 1125 1394 953 1575 
Q 1334 1547 1716 1547 
Q 2338 1547 3016 1619 
Q 4050 1741 4481 1966 
L 4819 1606 
Q 4856 1566 4856 1544 
Q 4856 1534 4850 1528 
Q 4838 1503 4756 1509 
Q 4725 1513 4688 1513 
Q 4575 1513 4422 1484 
Q 3944 1409 3359 1356 
z
M 4366 2809 
Q 3950 3116 3397 3431 
L 3603 3700 
Q 4091 3419 4581 3072 
Q 4884 3450 5088 3950 
L 3841 3950 
Q 3647 3950 3366 3909 
L 3366 4306 
Q 3641 4269 3841 4269 
L 5131 4269 
Q 5356 4269 5663 4306 
Q 5253 3353 4856 2875 
Q 5338 2534 5900 2053 
L 5638 1741 
Q 5147 2228 4634 2606 
Q 4191 2203 3519 1813 
Q 3425 1947 3200 2094 
Q 3909 2388 4366 2809 
z
M 2509 469 
L 2859 213 
Q 2913 172 2906 141 
Q 2894 116 2822 109 
Q 2713 103 2547 -6 
Q 1766 -500 722 -903 
Q 622 -709 372 -569 
Q 1672 -300 2509 469 
z
" transform="scale(0.015625)"/>
      <path id="DengXian-7c7b" d="M 331 -581 
Q 2356 -353 2741 794 
L 966 794 
Q 672 794 441 763 
L 441 1159 
Q 947 1125 966 1125 
L 2803 1125 
Q 2834 1291 2834 1472 
Q 2834 1544 2828 1638 
L 3328 1575 
Q 3384 1563 3390 1530 
Q 3397 1497 3347 1453 
Q 3244 1375 3194 1125 
L 5466 1125 
Q 5863 1141 5978 1159 
L 5978 763 
Q 5672 794 5466 794 
L 3622 794 
Q 4453 -341 5959 -466 
Q 5697 -794 5631 -934 
Q 4006 -519 3175 794 
L 3128 794 
Q 2869 -494 634 -1044 
Q 441 -709 331 -581 
z
M 1119 3353 
L 3016 3353 
L 3016 4397 
Q 3009 4653 2975 4984 
L 3450 4922 
Q 3488 4906 3488 4878 
Q 3488 4847 3438 4794 
Q 3366 4775 3372 4366 
L 3372 3353 
L 5269 3353 
Q 5491 3359 5778 3391 
L 5778 2981 
Q 5478 3016 5269 3022 
L 3372 3022 
L 3372 2906 
Q 4775 2356 5472 1997 
L 5203 1600 
Q 4544 2088 3372 2547 
L 3372 2284 
Q 3378 2041 3413 1753 
L 2975 1753 
Q 3009 2047 3016 2278 
L 3016 2913 
Q 1869 1978 806 1569 
Q 703 1759 459 1997 
Q 1575 2150 2566 3022 
L 1119 3022 
Q 878 3016 603 2981 
L 603 3391 
Q 884 3359 1119 3353 
z
M 3622 3706 
Q 4353 4306 4641 4806 
L 5038 4500 
Q 5081 4459 5069 4422 
Q 5050 4391 4984 4384 
Q 4831 4366 4716 4238 
Q 4263 3731 3938 3456 
Q 3781 3591 3622 3706 
z
M 1472 4453 
L 1747 4716 
Q 2247 4219 2613 3788 
L 2278 3519 
Q 1925 4025 1472 4453 
z
" transform="scale(0.015625)"/>
      <path id="DengXian-56fe" d="M 2338 2753 
L 2584 3053 
Q 2719 2847 3072 2638 
Q 3397 2888 3719 3284 
L 2522 3284 
Q 2156 2841 1844 2522 
Q 1663 2694 1434 2803 
Q 2241 3219 2584 4141 
L 2994 4006 
Q 3059 3988 3059 3963 
Q 3059 3938 2994 3903 
Q 2906 3866 2713 3603 
L 3847 3603 
Q 4091 3609 4441 3641 
Q 3994 3003 3384 2450 
Q 4184 1978 5088 1850 
Q 4856 1619 4769 1422 
Q 3963 1722 3122 2203 
Q 2566 1784 1556 1369 
Q 1388 1606 1209 1734 
Q 2138 1953 2797 2425 
Q 2553 2584 2338 2753 
z
M 2309 722 
L 2478 1056 
Q 3353 697 4191 269 
L 3994 -50 
Q 3200 422 2309 722 
z
M 2675 1528 
L 2834 1819 
Q 3444 1550 3975 1259 
L 3809 941 
Q 3341 1241 2675 1528 
z
M 1159 -947 
L 722 -947 
Q 756 -616 763 -372 
L 763 3994 
Q 756 4256 722 4563 
Q 1063 4531 1319 4525 
L 5125 4525 
Q 5375 4531 5716 4563 
Q 5684 4244 5678 4006 
L 5678 -250 
Q 5684 -453 5716 -819 
L 5281 -819 
Q 5313 -628 5319 -453 
L 1119 -453 
Q 1125 -672 1159 -947 
z
M 1119 -147 
L 5319 -147 
L 5319 4206 
L 1119 4206 
L 1119 -147 
z
" transform="scale(0.015625)"/>
     </defs>
     <use xlink:href="#DengXian-9ad8"/>
     <use xlink:href="#DengXian-94be" x="100"/>
     <use xlink:href="#DengXian-2d" x="200"/>
     <use xlink:href="#DengXian-672a" x="250"/>
     <use xlink:href="#DengXian-98ce" x="350"/>
     <use xlink:href="#DengXian-5316" x="450"/>
     <use xlink:href="#DengXian-2d" x="550"/>
     <use xlink:href="#DengXian-805a" x="600"/>
     <use xlink:href="#DengXian-7c7b" x="700"/>
     <use xlink:href="#DengXian-56fe" x="800"/>
    </g>
   </g>
  </g>
 </g>
 <defs>
  <clipPath id="p30e0a5b101">
   <rect x="138.24" y="66.2688" width="857.088" height="425.2248"/>
  </clipPath>
 </defs>
</svg>
