<?xml version="1.0" encoding="utf-8" standalone="no"?>
<!DOCTYPE svg PUBLIC "-//W3C//DTD SVG 1.1//EN"
  "http://www.w3.org/Graphics/SVG/1.1/DTD/svg11.dtd">
<svg xmlns:xlink="http://www.w3.org/1999/xlink" width="1105.92pt" height="552.24pt" viewBox="0 0 1105.92 552.24" xmlns="http://www.w3.org/2000/svg" version="1.1">
 <metadata>
  <rdf:RDF xmlns:dc="http://purl.org/dc/elements/1.1/" xmlns:cc="http://creativecommons.org/ns#" xmlns:rdf="http://www.w3.org/1999/02/22-rdf-syntax-ns#">
   <cc:Work>
    <dc:type rdf:resource="http://purl.org/dc/dcmitype/StillImage"/>
    <dc:date>2024-04-04T11:57:13.335361</dc:date>
    <dc:format>image/svg+xml</dc:format>
    <dc:creator>
     <cc:Agent>
      <dc:title>Matplotlib v3.8.3, https://matplotlib.org/</dc:title>
     </cc:Agent>
    </dc:creator>
   </cc:Work>
  </rdf:RDF>
 </metadata>
 <defs>
  <style type="text/css">*{stroke-linejoin: round; stroke-linecap: butt}</style>
 </defs>
 <g id="figure_1">
  <g id="patch_1">
   <path d="M 0 552.24 
L 1105.92 552.24 
L 1105.92 0 
L 0 0 
z
" style="fill: #ffffff"/>
  </g>
  <g id="axes_1">
   <g id="patch_2">
    <path d="M 138.24 491.4936 
L 995.328 491.4936 
L 995.328 66.2688 
L 138.24 66.2688 
z
" style="fill: #ffffff"/>
   </g>
   <g id="patch_3">
    <path d="M 177.198545 491.4936 
L 212.217463 491.4936 
L 212.217463 78.514262 
L 177.198545 78.514262 
z
" clip-path="url(#p40c41e10b5)" style="fill: #338eca; stroke: #000000; stroke-width: 0.9; stroke-linejoin: miter"/>
   </g>
   <g id="patch_4">
    <path d="M 220.972192 491.4936 
L 255.991109 491.4936 
L 255.991109 153.183092 
L 220.972192 153.183092 
z
" clip-path="url(#p40c41e10b5)" style="fill: #e17547; stroke: #000000; stroke-width: 0.9; stroke-linejoin: miter"/>
   </g>
   <g id="matplotlib.axis_1">
    <g id="xtick_1">
     <g id="line2d_1">
      <defs>
       <path id="m9bfceb8e5e" d="M 0 0 
L 0 3.5 
" style="stroke: #000000; stroke-width: 0.8"/>
      </defs>
      <g>
       <use xlink:href="#m9bfceb8e5e" x="216.594827" y="491.4936" style="stroke: #000000; stroke-width: 0.8"/>
      </g>
     </g>
     <g id="text_1">
      <!-- 二氧化硅(SiO2) -->
      <g transform="translate(167.049124 510.21235) scale(0.15 -0.15)">
       <defs>
        <path id="DengXian-4e8c" d="M 459 -56 
L 459 353 
Q 750 306 934 313 
L 5422 313 
Q 5625 306 5941 353 
L 5941 -56 
Q 5606 -19 5403 -19 
L 947 -19 
Q 781 -19 459 -56 
z
M 991 3641 
L 991 4050 
Q 1281 4013 1472 4013 
L 4922 4013 
Q 5125 4006 5422 4050 
L 5422 3641 
Q 5106 3681 4916 3681 
L 1509 3681 
Q 1300 3681 991 3641 
z
" transform="scale(0.015625)"/>
        <path id="DengXian-6c27" d="M 1703 4275 
L 5153 4275 
Q 5538 4275 5753 4313 
L 5753 3916 
Q 5447 3956 5166 3956 
L 1544 3956 
Q 1253 3481 647 2828 
Q 531 2963 281 3097 
Q 1113 3591 1625 5000 
L 2075 4819 
Q 2131 4800 2131 4787 
Q 2131 4775 2075 4750 
Q 1913 4672 1831 4525 
Q 1825 4506 1797 4459 
Q 1741 4334 1703 4275 
z
M 1025 166 
L 2491 166 
L 2491 697 
L 1600 697 
Q 1288 697 1119 659 
L 1119 1044 
Q 1294 1006 1575 1006 
L 2491 1006 
L 2491 1497 
L 1319 1497 
Q 984 1497 806 1459 
L 806 1844 
Q 959 1806 1319 1806 
L 2088 1806 
Q 1900 2081 1563 2356 
L 1813 2584 
Q 2059 2381 2394 2009 
L 2203 1806 
L 3047 1806 
Q 3519 2316 3647 2631 
L 1497 2631 
Q 1178 2631 941 2591 
L 941 2988 
Q 1106 2950 1497 2950 
L 4563 2950 
Q 4941 2950 5172 2988 
Q 5100 2566 5081 2381 
Q 5066 2053 5066 1753 
Q 5066 472 5363 -91 
Q 5544 -425 5663 -425 
Q 5675 -425 5684 -422 
Q 5797 -372 5784 78 
Q 5959 -38 6175 -109 
Q 6169 -141 6150 -219 
Q 6100 -459 6047 -594 
Q 5931 -916 5759 -966 
Q 5734 -972 5700 -972 
Q 5547 -972 5375 -775 
Q 4953 -306 4813 447 
Q 4738 831 4716 1356 
Q 4709 1528 4709 1775 
Q 4709 2175 4728 2631 
L 3681 2631 
L 4031 2400 
Q 4091 2363 4084 2344 
Q 4078 2316 4000 2303 
Q 3853 2272 3756 2175 
Q 3675 2075 3475 1856 
Q 3444 1825 3431 1806 
L 3891 1806 
Q 4191 1806 4422 1844 
L 4422 1459 
Q 4166 1497 3891 1497 
L 2859 1497 
L 2859 1006 
L 3525 1006 
Q 3834 1006 4072 1044 
L 4072 659 
Q 3822 697 3531 697 
L 2859 697 
L 2859 166 
L 4038 166 
Q 4378 166 4609 206 
L 4609 -178 
Q 4378 -141 4044 -141 
L 2859 -141 
L 2859 -506 
Q 2859 -831 2900 -1013 
L 2450 -1013 
Q 2491 -831 2491 -513 
L 2491 -141 
L 1025 -141 
Q 684 -141 538 -178 
L 538 206 
Q 697 166 1025 166 
z
M 5388 3647 
L 5388 3250 
Q 5159 3291 4838 3291 
L 2047 3291 
Q 1697 3291 1497 3250 
L 1497 3647 
Q 1691 3609 2053 3609 
L 4838 3609 
Q 5191 3609 5388 3647 
z
" transform="scale(0.015625)"/>
        <path id="DengXian-5316" d="M 238 2034 
Q 1325 2931 2113 4972 
L 2584 4728 
Q 2650 4697 2644 4678 
Q 2644 4659 2572 4628 
Q 2431 4569 2291 4281 
Q 2100 3884 1875 3488 
L 1875 -319 
Q 1881 -575 1913 -922 
L 1478 -922 
Q 1516 -556 1516 -319 
L 1516 2894 
Q 1147 2303 684 1728 
Q 488 1900 238 2034 
z
M 3866 4250 
L 3866 1991 
Q 4897 2913 5447 3828 
L 5838 3488 
Q 5900 3438 5894 3414 
Q 5888 3391 5806 3366 
Q 5684 3366 5453 3091 
Q 4588 2106 3866 1484 
L 3866 44 
Q 3853 -244 3994 -294 
Q 4128 -372 4665 -372 
Q 5203 -372 5381 -294 
Q 5569 -231 5619 6 
Q 5663 206 5697 569 
Q 5850 428 6156 366 
Q 6144 306 6125 231 
Q 6094 97 6069 -6 
Q 5913 -728 5166 -722 
Q 4903 -731 4703 -731 
Q 4366 -731 4044 -709 
Q 3513 -659 3494 -134 
L 3494 1209 
Q 3066 903 2547 563 
Q 2350 831 2169 966 
Q 2681 1081 3494 1684 
L 3494 4269 
Q 3494 4469 3456 4878 
L 3950 4813 
Q 4019 4806 4019 4781 
Q 4025 4769 3969 4709 
Q 3859 4622 3866 4250 
z
" transform="scale(0.015625)"/>
        <path id="DengXian-7845" d="M 4219 2400 
L 4219 3488 
L 3541 3488 
Q 3250 3488 3059 3450 
L 3059 3847 
Q 3219 3809 3525 3809 
L 4219 3809 
L 4219 4353 
Q 4219 4716 4178 4903 
L 4678 4831 
Q 4738 4825 4738 4800 
Q 4744 4781 4697 4750 
Q 4563 4691 4575 4300 
L 4575 3809 
L 5447 3809 
Q 5772 3809 5913 3847 
L 5913 3450 
Q 5722 3488 5447 3488 
L 4575 3488 
L 4575 2400 
L 5528 2400 
Q 5831 2406 6003 2438 
L 6003 2041 
Q 5844 2081 5528 2081 
L 3256 2081 
Q 2969 2081 2784 2041 
L 2784 2438 
Q 2931 2400 3250 2400 
L 4219 2400 
z
M 184 1528 
Q 1147 2344 1394 3816 
L 903 3816 
Q 641 3816 428 3775 
L 428 4172 
Q 588 4134 897 4134 
L 2344 4134 
Q 2625 4134 2809 4172 
L 2809 3775 
Q 2631 3816 2344 3816 
L 1797 3816 
Q 1638 3072 1381 2478 
L 1997 2478 
Q 2338 2478 2566 2516 
Q 2528 2350 2528 2028 
L 2528 172 
Q 2528 -84 2566 -244 
L 2119 -244 
Q 2156 -84 2156 178 
L 1403 178 
Q 1403 -213 1441 -428 
L 1013 -428 
Q 1050 -250 1050 172 
L 1050 1881 
Q 909 1650 594 1281 
Q 416 1434 184 1528 
z
M 1409 2169 
L 1409 488 
L 2169 488 
L 2169 2169 
L 1409 2169 
z
M 4238 -341 
L 4238 728 
L 3519 728 
Q 3225 728 3047 691 
L 3047 1088 
Q 3181 1050 3513 1050 
L 4238 1050 
L 4238 1375 
Q 4238 1709 4197 1925 
L 4697 1856 
Q 4750 1850 4756 1831 
Q 4763 1813 4716 1778 
Q 4588 1709 4594 1325 
L 4594 1050 
L 5313 1050 
Q 5631 1050 5784 1088 
L 5784 691 
Q 5606 728 5313 728 
L 4594 728 
L 4594 -341 
L 5600 -341 
Q 5894 -341 6075 -300 
L 6075 -697 
Q 5881 -659 5600 -659 
L 3034 -659 
Q 2719 -659 2553 -697 
L 2553 -300 
Q 2675 -341 3028 -341 
L 4238 -341 
z
" transform="scale(0.015625)"/>
        <path id="DengXian-28" d="M 322 1413 
Q 322 2275 556 2912 
Q 791 3550 1341 4294 
L 1713 4294 
Q 1159 3544 920 2898 
Q 681 2253 681 1406 
Q 681 563 918 -82 
Q 1156 -728 1713 -1484 
L 1341 -1484 
Q 803 -763 562 -114 
Q 322 534 322 1413 
z
" transform="scale(0.015625)"/>
        <path id="DengXian-53" d="M 3022 938 
Q 3022 341 2662 14 
Q 2303 -313 1647 -313 
Q 456 -313 247 772 
L 638 853 
Q 728 419 978 225 
Q 1228 31 1647 31 
Q 2119 31 2367 259 
Q 2616 488 2616 913 
Q 2616 1156 2530 1311 
Q 2444 1466 2297 1567 
Q 2150 1669 1951 1734 
Q 1753 1800 1525 1872 
Q 1044 2019 826 2170 
Q 609 2322 490 2545 
Q 372 2769 372 3097 
Q 372 3631 700 3925 
Q 1028 4219 1613 4219 
Q 2166 4219 2489 3989 
Q 2813 3759 2934 3275 
L 2544 3178 
Q 2456 3541 2226 3711 
Q 1997 3881 1609 3881 
Q 1209 3881 992 3684 
Q 775 3488 775 3113 
Q 775 2878 859 2723 
Q 944 2569 1117 2459 
Q 1291 2350 1741 2209 
Q 2259 2044 2461 1930 
Q 2663 1816 2781 1677 
Q 2900 1538 2961 1356 
Q 3022 1175 3022 938 
z
" transform="scale(0.015625)"/>
        <path id="DengXian-69" d="M 516 3809 
L 516 4294 
L 913 4294 
L 913 3809 
L 516 3809 
z
M 516 -250 
L 516 2931 
L 913 2931 
L 913 -250 
L 516 -250 
z
" transform="scale(0.015625)"/>
        <path id="DengXian-4f" d="M 4503 1972 
Q 4503 1288 4248 766 
Q 3994 244 3523 -34 
Q 3053 -313 2419 -313 
Q 1772 -313 1303 -34 
Q 834 244 587 764 
Q 341 1284 341 1972 
Q 341 3022 892 3620 
Q 1444 4219 2425 4219 
Q 3066 4219 3534 3950 
Q 4003 3681 4253 3168 
Q 4503 2656 4503 1972 
z
M 4072 1972 
Q 4072 2850 3637 3356 
Q 3203 3863 2425 3863 
Q 1638 3863 1203 3364 
Q 769 2866 769 1972 
Q 769 1081 1211 561 
Q 1653 41 2419 41 
Q 3213 41 3642 550 
Q 4072 1059 4072 1972 
z
" transform="scale(0.015625)"/>
        <path id="DengXian-32" d="M 347 -250 
L 347 31 
Q 491 394 764 751 
Q 1038 1109 1566 1569 
Q 2109 2038 2326 2359 
Q 2544 2681 2544 3034 
Q 2544 3441 2316 3661 
Q 2088 3881 1681 3881 
Q 1313 3881 1077 3664 
Q 841 3447 800 3069 
L 400 3119 
Q 447 3613 795 3916 
Q 1144 4219 1684 4219 
Q 2281 4219 2615 3912 
Q 2950 3606 2950 3059 
Q 2950 2778 2850 2531 
Q 2750 2284 2550 2039 
Q 2350 1794 1869 1366 
Q 1025 616 803 103 
L 3016 103 
L 3016 -250 
L 347 -250 
z
" transform="scale(0.015625)"/>
        <path id="DengXian-29" d="M 1547 1403 
Q 1547 559 1314 -83 
Q 1081 -725 525 -1484 
L 156 -1484 
Q 709 -734 948 -89 
Q 1188 556 1188 1403 
Q 1188 2241 950 2887 
Q 713 3534 156 4294 
L 525 4294 
Q 1075 3553 1311 2909 
Q 1547 2266 1547 1403 
z
" transform="scale(0.015625)"/>
       </defs>
       <use xlink:href="#DengXian-4e8c"/>
       <use xlink:href="#DengXian-6c27" x="100"/>
       <use xlink:href="#DengXian-5316" x="200"/>
       <use xlink:href="#DengXian-7845" x="300"/>
       <use xlink:href="#DengXian-28" x="400"/>
       <use xlink:href="#DengXian-53" x="429.199219"/>
       <use xlink:href="#DengXian-69" x="480.615234"/>
       <use xlink:href="#DengXian-4f" x="502.978516"/>
       <use xlink:href="#DengXian-32" x="578.710938"/>
       <use xlink:href="#DengXian-29" x="631.396484"/>
      </g>
     </g>
    </g>
    <g id="xtick_2">
     <g id="line2d_2">
      <g>
       <use xlink:href="#m9bfceb8e5e" x="391.689414" y="491.4936" style="stroke: #000000; stroke-width: 0.8"/>
      </g>
     </g>
     <g id="text_2">
      <!-- 氧化钙(CaO) -->
      <g transform="translate(350.720664 510.21235) scale(0.15 -0.15)">
       <defs>
        <path id="DengXian-9499" d="M 6113 4494 
L 6113 4097 
Q 5813 4134 5600 4134 
L 4634 4134 
L 4634 3072 
L 5209 3072 
Q 5447 3072 5734 3109 
L 5734 2713 
Q 5441 2759 5222 2753 
L 4634 2753 
L 4634 1766 
L 5434 1766 
Q 5644 1766 5953 1806 
Q 5881 1484 5863 1141 
Q 5825 441 5784 19 
Q 5747 -525 5478 -672 
Q 5247 -838 4341 -891 
Q 4300 -628 4116 -384 
Q 4528 -434 4775 -434 
Q 5031 -434 5153 -384 
Q 5409 -313 5434 72 
Q 5484 581 5528 1447 
L 3578 1447 
Q 3384 1447 3053 1409 
Q 3097 1650 3116 1856 
L 3194 2875 
Q 3200 2950 3200 3066 
Q 3200 3250 3181 3469 
L 3622 3400 
Q 3694 3391 3700 3359 
Q 3706 3334 3647 3291 
Q 3547 3219 3531 2894 
L 3456 1766 
L 4275 1766 
L 4275 4134 
L 3456 4134 
Q 3272 4134 2938 4097 
L 2938 4494 
Q 3225 4453 3456 4453 
L 5594 4453 
Q 5806 4453 6113 4494 
z
M 238 3028 
Q 1106 3816 1563 4966 
L 1947 4775 
Q 2028 4738 2028 4697 
Q 2022 4666 1941 4628 
Q 1825 4581 1734 4428 
Q 1650 4275 1522 4063 
L 2253 4063 
Q 2450 4056 2778 4103 
L 2778 3706 
Q 2484 3744 2253 3744 
L 1331 3744 
Q 1044 3322 653 2834 
Q 500 2975 238 3028 
z
M 1069 1709 
L 1563 1709 
L 1563 2663 
L 1428 2663 
Q 1241 2663 909 2625 
L 909 3022 
Q 1228 2981 1428 2981 
L 2175 2981 
Q 2413 2981 2694 3022 
L 2694 2625 
Q 2394 2663 2188 2663 
L 1919 2663 
L 1919 1709 
L 2297 1709 
Q 2547 1703 2822 1747 
L 2822 1350 
Q 2528 1388 2309 1388 
L 1919 1388 
L 1919 -103 
Q 2478 269 2950 666 
Q 2981 416 3072 269 
Q 2328 -225 1691 -722 
L 1375 -319 
Q 1575 -219 1563 -25 
L 1563 1388 
L 1069 1388 
Q 891 1388 556 1350 
L 556 1747 
Q 863 1709 1069 1709 
z
" transform="scale(0.015625)"/>
        <path id="DengXian-43" d="M 2200 -313 
Q 1347 -313 864 298 
Q 381 909 381 1972 
Q 381 3034 875 3626 
Q 1369 4219 2244 4219 
Q 2803 4219 3186 3994 
Q 3569 3769 3784 3275 
L 3397 3113 
Q 3238 3513 2948 3688 
Q 2659 3863 2244 3863 
Q 1556 3863 1182 3359 
Q 809 2856 809 1972 
Q 809 1072 1182 556 
Q 1556 41 2219 41 
Q 2684 41 2984 266 
Q 3284 491 3431 878 
L 3797 709 
Q 3359 -313 2200 -313 
z
" transform="scale(0.015625)"/>
        <path id="DengXian-61" d="M 1381 16 
Q 1656 16 1870 145 
Q 2084 275 2206 501 
Q 2328 728 2328 978 
L 2328 1363 
L 1872 1350 
Q 1234 1334 964 1156 
Q 694 978 694 619 
Q 694 16 1381 16 
z
M 2725 -250 
L 2347 -250 
L 2328 316 
L 2316 316 
Q 1994 -313 1316 -313 
Q 819 -313 548 -67 
Q 278 178 278 613 
Q 278 1106 651 1365 
Q 1025 1625 1803 1647 
L 2325 1659 
L 2325 1788 
Q 2325 2238 2145 2452 
Q 1966 2666 1588 2666 
Q 1241 2666 1064 2555 
Q 888 2444 822 2181 
L 447 2259 
Q 547 2663 826 2828 
Q 1106 2994 1594 2994 
Q 2191 2994 2458 2697 
Q 2725 2400 2725 1753 
L 2725 -250 
z
" transform="scale(0.015625)"/>
       </defs>
       <use xlink:href="#DengXian-6c27"/>
       <use xlink:href="#DengXian-5316" x="100"/>
       <use xlink:href="#DengXian-9499" x="200"/>
       <use xlink:href="#DengXian-28" x="300"/>
       <use xlink:href="#DengXian-43" x="329.199219"/>
       <use xlink:href="#DengXian-61" x="391.210938"/>
       <use xlink:href="#DengXian-4f" x="441.308594"/>
       <use xlink:href="#DengXian-29" x="517.041016"/>
      </g>
     </g>
    </g>
    <g id="xtick_3">
     <g id="line2d_3">
      <g>
       <use xlink:href="#m9bfceb8e5e" x="566.784" y="491.4936" style="stroke: #000000; stroke-width: 0.8"/>
      </g>
     </g>
     <g id="text_3">
      <!-- 氧化铝(Al2O3) -->
      <g transform="translate(519.8715 510.21235) scale(0.15 -0.15)">
       <defs>
        <path id="DengXian-94dd" d="M 3003 1678 
Q 3353 1644 3634 1638 
L 5356 1638 
Q 5550 1638 5991 1678 
Q 5959 1344 5953 1134 
L 5953 -325 
Q 5959 -481 5991 -838 
L 5563 -838 
Q 5594 -634 5594 -422 
L 3384 -422 
Q 3384 -622 3425 -959 
L 3003 -959 
Q 3034 -641 3041 -422 
L 3041 1094 
Q 3041 1259 3003 1678 
z
M 3384 1319 
L 3384 -116 
L 5594 -116 
L 5594 1319 
L 3384 1319 
z
M 3213 4506 
Q 3634 4469 3834 4469 
L 5106 4469 
Q 5313 4469 5709 4506 
Q 5678 4184 5672 3969 
L 5672 2925 
Q 5678 2766 5709 2394 
Q 5281 2431 5081 2431 
L 3834 2431 
Q 3634 2431 3213 2394 
Q 3244 2734 3250 2950 
L 3250 3916 
Q 3244 4128 3213 4506 
z
M 3597 4147 
L 3597 2753 
L 5325 2753 
L 5325 4147 
L 3597 4147 
z
M 213 3009 
Q 1069 3756 1478 4947 
L 1888 4763 
Q 1991 4716 1991 4684 
Q 1997 4653 1900 4609 
Q 1806 4556 1741 4459 
Q 1663 4359 1388 3884 
L 2472 3884 
Q 2706 3891 2994 3922 
L 2994 3525 
Q 2644 3566 2478 3566 
L 1184 3566 
Q 897 3144 603 2778 
Q 441 2938 213 3009 
z
M 978 1569 
L 1538 1569 
L 1538 2503 
L 1325 2503 
Q 1131 2497 800 2463 
L 800 2859 
Q 1141 2822 1325 2822 
L 2203 2822 
Q 2375 2822 2719 2859 
L 2719 2463 
Q 2431 2497 2216 2503 
L 1881 2503 
L 1881 1569 
L 2344 1569 
Q 2541 1575 2869 1606 
L 2869 1209 
Q 2541 1241 2356 1247 
L 1881 1247 
L 1881 -178 
Q 2253 38 2663 403 
Q 2688 206 2759 -13 
Q 1966 -481 1581 -838 
Q 1497 -609 1313 -416 
Q 1544 -281 1538 -91 
L 1538 1247 
L 978 1247 
Q 775 1241 469 1209 
L 469 1606 
Q 788 1575 978 1569 
z
" transform="scale(0.015625)"/>
        <path id="DengXian-41" d="M 3559 -250 
L 3031 1125 
L 1047 1125 
L 519 -250 
L 75 -250 
L 1794 4153 
L 2291 4153 
L 4000 -250 
L 3559 -250 
z
M 2034 3806 
Q 1975 3613 1906 3419 
Q 1838 3225 1766 3034 
L 1166 1472 
L 2913 1472 
L 2319 3038 
Q 2247 3231 2178 3422 
Q 2109 3613 2047 3806 
L 2034 3806 
z
" transform="scale(0.015625)"/>
        <path id="DengXian-6c" d="M 516 -250 
L 516 4294 
L 913 4294 
L 913 -250 
L 516 -250 
z
" transform="scale(0.015625)"/>
        <path id="DengXian-33" d="M 3019 963 
Q 3019 356 2662 21 
Q 2306 -313 1656 -313 
Q 409 -313 266 828 
L 669 872 
Q 778 25 1656 25 
Q 2122 25 2367 262 
Q 2613 500 2613 963 
Q 2613 1375 2320 1590 
Q 2028 1806 1500 1806 
L 1200 1806 
L 1200 2172 
L 1491 2172 
Q 1784 2172 2011 2269 
Q 2238 2366 2369 2555 
Q 2500 2744 2500 3022 
Q 2500 3434 2283 3659 
Q 2066 3884 1644 3884 
Q 1266 3884 1027 3689 
Q 788 3494 747 3091 
L 353 3125 
Q 413 3647 755 3933 
Q 1097 4219 1647 4219 
Q 2244 4219 2573 3914 
Q 2903 3609 2903 3056 
Q 2903 2653 2672 2376 
Q 2441 2100 2022 2009 
L 2022 1997 
Q 2491 1938 2755 1658 
Q 3019 1378 3019 963 
z
" transform="scale(0.015625)"/>
       </defs>
       <use xlink:href="#DengXian-6c27"/>
       <use xlink:href="#DengXian-5316" x="100"/>
       <use xlink:href="#DengXian-94dd" x="200"/>
       <use xlink:href="#DengXian-28" x="300"/>
       <use xlink:href="#DengXian-41" x="329.199219"/>
       <use xlink:href="#DengXian-6c" x="392.822266"/>
       <use xlink:href="#DengXian-32" x="415.185547"/>
       <use xlink:href="#DengXian-4f" x="467.871094"/>
       <use xlink:href="#DengXian-33" x="543.603516"/>
       <use xlink:href="#DengXian-29" x="596.289062"/>
      </g>
     </g>
    </g>
    <g id="xtick_4">
     <g id="line2d_4">
      <g>
       <use xlink:href="#m9bfceb8e5e" x="741.878586" y="491.4936" style="stroke: #000000; stroke-width: 0.8"/>
      </g>
     </g>
     <g id="text_4">
      <!-- 氧化铜(CuO) -->
      <g transform="translate(700.536008 510.21235) scale(0.15 -0.15)">
       <defs>
        <path id="DengXian-94dc" d="M 2900 4544 
Q 3256 4513 3481 4506 
L 5394 4506 
Q 5650 4513 5959 4544 
Q 5925 4256 5919 4006 
L 5919 -281 
Q 5931 -634 5709 -750 
Q 5497 -878 4831 -909 
Q 4831 -653 4684 -403 
Q 5056 -459 5238 -459 
Q 5363 -459 5422 -434 
Q 5588 -403 5575 -147 
L 5575 4200 
L 3284 4200 
L 3284 -378 
L 3322 -891 
L 2894 -891 
Q 2919 -634 2938 -378 
L 2938 3988 
Q 2931 4225 2900 4544 
z
M 5259 3419 
L 5259 3034 
Q 5006 3066 4756 3072 
L 4078 3072 
Q 3859 3066 3559 3034 
L 3559 3419 
Q 3841 3384 4078 3378 
L 4756 3378 
Q 5013 3384 5259 3419 
z
M 3688 603 
Q 3719 903 3725 1094 
L 3725 1825 
Q 3719 2028 3688 2338 
Q 3988 2303 4219 2297 
L 4672 2297 
Q 4916 2303 5178 2338 
Q 5147 2069 5141 1844 
L 5141 1088 
Q 5147 884 5178 603 
Q 4903 634 4672 641 
L 4225 641 
Q 3994 634 3688 603 
z
M 4044 1991 
L 4044 947 
L 4819 947 
L 4819 1991 
L 4044 1991 
z
M 225 3078 
Q 1006 3513 1522 4934 
L 1966 4728 
Q 2022 4703 2015 4672 
Q 2009 4641 1941 4616 
Q 1797 4563 1656 4300 
Q 1606 4206 1491 4000 
Q 1447 3922 1428 3891 
L 2194 3891 
Q 2444 3897 2700 3928 
L 2700 3534 
Q 2450 3566 2194 3572 
L 1247 3572 
Q 916 3128 653 2847 
Q 500 3003 225 3078 
z
M 1044 1581 
L 1422 1581 
L 1422 2528 
L 1288 2528 
Q 1081 2522 781 2491 
L 781 2888 
Q 1063 2853 1288 2847 
L 1931 2847 
Q 2181 2853 2438 2888 
L 2438 2491 
Q 2169 2522 1931 2528 
L 1766 2528 
L 1766 1581 
L 2156 1581 
Q 2375 1588 2675 1619 
L 2675 1222 
Q 2388 1253 2156 1259 
L 1766 1259 
L 1766 -134 
Q 2241 153 2566 441 
Q 2578 206 2675 56 
Q 1678 -588 1497 -800 
Q 1300 -506 1184 -384 
Q 1356 -275 1388 -197 
Q 1428 -134 1422 153 
L 1422 1259 
L 1044 1259 
Q 831 1253 525 1222 
L 525 1619 
Q 831 1588 1044 1581 
z
" transform="scale(0.015625)"/>
        <path id="DengXian-75" d="M 878 2931 
L 878 1066 
Q 878 509 1068 262 
Q 1259 16 1663 16 
Q 2103 16 2358 333 
Q 2613 650 2613 1188 
L 2613 2931 
L 3013 2931 
L 3013 459 
Q 3013 281 3020 104 
Q 3028 -72 3034 -250 
L 2675 -250 
L 2638 353 
L 2625 353 
Q 2459 13 2204 -150 
Q 1950 -313 1556 -313 
Q 1009 -313 745 0 
Q 481 313 481 969 
L 481 2931 
L 878 2931 
z
" transform="scale(0.015625)"/>
       </defs>
       <use xlink:href="#DengXian-6c27"/>
       <use xlink:href="#DengXian-5316" x="100"/>
       <use xlink:href="#DengXian-94dc" x="200"/>
       <use xlink:href="#DengXian-28" x="300"/>
       <use xlink:href="#DengXian-43" x="329.199219"/>
       <use xlink:href="#DengXian-75" x="391.210938"/>
       <use xlink:href="#DengXian-4f" x="446.289062"/>
       <use xlink:href="#DengXian-29" x="522.021484"/>
      </g>
     </g>
    </g>
    <g id="xtick_5">
     <g id="line2d_5">
      <g>
       <use xlink:href="#m9bfceb8e5e" x="916.973173" y="491.4936" style="stroke: #000000; stroke-width: 0.8"/>
      </g>
     </g>
     <g id="text_5">
      <!-- 五氧化二磷(P2O5) -->
      <g transform="translate(857.37161 510.21235) scale(0.15 -0.15)">
       <defs>
        <path id="DengXian-4e94" d="M 459 -519 
L 459 -122 
Q 703 -166 903 -159 
L 2194 -159 
L 2491 2113 
L 1806 2088 
Q 1484 2075 1209 2041 
L 1209 2491 
Q 1381 2456 1491 2450 
Q 1594 2444 1825 2444 
L 2534 2444 
L 2766 4103 
L 1222 4103 
Q 1044 4109 788 4063 
L 788 4475 
Q 1050 4428 1216 4434 
L 5241 4434 
Q 5453 4428 5625 4475 
L 5625 4063 
Q 5403 4109 5241 4103 
L 3128 4103 
L 2913 2444 
L 4184 2478 
Q 4603 2478 4966 2547 
Q 4916 2322 4897 1984 
L 4728 -159 
L 5600 -159 
Q 5791 -166 6009 -122 
L 6009 -519 
Q 5747 -475 5600 -481 
L 909 -481 
Q 697 -475 459 -519 
z
M 2881 2119 
L 2566 -159 
L 4366 -159 
L 4519 2144 
L 2881 2119 
z
" transform="scale(0.015625)"/>
        <path id="DengXian-78f7" d="M 3103 2253 
L 3513 2113 
Q 3566 2100 3559 2076 
Q 3553 2053 3494 2028 
Q 3438 1997 3384 1925 
Q 3322 1806 3263 1703 
L 3603 1703 
Q 3803 1697 4038 1741 
Q 3975 -122 2509 -838 
Q 2369 -666 2169 -531 
Q 2809 -341 3256 238 
Q 3009 441 2784 588 
L 3003 838 
Q 3225 684 3431 519 
Q 3591 878 3653 1381 
L 3103 1381 
Q 2875 978 2663 738 
Q 2509 850 2322 928 
Q 2834 1403 3103 2253 
z
M 2444 2450 
Q 3303 2706 3781 3316 
L 2988 3316 
Q 2778 3322 2509 3278 
L 2509 3675 
Q 2759 3628 2975 3634 
L 4097 3634 
L 4097 4447 
Q 4103 4684 4056 4991 
L 4563 4928 
Q 4622 4922 4622 4903 
Q 4622 4884 4563 4831 
Q 4441 4763 4453 4397 
L 4453 3634 
L 5625 3634 
Q 5850 3628 6094 3675 
L 6094 3278 
Q 5813 3322 5625 3316 
L 4716 3316 
Q 5394 2656 6169 2478 
Q 5875 2328 5806 2138 
Q 5050 2491 4453 3128 
L 4453 2591 
Q 4447 2356 4494 2053 
L 4056 2053 
Q 4103 2328 4097 2600 
L 4097 3169 
Q 3475 2509 2778 2138 
Q 2613 2356 2444 2450 
z
M 2753 4563 
L 3016 4794 
Q 3322 4513 3803 4019 
L 3547 3775 
Q 3097 4269 2753 4563 
z
M 4197 1228 
L 4581 1159 
Q 4678 1147 4672 1119 
Q 4678 1094 4581 1038 
Q 4531 1013 4513 897 
Q 4488 684 4453 544 
L 4997 544 
L 4997 1394 
L 4794 1394 
Q 4588 1403 4313 1356 
L 4313 1753 
Q 4525 1709 4788 1716 
L 4997 1716 
Q 4997 1978 4959 2278 
L 5453 2216 
Q 5503 2209 5503 2182 
Q 5503 2156 5447 2113 
Q 5356 2059 5356 1716 
L 5491 1716 
Q 5716 1709 5966 1753 
L 5966 1356 
Q 5697 1403 5491 1394 
L 5356 1394 
L 5356 544 
L 5644 544 
Q 5856 544 6119 581 
L 6119 184 
Q 5850 225 5644 225 
L 5356 225 
L 5356 -378 
Q 5350 -666 5394 -909 
L 4959 -909 
Q 5006 -678 4997 -384 
L 4997 225 
L 4556 225 
Q 4347 225 4019 184 
Q 4159 563 4197 1228 
z
M 4666 3928 
Q 5113 4334 5331 4800 
L 5753 4550 
Q 5797 4528 5797 4506 
Q 5797 4500 5791 4494 
Q 5778 4481 5750 4481 
Q 5738 4481 5703 4488 
Q 5625 4481 5538 4397 
Q 5288 4084 4959 3738 
L 4666 3928 
z
M 256 2016 
Q 1056 2706 1394 3988 
L 916 3988 
Q 709 3994 441 3950 
L 441 4347 
Q 709 4300 909 4306 
L 2125 4306 
Q 2328 4300 2597 4347 
L 2597 3950 
Q 2303 3994 2125 3988 
L 1759 3988 
Q 1538 3238 1259 2681 
L 1850 2681 
Q 2047 2681 2316 2719 
Q 2272 2478 2278 2228 
L 2278 569 
Q 2272 238 2316 19 
L 1881 19 
Q 1919 206 1919 422 
L 1300 422 
Q 1300 178 1306 50 
Q 1313 -84 1338 -250 
L 903 -250 
Q 947 -13 941 313 
L 941 2228 
Q 863 2069 659 1791 
Q 447 1941 256 2016 
z
M 1300 2363 
L 1300 744 
L 1919 744 
L 1919 2363 
L 1300 2363 
z
" transform="scale(0.015625)"/>
        <path id="DengXian-50" d="M 3256 2856 
Q 3256 2466 3078 2161 
Q 2900 1856 2564 1687 
Q 2228 1519 1772 1519 
L 1022 1519 
L 1022 -250 
L 603 -250 
L 603 4153 
L 1747 4153 
Q 2463 4153 2859 3809 
Q 3256 3466 3256 2856 
z
M 2831 2850 
Q 2831 3306 2545 3561 
Q 2259 3816 1694 3816 
L 1022 3816 
L 1022 1850 
L 1722 1850 
Q 2253 1850 2542 2111 
Q 2831 2372 2831 2850 
z
" transform="scale(0.015625)"/>
        <path id="DengXian-35" d="M 3047 1169 
Q 3047 469 2676 78 
Q 2306 -313 1641 -313 
Q 575 -313 366 672 
L 763 734 
Q 859 350 1075 186 
Q 1291 22 1669 22 
Q 2134 22 2387 315 
Q 2641 609 2641 1153 
Q 2641 1619 2392 1895 
Q 2144 2172 1713 2172 
Q 1459 2172 1265 2095 
Q 1072 2019 875 1844 
L 503 1844 
L 641 4153 
L 2828 4153 
L 2828 3816 
L 997 3816 
L 894 2222 
Q 1113 2381 1323 2442 
Q 1534 2503 1775 2503 
Q 2359 2503 2703 2142 
Q 3047 1781 3047 1169 
z
" transform="scale(0.015625)"/>
       </defs>
       <use xlink:href="#DengXian-4e94"/>
       <use xlink:href="#DengXian-6c27" x="100"/>
       <use xlink:href="#DengXian-5316" x="200"/>
       <use xlink:href="#DengXian-4e8c" x="300"/>
       <use xlink:href="#DengXian-78f7" x="400"/>
       <use xlink:href="#DengXian-28" x="500"/>
       <use xlink:href="#DengXian-50" x="529.199219"/>
       <use xlink:href="#DengXian-32" x="584.375"/>
       <use xlink:href="#DengXian-4f" x="637.060547"/>
       <use xlink:href="#DengXian-35" x="712.792969"/>
       <use xlink:href="#DengXian-29" x="765.478516"/>
      </g>
     </g>
    </g>
   </g>
   <g id="matplotlib.axis_2">
    <g id="ytick_1">
     <g id="line2d_6">
      <defs>
       <path id="m189caecfd3" d="M 0 0 
L -3.5 0 
" style="stroke: #000000; stroke-width: 0.8"/>
      </defs>
      <g>
       <use xlink:href="#m189caecfd3" x="138.24" y="491.4936" style="stroke: #000000; stroke-width: 0.8"/>
      </g>
     </g>
     <g id="text_6">
      <!-- 0 -->
      <g transform="translate(123.336875 496.525631) scale(0.15 -0.15)">
       <defs>
        <path id="DengXian-30" d="M 3106 1953 
Q 3106 850 2750 268 
Q 2394 -313 1697 -313 
Q 1006 -313 654 256 
Q 303 825 303 1953 
Q 303 3100 645 3659 
Q 988 4219 1719 4219 
Q 2422 4219 2764 3656 
Q 3106 3094 3106 1953 
z
M 2706 1953 
Q 2706 2963 2473 3425 
Q 2241 3888 1716 3888 
Q 1172 3888 936 3423 
Q 700 2959 700 1953 
Q 700 969 944 495 
Q 1188 22 1703 22 
Q 2216 22 2461 508 
Q 2706 994 2706 1953 
z
" transform="scale(0.015625)"/>
       </defs>
       <use xlink:href="#DengXian-30"/>
      </g>
     </g>
    </g>
    <g id="ytick_2">
     <g id="line2d_7">
      <g>
       <use xlink:href="#m189caecfd3" x="138.24" y="430.7472" style="stroke: #000000; stroke-width: 0.8"/>
      </g>
     </g>
     <g id="text_7">
      <!-- 10 -->
      <g transform="translate(115.43375 435.779231) scale(0.15 -0.15)">
       <defs>
        <path id="DengXian-31" d="M 484 -250 
L 484 84 
L 1609 84 
L 1609 3744 
L 603 3075 
L 603 3434 
L 1653 4153 
L 2000 4153 
L 2000 84 
L 2959 84 
L 2959 -250 
L 484 -250 
z
" transform="scale(0.015625)"/>
       </defs>
       <use xlink:href="#DengXian-31"/>
       <use xlink:href="#DengXian-30" x="52.685547"/>
      </g>
     </g>
    </g>
    <g id="ytick_3">
     <g id="line2d_8">
      <g>
       <use xlink:href="#m189caecfd3" x="138.24" y="370.0008" style="stroke: #000000; stroke-width: 0.8"/>
      </g>
     </g>
     <g id="text_8">
      <!-- 20 -->
      <g transform="translate(115.43375 375.032831) scale(0.15 -0.15)">
       <use xlink:href="#DengXian-32"/>
       <use xlink:href="#DengXian-30" x="52.685547"/>
      </g>
     </g>
    </g>
    <g id="ytick_4">
     <g id="line2d_9">
      <g>
       <use xlink:href="#m189caecfd3" x="138.24" y="309.2544" style="stroke: #000000; stroke-width: 0.8"/>
      </g>
     </g>
     <g id="text_9">
      <!-- 30 -->
      <g transform="translate(115.43375 314.286431) scale(0.15 -0.15)">
       <use xlink:href="#DengXian-33"/>
       <use xlink:href="#DengXian-30" x="52.685547"/>
      </g>
     </g>
    </g>
    <g id="ytick_5">
     <g id="line2d_10">
      <g>
       <use xlink:href="#m189caecfd3" x="138.24" y="248.508" style="stroke: #000000; stroke-width: 0.8"/>
      </g>
     </g>
     <g id="text_10">
      <!-- 40 -->
      <g transform="translate(115.43375 253.540031) scale(0.15 -0.15)">
       <defs>
        <path id="DengXian-34" d="M 2516 803 
L 2516 -250 
L 2125 -250 
L 2125 803 
L 141 803 
L 141 1116 
L 2088 4153 
L 2516 4153 
L 2516 1131 
L 3113 1131 
L 3113 803 
L 2516 803 
z
M 2125 3628 
L 538 1131 
L 2125 1131 
L 2125 3628 
z
" transform="scale(0.015625)"/>
       </defs>
       <use xlink:href="#DengXian-34"/>
       <use xlink:href="#DengXian-30" x="52.685547"/>
      </g>
     </g>
    </g>
    <g id="ytick_6">
     <g id="line2d_11">
      <g>
       <use xlink:href="#m189caecfd3" x="138.24" y="187.7616" style="stroke: #000000; stroke-width: 0.8"/>
      </g>
     </g>
     <g id="text_11">
      <!-- 50 -->
      <g transform="translate(115.43375 192.793631) scale(0.15 -0.15)">
       <use xlink:href="#DengXian-35"/>
       <use xlink:href="#DengXian-30" x="52.685547"/>
      </g>
     </g>
    </g>
    <g id="ytick_7">
     <g id="line2d_12">
      <g>
       <use xlink:href="#m189caecfd3" x="138.24" y="127.0152" style="stroke: #000000; stroke-width: 0.8"/>
      </g>
     </g>
     <g id="text_12">
      <!-- 60 -->
      <g transform="translate(115.43375 132.047231) scale(0.15 -0.15)">
       <defs>
        <path id="DengXian-36" d="M 3047 1191 
Q 3047 491 2697 89 
Q 2347 -313 1747 -313 
Q 1075 -313 720 234 
Q 366 781 366 1850 
Q 366 3031 739 3625 
Q 1113 4219 1841 4219 
Q 2284 4219 2553 4026 
Q 2822 3834 2944 3428 
L 2566 3344 
Q 2400 3888 1816 3888 
Q 1303 3888 1033 3402 
Q 763 2916 756 1969 
Q 913 2263 1183 2417 
Q 1453 2572 1800 2572 
Q 2372 2572 2709 2201 
Q 3047 1831 3047 1191 
z
M 2647 1166 
Q 2647 1675 2405 1964 
Q 2163 2253 1716 2253 
Q 1466 2253 1256 2137 
Q 1047 2022 926 1806 
Q 806 1591 806 1306 
Q 806 747 1064 383 
Q 1322 19 1738 19 
Q 2166 19 2406 325 
Q 2647 631 2647 1166 
z
" transform="scale(0.015625)"/>
       </defs>
       <use xlink:href="#DengXian-36"/>
       <use xlink:href="#DengXian-30" x="52.685547"/>
      </g>
     </g>
    </g>
    <g id="ytick_8">
     <g id="line2d_13">
      <g>
       <use xlink:href="#m189caecfd3" x="138.24" y="66.2688" style="stroke: #000000; stroke-width: 0.8"/>
      </g>
     </g>
     <g id="text_13">
      <!-- 70 -->
      <g transform="translate(115.43375 71.300831) scale(0.15 -0.15)">
       <defs>
        <path id="DengXian-37" d="M 3031 3809 
Q 2278 2631 1928 1634 
Q 1578 638 1578 -250 
L 1172 -250 
Q 1172 625 1545 1651 
Q 1919 2678 2638 3797 
L 331 3797 
L 331 4153 
L 3031 4153 
L 3031 3809 
z
" transform="scale(0.015625)"/>
       </defs>
       <use xlink:href="#DengXian-37"/>
       <use xlink:href="#DengXian-30" x="52.685547"/>
      </g>
     </g>
    </g>
    <g id="text_14">
     <!-- 含量(单位: %) -->
     <g transform="translate(107.955625 320.710106) rotate(-90) scale(0.15 -0.15)">
      <defs>
       <path id="DengXian-542b" d="M 2950 5025 
L 3500 4891 
Q 3531 4884 3541 4856 
Q 3541 4831 3506 4819 
Q 3450 4800 3366 4716 
Q 4569 3150 6253 2809 
Q 5972 2638 5747 2381 
Q 4019 3231 3156 4447 
Q 2259 3163 609 2316 
Q 409 2534 178 2700 
Q 2169 3303 2950 5025 
z
M 1338 1216 
Q 1672 1184 1906 1178 
L 3278 1178 
Q 3144 1275 3028 1350 
Q 3500 1638 3963 2309 
L 2059 2309 
Q 1831 2303 1538 2272 
L 1538 2669 
Q 1819 2638 2059 2631 
L 4109 2631 
Q 4353 2638 4684 2669 
Q 4128 1850 3506 1178 
L 4519 1178 
Q 4775 1184 5081 1216 
Q 5050 897 5044 659 
L 5044 -384 
Q 5050 -691 5081 -947 
L 4647 -947 
Q 4678 -750 4684 -594 
L 1734 -594 
Q 1747 -825 1772 -1019 
L 1338 -1019 
Q 1369 -722 1375 -447 
L 1375 659 
Q 1369 891 1338 1216 
z
M 1734 856 
L 1734 -275 
L 4684 -275 
L 4684 856 
L 1734 856 
z
M 2644 3431 
L 2913 3706 
Q 3309 3400 3688 3078 
L 3413 2766 
Q 3072 3138 2644 3431 
z
" transform="scale(0.015625)"/>
       <path id="DengXian-91cf" d="M 6106 2797 
L 6106 2425 
Q 5825 2472 5588 2463 
L 844 2463 
Q 616 2472 325 2425 
L 325 2797 
Q 550 2753 844 2759 
L 5588 2759 
Q 5813 2753 6106 2797 
z
M 5203 4622 
Q 5159 4397 5166 4178 
L 5166 3463 
Q 5159 3278 5203 3009 
Q 4903 3053 4744 3047 
L 1778 3047 
Q 1575 3047 1478 3041 
Q 1388 3034 1253 3009 
Q 1300 3263 1294 3456 
L 1294 4134 
Q 1294 4353 1253 4622 
Q 1453 4575 1747 4581 
L 4756 4581 
Q 4941 4575 5203 4622 
z
M 1638 4313 
L 1638 3950 
L 4819 3950 
L 4819 4313 
L 1638 4313 
z
M 1638 3681 
L 1638 3316 
L 4819 3316 
L 4819 3681 
L 1638 3681 
z
M 1006 -434 
L 3097 -434 
L 3097 -78 
L 1478 -78 
Q 1184 -72 953 -116 
L 953 256 
Q 1184 213 1478 219 
L 3097 219 
L 3097 588 
L 1734 588 
Q 1447 594 1203 550 
Q 1247 844 1241 1081 
L 1241 1691 
Q 1247 1919 1203 2216 
Q 1478 2169 1716 2175 
L 4775 2175 
Q 5013 2169 5325 2216 
Q 5281 1934 5288 1697 
L 5288 1081 
Q 5281 813 5325 550 
Q 4997 588 4775 588 
L 3456 588 
L 3456 219 
L 4978 219 
Q 5203 213 5503 256 
L 5503 -116 
Q 5216 -72 4978 -78 
L 3456 -78 
L 3456 -434 
L 5453 -434 
Q 5672 -441 5978 -397 
L 5978 -769 
Q 5663 -722 5453 -728 
L 1006 -728 
Q 781 -722 481 -775 
L 481 -397 
Q 722 -441 1006 -434 
z
M 3456 1253 
L 3456 856 
L 4941 856 
L 4941 1253 
L 3456 1253 
z
M 3456 1906 
L 3456 1522 
L 4941 1522 
L 4941 1906 
L 3456 1906 
z
M 1588 1253 
L 1588 856 
L 3097 856 
L 3097 1253 
L 1588 1253 
z
M 1588 1906 
L 1588 1522 
L 3097 1522 
L 3097 1906 
L 1588 1906 
z
" transform="scale(0.015625)"/>
       <path id="DengXian-5355" d="M 825 769 
L 3059 769 
L 3059 1416 
L 1791 1416 
Q 1575 1416 1247 1375 
Q 1288 1716 1288 1919 
L 1288 3328 
Q 1288 3525 1247 3903 
Q 1588 3866 1806 3866 
L 3616 3866 
Q 4019 4391 4359 5056 
L 4781 4831 
Q 4844 4800 4831 4764 
Q 4819 4728 4722 4691 
Q 4622 4653 4544 4544 
Q 4325 4244 4031 3866 
L 4672 3866 
Q 4897 3866 5259 3903 
Q 5222 3547 5222 3328 
L 5222 1894 
Q 5222 1703 5259 1375 
Q 4953 1422 4709 1416 
L 3431 1416 
L 3431 769 
L 5491 769 
Q 5672 769 5991 806 
L 5991 409 
Q 5691 447 5491 447 
L 3431 447 
L 3431 -494 
Q 3431 -728 3469 -1088 
L 3022 -1088 
Q 3059 -703 3059 -494 
L 3059 447 
L 825 447 
Q 628 453 313 409 
L 313 806 
Q 641 769 825 769 
z
M 1644 2491 
L 1644 1734 
L 3059 1734 
L 3059 2491 
L 1644 2491 
z
M 1644 3547 
L 1644 2797 
L 3059 2797 
L 3059 3547 
L 1644 3547 
z
M 3431 2491 
L 3431 1734 
L 4850 1734 
L 4850 2491 
L 3431 2491 
z
M 4850 3547 
L 3431 3547 
L 3431 2797 
L 4850 2797 
L 4850 3547 
z
M 1650 4703 
L 1913 5000 
Q 2472 4594 2881 4250 
L 2606 3938 
Q 2241 4306 1650 4703 
z
" transform="scale(0.015625)"/>
       <path id="DengXian-4f4d" d="M 4500 -122 
L 5819 -122 
Q 5972 -128 6222 -84 
L 6222 -466 
Q 5972 -428 5813 -428 
L 2322 -428 
Q 2138 -428 1894 -466 
L 1894 -84 
Q 2113 -128 2309 -122 
L 4122 -122 
Q 4622 1509 4819 2931 
L 5356 2759 
Q 5428 2741 5422 2713 
Q 5422 2681 5350 2638 
Q 5228 2572 5184 2356 
Q 4819 856 4500 -122 
z
M 5978 3669 
L 5978 3272 
Q 5734 3316 5550 3309 
L 2516 3309 
Q 2328 3316 2069 3272 
L 2069 3669 
Q 2303 3628 2491 3628 
L 5544 3628 
Q 5741 3622 5978 3669 
z
M 3009 2688 
Q 3450 1491 3781 409 
L 3341 263 
Q 3009 1594 2578 2522 
L 3009 2688 
z
M 3028 4769 
L 3341 5063 
Q 3916 4506 4378 4000 
L 4025 3675 
Q 3616 4288 3028 4769 
z
M 1684 4966 
L 2156 4756 
Q 2228 4722 2228 4703 
Q 2228 4678 2156 4647 
Q 2059 4581 1997 4453 
Q 1906 4238 1650 3675 
L 1650 -544 
Q 1644 -716 1691 -1031 
L 1253 -1031 
Q 1300 -738 1294 -556 
L 1294 2950 
Q 1019 2438 684 1925 
Q 481 2075 184 2181 
Q 1131 3097 1684 4966 
z
" transform="scale(0.015625)"/>
       <path id="DengXian-3a" d="M 475 2363 
L 475 2884 
L 928 2884 
L 928 2363 
L 475 2363 
z
M 475 -250 
L 475 272 
L 928 272 
L 928 -250 
L 475 -250 
z
" transform="scale(0.015625)"/>
       <path id="DengXian-20" transform="scale(0.015625)"/>
       <path id="DengXian-25" d="M 853 -250 
L 578 -250 
L 2331 4153 
L 2609 4153 
L 853 -250 
z
M 2475 2516 
Q 2756 2516 2901 2164 
Q 3047 1813 3047 1116 
Q 3047 419 2894 65 
Q 2741 -288 2469 -288 
Q 1894 -288 1894 1116 
Q 1894 1816 2041 2166 
Q 2188 2516 2475 2516 
z
M 2769 1116 
Q 2769 1706 2711 1978 
Q 2653 2250 2475 2250 
Q 2300 2250 2236 1981 
Q 2172 1713 2172 1116 
Q 2172 534 2236 257 
Q 2300 -19 2472 -19 
Q 2769 -19 2769 1116 
z
M 734 4188 
Q 1013 4188 1158 3836 
Q 1303 3484 1303 2791 
Q 1303 2094 1150 1739 
Q 997 1384 725 1384 
Q 150 1384 150 2791 
Q 150 3491 297 3839 
Q 444 4188 734 4188 
z
M 1025 2791 
Q 1025 3381 967 3653 
Q 909 3925 734 3925 
Q 553 3925 490 3656 
Q 428 3388 428 2791 
Q 428 2197 492 1926 
Q 556 1656 728 1656 
Q 900 1656 962 1942 
Q 1025 2228 1025 2791 
z
" transform="scale(0.015625)"/>
      </defs>
      <use xlink:href="#DengXian-542b"/>
      <use xlink:href="#DengXian-91cf" x="100"/>
      <use xlink:href="#DengXian-28" x="200"/>
      <use xlink:href="#DengXian-5355" x="229.199219"/>
      <use xlink:href="#DengXian-4f4d" x="329.199219"/>
      <use xlink:href="#DengXian-3a" x="429.199219"/>
      <use xlink:href="#DengXian-20" x="451.123047"/>
      <use xlink:href="#DengXian-25" x="478.515625"/>
      <use xlink:href="#DengXian-29" x="528.515625"/>
     </g>
    </g>
   </g>
   <g id="patch_5">
    <path d="M 138.24 491.4936 
L 138.24 66.2688 
" style="fill: none; stroke: #000000; stroke-width: 0.8; stroke-linejoin: miter; stroke-linecap: square"/>
   </g>
   <g id="patch_6">
    <path d="M 995.328 491.4936 
L 995.328 66.2688 
" style="fill: none; stroke: #000000; stroke-width: 0.8; stroke-linejoin: miter; stroke-linecap: square"/>
   </g>
   <g id="patch_7">
    <path d="M 138.24 491.4936 
L 995.328 491.4936 
" style="fill: none; stroke: #000000; stroke-width: 0.8; stroke-linejoin: miter; stroke-linecap: square"/>
   </g>
   <g id="patch_8">
    <path d="M 138.24 66.2688 
L 995.328 66.2688 
" style="fill: none; stroke: #000000; stroke-width: 0.8; stroke-linejoin: miter; stroke-linecap: square"/>
   </g>
   <g id="text_15">
    <!-- 67.98 -->
    <g transform="translate(177.257613 72.036137) scale(0.15 -0.15)">
     <defs>
      <path id="DengXian-2e" d="M 475 -250 
L 475 291 
L 928 291 
L 928 -250 
L 475 -250 
z
" transform="scale(0.015625)"/>
      <path id="DengXian-39" d="M 3013 2047 
Q 3013 894 2638 290 
Q 2263 -313 1538 -313 
Q 622 -313 384 500 
L 759 581 
Q 844 294 1048 155 
Q 1253 16 1547 16 
Q 2588 16 2622 1934 
Q 2494 1666 2208 1494 
Q 1922 1322 1553 1322 
Q 991 1322 658 1717 
Q 325 2113 325 2775 
Q 325 3447 675 3833 
Q 1025 4219 1647 4219 
Q 2316 4219 2664 3678 
Q 3013 3138 3013 2047 
z
M 2572 2634 
Q 2572 3203 2314 3543 
Q 2056 3884 1638 3884 
Q 1203 3884 964 3590 
Q 725 3297 725 2778 
Q 725 2244 965 1945 
Q 1206 1647 1631 1647 
Q 2056 1647 2314 1923 
Q 2572 2200 2572 2634 
z
" transform="scale(0.015625)"/>
      <path id="DengXian-38" d="M 3050 972 
Q 3050 359 2697 23 
Q 2344 -313 1688 -313 
Q 1038 -313 680 25 
Q 322 363 322 966 
Q 322 1391 553 1684 
Q 784 1978 1159 2053 
L 1159 2066 
Q 819 2156 619 2440 
Q 419 2725 419 3109 
Q 419 3606 759 3912 
Q 1100 4219 1675 4219 
Q 2266 4219 2606 3911 
Q 2947 3603 2947 3103 
Q 2947 2706 2742 2428 
Q 2538 2150 2200 2075 
L 2200 2063 
Q 2588 1988 2819 1702 
Q 3050 1416 3050 972 
z
M 2541 3088 
Q 2541 3494 2316 3700 
Q 2091 3906 1675 3906 
Q 1263 3906 1042 3695 
Q 822 3484 822 3088 
Q 822 2684 1048 2454 
Q 1275 2225 1681 2225 
Q 2100 2225 2320 2450 
Q 2541 2675 2541 3088 
z
M 2644 1009 
Q 2644 1428 2394 1667 
Q 2144 1906 1678 1906 
Q 1231 1906 978 1656 
Q 725 1406 725 997 
Q 725 516 973 259 
Q 1222 3 1694 3 
Q 2172 3 2408 258 
Q 2644 513 2644 1009 
z
" transform="scale(0.015625)"/>
     </defs>
     <use xlink:href="#DengXian-36"/>
     <use xlink:href="#DengXian-37" x="52.685547"/>
     <use xlink:href="#DengXian-2e" x="105.371094"/>
     <use xlink:href="#DengXian-39" x="127.294922"/>
     <use xlink:href="#DengXian-38" x="179.980469"/>
    </g>
   </g>
   <g id="text_16">
    <!-- 55.69 -->
    <g transform="translate(221.03126 146.704967) scale(0.15 -0.15)">
     <use xlink:href="#DengXian-35"/>
     <use xlink:href="#DengXian-35" x="52.685547"/>
     <use xlink:href="#DengXian-2e" x="105.371094"/>
     <use xlink:href="#DengXian-36" x="127.294922"/>
     <use xlink:href="#DengXian-39" x="179.980469"/>
    </g>
   </g>
  </g>
  <g id="axes_2">
   <g id="patch_9">
    <path d="M 352.293132 491.4936 
L 387.312049 491.4936 
L 387.312049 167.563422 
L 352.293132 167.563422 
z
" clip-path="url(#p40c41e10b5)" style="fill: #ffcd33; stroke: #000000; stroke-width: 0.9; stroke-linejoin: miter"/>
   </g>
   <g id="patch_10">
    <path d="M 527.387718 491.4936 
L 562.406635 491.4936 
L 562.406635 89.352432 
L 527.387718 89.352432 
z
" clip-path="url(#p40c41e10b5)" style="fill: #ffcd33; stroke: #000000; stroke-width: 0.9; stroke-linejoin: miter"/>
   </g>
   <g id="patch_11">
    <path d="M 702.482304 491.4936 
L 737.501222 491.4936 
L 737.501222 342.513054 
L 702.482304 342.513054 
z
" clip-path="url(#p40c41e10b5)" style="fill: #ffcd33; stroke: #000000; stroke-width: 0.9; stroke-linejoin: miter"/>
   </g>
   <g id="patch_12">
    <path d="M 877.576891 491.4936 
L 912.595808 491.4936 
L 912.595808 406.296774 
L 877.576891 406.296774 
z
" clip-path="url(#p40c41e10b5)" style="fill: #ffcd33; stroke: #000000; stroke-width: 0.9; stroke-linejoin: miter"/>
   </g>
   <g id="patch_13">
    <path d="M 396.066778 491.4936 
L 431.085696 491.4936 
L 431.085696 408.93372 
L 396.066778 408.93372 
z
" clip-path="url(#p40c41e10b5)" style="fill: #b7b7b7; stroke: #000000; stroke-width: 0.9; stroke-linejoin: miter"/>
   </g>
   <g id="patch_14">
    <path d="M 571.161365 491.4936 
L 606.180282 491.4936 
L 606.180282 212.88852 
L 571.161365 212.88852 
z
" clip-path="url(#p40c41e10b5)" style="fill: #b7b7b7; stroke: #000000; stroke-width: 0.9; stroke-linejoin: miter"/>
   </g>
   <g id="patch_15">
    <path d="M 746.255951 491.4936 
L 781.274868 491.4936 
L 781.274868 423.927036 
L 746.255951 423.927036 
z
" clip-path="url(#p40c41e10b5)" style="fill: #b7b7b7; stroke: #000000; stroke-width: 0.9; stroke-linejoin: miter"/>
   </g>
   <g id="patch_16">
    <path d="M 921.350537 491.4936 
L 956.369455 491.4936 
L 956.369455 425.252412 
L 921.350537 425.252412 
z
" clip-path="url(#p40c41e10b5)" style="fill: #b7b7b7; stroke: #000000; stroke-width: 0.9; stroke-linejoin: miter"/>
   </g>
   <g id="matplotlib.axis_3">
    <g id="ytick_9">
     <g id="line2d_14">
      <path d="M 138.24 491.4936 
L 995.328 491.4936 
" clip-path="url(#p40c41e10b5)" style="fill: none; stroke: #b0b0b0; stroke-opacity: 0.5; stroke-width: 0.6; stroke-linecap: square"/>
     </g>
     <g id="line2d_15">
      <defs>
       <path id="m097ab7dbba" d="M 0 0 
L 3.5 0 
" style="stroke: #000000; stroke-width: 0.8"/>
      </defs>
      <g>
       <use xlink:href="#m097ab7dbba" x="995.328" y="491.4936" style="stroke: #000000; stroke-width: 0.8"/>
      </g>
     </g>
     <g id="text_17">
      <!-- 0 -->
      <g transform="translate(1002.328 496.525631) scale(0.15 -0.15)">
       <use xlink:href="#DengXian-30"/>
      </g>
     </g>
    </g>
    <g id="ytick_10">
     <g id="line2d_16">
      <path d="M 138.24 430.7472 
L 995.328 430.7472 
" clip-path="url(#p40c41e10b5)" style="fill: none; stroke: #b0b0b0; stroke-opacity: 0.5; stroke-width: 0.6; stroke-linecap: square"/>
     </g>
     <g id="line2d_17">
      <g>
       <use xlink:href="#m097ab7dbba" x="995.328" y="430.7472" style="stroke: #000000; stroke-width: 0.8"/>
      </g>
     </g>
     <g id="text_18">
      <!-- 1 -->
      <g transform="translate(1002.328 435.779231) scale(0.15 -0.15)">
       <use xlink:href="#DengXian-31"/>
      </g>
     </g>
    </g>
    <g id="ytick_11">
     <g id="line2d_18">
      <path d="M 138.24 370.0008 
L 995.328 370.0008 
" clip-path="url(#p40c41e10b5)" style="fill: none; stroke: #b0b0b0; stroke-opacity: 0.5; stroke-width: 0.6; stroke-linecap: square"/>
     </g>
     <g id="line2d_19">
      <g>
       <use xlink:href="#m097ab7dbba" x="995.328" y="370.0008" style="stroke: #000000; stroke-width: 0.8"/>
      </g>
     </g>
     <g id="text_19">
      <!-- 2 -->
      <g transform="translate(1002.328 375.032831) scale(0.15 -0.15)">
       <use xlink:href="#DengXian-32"/>
      </g>
     </g>
    </g>
    <g id="ytick_12">
     <g id="line2d_20">
      <path d="M 138.24 309.2544 
L 995.328 309.2544 
" clip-path="url(#p40c41e10b5)" style="fill: none; stroke: #b0b0b0; stroke-opacity: 0.5; stroke-width: 0.6; stroke-linecap: square"/>
     </g>
     <g id="line2d_21">
      <g>
       <use xlink:href="#m097ab7dbba" x="995.328" y="309.2544" style="stroke: #000000; stroke-width: 0.8"/>
      </g>
     </g>
     <g id="text_20">
      <!-- 3 -->
      <g transform="translate(1002.328 314.286431) scale(0.15 -0.15)">
       <use xlink:href="#DengXian-33"/>
      </g>
     </g>
    </g>
    <g id="ytick_13">
     <g id="line2d_22">
      <path d="M 138.24 248.508 
L 995.328 248.508 
" clip-path="url(#p40c41e10b5)" style="fill: none; stroke: #b0b0b0; stroke-opacity: 0.5; stroke-width: 0.6; stroke-linecap: square"/>
     </g>
     <g id="line2d_23">
      <g>
       <use xlink:href="#m097ab7dbba" x="995.328" y="248.508" style="stroke: #000000; stroke-width: 0.8"/>
      </g>
     </g>
     <g id="text_21">
      <!-- 4 -->
      <g transform="translate(1002.328 253.540031) scale(0.15 -0.15)">
       <use xlink:href="#DengXian-34"/>
      </g>
     </g>
    </g>
    <g id="ytick_14">
     <g id="line2d_24">
      <path d="M 138.24 187.7616 
L 995.328 187.7616 
" clip-path="url(#p40c41e10b5)" style="fill: none; stroke: #b0b0b0; stroke-opacity: 0.5; stroke-width: 0.6; stroke-linecap: square"/>
     </g>
     <g id="line2d_25">
      <g>
       <use xlink:href="#m097ab7dbba" x="995.328" y="187.7616" style="stroke: #000000; stroke-width: 0.8"/>
      </g>
     </g>
     <g id="text_22">
      <!-- 5 -->
      <g transform="translate(1002.328 192.793631) scale(0.15 -0.15)">
       <use xlink:href="#DengXian-35"/>
      </g>
     </g>
    </g>
    <g id="ytick_15">
     <g id="line2d_26">
      <path d="M 138.24 127.0152 
L 995.328 127.0152 
" clip-path="url(#p40c41e10b5)" style="fill: none; stroke: #b0b0b0; stroke-opacity: 0.5; stroke-width: 0.6; stroke-linecap: square"/>
     </g>
     <g id="line2d_27">
      <g>
       <use xlink:href="#m097ab7dbba" x="995.328" y="127.0152" style="stroke: #000000; stroke-width: 0.8"/>
      </g>
     </g>
     <g id="text_23">
      <!-- 6 -->
      <g transform="translate(1002.328 132.047231) scale(0.15 -0.15)">
       <use xlink:href="#DengXian-36"/>
      </g>
     </g>
    </g>
    <g id="ytick_16">
     <g id="line2d_28">
      <path d="M 138.24 66.2688 
L 995.328 66.2688 
" clip-path="url(#p40c41e10b5)" style="fill: none; stroke: #b0b0b0; stroke-opacity: 0.5; stroke-width: 0.6; stroke-linecap: square"/>
     </g>
     <g id="line2d_29">
      <g>
       <use xlink:href="#m097ab7dbba" x="995.328" y="66.2688" style="stroke: #000000; stroke-width: 0.8"/>
      </g>
     </g>
     <g id="text_24">
      <!-- 7 -->
      <g transform="translate(1002.328 71.300831) scale(0.15 -0.15)">
       <use xlink:href="#DengXian-37"/>
      </g>
     </g>
    </g>
    <g id="text_25">
     <!-- 含量(单位: %) -->
     <g transform="translate(1013.364719 237.052294) rotate(-270) scale(0.15 -0.15)">
      <use xlink:href="#DengXian-542b"/>
      <use xlink:href="#DengXian-91cf" x="100"/>
      <use xlink:href="#DengXian-28" x="200"/>
      <use xlink:href="#DengXian-5355" x="229.199219"/>
      <use xlink:href="#DengXian-4f4d" x="329.199219"/>
      <use xlink:href="#DengXian-3a" x="429.199219"/>
      <use xlink:href="#DengXian-20" x="451.123047"/>
      <use xlink:href="#DengXian-25" x="478.515625"/>
      <use xlink:href="#DengXian-29" x="528.515625"/>
     </g>
    </g>
   </g>
   <g id="patch_17">
    <path d="M 138.24 491.4936 
L 138.24 66.2688 
" style="fill: none; stroke: #000000; stroke-width: 0.8; stroke-linejoin: miter; stroke-linecap: square"/>
   </g>
   <g id="patch_18">
    <path d="M 995.328 491.4936 
L 995.328 66.2688 
" style="fill: none; stroke: #000000; stroke-width: 0.8; stroke-linejoin: miter; stroke-linecap: square"/>
   </g>
   <g id="patch_19">
    <path d="M 138.24 491.4936 
L 995.328 491.4936 
" style="fill: none; stroke: #000000; stroke-width: 0.8; stroke-linejoin: miter; stroke-linecap: square"/>
   </g>
   <g id="patch_20">
    <path d="M 138.24 66.2688 
L 995.328 66.2688 
" style="fill: none; stroke: #000000; stroke-width: 0.8; stroke-linejoin: miter; stroke-linecap: square"/>
   </g>
   <g id="text_26">
    <!-- 5.33 -->
    <g transform="translate(356.303762 161.085297) scale(0.15 -0.15)">
     <use xlink:href="#DengXian-35"/>
     <use xlink:href="#DengXian-2e" x="52.685547"/>
     <use xlink:href="#DengXian-33" x="74.609375"/>
     <use xlink:href="#DengXian-33" x="127.294922"/>
    </g>
   </g>
   <g id="text_27">
    <!-- 6.62 -->
    <g transform="translate(531.398349 82.874307) scale(0.15 -0.15)">
     <use xlink:href="#DengXian-36"/>
     <use xlink:href="#DengXian-2e" x="52.685547"/>
     <use xlink:href="#DengXian-36" x="74.609375"/>
     <use xlink:href="#DengXian-32" x="127.294922"/>
    </g>
   </g>
   <g id="text_28">
    <!-- 2.45 -->
    <g transform="translate(706.492935 336.034929) scale(0.15 -0.15)">
     <use xlink:href="#DengXian-32"/>
     <use xlink:href="#DengXian-2e" x="52.685547"/>
     <use xlink:href="#DengXian-34" x="74.609375"/>
     <use xlink:href="#DengXian-35" x="127.294922"/>
    </g>
   </g>
   <g id="text_29">
    <!-- 1.40 -->
    <g transform="translate(881.587521 399.818649) scale(0.15 -0.15)">
     <use xlink:href="#DengXian-31"/>
     <use xlink:href="#DengXian-2e" x="52.685547"/>
     <use xlink:href="#DengXian-34" x="74.609375"/>
     <use xlink:href="#DengXian-30" x="127.294922"/>
    </g>
   </g>
   <g id="text_30">
    <!-- 1.36 -->
    <g transform="translate(400.077409 402.455595) scale(0.15 -0.15)">
     <use xlink:href="#DengXian-31"/>
     <use xlink:href="#DengXian-2e" x="52.685547"/>
     <use xlink:href="#DengXian-33" x="74.609375"/>
     <use xlink:href="#DengXian-36" x="127.294922"/>
    </g>
   </g>
   <g id="text_31">
    <!-- 4.59 -->
    <g transform="translate(575.171995 206.410395) scale(0.15 -0.15)">
     <use xlink:href="#DengXian-34"/>
     <use xlink:href="#DengXian-2e" x="52.685547"/>
     <use xlink:href="#DengXian-35" x="74.609375"/>
     <use xlink:href="#DengXian-39" x="127.294922"/>
    </g>
   </g>
   <g id="text_32">
    <!-- 1.11 -->
    <g transform="translate(750.266581 417.448911) scale(0.15 -0.15)">
     <use xlink:href="#DengXian-31"/>
     <use xlink:href="#DengXian-2e" x="52.685547"/>
     <use xlink:href="#DengXian-31" x="74.609375"/>
     <use xlink:href="#DengXian-31" x="127.294922"/>
    </g>
   </g>
   <g id="text_33">
    <!-- 1.09 -->
    <g transform="translate(925.361168 418.774287) scale(0.15 -0.15)">
     <use xlink:href="#DengXian-31"/>
     <use xlink:href="#DengXian-2e" x="52.685547"/>
     <use xlink:href="#DengXian-30" x="74.609375"/>
     <use xlink:href="#DengXian-39" x="127.294922"/>
    </g>
   </g>
   <g id="text_34">
    <!-- 未风化高钾玻璃铅钡玻璃元素对比 -->
    <g transform="translate(431.784 60.2688) scale(0.18 -0.18)">
     <defs>
      <path id="DengXian-672a" d="M 331 -244 
Q 1650 325 2625 2144 
L 1019 2144 
Q 819 2150 531 2106 
L 531 2516 
Q 800 2472 1006 2478 
L 2950 2478 
L 2950 3500 
L 1550 3500 
Q 1338 3506 1088 3463 
L 1088 3872 
Q 1325 3828 1528 3834 
L 2950 3834 
L 2950 4481 
Q 2956 4775 2913 5038 
L 3397 4972 
Q 3481 4966 3481 4947 
Q 3488 4928 3425 4891 
Q 3316 4844 3322 4469 
L 3322 3834 
L 4697 3834 
Q 4891 3828 5166 3872 
L 5166 3463 
Q 4897 3506 4697 3500 
L 3322 3500 
L 3322 2478 
L 5313 2478 
Q 5491 2472 5747 2516 
L 5747 2106 
Q 5491 2150 5313 2144 
L 3647 2144 
Q 4306 569 6022 -141 
Q 5722 -269 5619 -506 
Q 3938 519 3322 2034 
L 3322 -422 
Q 3316 -750 3359 -997 
L 2913 -997 
Q 2956 -709 2950 -428 
L 2950 1991 
Q 1966 294 756 -575 
Q 616 -331 331 -244 
z
" transform="scale(0.015625)"/>
      <path id="DengXian-98ce" d="M 206 -459 
Q 838 128 1075 1166 
Q 1259 1938 1259 3163 
Q 1259 3559 1241 3994 
Q 1228 4300 1178 4628 
Q 1538 4588 1825 4588 
L 4538 4588 
Q 4850 4588 5178 4628 
Q 5172 4581 5153 4488 
Q 5094 4159 5094 4031 
Q 5053 3291 5053 2625 
Q 5053 1681 5141 1025 
Q 5313 -159 5678 -225 
Q 5825 -256 5825 200 
Q 5825 303 5819 416 
Q 5978 281 6228 184 
Q 6138 -697 5778 -738 
Q 4672 -709 4672 2756 
Q 4672 3481 4716 4294 
L 1631 4294 
Q 1666 3600 1666 3044 
Q 1666 1878 1522 1184 
Q 1331 172 634 -709 
Q 428 -563 206 -459 
z
M 1394 447 
Q 2175 850 3003 2022 
Q 2606 2450 1838 3169 
L 2088 3431 
Q 2631 2913 3188 2338 
Q 3681 3188 3816 3756 
L 4213 3572 
Q 4306 3525 4306 3506 
Q 4313 3481 4231 3450 
Q 4116 3400 4025 3213 
Q 3763 2663 3444 2059 
Q 4153 1300 4634 728 
L 4341 475 
Q 3803 1153 3238 1766 
Q 2584 844 1819 184 
Q 1625 347 1394 447 
z
" transform="scale(0.015625)"/>
      <path id="DengXian-9ad8" d="M 691 1925 
Q 997 1888 1247 1888 
L 5069 1888 
Q 5269 1881 5606 1925 
Q 5569 1606 5569 1409 
L 5569 -225 
Q 5581 -647 5375 -763 
Q 5203 -903 4500 -953 
Q 4469 -709 4306 -481 
Q 4597 -519 4772 -519 
Q 4934 -519 5075 -473 
Q 5216 -428 5209 -206 
L 5209 1569 
L 1088 1569 
L 1088 -372 
Q 1088 -575 1125 -941 
L 691 -941 
Q 728 -600 728 -372 
L 728 1344 
Q 728 1544 691 1925 
z
M 4403 1153 
Q 4366 884 4366 659 
L 4366 366 
Q 4366 178 4403 -109 
Q 4091 -72 3903 -72 
L 2328 -72 
Q 2119 -72 1791 -109 
Q 1838 200 1831 359 
L 1831 659 
Q 1831 831 1791 1153 
Q 2131 1113 2328 1113 
L 3903 1113 
Q 4091 1113 4403 1153 
z
M 2175 806 
L 2175 238 
L 4019 238 
L 4019 806 
L 2175 806 
z
M 953 4219 
L 3284 4219 
Q 3047 4469 2619 4750 
L 2869 5038 
Q 3278 4763 3669 4428 
L 3488 4219 
L 5453 4219 
Q 5684 4219 5978 4256 
L 5978 3859 
Q 5684 3897 5453 3897 
L 953 3897 
Q 728 3897 434 3859 
L 434 4256 
Q 738 4219 953 4219 
z
M 4788 3519 
Q 4750 3213 4750 3016 
L 4750 2719 
Q 4750 2553 4788 2234 
Q 4488 2272 4256 2272 
L 2069 2272 
Q 1863 2272 1544 2234 
Q 1581 2484 1581 2688 
L 1581 3016 
Q 1581 3206 1544 3519 
Q 1850 3481 2069 3481 
L 4238 3481 
Q 4475 3481 4788 3519 
z
M 1941 3163 
L 1941 2591 
L 4391 2591 
L 4391 3163 
L 1941 3163 
z
" transform="scale(0.015625)"/>
      <path id="DengXian-94be" d="M 2944 4538 
Q 3256 4494 3463 4500 
L 5434 4500 
Q 5638 4500 5966 4538 
Q 5919 4294 5925 4031 
L 5925 1153 
Q 5919 831 5966 634 
L 5528 634 
Q 5575 838 5569 984 
L 4616 984 
L 4616 -366 
Q 4616 -538 4653 -884 
L 4219 -884 
Q 4256 -563 4256 -366 
L 4256 984 
L 3341 984 
Q 3334 788 3378 556 
L 2944 556 
Q 2988 897 2981 1075 
L 2981 4031 
Q 2988 4281 2944 4538 
z
M 3341 2875 
L 4256 2875 
L 4256 4178 
L 3341 4178 
L 3341 2875 
z
M 3341 2553 
L 3341 1306 
L 4256 1306 
L 4256 2553 
L 3341 2553 
z
M 4616 2553 
L 4616 1306 
L 5569 1306 
L 5569 2553 
L 4616 2553 
z
M 4616 4178 
L 4616 2875 
L 5569 2875 
L 5569 4178 
L 4616 4178 
z
M 225 3053 
Q 1025 3706 1428 4972 
L 1850 4794 
Q 1953 4756 1947 4728 
Q 1947 4709 1844 4666 
Q 1741 4603 1678 4488 
Q 1594 4313 1434 4013 
Q 1403 3950 1381 3909 
L 2156 3909 
Q 2350 3903 2675 3950 
L 2675 3553 
Q 2356 3591 2169 3591 
L 1184 3591 
Q 941 3225 647 2841 
Q 481 2988 225 3053 
z
M 947 1613 
L 1356 1613 
L 1356 2478 
L 1269 2478 
Q 1088 2484 756 2438 
L 756 2834 
Q 1031 2791 1269 2797 
L 1906 2797 
Q 2125 2791 2431 2834 
L 2431 2438 
Q 2119 2484 1919 2478 
L 1716 2478 
L 1716 1613 
L 2175 1613 
Q 2400 1606 2694 1650 
L 2694 1253 
Q 2369 1300 2181 1294 
L 1716 1294 
L 1716 -172 
Q 2175 147 2553 459 
Q 2572 269 2675 91 
Q 1825 -475 1447 -800 
L 1131 -409 
Q 1363 -269 1356 -84 
L 1356 1294 
L 947 1294 
Q 756 1300 434 1253 
L 434 1650 
Q 750 1606 947 1613 
z
" transform="scale(0.015625)"/>
      <path id="DengXian-73bb" d="M 1813 -653 
Q 2350 -206 2553 409 
Q 2766 1000 2759 2119 
L 2759 3597 
Q 2753 3803 2719 4091 
Q 2981 4056 3219 4050 
L 4044 4050 
L 4044 4506 
Q 4038 4763 4006 5056 
L 4475 4991 
Q 4531 4978 4538 4953 
Q 4538 4928 4481 4884 
Q 4409 4800 4403 4481 
L 4403 4050 
L 5394 4050 
Q 5625 4050 5941 4091 
Q 5797 3425 5594 2906 
Q 5450 2947 5316 2947 
Q 5241 2947 5184 2938 
Q 5319 3231 5472 3731 
L 4403 3731 
L 4403 2375 
L 5075 2375 
Q 5313 2381 5581 2413 
Q 5269 1075 4703 300 
Q 5338 -197 6253 -453 
Q 5997 -641 5881 -856 
Q 5119 -466 4481 19 
Q 3916 -513 3072 -997 
Q 2931 -775 2694 -653 
Q 3653 -281 4219 294 
Q 3572 1031 3213 2053 
L 3116 2053 
Q 3109 891 2938 341 
Q 2784 -238 2278 -856 
Q 2094 -716 1813 -653 
z
M 3116 3731 
L 3116 2375 
L 4044 2375 
L 4044 3731 
L 3116 3731 
z
M 1913 3909 
L 1550 3909 
L 1550 2522 
L 1813 2522 
Q 2059 2528 2338 2559 
L 2338 2163 
Q 2041 2194 1819 2203 
L 1550 2203 
L 1550 666 
Q 1966 794 2338 966 
Q 2278 728 2291 525 
Q 928 84 469 -166 
L 244 334 
Q 678 384 1191 563 
L 1191 2203 
L 941 2203 
Q 716 2203 422 2163 
L 422 2559 
Q 716 2522 928 2522 
L 1191 2522 
L 1191 3909 
L 856 3909 
Q 666 3909 347 3872 
L 347 4269 
Q 653 4231 856 4231 
L 1906 4231 
Q 2125 4238 2425 4269 
L 2425 3872 
Q 2131 3909 1913 3909 
z
M 4447 581 
Q 4922 1203 5088 2053 
L 3609 2053 
Q 3872 1247 4447 581 
z
" transform="scale(0.015625)"/>
      <path id="DengXian-7483" d="M 2853 1453 
L 3744 1453 
Q 3866 1741 3909 1953 
L 3003 1953 
Q 2778 1959 2528 1913 
Q 2572 2169 2566 2350 
L 2566 3072 
Q 2572 3263 2528 3559 
L 3003 3494 
Q 3078 3488 3078 3469 
Q 3078 3450 3003 3400 
Q 2925 3359 2925 2981 
L 2925 2284 
L 5234 2284 
L 5234 3078 
Q 5234 3328 5197 3609 
L 5678 3547 
Q 5759 3541 5759 3513 
Q 5759 3494 5678 3444 
Q 5594 3384 5594 3034 
L 5594 2350 
Q 5594 2181 5631 1913 
Q 5313 1953 5147 1953 
L 4013 1953 
L 4319 1806 
Q 4378 1778 4366 1759 
Q 4366 1734 4281 1691 
Q 4238 1663 4213 1619 
Q 4197 1594 4166 1538 
Q 4141 1484 4122 1453 
L 5388 1453 
Q 5625 1453 5900 1491 
Q 5856 1241 5863 1019 
L 5863 -378 
Q 5869 -684 5656 -800 
Q 5453 -922 4844 -966 
Q 4844 -738 4684 -513 
Q 5009 -553 5200 -553 
Q 5322 -553 5369 -538 
Q 5516 -506 5503 -275 
L 5503 1119 
L 3956 1119 
Q 3775 781 3519 325 
Q 3922 347 4538 403 
Q 4453 569 4275 819 
L 4569 984 
Q 4850 575 5178 -109 
L 4863 -281 
Q 4794 -97 4678 141 
Q 3425 31 3163 -116 
L 3022 281 
Q 3181 306 3250 409 
Q 3391 628 3609 1119 
L 2725 1119 
L 2725 -459 
Q 2719 -728 2766 -991 
L 2328 -991 
Q 2369 -691 2369 -459 
L 2369 972 
Q 2375 1197 2328 1491 
Q 2591 1447 2853 1453 
z
M 5966 4269 
L 5966 3859 
Q 5734 3903 5575 3897 
L 2778 3897 
Q 2597 3903 2356 3859 
L 2356 4269 
Q 2597 4225 2778 4231 
L 4056 4231 
Q 3794 4469 3353 4738 
L 3584 5056 
Q 3963 4825 4441 4441 
L 4288 4231 
L 5594 4231 
Q 5753 4225 5966 4269 
z
M 3028 2600 
Q 3431 2772 3794 3078 
Q 3547 3272 3156 3475 
L 3359 3769 
Q 3775 3506 4072 3309 
Q 4341 3525 4609 3884 
L 4972 3609 
Q 5025 3572 5019 3553 
Q 5006 3534 4934 3525 
Q 4788 3500 4691 3425 
Q 4494 3238 4353 3109 
Q 4738 2869 5025 2663 
Q 5013 2644 4984 2606 
Q 4863 2431 4813 2350 
Q 4372 2681 4072 2881 
Q 3622 2528 3378 2350 
Q 3206 2503 3028 2600 
z
M 1850 3916 
L 1528 3916 
L 1528 2419 
L 1850 2419 
Q 1984 2413 2209 2456 
L 2209 2047 
Q 2016 2094 1806 2088 
L 1528 2088 
L 1528 422 
Q 2009 594 2209 722 
L 2156 281 
Q 575 -313 475 -409 
L 306 44 
Q 744 122 1172 294 
L 1172 2088 
L 813 2088 
Q 647 2094 416 2047 
L 416 2456 
Q 609 2413 813 2419 
L 1172 2419 
L 1172 3916 
L 672 3916 
Q 500 3922 263 3878 
L 263 4288 
Q 494 4250 659 4250 
L 1831 4250 
Q 1966 4244 2209 4288 
L 2209 3878 
Q 1978 3916 1850 3916 
z
" transform="scale(0.015625)"/>
      <path id="DengXian-94c5" d="M 2484 1913 
Q 3353 2400 3328 3622 
L 3328 3988 
Q 3328 4191 3291 4494 
Q 3572 4453 3809 4453 
L 4647 4453 
Q 4872 4453 5203 4494 
Q 5166 4191 5166 3988 
L 5166 2753 
Q 5159 2716 5159 2694 
Q 5159 2475 5491 2497 
Q 5778 2484 6175 2584 
Q 6047 2369 6047 2113 
Q 5528 2125 5288 2144 
Q 4775 2156 4806 2656 
L 4806 4134 
L 3688 4134 
L 3688 3688 
Q 3691 3619 3691 3534 
Q 3691 2413 2919 1684 
Q 2747 1863 2484 1913 
z
M 5491 1656 
Q 5453 1319 5453 1119 
L 5453 -353 
Q 5453 -556 5491 -863 
L 5056 -863 
Q 5088 -666 5094 -494 
L 3500 -494 
Q 3513 -684 3541 -947 
L 3103 -947 
Q 3150 -616 3144 -359 
L 3144 1119 
Q 3144 1338 3103 1656 
Q 3419 1619 3647 1619 
L 4922 1619 
Q 5159 1619 5491 1656 
z
M 3500 1300 
L 3500 -184 
L 5094 -184 
L 5094 1300 
L 3500 1300 
z
M 191 2828 
Q 1159 3744 1459 4959 
L 1894 4788 
Q 1984 4750 1984 4716 
Q 1991 4684 1913 4647 
Q 1772 4588 1684 4384 
Q 1538 4078 1381 3803 
L 2138 3803 
Q 2356 3803 2656 3841 
L 2656 3444 
Q 2356 3481 2150 3481 
L 1216 3481 
Q 922 3034 628 2675 
Q 428 2778 191 2828 
z
M 897 1594 
L 1388 1594 
L 1388 2400 
L 1228 2400 
Q 1025 2400 709 2363 
L 709 2759 
Q 1006 2719 1228 2719 
L 1978 2719 
Q 2169 2719 2497 2759 
L 2497 2363 
Q 2156 2400 1984 2400 
L 1747 2400 
L 1747 1594 
L 2188 1594 
Q 2413 1594 2706 1631 
L 2706 1234 
Q 2438 1275 2203 1275 
L 1747 1275 
L 1747 -128 
Q 2119 122 2553 494 
Q 2584 288 2669 122 
Q 1813 -475 1509 -794 
L 1191 -391 
Q 1394 -263 1388 13 
L 1388 1275 
L 897 1275 
Q 697 1275 378 1234 
L 378 1631 
Q 684 1594 897 1594 
z
" transform="scale(0.015625)"/>
      <path id="DengXian-94a1" d="M 2753 -959 
Q 2656 -750 2578 -703 
L 2400 -588 
Q 3700 -147 4019 1006 
Q 4084 1306 4109 1734 
Q 4128 2113 4128 2894 
Q 4116 3256 4091 3406 
L 4575 3341 
Q 4653 3334 4659 3303 
Q 4666 3278 4594 3231 
Q 4500 3156 4494 2994 
Q 4494 2303 4481 1941 
Q 4469 1528 4434 1275 
Q 4409 -6 2753 -959 
z
M 5684 813 
L 5247 813 
Q 5288 1038 5288 1325 
L 5288 4103 
L 3391 4103 
L 3391 1281 
Q 3391 947 3431 763 
L 2994 763 
Q 3034 984 3034 1281 
L 3034 3969 
Q 3034 4288 2994 4469 
Q 3163 4428 3500 4428 
L 5119 4428 
Q 5434 4428 5684 4469 
Q 5644 4319 5644 3963 
L 5644 1325 
Q 5644 1044 5684 813 
z
M 4519 481 
L 4794 775 
Q 5538 172 6175 -569 
L 5881 -850 
Q 5259 -78 4519 481 
z
M 1472 5013 
L 1888 4856 
Q 1978 4819 1984 4781 
Q 1991 4744 1906 4716 
Q 1838 4691 1784 4603 
Q 1606 4238 1409 3950 
L 2194 3950 
Q 2516 3956 2747 3988 
L 2747 3591 
Q 2509 3628 2194 3628 
L 1203 3628 
Q 934 3244 556 2847 
Q 422 3041 184 3103 
Q 1209 3994 1472 5013 
z
M 891 1709 
L 1344 1709 
L 1344 2625 
L 1203 2625 
Q 891 2625 684 2584 
L 684 2981 
Q 844 2944 1203 2944 
L 1941 2944 
Q 2272 2944 2456 2981 
L 2456 2584 
Q 2241 2625 1941 2625 
L 1691 2625 
L 1691 1709 
L 2088 1709 
Q 2413 1709 2613 1747 
L 2613 1350 
Q 2388 1388 2100 1388 
L 1691 1388 
L 1691 -78 
Q 2163 244 2553 556 
Q 2572 325 2644 166 
Q 2613 141 2528 84 
Q 2259 -122 2041 -269 
Q 1613 -575 1447 -744 
Q 1275 -513 1113 -353 
Q 1350 -225 1344 31 
L 1344 1388 
L 891 1388 
Q 603 1388 372 1350 
L 372 1747 
Q 556 1709 891 1709 
z
" transform="scale(0.015625)"/>
      <path id="DengXian-5143" d="M 294 -447 
Q 2400 31 2322 2472 
L 1013 2472 
Q 744 2472 453 2431 
L 453 2841 
Q 744 2803 1013 2803 
L 5350 2803 
Q 5594 2803 5888 2841 
L 5888 2431 
Q 5619 2472 5350 2472 
L 4031 2472 
L 4031 91 
Q 4013 -250 4347 -250 
Q 4506 -259 4653 -259 
Q 4916 -259 5166 -231 
Q 5663 -159 5691 691 
Q 5869 525 6150 366 
Q 5881 -563 5241 -594 
Q 5094 -622 4813 -628 
Q 4513 -634 4281 -616 
Q 3916 -588 3788 -447 
Q 3653 -313 3659 44 
L 3659 2472 
L 2719 2472 
Q 2778 -19 672 -863 
Q 513 -647 294 -447 
z
M 1113 4078 
L 1113 4488 
Q 1441 4447 1684 4447 
L 4744 4447 
Q 5025 4447 5300 4488 
L 5300 4078 
Q 5006 4116 4744 4116 
L 1684 4116 
Q 1434 4116 1113 4078 
z
" transform="scale(0.015625)"/>
      <path id="DengXian-7d20" d="M 972 2888 
L 3053 2888 
L 3053 3303 
L 1697 3303 
Q 1356 3303 1172 3263 
L 1172 3647 
Q 1331 3609 1697 3609 
L 3053 3609 
L 3053 4031 
L 1331 4031 
Q 1006 4031 806 3994 
L 806 4378 
Q 1006 4341 1331 4341 
L 3053 4341 
L 3053 4494 
Q 3053 4781 3016 4984 
L 3488 4916 
Q 3559 4909 3559 4884 
Q 3566 4863 3506 4806 
Q 3397 4716 3413 4544 
L 3413 4341 
L 5069 4341 
Q 5403 4341 5594 4378 
L 5594 3994 
Q 5381 4031 5069 4031 
L 3413 4031 
L 3413 3609 
L 4744 3609 
Q 5013 3609 5269 3647 
L 5269 3263 
Q 5044 3303 4744 3303 
L 3413 3303 
L 3413 2888 
L 5472 2888 
Q 5772 2888 5997 2925 
L 5997 2541 
Q 5806 2578 5472 2578 
L 4353 2578 
L 4594 2344 
Q 4678 2259 4666 2234 
Q 4659 2209 4556 2209 
Q 4447 2203 4319 2131 
Q 3488 1625 2322 1013 
Q 3188 1069 4603 1134 
Q 4447 1281 4153 1466 
L 4378 1747 
Q 5178 1184 5516 878 
L 5294 575 
Q 5106 763 4922 878 
Q 3756 819 3431 788 
L 3431 -263 
Q 3444 -684 3284 -781 
Q 3150 -909 2522 -972 
Q 2444 -666 2328 -459 
Q 2575 -509 2741 -509 
Q 3109 -509 3092 -561 
Q 3075 -613 3075 -303 
Q 3075 -275 3072 -256 
L 3072 781 
Q 2963 769 2297 728 
Q 1772 703 1234 628 
Q 1178 825 1075 991 
Q 1416 1019 1644 1081 
Q 2234 1253 3003 1691 
Q 2894 1672 2472 1663 
Q 2400 1656 2369 1656 
Q 1925 1638 1375 1522 
Q 1319 1691 1241 1863 
Q 1375 1888 1491 1925 
Q 2053 2131 2597 2578 
L 972 2578 
Q 622 2578 453 2541 
L 453 2925 
Q 622 2888 972 2888 
z
M 4294 2578 
L 3047 2578 
L 3144 2497 
Q 3181 2463 3181 2441 
Q 3181 2428 3175 2425 
Q 3156 2406 3028 2381 
Q 2875 2350 2766 2284 
Q 2456 2094 2138 1934 
Q 2938 1947 3506 1991 
Q 3775 2150 3928 2266 
Q 4134 2413 4294 2578 
z
M 634 -378 
Q 1497 -128 2188 500 
L 2503 213 
Q 2547 166 2534 141 
Q 2516 109 2444 109 
Q 2328 103 2194 13 
Q 1791 -281 959 -703 
Q 878 -588 634 -378 
z
M 3909 219 
L 4091 544 
Q 5153 -19 5619 -306 
L 5416 -634 
Q 4678 -122 3909 219 
z
" transform="scale(0.015625)"/>
      <path id="DengXian-5bf9" d="M 256 -141 
Q 1178 347 1797 1550 
Q 1094 2613 750 3009 
L 1063 3250 
Q 1497 2663 1984 1959 
Q 2291 2706 2388 3750 
L 1119 3750 
Q 928 3750 603 3713 
L 603 4122 
Q 941 4078 1119 4084 
L 2247 4084 
Q 2478 4084 2834 4122 
Q 2663 2644 2247 1600 
Q 2706 891 3144 147 
L 2766 -84 
Q 2572 428 2047 1191 
Q 1550 347 722 -416 
Q 544 -288 256 -141 
z
M 3456 3366 
L 4838 3366 
L 4838 4153 
Q 4844 4538 4800 4884 
L 5319 4813 
Q 5350 4806 5350 4781 
Q 5350 4756 5319 4728 
Q 5216 4628 5209 4231 
L 5209 3366 
L 5613 3366 
Q 5813 3359 6125 3406 
L 6125 2994 
Q 5791 3034 5613 3034 
L 5209 3034 
L 5209 -153 
Q 5222 -569 5013 -691 
Q 4819 -831 4153 -856 
Q 4116 -588 4006 -359 
Q 4313 -400 4506 -400 
Q 4628 -400 4684 -384 
Q 4850 -347 4838 -134 
L 4838 3034 
L 3456 3034 
Q 3256 3041 2931 2994 
L 2931 3406 
Q 3206 3359 3456 3366 
z
M 3225 2259 
L 3584 2450 
Q 3859 1997 4331 1106 
L 3944 897 
Q 3688 1509 3225 2259 
z
" transform="scale(0.015625)"/>
      <path id="DengXian-6bd4" d="M 722 -397 
Q 891 -313 916 -244 
Q 959 -172 953 78 
L 953 3853 
Q 953 4213 916 4409 
L 1388 4359 
Q 1472 4347 1478 4320 
Q 1484 4294 1422 4238 
Q 1313 4141 1313 3841 
L 1313 2663 
L 2406 2663 
Q 2719 2663 2906 2700 
L 2906 2303 
Q 2669 2344 2406 2344 
L 1313 2344 
L 1313 -153 
Q 1375 -122 1503 -63 
Q 2316 294 2797 659 
Q 2753 366 2753 122 
Q 1509 -500 1356 -583 
Q 1203 -666 947 -856 
Q 794 -531 722 -397 
z
M 3822 4191 
L 3822 2509 
Q 4928 3041 5306 3481 
L 5691 3084 
Q 5772 3003 5759 2964 
Q 5747 2925 5638 2931 
Q 5381 2944 5088 2759 
Q 4672 2478 3822 2125 
L 3822 -72 
Q 3794 -384 4147 -384 
Q 4166 -384 4206 -384 
Q 4450 -397 4628 -397 
Q 4928 -397 5119 -366 
Q 5441 -294 5538 91 
Q 5569 275 5569 647 
Q 5753 475 6075 378 
Q 5978 13 5888 -250 
Q 5703 -659 5253 -756 
Q 4922 -797 4603 -797 
Q 4259 -797 3872 -750 
Q 3463 -691 3463 -103 
L 3463 4191 
Q 3463 4519 3425 4744 
L 3897 4691 
Q 3988 4684 3994 4653 
Q 4000 4622 3928 4563 
Q 3822 4469 3822 4191 
z
" transform="scale(0.015625)"/>
     </defs>
     <use xlink:href="#DengXian-672a"/>
     <use xlink:href="#DengXian-98ce" x="100"/>
     <use xlink:href="#DengXian-5316" x="200"/>
     <use xlink:href="#DengXian-9ad8" x="300"/>
     <use xlink:href="#DengXian-94be" x="400"/>
     <use xlink:href="#DengXian-73bb" x="500"/>
     <use xlink:href="#DengXian-7483" x="600"/>
     <use xlink:href="#DengXian-94c5" x="700"/>
     <use xlink:href="#DengXian-94a1" x="800"/>
     <use xlink:href="#DengXian-73bb" x="900"/>
     <use xlink:href="#DengXian-7483" x="1000"/>
     <use xlink:href="#DengXian-5143" x="1100"/>
     <use xlink:href="#DengXian-7d20" x="1200"/>
     <use xlink:href="#DengXian-5bf9" x="1300"/>
     <use xlink:href="#DengXian-6bd4" x="1400"/>
    </g>
   </g>
   <g id="legend_1">
    <g id="patch_21">
     <path d="M 876.828 121.642237 
L 984.828 121.642237 
Q 987.828 121.642237 987.828 118.642237 
L 987.828 76.7688 
Q 987.828 73.7688 984.828 73.7688 
L 876.828 73.7688 
Q 873.828 73.7688 873.828 76.7688 
L 873.828 118.642237 
Q 873.828 121.642237 876.828 121.642237 
z
" style="fill: #ffffff; opacity: 0.8; stroke: #cccccc; stroke-linejoin: miter"/>
    </g>
    <g id="patch_22">
     <path d="M 879.828 90.477394 
L 909.828 90.477394 
L 909.828 79.977394 
L 879.828 79.977394 
z
" style="fill: #ffcd33; stroke: #000000; stroke-width: 0.9; stroke-linejoin: miter"/>
    </g>
    <g id="text_35">
     <!-- 高钾玻璃 -->
     <g transform="translate(921.828 90.477394) scale(0.15 -0.15)">
      <use xlink:href="#DengXian-9ad8"/>
      <use xlink:href="#DengXian-94be" x="100"/>
      <use xlink:href="#DengXian-73bb" x="200"/>
      <use xlink:href="#DengXian-7483" x="300"/>
     </g>
    </g>
    <g id="patch_23">
     <path d="M 879.828 112.164112 
L 909.828 112.164112 
L 909.828 101.664112 
L 879.828 101.664112 
z
" style="fill: #b7b7b7; stroke: #000000; stroke-width: 0.9; stroke-linejoin: miter"/>
    </g>
    <g id="text_36">
     <!-- 铅钡玻璃 -->
     <g transform="translate(921.828 112.164112) scale(0.15 -0.15)">
      <use xlink:href="#DengXian-94c5"/>
      <use xlink:href="#DengXian-94a1" x="100"/>
      <use xlink:href="#DengXian-73bb" x="200"/>
      <use xlink:href="#DengXian-7483" x="300"/>
     </g>
    </g>
   </g>
  </g>
 </g>
 <defs>
  <clipPath id="p40c41e10b5">
   <rect x="138.24" y="66.2688" width="857.088" height="425.2248"/>
  </clipPath>
 </defs>
</svg>
