<?xml version="1.0" encoding="utf-8" standalone="no"?>
<!DOCTYPE svg PUBLIC "-//W3C//DTD SVG 1.1//EN"
  "http://www.w3.org/Graphics/SVG/1.1/DTD/svg11.dtd">
<svg xmlns:xlink="http://www.w3.org/1999/xlink" width="1105.92pt" height="552.24pt" viewBox="0 0 1105.92 552.24" xmlns="http://www.w3.org/2000/svg" version="1.1">
 <metadata>
  <rdf:RDF xmlns:dc="http://purl.org/dc/elements/1.1/" xmlns:cc="http://creativecommons.org/ns#" xmlns:rdf="http://www.w3.org/1999/02/22-rdf-syntax-ns#">
   <cc:Work>
    <dc:type rdf:resource="http://purl.org/dc/dcmitype/StillImage"/>
    <dc:date>2024-04-04T11:50:48.314506</dc:date>
    <dc:format>image/svg+xml</dc:format>
    <dc:creator>
     <cc:Agent>
      <dc:title>Matplotlib v3.8.3, https://matplotlib.org/</dc:title>
     </cc:Agent>
    </dc:creator>
   </cc:Work>
  </rdf:RDF>
 </metadata>
 <defs>
  <style type="text/css">*{stroke-linejoin: round; stroke-linecap: butt}</style>
 </defs>
 <g id="figure_1">
  <g id="patch_1">
   <path d="M 0 552.24 
L 1105.92 552.24 
L 1105.92 0 
L 0 0 
z
" style="fill: #ffffff"/>
  </g>
  <g id="axes_1">
   <g id="patch_2">
    <path d="M 138.24 236.35872 
L 527.825455 236.35872 
L 527.825455 66.2688 
L 138.24 66.2688 
z
" style="fill: #ffffff"/>
   </g>
   <g id="line2d_1">
    <path d="M 155.94843 227.0437 
L 193.253228 213.291286 
L 215.868958 204.953997 
L 232.890681 198.678939 
L 246.961574 193.491705 
L 259.213283 188.975112 
L 270.24407 184.908613 
L 280.413771 181.159553 
L 289.95943 177.640546 
L 299.048729 174.289776 
L 307.807742 171.060765 
L 316.336756 167.916545 
L 324.720086 164.82603 
L 333.032727 161.761575 
L 341.345369 158.69712 
L 349.728699 155.606605 
L 358.257712 152.462385 
L 367.016725 149.233374 
L 376.106025 145.882604 
L 385.651684 142.363597 
L 395.821385 138.614537 
L 406.852172 134.548038 
L 419.103881 130.031445 
L 433.174773 124.844211 
L 450.196496 118.569153 
L 472.812226 110.231864 
L 510.117025 96.47945 
" clip-path="url(#p38ee888c4c)" style="fill: none; stroke: #d58300; stroke-width: 1.5; stroke-linecap: square"/>
   </g>
   <g id="matplotlib.axis_1">
    <g id="xtick_1">
     <g id="line2d_2">
      <defs>
       <path id="ma310a4df7e" d="M 0 0 
L 0 3.5 
" style="stroke: #000000; stroke-width: 0.8"/>
      </defs>
      <g>
       <use xlink:href="#ma310a4df7e" x="151.787793" y="236.35872" style="stroke: #000000; stroke-width: 0.8"/>
      </g>
     </g>
     <g id="text_1">
      <!-- -2 -->
      <g transform="translate(144.086231 253.422782) scale(0.15 -0.15)">
       <defs>
        <path id="DengXian-2d" d="M 694 1166 
L 694 1522 
L 2506 1522 
L 2506 1166 
L 694 1166 
z
" transform="scale(0.015625)"/>
        <path id="DengXian-32" d="M 347 -250 
L 347 31 
Q 491 394 764 751 
Q 1038 1109 1566 1569 
Q 2109 2038 2326 2359 
Q 2544 2681 2544 3034 
Q 2544 3441 2316 3661 
Q 2088 3881 1681 3881 
Q 1313 3881 1077 3664 
Q 841 3447 800 3069 
L 400 3119 
Q 447 3613 795 3916 
Q 1144 4219 1684 4219 
Q 2281 4219 2615 3912 
Q 2950 3606 2950 3059 
Q 2950 2778 2850 2531 
Q 2750 2284 2550 2039 
Q 2350 1794 1869 1366 
Q 1025 616 803 103 
L 3016 103 
L 3016 -250 
L 347 -250 
z
" transform="scale(0.015625)"/>
       </defs>
       <use xlink:href="#DengXian-2d"/>
       <use xlink:href="#DengXian-32" x="50"/>
      </g>
     </g>
    </g>
    <g id="xtick_2">
     <g id="line2d_3">
      <g>
       <use xlink:href="#ma310a4df7e" x="242.41026" y="236.35872" style="stroke: #000000; stroke-width: 0.8"/>
      </g>
     </g>
     <g id="text_2">
      <!-- -1 -->
      <g transform="translate(234.708698 253.422782) scale(0.15 -0.15)">
       <defs>
        <path id="DengXian-31" d="M 484 -250 
L 484 84 
L 1609 84 
L 1609 3744 
L 603 3075 
L 603 3434 
L 1653 4153 
L 2000 4153 
L 2000 84 
L 2959 84 
L 2959 -250 
L 484 -250 
z
" transform="scale(0.015625)"/>
       </defs>
       <use xlink:href="#DengXian-2d"/>
       <use xlink:href="#DengXian-31" x="50"/>
      </g>
     </g>
    </g>
    <g id="xtick_3">
     <g id="line2d_4">
      <g>
       <use xlink:href="#ma310a4df7e" x="333.032727" y="236.35872" style="stroke: #000000; stroke-width: 0.8"/>
      </g>
     </g>
     <g id="text_3">
      <!-- 0 -->
      <g transform="translate(329.081165 253.422782) scale(0.15 -0.15)">
       <defs>
        <path id="DengXian-30" d="M 3106 1953 
Q 3106 850 2750 268 
Q 2394 -313 1697 -313 
Q 1006 -313 654 256 
Q 303 825 303 1953 
Q 303 3100 645 3659 
Q 988 4219 1719 4219 
Q 2422 4219 2764 3656 
Q 3106 3094 3106 1953 
z
M 2706 1953 
Q 2706 2963 2473 3425 
Q 2241 3888 1716 3888 
Q 1172 3888 936 3423 
Q 700 2959 700 1953 
Q 700 969 944 495 
Q 1188 22 1703 22 
Q 2216 22 2461 508 
Q 2706 994 2706 1953 
z
" transform="scale(0.015625)"/>
       </defs>
       <use xlink:href="#DengXian-30"/>
      </g>
     </g>
    </g>
    <g id="xtick_4">
     <g id="line2d_5">
      <g>
       <use xlink:href="#ma310a4df7e" x="423.655194" y="236.35872" style="stroke: #000000; stroke-width: 0.8"/>
      </g>
     </g>
     <g id="text_4">
      <!-- 1 -->
      <g transform="translate(419.703632 253.422782) scale(0.15 -0.15)">
       <use xlink:href="#DengXian-31"/>
      </g>
     </g>
    </g>
    <g id="xtick_5">
     <g id="line2d_6">
      <g>
       <use xlink:href="#ma310a4df7e" x="514.277661" y="236.35872" style="stroke: #000000; stroke-width: 0.8"/>
      </g>
     </g>
     <g id="text_5">
      <!-- 2 -->
      <g transform="translate(510.326099 253.422782) scale(0.15 -0.15)">
       <use xlink:href="#DengXian-32"/>
      </g>
     </g>
    </g>
    <g id="text_6">
     <!-- Theoretical quantiles -->
     <g transform="translate(266.57218 270.96497) scale(0.15 -0.15)">
      <defs>
       <path id="DengXian-54" d="M 1850 3794 
L 1850 -250 
L 1434 -250 
L 1434 3794 
L 63 3794 
L 63 4153 
L 3250 4153 
L 3250 3794 
L 1850 3794 
z
" transform="scale(0.015625)"/>
       <path id="DengXian-68" d="M 2644 -250 
L 2644 1613 
Q 2644 2169 2453 2417 
Q 2263 2666 1859 2666 
Q 1431 2666 1172 2356 
Q 913 2047 913 1516 
L 913 -250 
L 516 -250 
L 516 4291 
L 913 4291 
L 913 3025 
Q 913 2853 908 2684 
Q 903 2516 897 2344 
L 909 2344 
Q 1084 2684 1337 2839 
Q 1591 2994 1966 2994 
Q 2513 2994 2777 2680 
Q 3041 2366 3041 1709 
L 3041 -250 
L 2644 -250 
z
" transform="scale(0.015625)"/>
       <path id="DengXian-65" d="M 725 1278 
Q 725 681 989 348 
Q 1253 16 1725 16 
Q 2041 16 2267 145 
Q 2494 275 2659 581 
L 2975 409 
Q 2756 19 2450 -147 
Q 2144 -313 1716 -313 
Q 1038 -313 675 118 
Q 313 550 313 1366 
Q 313 1888 484 2253 
Q 656 2619 970 2806 
Q 1284 2994 1703 2994 
Q 2353 2994 2697 2578 
Q 3041 2163 3041 1384 
L 3041 1278 
L 725 1278 
z
M 1688 2666 
Q 1250 2666 1003 2392 
Q 756 2119 731 1588 
L 2625 1588 
Q 2569 2666 1688 2666 
z
" transform="scale(0.015625)"/>
       <path id="DengXian-6f" d="M 3359 1344 
Q 3359 569 2954 128 
Q 2550 -313 1819 -313 
Q 1116 -313 712 132 
Q 309 578 309 1344 
Q 309 2122 712 2558 
Q 1116 2994 1838 2994 
Q 2581 2994 2970 2570 
Q 3359 2147 3359 1344 
z
M 2944 1344 
Q 2944 2000 2669 2333 
Q 2394 2666 1850 2666 
Q 1297 2666 1011 2325 
Q 725 1984 725 1344 
Q 725 713 1008 364 
Q 1291 16 1813 16 
Q 2375 16 2659 353 
Q 2944 691 2944 1344 
z
" transform="scale(0.015625)"/>
       <path id="DengXian-72" d="M 528 -250 
L 528 2144 
Q 528 2397 500 2931 
L 869 2931 
Q 903 2588 903 2209 
L 916 2209 
Q 1047 2631 1262 2812 
Q 1478 2994 1819 2994 
Q 1950 2994 2063 2966 
L 2063 2597 
Q 1944 2625 1766 2625 
Q 1372 2625 1150 2289 
Q 928 1953 928 1366 
L 928 -250 
L 528 -250 
z
" transform="scale(0.015625)"/>
       <path id="DengXian-74" d="M 1319 -300 
Q 972 -300 792 -115 
Q 613 69 613 428 
L 613 2603 
L 144 2603 
L 144 2931 
L 619 2931 
L 725 3666 
L 1013 3666 
L 1013 2931 
L 1859 2931 
L 1859 2603 
L 1013 2603 
L 1013 500 
Q 1013 275 1103 150 
Q 1194 25 1428 25 
Q 1631 25 1897 81 
L 1897 -228 
Q 1625 -300 1319 -300 
z
" transform="scale(0.015625)"/>
       <path id="DengXian-69" d="M 516 3809 
L 516 4294 
L 913 4294 
L 913 3809 
L 516 3809 
z
M 516 -250 
L 516 2931 
L 913 2931 
L 913 -250 
L 516 -250 
z
" transform="scale(0.015625)"/>
       <path id="DengXian-63" d="M 1609 -313 
Q 975 -313 644 107 
Q 313 528 313 1328 
Q 313 2125 658 2559 
Q 1003 2994 1638 2994 
Q 2141 2994 2427 2787 
Q 2713 2581 2788 2141 
L 2378 2094 
Q 2319 2391 2137 2528 
Q 1956 2666 1641 2666 
Q 716 2666 716 1344 
Q 716 16 1619 16 
Q 2284 16 2394 622 
L 2788 566 
Q 2622 -313 1609 -313 
z
" transform="scale(0.015625)"/>
       <path id="DengXian-61" d="M 1381 16 
Q 1656 16 1870 145 
Q 2084 275 2206 501 
Q 2328 728 2328 978 
L 2328 1363 
L 1872 1350 
Q 1234 1334 964 1156 
Q 694 978 694 619 
Q 694 16 1381 16 
z
M 2725 -250 
L 2347 -250 
L 2328 316 
L 2316 316 
Q 1994 -313 1316 -313 
Q 819 -313 548 -67 
Q 278 178 278 613 
Q 278 1106 651 1365 
Q 1025 1625 1803 1647 
L 2325 1659 
L 2325 1788 
Q 2325 2238 2145 2452 
Q 1966 2666 1588 2666 
Q 1241 2666 1064 2555 
Q 888 2444 822 2181 
L 447 2259 
Q 547 2663 826 2828 
Q 1106 2994 1594 2994 
Q 2191 2994 2458 2697 
Q 2725 2400 2725 1753 
L 2725 -250 
z
" transform="scale(0.015625)"/>
       <path id="DengXian-6c" d="M 516 -250 
L 516 4294 
L 913 4294 
L 913 -250 
L 516 -250 
z
" transform="scale(0.015625)"/>
       <path id="DengXian-20" transform="scale(0.015625)"/>
       <path id="DengXian-71" d="M 309 1325 
Q 309 2113 676 2553 
Q 1044 2994 1706 2994 
Q 2078 2994 2336 2839 
Q 2594 2684 2759 2372 
L 2772 2372 
Q 2772 2497 2787 2690 
Q 2803 2884 2813 2931 
L 3184 2931 
Q 3159 2666 3159 2256 
L 3159 -1484 
L 2763 -1484 
L 2763 -191 
Q 2763 -59 2766 67 
Q 2769 194 2772 325 
L 2759 325 
Q 2559 -31 2293 -172 
Q 2028 -313 1638 -313 
Q 1013 -313 661 115 
Q 309 544 309 1325 
z
M 719 1325 
Q 719 675 972 345 
Q 1225 16 1703 16 
Q 2231 16 2500 355 
Q 2769 694 2769 1350 
Q 2769 1997 2508 2331 
Q 2247 2666 1731 2666 
Q 1228 2666 973 2323 
Q 719 1981 719 1325 
z
" transform="scale(0.015625)"/>
       <path id="DengXian-75" d="M 878 2931 
L 878 1066 
Q 878 509 1068 262 
Q 1259 16 1663 16 
Q 2103 16 2358 333 
Q 2613 650 2613 1188 
L 2613 2931 
L 3013 2931 
L 3013 459 
Q 3013 281 3020 104 
Q 3028 -72 3034 -250 
L 2675 -250 
L 2638 353 
L 2625 353 
Q 2459 13 2204 -150 
Q 1950 -313 1556 -313 
Q 1009 -313 745 0 
Q 481 313 481 969 
L 481 2931 
L 878 2931 
z
" transform="scale(0.015625)"/>
       <path id="DengXian-6e" d="M 2644 -250 
L 2644 1613 
Q 2644 2166 2453 2416 
Q 2263 2666 1859 2666 
Q 1425 2666 1169 2348 
Q 913 2031 913 1491 
L 913 -250 
L 516 -250 
L 516 2222 
Q 516 2400 508 2576 
Q 500 2753 494 2931 
L 850 2931 
L 888 2325 
L 900 2325 
Q 1066 2666 1319 2830 
Q 1572 2994 1966 2994 
Q 2513 2994 2777 2680 
Q 3041 2366 3041 1709 
L 3041 -250 
L 2644 -250 
z
" transform="scale(0.015625)"/>
       <path id="DengXian-73" d="M 2409 628 
Q 2409 178 2114 -67 
Q 1819 -313 1284 -313 
Q 784 -313 500 -136 
Q 216 41 116 453 
L 481 519 
Q 547 259 733 128 
Q 919 -3 1281 -3 
Q 2019 -3 2019 594 
Q 2019 763 1951 869 
Q 1884 975 1767 1042 
Q 1650 1109 1489 1154 
Q 1328 1200 1141 1250 
Q 797 1334 623 1442 
Q 450 1550 356 1712 
Q 263 1875 263 2109 
Q 263 2531 522 2762 
Q 781 2994 1284 2994 
Q 1741 2994 1992 2825 
Q 2244 2656 2331 2291 
L 1956 2247 
Q 1903 2481 1742 2582 
Q 1581 2684 1284 2684 
Q 963 2684 805 2545 
Q 647 2406 647 2153 
Q 647 1991 708 1894 
Q 769 1797 889 1730 
Q 1009 1663 1441 1547 
Q 1863 1431 2038 1320 
Q 2213 1209 2311 1045 
Q 2409 881 2409 628 
z
" transform="scale(0.015625)"/>
      </defs>
      <use xlink:href="#DengXian-54"/>
      <use xlink:href="#DengXian-68" x="51.757812"/>
      <use xlink:href="#DengXian-65" x="106.787109"/>
      <use xlink:href="#DengXian-6f" x="158.154297"/>
      <use xlink:href="#DengXian-72" x="215.478516"/>
      <use xlink:href="#DengXian-65" x="249.365234"/>
      <use xlink:href="#DengXian-74" x="300.732422"/>
      <use xlink:href="#DengXian-69" x="332.519531"/>
      <use xlink:href="#DengXian-63" x="354.882812"/>
      <use xlink:href="#DengXian-61" x="400.146484"/>
      <use xlink:href="#DengXian-6c" x="450.244141"/>
      <use xlink:href="#DengXian-20" x="472.607422"/>
      <use xlink:href="#DengXian-71" x="500"/>
      <use xlink:href="#DengXian-75" x="557.421875"/>
      <use xlink:href="#DengXian-61" x="612.5"/>
      <use xlink:href="#DengXian-6e" x="662.597656"/>
      <use xlink:href="#DengXian-74" x="717.626953"/>
      <use xlink:href="#DengXian-69" x="749.414062"/>
      <use xlink:href="#DengXian-6c" x="771.777344"/>
      <use xlink:href="#DengXian-65" x="794.140625"/>
      <use xlink:href="#DengXian-73" x="845.507812"/>
     </g>
    </g>
   </g>
   <g id="matplotlib.axis_2">
    <g id="ytick_1">
     <g id="line2d_7">
      <defs>
       <path id="m78ae3237bc" d="M 0 0 
L -3.5 0 
" style="stroke: #000000; stroke-width: 0.8"/>
      </defs>
      <g>
       <use xlink:href="#m78ae3237bc" x="138.24" y="177.884953" style="stroke: #000000; stroke-width: 0.8"/>
      </g>
     </g>
     <g id="text_7">
      <!-- 20 -->
      <g transform="translate(115.43375 182.916984) scale(0.15 -0.15)">
       <use xlink:href="#DengXian-32"/>
       <use xlink:href="#DengXian-30" x="52.685547"/>
      </g>
     </g>
    </g>
    <g id="ytick_2">
     <g id="line2d_8">
      <g>
       <use xlink:href="#m78ae3237bc" x="138.24" y="115.547843" style="stroke: #000000; stroke-width: 0.8"/>
      </g>
     </g>
     <g id="text_8">
      <!-- 40 -->
      <g transform="translate(115.43375 120.579875) scale(0.15 -0.15)">
       <defs>
        <path id="DengXian-34" d="M 2516 803 
L 2516 -250 
L 2125 -250 
L 2125 803 
L 141 803 
L 141 1116 
L 2088 4153 
L 2516 4153 
L 2516 1131 
L 3113 1131 
L 3113 803 
L 2516 803 
z
M 2125 3628 
L 538 1131 
L 2125 1131 
L 2125 3628 
z
" transform="scale(0.015625)"/>
       </defs>
       <use xlink:href="#DengXian-34"/>
       <use xlink:href="#DengXian-30" x="52.685547"/>
      </g>
     </g>
    </g>
    <g id="text_9">
     <!-- Ordered Values -->
     <g transform="translate(107.955625 201.508682) rotate(-90) scale(0.15 -0.15)">
      <defs>
       <path id="DengXian-4f" d="M 4503 1972 
Q 4503 1288 4248 766 
Q 3994 244 3523 -34 
Q 3053 -313 2419 -313 
Q 1772 -313 1303 -34 
Q 834 244 587 764 
Q 341 1284 341 1972 
Q 341 3022 892 3620 
Q 1444 4219 2425 4219 
Q 3066 4219 3534 3950 
Q 4003 3681 4253 3168 
Q 4503 2656 4503 1972 
z
M 4072 1972 
Q 4072 2850 3637 3356 
Q 3203 3863 2425 3863 
Q 1638 3863 1203 3364 
Q 769 2866 769 1972 
Q 769 1081 1211 561 
Q 1653 41 2419 41 
Q 3213 41 3642 550 
Q 4072 1059 4072 1972 
z
" transform="scale(0.015625)"/>
       <path id="DengXian-64" d="M 309 1334 
Q 309 2100 676 2547 
Q 1044 2994 1700 2994 
Q 2069 2994 2328 2851 
Q 2588 2709 2759 2391 
L 2772 2391 
Q 2763 2534 2763 2681 
L 2763 4291 
L 3159 4291 
L 3159 422 
Q 3159 31 3184 -250 
L 2803 -250 
Q 2772 153 2772 331 
L 2759 331 
Q 2566 -16 2302 -164 
Q 2038 -313 1672 -313 
Q 1022 -313 665 118 
Q 309 550 309 1334 
z
M 719 1341 
Q 719 709 964 362 
Q 1209 16 1703 16 
Q 2238 16 2503 356 
Q 2769 697 2769 1341 
Q 2769 1994 2508 2330 
Q 2247 2666 1734 2666 
Q 1222 2666 970 2317 
Q 719 1969 719 1341 
z
" transform="scale(0.015625)"/>
       <path id="DengXian-56" d="M 2200 -250 
L 1719 -250 
L 66 4153 
L 519 4153 
L 1731 813 
Q 1900 331 1963 94 
Q 2016 272 2070 450 
Q 2125 628 2188 806 
L 3400 4153 
L 3850 4153 
L 2200 -250 
z
" transform="scale(0.015625)"/>
      </defs>
      <use xlink:href="#DengXian-4f"/>
      <use xlink:href="#DengXian-72" x="75.732422"/>
      <use xlink:href="#DengXian-64" x="109.619141"/>
      <use xlink:href="#DengXian-65" x="167.041016"/>
      <use xlink:href="#DengXian-72" x="218.408203"/>
      <use xlink:href="#DengXian-65" x="252.294922"/>
      <use xlink:href="#DengXian-64" x="303.662109"/>
      <use xlink:href="#DengXian-20" x="361.083984"/>
      <use xlink:href="#DengXian-56" x="388.476562"/>
      <use xlink:href="#DengXian-61" x="449.707031"/>
      <use xlink:href="#DengXian-6c" x="499.804688"/>
      <use xlink:href="#DengXian-75" x="522.167969"/>
      <use xlink:href="#DengXian-65" x="577.246094"/>
      <use xlink:href="#DengXian-73" x="628.613281"/>
     </g>
    </g>
   </g>
   <g id="line2d_9">
    <defs>
     <path id="m19bea5703b" d="M -4 0 
L 4 0 
M 0 4 
L 0 -4 
" style="stroke: #000000"/>
    </defs>
    <g clip-path="url(#p38ee888c4c)">
     <use xlink:href="#m19bea5703b" x="155.94843" y="228.62736" style="stroke: #000000"/>
     <use xlink:href="#m19bea5703b" x="193.253228" y="225.853359" style="stroke: #000000"/>
     <use xlink:href="#m19bea5703b" x="215.868958" y="201.541886" style="stroke: #000000"/>
     <use xlink:href="#m19bea5703b" x="232.890681" y="188.139407" style="stroke: #000000"/>
     <use xlink:href="#m19bea5703b" x="246.961574" y="186.892665" style="stroke: #000000"/>
     <use xlink:href="#m19bea5703b" x="259.213283" y="184.181001" style="stroke: #000000"/>
     <use xlink:href="#m19bea5703b" x="270.24407" y="182.68491" style="stroke: #000000"/>
     <use xlink:href="#m19bea5703b" x="280.413771" y="178.539493" style="stroke: #000000"/>
     <use xlink:href="#m19bea5703b" x="289.95943" y="177.448593" style="stroke: #000000"/>
     <use xlink:href="#m19bea5703b" x="299.048729" y="173.677198" style="stroke: #000000"/>
     <use xlink:href="#m19bea5703b" x="307.807742" y="172.586299" style="stroke: #000000"/>
     <use xlink:href="#m19bea5703b" x="316.336756" y="170.778522" style="stroke: #000000"/>
     <use xlink:href="#m19bea5703b" x="324.720086" y="163.516249" style="stroke: #000000"/>
     <use xlink:href="#m19bea5703b" x="333.032727" y="160.991596" style="stroke: #000000"/>
     <use xlink:href="#m19bea5703b" x="341.345369" y="159.994202" style="stroke: #000000"/>
     <use xlink:href="#m19bea5703b" x="349.728699" y="158.404606" style="stroke: #000000"/>
     <use xlink:href="#m19bea5703b" x="358.257712" y="150.487793" style="stroke: #000000"/>
     <use xlink:href="#m19bea5703b" x="367.016725" y="149.365725" style="stroke: #000000"/>
     <use xlink:href="#m19bea5703b" x="376.106025" y="147.838466" style="stroke: #000000"/>
     <use xlink:href="#m19bea5703b" x="385.651684" y="145.500825" style="stroke: #000000"/>
     <use xlink:href="#m19bea5703b" x="395.821385" y="140.669699" style="stroke: #000000"/>
     <use xlink:href="#m19bea5703b" x="406.852172" y="137.584012" style="stroke: #000000"/>
     <use xlink:href="#m19bea5703b" x="419.103881" y="135.526887" style="stroke: #000000"/>
     <use xlink:href="#m19bea5703b" x="433.174773" y="128.700974" style="stroke: #000000"/>
     <use xlink:href="#m19bea5703b" x="450.196496" y="127.142546" style="stroke: #000000"/>
     <use xlink:href="#m19bea5703b" x="472.812226" y="116.888091" style="stroke: #000000"/>
     <use xlink:href="#m19bea5703b" x="510.117025" y="74.00016" style="stroke: #000000"/>
    </g>
   </g>
   <g id="patch_3">
    <path d="M 138.24 236.35872 
L 138.24 66.2688 
" style="fill: none; stroke: #000000; stroke-width: 0.8; stroke-linejoin: miter; stroke-linecap: square"/>
   </g>
   <g id="patch_4">
    <path d="M 527.825455 236.35872 
L 527.825455 66.2688 
" style="fill: none; stroke: #000000; stroke-width: 0.8; stroke-linejoin: miter; stroke-linecap: square"/>
   </g>
   <g id="patch_5">
    <path d="M 138.24 236.35872 
L 527.825455 236.35872 
" style="fill: none; stroke: #000000; stroke-width: 0.8; stroke-linejoin: miter; stroke-linecap: square"/>
   </g>
   <g id="patch_6">
    <path d="M 138.24 66.2688 
L 527.825455 66.2688 
" style="fill: none; stroke: #000000; stroke-width: 0.8; stroke-linejoin: miter; stroke-linecap: square"/>
   </g>
   <g id="text_10">
    <!-- SiO2-铅钡-已风化 -->
    <g transform="translate(272.867493 60.2688) scale(0.15 -0.15)">
     <defs>
      <path id="DengXian-53" d="M 3022 938 
Q 3022 341 2662 14 
Q 2303 -313 1647 -313 
Q 456 -313 247 772 
L 638 853 
Q 728 419 978 225 
Q 1228 31 1647 31 
Q 2119 31 2367 259 
Q 2616 488 2616 913 
Q 2616 1156 2530 1311 
Q 2444 1466 2297 1567 
Q 2150 1669 1951 1734 
Q 1753 1800 1525 1872 
Q 1044 2019 826 2170 
Q 609 2322 490 2545 
Q 372 2769 372 3097 
Q 372 3631 700 3925 
Q 1028 4219 1613 4219 
Q 2166 4219 2489 3989 
Q 2813 3759 2934 3275 
L 2544 3178 
Q 2456 3541 2226 3711 
Q 1997 3881 1609 3881 
Q 1209 3881 992 3684 
Q 775 3488 775 3113 
Q 775 2878 859 2723 
Q 944 2569 1117 2459 
Q 1291 2350 1741 2209 
Q 2259 2044 2461 1930 
Q 2663 1816 2781 1677 
Q 2900 1538 2961 1356 
Q 3022 1175 3022 938 
z
" transform="scale(0.015625)"/>
      <path id="DengXian-94c5" d="M 2484 1913 
Q 3353 2400 3328 3622 
L 3328 3988 
Q 3328 4191 3291 4494 
Q 3572 4453 3809 4453 
L 4647 4453 
Q 4872 4453 5203 4494 
Q 5166 4191 5166 3988 
L 5166 2753 
Q 5159 2716 5159 2694 
Q 5159 2475 5491 2497 
Q 5778 2484 6175 2584 
Q 6047 2369 6047 2113 
Q 5528 2125 5288 2144 
Q 4775 2156 4806 2656 
L 4806 4134 
L 3688 4134 
L 3688 3688 
Q 3691 3619 3691 3534 
Q 3691 2413 2919 1684 
Q 2747 1863 2484 1913 
z
M 5491 1656 
Q 5453 1319 5453 1119 
L 5453 -353 
Q 5453 -556 5491 -863 
L 5056 -863 
Q 5088 -666 5094 -494 
L 3500 -494 
Q 3513 -684 3541 -947 
L 3103 -947 
Q 3150 -616 3144 -359 
L 3144 1119 
Q 3144 1338 3103 1656 
Q 3419 1619 3647 1619 
L 4922 1619 
Q 5159 1619 5491 1656 
z
M 3500 1300 
L 3500 -184 
L 5094 -184 
L 5094 1300 
L 3500 1300 
z
M 191 2828 
Q 1159 3744 1459 4959 
L 1894 4788 
Q 1984 4750 1984 4716 
Q 1991 4684 1913 4647 
Q 1772 4588 1684 4384 
Q 1538 4078 1381 3803 
L 2138 3803 
Q 2356 3803 2656 3841 
L 2656 3444 
Q 2356 3481 2150 3481 
L 1216 3481 
Q 922 3034 628 2675 
Q 428 2778 191 2828 
z
M 897 1594 
L 1388 1594 
L 1388 2400 
L 1228 2400 
Q 1025 2400 709 2363 
L 709 2759 
Q 1006 2719 1228 2719 
L 1978 2719 
Q 2169 2719 2497 2759 
L 2497 2363 
Q 2156 2400 1984 2400 
L 1747 2400 
L 1747 1594 
L 2188 1594 
Q 2413 1594 2706 1631 
L 2706 1234 
Q 2438 1275 2203 1275 
L 1747 1275 
L 1747 -128 
Q 2119 122 2553 494 
Q 2584 288 2669 122 
Q 1813 -475 1509 -794 
L 1191 -391 
Q 1394 -263 1388 13 
L 1388 1275 
L 897 1275 
Q 697 1275 378 1234 
L 378 1631 
Q 684 1594 897 1594 
z
" transform="scale(0.015625)"/>
      <path id="DengXian-94a1" d="M 2753 -959 
Q 2656 -750 2578 -703 
L 2400 -588 
Q 3700 -147 4019 1006 
Q 4084 1306 4109 1734 
Q 4128 2113 4128 2894 
Q 4116 3256 4091 3406 
L 4575 3341 
Q 4653 3334 4659 3303 
Q 4666 3278 4594 3231 
Q 4500 3156 4494 2994 
Q 4494 2303 4481 1941 
Q 4469 1528 4434 1275 
Q 4409 -6 2753 -959 
z
M 5684 813 
L 5247 813 
Q 5288 1038 5288 1325 
L 5288 4103 
L 3391 4103 
L 3391 1281 
Q 3391 947 3431 763 
L 2994 763 
Q 3034 984 3034 1281 
L 3034 3969 
Q 3034 4288 2994 4469 
Q 3163 4428 3500 4428 
L 5119 4428 
Q 5434 4428 5684 4469 
Q 5644 4319 5644 3963 
L 5644 1325 
Q 5644 1044 5684 813 
z
M 4519 481 
L 4794 775 
Q 5538 172 6175 -569 
L 5881 -850 
Q 5259 -78 4519 481 
z
M 1472 5013 
L 1888 4856 
Q 1978 4819 1984 4781 
Q 1991 4744 1906 4716 
Q 1838 4691 1784 4603 
Q 1606 4238 1409 3950 
L 2194 3950 
Q 2516 3956 2747 3988 
L 2747 3591 
Q 2509 3628 2194 3628 
L 1203 3628 
Q 934 3244 556 2847 
Q 422 3041 184 3103 
Q 1209 3994 1472 5013 
z
M 891 1709 
L 1344 1709 
L 1344 2625 
L 1203 2625 
Q 891 2625 684 2584 
L 684 2981 
Q 844 2944 1203 2944 
L 1941 2944 
Q 2272 2944 2456 2981 
L 2456 2584 
Q 2241 2625 1941 2625 
L 1691 2625 
L 1691 1709 
L 2088 1709 
Q 2413 1709 2613 1747 
L 2613 1350 
Q 2388 1388 2100 1388 
L 1691 1388 
L 1691 -78 
Q 2163 244 2553 556 
Q 2572 325 2644 166 
Q 2613 141 2528 84 
Q 2259 -122 2041 -269 
Q 1613 -575 1447 -744 
Q 1275 -513 1113 -353 
Q 1350 -225 1344 31 
L 1344 1388 
L 891 1388 
Q 603 1388 372 1350 
L 372 1747 
Q 556 1709 891 1709 
z
" transform="scale(0.015625)"/>
      <path id="DengXian-5df2" d="M 5075 2028 
Q 4800 2069 4519 2069 
L 1209 2069 
L 1209 147 
Q 1184 -197 1388 -256 
Q 1575 -353 2369 -347 
L 2913 -347 
Q 4531 -359 4844 -184 
Q 5234 -63 5234 672 
Q 5484 416 5722 341 
Q 5538 -359 5056 -525 
Q 4588 -728 3072 -722 
L 2566 -722 
Q 1409 -728 1119 -575 
Q 953 -500 897 -359 
Q 831 -238 838 72 
L 838 2816 
Q 838 3066 800 3341 
L 1313 3278 
Q 1381 3263 1388 3238 
Q 1394 3200 1325 3169 
Q 1209 3122 1209 2725 
L 1209 2400 
L 4666 2400 
L 4666 4097 
L 1222 4097 
Q 959 4097 728 4056 
L 728 4469 
Q 941 4428 1222 4428 
L 4519 4428 
Q 4756 4428 5075 4469 
Q 5038 4238 5038 3922 
L 5038 2572 
Q 5038 2253 5075 2028 
z
" transform="scale(0.015625)"/>
      <path id="DengXian-98ce" d="M 206 -459 
Q 838 128 1075 1166 
Q 1259 1938 1259 3163 
Q 1259 3559 1241 3994 
Q 1228 4300 1178 4628 
Q 1538 4588 1825 4588 
L 4538 4588 
Q 4850 4588 5178 4628 
Q 5172 4581 5153 4488 
Q 5094 4159 5094 4031 
Q 5053 3291 5053 2625 
Q 5053 1681 5141 1025 
Q 5313 -159 5678 -225 
Q 5825 -256 5825 200 
Q 5825 303 5819 416 
Q 5978 281 6228 184 
Q 6138 -697 5778 -738 
Q 4672 -709 4672 2756 
Q 4672 3481 4716 4294 
L 1631 4294 
Q 1666 3600 1666 3044 
Q 1666 1878 1522 1184 
Q 1331 172 634 -709 
Q 428 -563 206 -459 
z
M 1394 447 
Q 2175 850 3003 2022 
Q 2606 2450 1838 3169 
L 2088 3431 
Q 2631 2913 3188 2338 
Q 3681 3188 3816 3756 
L 4213 3572 
Q 4306 3525 4306 3506 
Q 4313 3481 4231 3450 
Q 4116 3400 4025 3213 
Q 3763 2663 3444 2059 
Q 4153 1300 4634 728 
L 4341 475 
Q 3803 1153 3238 1766 
Q 2584 844 1819 184 
Q 1625 347 1394 447 
z
" transform="scale(0.015625)"/>
      <path id="DengXian-5316" d="M 238 2034 
Q 1325 2931 2113 4972 
L 2584 4728 
Q 2650 4697 2644 4678 
Q 2644 4659 2572 4628 
Q 2431 4569 2291 4281 
Q 2100 3884 1875 3488 
L 1875 -319 
Q 1881 -575 1913 -922 
L 1478 -922 
Q 1516 -556 1516 -319 
L 1516 2894 
Q 1147 2303 684 1728 
Q 488 1900 238 2034 
z
M 3866 4250 
L 3866 1991 
Q 4897 2913 5447 3828 
L 5838 3488 
Q 5900 3438 5894 3414 
Q 5888 3391 5806 3366 
Q 5684 3366 5453 3091 
Q 4588 2106 3866 1484 
L 3866 44 
Q 3853 -244 3994 -294 
Q 4128 -372 4665 -372 
Q 5203 -372 5381 -294 
Q 5569 -231 5619 6 
Q 5663 206 5697 569 
Q 5850 428 6156 366 
Q 6144 306 6125 231 
Q 6094 97 6069 -6 
Q 5913 -728 5166 -722 
Q 4903 -731 4703 -731 
Q 4366 -731 4044 -709 
Q 3513 -659 3494 -134 
L 3494 1209 
Q 3066 903 2547 563 
Q 2350 831 2169 966 
Q 2681 1081 3494 1684 
L 3494 4269 
Q 3494 4469 3456 4878 
L 3950 4813 
Q 4019 4806 4019 4781 
Q 4025 4769 3969 4709 
Q 3859 4622 3866 4250 
z
" transform="scale(0.015625)"/>
     </defs>
     <use xlink:href="#DengXian-53"/>
     <use xlink:href="#DengXian-69" x="51.416016"/>
     <use xlink:href="#DengXian-4f" x="73.779297"/>
     <use xlink:href="#DengXian-32" x="149.511719"/>
     <use xlink:href="#DengXian-2d" x="202.197266"/>
     <use xlink:href="#DengXian-94c5" x="252.197266"/>
     <use xlink:href="#DengXian-94a1" x="352.197266"/>
     <use xlink:href="#DengXian-2d" x="452.197266"/>
     <use xlink:href="#DengXian-5df2" x="502.197266"/>
     <use xlink:href="#DengXian-98ce" x="602.197266"/>
     <use xlink:href="#DengXian-5316" x="702.197266"/>
    </g>
   </g>
  </g>
  <g id="axes_2">
   <g id="patch_7">
    <path d="M 605.742545 236.35872 
L 995.328 236.35872 
L 995.328 66.2688 
L 605.742545 66.2688 
z
" style="fill: #ffffff"/>
   </g>
   <g id="line2d_10">
    <path d="M 623.450975 228.195429 
L 664.081883 210.505849 
L 689.005287 199.654884 
L 707.962915 191.401254 
L 723.800021 184.506213 
L 737.741597 178.436434 
L 750.44158 172.907211 
L 762.299982 167.744389 
L 773.587822 162.829973 
L 784.505591 158.076677 
L 795.21456 153.414286 
L 805.855985 148.781303 
L 816.564955 144.118912 
L 827.482723 139.365615 
L 838.770564 134.4512 
L 850.628965 129.288378 
L 863.328948 123.759154 
L 877.270524 117.689376 
L 893.107631 110.794335 
L 912.065259 102.540705 
L 936.988663 91.68974 
L 977.61957 74.00016 
" clip-path="url(#pd343649cfd)" style="fill: none; stroke: #d58300; stroke-width: 1.5; stroke-linecap: square"/>
   </g>
   <g id="matplotlib.axis_3">
    <g id="xtick_6">
     <g id="line2d_11">
      <g>
       <use xlink:href="#ma310a4df7e" x="610.741809" y="236.35872" style="stroke: #000000; stroke-width: 0.8"/>
      </g>
     </g>
     <g id="text_11">
      <!-- -2 -->
      <g transform="translate(603.040246 253.422782) scale(0.15 -0.15)">
       <use xlink:href="#DengXian-2d"/>
       <use xlink:href="#DengXian-32" x="50"/>
      </g>
     </g>
    </g>
    <g id="xtick_7">
     <g id="line2d_12">
      <g>
       <use xlink:href="#ma310a4df7e" x="705.638541" y="236.35872" style="stroke: #000000; stroke-width: 0.8"/>
      </g>
     </g>
     <g id="text_12">
      <!-- -1 -->
      <g transform="translate(697.936978 253.422782) scale(0.15 -0.15)">
       <use xlink:href="#DengXian-2d"/>
       <use xlink:href="#DengXian-31" x="50"/>
      </g>
     </g>
    </g>
    <g id="xtick_8">
     <g id="line2d_13">
      <g>
       <use xlink:href="#ma310a4df7e" x="800.535273" y="236.35872" style="stroke: #000000; stroke-width: 0.8"/>
      </g>
     </g>
     <g id="text_13">
      <!-- 0 -->
      <g transform="translate(796.58371 253.422782) scale(0.15 -0.15)">
       <use xlink:href="#DengXian-30"/>
      </g>
     </g>
    </g>
    <g id="xtick_9">
     <g id="line2d_14">
      <g>
       <use xlink:href="#ma310a4df7e" x="895.432005" y="236.35872" style="stroke: #000000; stroke-width: 0.8"/>
      </g>
     </g>
     <g id="text_14">
      <!-- 1 -->
      <g transform="translate(891.480442 253.422782) scale(0.15 -0.15)">
       <use xlink:href="#DengXian-31"/>
      </g>
     </g>
    </g>
    <g id="xtick_10">
     <g id="line2d_15">
      <g>
       <use xlink:href="#ma310a4df7e" x="990.328737" y="236.35872" style="stroke: #000000; stroke-width: 0.8"/>
      </g>
     </g>
     <g id="text_15">
      <!-- 2 -->
      <g transform="translate(986.377174 253.422782) scale(0.15 -0.15)">
       <use xlink:href="#DengXian-32"/>
      </g>
     </g>
    </g>
    <g id="text_16">
     <!-- Theoretical quantiles -->
     <g transform="translate(734.074726 270.96497) scale(0.15 -0.15)">
      <use xlink:href="#DengXian-54"/>
      <use xlink:href="#DengXian-68" x="51.757812"/>
      <use xlink:href="#DengXian-65" x="106.787109"/>
      <use xlink:href="#DengXian-6f" x="158.154297"/>
      <use xlink:href="#DengXian-72" x="215.478516"/>
      <use xlink:href="#DengXian-65" x="249.365234"/>
      <use xlink:href="#DengXian-74" x="300.732422"/>
      <use xlink:href="#DengXian-69" x="332.519531"/>
      <use xlink:href="#DengXian-63" x="354.882812"/>
      <use xlink:href="#DengXian-61" x="400.146484"/>
      <use xlink:href="#DengXian-6c" x="450.244141"/>
      <use xlink:href="#DengXian-20" x="472.607422"/>
      <use xlink:href="#DengXian-71" x="500"/>
      <use xlink:href="#DengXian-75" x="557.421875"/>
      <use xlink:href="#DengXian-61" x="612.5"/>
      <use xlink:href="#DengXian-6e" x="662.597656"/>
      <use xlink:href="#DengXian-74" x="717.626953"/>
      <use xlink:href="#DengXian-69" x="749.414062"/>
      <use xlink:href="#DengXian-6c" x="771.777344"/>
      <use xlink:href="#DengXian-65" x="794.140625"/>
      <use xlink:href="#DengXian-73" x="845.507812"/>
     </g>
    </g>
   </g>
   <g id="matplotlib.axis_4">
    <g id="ytick_3">
     <g id="line2d_16">
      <g>
       <use xlink:href="#m78ae3237bc" x="605.742545" y="208.076042" style="stroke: #000000; stroke-width: 0.8"/>
      </g>
     </g>
     <g id="text_17">
      <!-- 40 -->
      <g transform="translate(582.936295 213.108074) scale(0.15 -0.15)">
       <use xlink:href="#DengXian-34"/>
       <use xlink:href="#DengXian-30" x="52.685547"/>
      </g>
     </g>
    </g>
    <g id="ytick_4">
     <g id="line2d_17">
      <g>
       <use xlink:href="#m78ae3237bc" x="605.742545" y="171.766294" style="stroke: #000000; stroke-width: 0.8"/>
      </g>
     </g>
     <g id="text_18">
      <!-- 50 -->
      <g transform="translate(582.936295 176.798325) scale(0.15 -0.15)">
       <defs>
        <path id="DengXian-35" d="M 3047 1169 
Q 3047 469 2676 78 
Q 2306 -313 1641 -313 
Q 575 -313 366 672 
L 763 734 
Q 859 350 1075 186 
Q 1291 22 1669 22 
Q 2134 22 2387 315 
Q 2641 609 2641 1153 
Q 2641 1619 2392 1895 
Q 2144 2172 1713 2172 
Q 1459 2172 1265 2095 
Q 1072 2019 875 1844 
L 503 1844 
L 641 4153 
L 2828 4153 
L 2828 3816 
L 997 3816 
L 894 2222 
Q 1113 2381 1323 2442 
Q 1534 2503 1775 2503 
Q 2359 2503 2703 2142 
Q 3047 1781 3047 1169 
z
" transform="scale(0.015625)"/>
       </defs>
       <use xlink:href="#DengXian-35"/>
       <use xlink:href="#DengXian-30" x="52.685547"/>
      </g>
     </g>
    </g>
    <g id="ytick_5">
     <g id="line2d_18">
      <g>
       <use xlink:href="#m78ae3237bc" x="605.742545" y="135.456545" style="stroke: #000000; stroke-width: 0.8"/>
      </g>
     </g>
     <g id="text_19">
      <!-- 60 -->
      <g transform="translate(582.936295 140.488576) scale(0.15 -0.15)">
       <defs>
        <path id="DengXian-36" d="M 3047 1191 
Q 3047 491 2697 89 
Q 2347 -313 1747 -313 
Q 1075 -313 720 234 
Q 366 781 366 1850 
Q 366 3031 739 3625 
Q 1113 4219 1841 4219 
Q 2284 4219 2553 4026 
Q 2822 3834 2944 3428 
L 2566 3344 
Q 2400 3888 1816 3888 
Q 1303 3888 1033 3402 
Q 763 2916 756 1969 
Q 913 2263 1183 2417 
Q 1453 2572 1800 2572 
Q 2372 2572 2709 2201 
Q 3047 1831 3047 1191 
z
M 2647 1166 
Q 2647 1675 2405 1964 
Q 2163 2253 1716 2253 
Q 1466 2253 1256 2137 
Q 1047 2022 926 1806 
Q 806 1591 806 1306 
Q 806 747 1064 383 
Q 1322 19 1738 19 
Q 2166 19 2406 325 
Q 2647 631 2647 1166 
z
" transform="scale(0.015625)"/>
       </defs>
       <use xlink:href="#DengXian-36"/>
       <use xlink:href="#DengXian-30" x="52.685547"/>
      </g>
     </g>
    </g>
    <g id="ytick_6">
     <g id="line2d_19">
      <g>
       <use xlink:href="#m78ae3237bc" x="605.742545" y="99.146796" style="stroke: #000000; stroke-width: 0.8"/>
      </g>
     </g>
     <g id="text_20">
      <!-- 70 -->
      <g transform="translate(582.936295 104.178828) scale(0.15 -0.15)">
       <defs>
        <path id="DengXian-37" d="M 3031 3809 
Q 2278 2631 1928 1634 
Q 1578 638 1578 -250 
L 1172 -250 
Q 1172 625 1545 1651 
Q 1919 2678 2638 3797 
L 331 3797 
L 331 4153 
L 3031 4153 
L 3031 3809 
z
" transform="scale(0.015625)"/>
       </defs>
       <use xlink:href="#DengXian-37"/>
       <use xlink:href="#DengXian-30" x="52.685547"/>
      </g>
     </g>
    </g>
    <g id="text_21">
     <!-- Ordered Values -->
     <g transform="translate(575.45817 201.508682) rotate(-90) scale(0.15 -0.15)">
      <use xlink:href="#DengXian-4f"/>
      <use xlink:href="#DengXian-72" x="75.732422"/>
      <use xlink:href="#DengXian-64" x="109.619141"/>
      <use xlink:href="#DengXian-65" x="167.041016"/>
      <use xlink:href="#DengXian-72" x="218.408203"/>
      <use xlink:href="#DengXian-65" x="252.294922"/>
      <use xlink:href="#DengXian-64" x="303.662109"/>
      <use xlink:href="#DengXian-20" x="361.083984"/>
      <use xlink:href="#DengXian-56" x="388.476562"/>
      <use xlink:href="#DengXian-61" x="449.707031"/>
      <use xlink:href="#DengXian-6c" x="499.804688"/>
      <use xlink:href="#DengXian-75" x="522.167969"/>
      <use xlink:href="#DengXian-65" x="577.246094"/>
      <use xlink:href="#DengXian-73" x="628.613281"/>
     </g>
    </g>
   </g>
   <g id="line2d_20">
    <g clip-path="url(#pd343649cfd)">
     <use xlink:href="#m19bea5703b" x="623.450975" y="228.62736" style="stroke: #000000"/>
     <use xlink:href="#m19bea5703b" x="664.081883" y="219.223135" style="stroke: #000000"/>
     <use xlink:href="#m19bea5703b" x="689.005287" y="217.661816" style="stroke: #000000"/>
     <use xlink:href="#m19bea5703b" x="707.962915" y="189.848548" style="stroke: #000000"/>
     <use xlink:href="#m19bea5703b" x="723.800021" y="175.360959" style="stroke: #000000"/>
     <use xlink:href="#m19bea5703b" x="737.741597" y="169.551399" style="stroke: #000000"/>
     <use xlink:href="#m19bea5703b" x="750.44158" y="167.191265" style="stroke: #000000"/>
     <use xlink:href="#m19bea5703b" x="762.299982" y="166.937097" style="stroke: #000000"/>
     <use xlink:href="#m19bea5703b" x="773.587822" y="166.174592" style="stroke: #000000"/>
     <use xlink:href="#m19bea5703b" x="784.505591" y="158.004899" style="stroke: #000000"/>
     <use xlink:href="#m19bea5703b" x="795.21456" y="155.0275" style="stroke: #000000"/>
     <use xlink:href="#m19bea5703b" x="805.855985" y="152.848915" style="stroke: #000000"/>
     <use xlink:href="#m19bea5703b" x="816.564955" y="135.020828" style="stroke: #000000"/>
     <use xlink:href="#m19bea5703b" x="827.482723" y="132.769624" style="stroke: #000000"/>
     <use xlink:href="#m19bea5703b" x="838.770564" y="130.808897" style="stroke: #000000"/>
     <use xlink:href="#m19bea5703b" x="850.628965" y="123.474328" style="stroke: #000000"/>
     <use xlink:href="#m19bea5703b" x="863.328948" y="122.167177" style="stroke: #000000"/>
     <use xlink:href="#m19bea5703b" x="877.270524" y="113.997484" style="stroke: #000000"/>
     <use xlink:href="#m19bea5703b" x="893.107631" y="113.997484" style="stroke: #000000"/>
     <use xlink:href="#m19bea5703b" x="912.065259" y="106.118268" style="stroke: #000000"/>
     <use xlink:href="#m19bea5703b" x="936.988663" y="100.199779" style="stroke: #000000"/>
     <use xlink:href="#m19bea5703b" x="977.61957" y="79.140125" style="stroke: #000000"/>
    </g>
   </g>
   <g id="patch_8">
    <path d="M 605.742545 236.35872 
L 605.742545 66.2688 
" style="fill: none; stroke: #000000; stroke-width: 0.8; stroke-linejoin: miter; stroke-linecap: square"/>
   </g>
   <g id="patch_9">
    <path d="M 995.328 236.35872 
L 995.328 66.2688 
" style="fill: none; stroke: #000000; stroke-width: 0.8; stroke-linejoin: miter; stroke-linecap: square"/>
   </g>
   <g id="patch_10">
    <path d="M 605.742545 236.35872 
L 995.328 236.35872 
" style="fill: none; stroke: #000000; stroke-width: 0.8; stroke-linejoin: miter; stroke-linecap: square"/>
   </g>
   <g id="patch_11">
    <path d="M 605.742545 66.2688 
L 995.328 66.2688 
" style="fill: none; stroke: #000000; stroke-width: 0.8; stroke-linejoin: miter; stroke-linecap: square"/>
   </g>
   <g id="text_22">
    <!-- SiO2-铅钡-未风化 -->
    <g transform="translate(740.370038 60.2688) scale(0.15 -0.15)">
     <defs>
      <path id="DengXian-672a" d="M 331 -244 
Q 1650 325 2625 2144 
L 1019 2144 
Q 819 2150 531 2106 
L 531 2516 
Q 800 2472 1006 2478 
L 2950 2478 
L 2950 3500 
L 1550 3500 
Q 1338 3506 1088 3463 
L 1088 3872 
Q 1325 3828 1528 3834 
L 2950 3834 
L 2950 4481 
Q 2956 4775 2913 5038 
L 3397 4972 
Q 3481 4966 3481 4947 
Q 3488 4928 3425 4891 
Q 3316 4844 3322 4469 
L 3322 3834 
L 4697 3834 
Q 4891 3828 5166 3872 
L 5166 3463 
Q 4897 3506 4697 3500 
L 3322 3500 
L 3322 2478 
L 5313 2478 
Q 5491 2472 5747 2516 
L 5747 2106 
Q 5491 2150 5313 2144 
L 3647 2144 
Q 4306 569 6022 -141 
Q 5722 -269 5619 -506 
Q 3938 519 3322 2034 
L 3322 -422 
Q 3316 -750 3359 -997 
L 2913 -997 
Q 2956 -709 2950 -428 
L 2950 1991 
Q 1966 294 756 -575 
Q 616 -331 331 -244 
z
" transform="scale(0.015625)"/>
     </defs>
     <use xlink:href="#DengXian-53"/>
     <use xlink:href="#DengXian-69" x="51.416016"/>
     <use xlink:href="#DengXian-4f" x="73.779297"/>
     <use xlink:href="#DengXian-32" x="149.511719"/>
     <use xlink:href="#DengXian-2d" x="202.197266"/>
     <use xlink:href="#DengXian-94c5" x="252.197266"/>
     <use xlink:href="#DengXian-94a1" x="352.197266"/>
     <use xlink:href="#DengXian-2d" x="452.197266"/>
     <use xlink:href="#DengXian-672a" x="502.197266"/>
     <use xlink:href="#DengXian-98ce" x="602.197266"/>
     <use xlink:href="#DengXian-5316" x="702.197266"/>
    </g>
   </g>
  </g>
  <g id="axes_3">
   <g id="patch_12">
    <path d="M 138.24 491.4936 
L 527.825455 491.4936 
L 527.825455 321.40368 
L 138.24 321.40368 
z
" style="fill: #ffffff"/>
   </g>
   <g id="patch_13">
    <path d="M 155.94843 491.4936 
L 206.543943 491.4936 
L 206.543943 450.996 
L 155.94843 450.996 
z
" clip-path="url(#pca2b0173aa)" style="fill: #1f77b4; fill-opacity: 0.5; stroke: #000000; stroke-linejoin: miter"/>
   </g>
   <g id="patch_14">
    <path d="M 206.543943 491.4936 
L 257.139457 491.4936 
L 257.139457 430.7472 
L 206.543943 430.7472 
z
" clip-path="url(#pca2b0173aa)" style="fill: #1f77b4; fill-opacity: 0.5; stroke: #000000; stroke-linejoin: miter"/>
   </g>
   <g id="patch_15">
    <path d="M 257.139457 491.4936 
L 307.73497 491.4936 
L 307.73497 329.5032 
L 257.139457 329.5032 
z
" clip-path="url(#pca2b0173aa)" style="fill: #1f77b4; fill-opacity: 0.5; stroke: #000000; stroke-linejoin: miter"/>
   </g>
   <g id="patch_16">
    <path d="M 307.73497 491.4936 
L 358.330484 491.4936 
L 358.330484 329.5032 
L 307.73497 329.5032 
z
" clip-path="url(#pca2b0173aa)" style="fill: #1f77b4; fill-opacity: 0.5; stroke: #000000; stroke-linejoin: miter"/>
   </g>
   <g id="patch_17">
    <path d="M 358.330484 491.4936 
L 408.925998 491.4936 
L 408.925998 410.4984 
L 358.330484 410.4984 
z
" clip-path="url(#pca2b0173aa)" style="fill: #1f77b4; fill-opacity: 0.5; stroke: #000000; stroke-linejoin: miter"/>
   </g>
   <g id="patch_18">
    <path d="M 408.925998 491.4936 
L 459.521511 491.4936 
L 459.521511 471.2448 
L 408.925998 471.2448 
z
" clip-path="url(#pca2b0173aa)" style="fill: #1f77b4; fill-opacity: 0.5; stroke: #000000; stroke-linejoin: miter"/>
   </g>
   <g id="patch_19">
    <path d="M 459.521511 491.4936 
L 510.117025 491.4936 
L 510.117025 471.2448 
L 459.521511 471.2448 
z
" clip-path="url(#pca2b0173aa)" style="fill: #1f77b4; fill-opacity: 0.5; stroke: #000000; stroke-linejoin: miter"/>
   </g>
   <g id="matplotlib.axis_5">
    <g id="xtick_11">
     <g id="line2d_21">
      <g>
       <use xlink:href="#ma310a4df7e" x="200.781705" y="491.4936" style="stroke: #000000; stroke-width: 0.8"/>
      </g>
     </g>
     <g id="text_23">
      <!-- 10 -->
      <g transform="translate(192.87858 508.557662) scale(0.15 -0.15)">
       <use xlink:href="#DengXian-31"/>
       <use xlink:href="#DengXian-30" x="52.685547"/>
      </g>
     </g>
    </g>
    <g id="xtick_12">
     <g id="line2d_22">
      <g>
       <use xlink:href="#ma310a4df7e" x="272.17227" y="491.4936" style="stroke: #000000; stroke-width: 0.8"/>
      </g>
     </g>
     <g id="text_24">
      <!-- 20 -->
      <g transform="translate(264.269145 508.557662) scale(0.15 -0.15)">
       <use xlink:href="#DengXian-32"/>
       <use xlink:href="#DengXian-30" x="52.685547"/>
      </g>
     </g>
    </g>
    <g id="xtick_13">
     <g id="line2d_23">
      <g>
       <use xlink:href="#ma310a4df7e" x="343.562836" y="491.4936" style="stroke: #000000; stroke-width: 0.8"/>
      </g>
     </g>
     <g id="text_25">
      <!-- 30 -->
      <g transform="translate(335.659711 508.557662) scale(0.15 -0.15)">
       <defs>
        <path id="DengXian-33" d="M 3019 963 
Q 3019 356 2662 21 
Q 2306 -313 1656 -313 
Q 409 -313 266 828 
L 669 872 
Q 778 25 1656 25 
Q 2122 25 2367 262 
Q 2613 500 2613 963 
Q 2613 1375 2320 1590 
Q 2028 1806 1500 1806 
L 1200 1806 
L 1200 2172 
L 1491 2172 
Q 1784 2172 2011 2269 
Q 2238 2366 2369 2555 
Q 2500 2744 2500 3022 
Q 2500 3434 2283 3659 
Q 2066 3884 1644 3884 
Q 1266 3884 1027 3689 
Q 788 3494 747 3091 
L 353 3125 
Q 413 3647 755 3933 
Q 1097 4219 1647 4219 
Q 2244 4219 2573 3914 
Q 2903 3609 2903 3056 
Q 2903 2653 2672 2376 
Q 2441 2100 2022 2009 
L 2022 1997 
Q 2491 1938 2755 1658 
Q 3019 1378 3019 963 
z
" transform="scale(0.015625)"/>
       </defs>
       <use xlink:href="#DengXian-33"/>
       <use xlink:href="#DengXian-30" x="52.685547"/>
      </g>
     </g>
    </g>
    <g id="xtick_14">
     <g id="line2d_24">
      <g>
       <use xlink:href="#ma310a4df7e" x="414.953401" y="491.4936" style="stroke: #000000; stroke-width: 0.8"/>
      </g>
     </g>
     <g id="text_26">
      <!-- 40 -->
      <g transform="translate(407.050276 508.557662) scale(0.15 -0.15)">
       <use xlink:href="#DengXian-34"/>
       <use xlink:href="#DengXian-30" x="52.685547"/>
      </g>
     </g>
    </g>
    <g id="xtick_15">
     <g id="line2d_25">
      <g>
       <use xlink:href="#ma310a4df7e" x="486.343967" y="491.4936" style="stroke: #000000; stroke-width: 0.8"/>
      </g>
     </g>
     <g id="text_27">
      <!-- 50 -->
      <g transform="translate(478.440842 508.557662) scale(0.15 -0.15)">
       <use xlink:href="#DengXian-35"/>
       <use xlink:href="#DengXian-30" x="52.685547"/>
      </g>
     </g>
    </g>
   </g>
   <g id="matplotlib.axis_6">
    <g id="ytick_7">
     <g id="line2d_26">
      <g>
       <use xlink:href="#m78ae3237bc" x="138.24" y="491.4936" style="stroke: #000000; stroke-width: 0.8"/>
      </g>
     </g>
     <g id="text_28">
      <!-- 0 -->
      <g transform="translate(123.336875 496.525631) scale(0.15 -0.15)">
       <use xlink:href="#DengXian-30"/>
      </g>
     </g>
    </g>
    <g id="ytick_8">
     <g id="line2d_27">
      <g>
       <use xlink:href="#m78ae3237bc" x="138.24" y="450.996" style="stroke: #000000; stroke-width: 0.8"/>
      </g>
     </g>
     <g id="text_29">
      <!-- 2 -->
      <g transform="translate(123.336875 456.028031) scale(0.15 -0.15)">
       <use xlink:href="#DengXian-32"/>
      </g>
     </g>
    </g>
    <g id="ytick_9">
     <g id="line2d_28">
      <g>
       <use xlink:href="#m78ae3237bc" x="138.24" y="410.4984" style="stroke: #000000; stroke-width: 0.8"/>
      </g>
     </g>
     <g id="text_30">
      <!-- 4 -->
      <g transform="translate(123.336875 415.530431) scale(0.15 -0.15)">
       <use xlink:href="#DengXian-34"/>
      </g>
     </g>
    </g>
    <g id="ytick_10">
     <g id="line2d_29">
      <g>
       <use xlink:href="#m78ae3237bc" x="138.24" y="370.0008" style="stroke: #000000; stroke-width: 0.8"/>
      </g>
     </g>
     <g id="text_31">
      <!-- 6 -->
      <g transform="translate(123.336875 375.032831) scale(0.15 -0.15)">
       <use xlink:href="#DengXian-36"/>
      </g>
     </g>
    </g>
    <g id="ytick_11">
     <g id="line2d_30">
      <g>
       <use xlink:href="#m78ae3237bc" x="138.24" y="329.5032" style="stroke: #000000; stroke-width: 0.8"/>
      </g>
     </g>
     <g id="text_32">
      <!-- 8 -->
      <g transform="translate(123.336875 334.535231) scale(0.15 -0.15)">
       <defs>
        <path id="DengXian-38" d="M 3050 972 
Q 3050 359 2697 23 
Q 2344 -313 1688 -313 
Q 1038 -313 680 25 
Q 322 363 322 966 
Q 322 1391 553 1684 
Q 784 1978 1159 2053 
L 1159 2066 
Q 819 2156 619 2440 
Q 419 2725 419 3109 
Q 419 3606 759 3912 
Q 1100 4219 1675 4219 
Q 2266 4219 2606 3911 
Q 2947 3603 2947 3103 
Q 2947 2706 2742 2428 
Q 2538 2150 2200 2075 
L 2200 2063 
Q 2588 1988 2819 1702 
Q 3050 1416 3050 972 
z
M 2541 3088 
Q 2541 3494 2316 3700 
Q 2091 3906 1675 3906 
Q 1263 3906 1042 3695 
Q 822 3484 822 3088 
Q 822 2684 1048 2454 
Q 1275 2225 1681 2225 
Q 2100 2225 2320 2450 
Q 2541 2675 2541 3088 
z
M 2644 1009 
Q 2644 1428 2394 1667 
Q 2144 1906 1678 1906 
Q 1231 1906 978 1656 
Q 725 1406 725 997 
Q 725 516 973 259 
Q 1222 3 1694 3 
Q 2172 3 2408 258 
Q 2644 513 2644 1009 
z
" transform="scale(0.015625)"/>
       </defs>
       <use xlink:href="#DengXian-38"/>
      </g>
     </g>
    </g>
    <g id="text_33">
     <!-- Count -->
     <g transform="translate(115.85875 426.041218) rotate(-90) scale(0.15 -0.15)">
      <defs>
       <path id="DengXian-43" d="M 2200 -313 
Q 1347 -313 864 298 
Q 381 909 381 1972 
Q 381 3034 875 3626 
Q 1369 4219 2244 4219 
Q 2803 4219 3186 3994 
Q 3569 3769 3784 3275 
L 3397 3113 
Q 3238 3513 2948 3688 
Q 2659 3863 2244 3863 
Q 1556 3863 1182 3359 
Q 809 2856 809 1972 
Q 809 1072 1182 556 
Q 1556 41 2219 41 
Q 2684 41 2984 266 
Q 3284 491 3431 878 
L 3797 709 
Q 3359 -313 2200 -313 
z
" transform="scale(0.015625)"/>
      </defs>
      <use xlink:href="#DengXian-43"/>
      <use xlink:href="#DengXian-6f" x="62.011719"/>
      <use xlink:href="#DengXian-75" x="119.335938"/>
      <use xlink:href="#DengXian-6e" x="174.414062"/>
      <use xlink:href="#DengXian-74" x="229.443359"/>
     </g>
    </g>
   </g>
   <g id="line2d_31">
    <path d="M 155.94843 465.521928 
L 175.525588 459.475967 
L 180.864813 457.494401 
L 184.424297 455.990041 
L 187.98378 454.30034 
L 191.543263 452.393974 
L 195.102747 450.242703 
L 198.66223 447.822629 
L 202.221714 445.115339 
L 205.781197 442.108892 
L 209.34068 438.798603 
L 212.900164 435.18758 
L 216.459647 431.287001 
L 220.01913 427.116104 
L 225.358355 420.413969 
L 230.69758 413.286638 
L 239.596289 400.879445 
L 248.494997 388.511863 
L 253.834222 381.450835 
L 259.173447 374.855701 
L 262.732931 370.784453 
L 266.292414 367.011485 
L 269.851898 363.561734 
L 273.411381 360.453219 
L 276.970864 357.697148 
L 280.530348 355.298301 
L 284.089831 353.255658 
L 287.649314 351.563221 
L 291.208798 350.210983 
L 294.768281 349.185993 
L 298.327764 348.473442 
L 301.887248 348.057716 
L 305.446731 347.92337 
L 309.006215 348.055962 
L 312.565698 348.442723 
L 316.125181 349.073033 
L 319.684665 349.938687 
L 323.244148 351.033961 
L 326.803631 352.355487 
L 330.363115 353.901949 
L 333.922598 355.673642 
L 337.482081 357.671927 
L 341.041565 359.898613 
L 344.601048 362.355308 
L 348.160532 365.042783 
L 351.720015 367.960367 
L 355.279498 371.10542 
L 358.838982 374.472885 
L 364.178207 379.923219 
L 369.517432 385.816722 
L 374.856657 392.098913 
L 380.195882 398.700527 
L 387.314849 407.855871 
L 406.892007 433.332612 
L 412.231232 439.884522 
L 417.570457 446.087012 
L 422.909682 451.859932 
L 426.469166 455.436274 
L 430.028649 458.775619 
L 433.588132 461.865201 
L 437.147616 464.69572 
L 440.707099 467.261457 
L 444.266582 469.560342 
L 447.826066 471.593949 
L 451.385549 473.367449 
L 454.945033 474.889481 
L 458.504516 476.17197 
L 462.063999 477.229873 
L 465.623483 478.080862 
L 469.182966 478.744945 
L 474.522191 479.438938 
L 479.861416 479.841333 
L 486.980383 480.066531 
L 510.117025 480.354605 
L 510.117025 480.354605 
" clip-path="url(#pca2b0173aa)" style="fill: none; stroke: #1f77b4; stroke-width: 1.5; stroke-linecap: square"/>
   </g>
   <g id="patch_20">
    <path d="M 138.24 491.4936 
L 138.24 321.40368 
" style="fill: none; stroke: #000000; stroke-width: 0.8; stroke-linejoin: miter; stroke-linecap: square"/>
   </g>
   <g id="patch_21">
    <path d="M 527.825455 491.4936 
L 527.825455 321.40368 
" style="fill: none; stroke: #000000; stroke-width: 0.8; stroke-linejoin: miter; stroke-linecap: square"/>
   </g>
   <g id="patch_22">
    <path d="M 138.24 491.4936 
L 527.825455 491.4936 
" style="fill: none; stroke: #000000; stroke-width: 0.8; stroke-linejoin: miter; stroke-linecap: square"/>
   </g>
   <g id="patch_23">
    <path d="M 138.24 321.40368 
L 527.825455 321.40368 
" style="fill: none; stroke: #000000; stroke-width: 0.8; stroke-linejoin: miter; stroke-linecap: square"/>
   </g>
   <g id="text_34">
    <!-- SiO2-铅钡-已风化 -->
    <g transform="translate(272.867493 315.40368) scale(0.15 -0.15)">
     <use xlink:href="#DengXian-53"/>
     <use xlink:href="#DengXian-69" x="51.416016"/>
     <use xlink:href="#DengXian-4f" x="73.779297"/>
     <use xlink:href="#DengXian-32" x="149.511719"/>
     <use xlink:href="#DengXian-2d" x="202.197266"/>
     <use xlink:href="#DengXian-94c5" x="252.197266"/>
     <use xlink:href="#DengXian-94a1" x="352.197266"/>
     <use xlink:href="#DengXian-2d" x="452.197266"/>
     <use xlink:href="#DengXian-5df2" x="502.197266"/>
     <use xlink:href="#DengXian-98ce" x="602.197266"/>
     <use xlink:href="#DengXian-5316" x="702.197266"/>
    </g>
   </g>
  </g>
  <g id="axes_4">
   <g id="patch_24">
    <path d="M 605.742545 491.4936 
L 995.328 491.4936 
L 995.328 321.40368 
L 605.742545 321.40368 
z
" style="fill: #ffffff"/>
   </g>
   <g id="patch_25">
    <path d="M 623.450975 491.4936 
L 682.479074 491.4936 
L 682.479074 422.069143 
L 623.450975 422.069143 
z
" clip-path="url(#p178e298df1)" style="fill: #1f77b4; fill-opacity: 0.5; stroke: #000000; stroke-linejoin: miter"/>
   </g>
   <g id="patch_26">
    <path d="M 682.479074 491.4936 
L 741.507174 491.4936 
L 741.507174 468.352114 
L 682.479074 468.352114 
z
" clip-path="url(#p178e298df1)" style="fill: #1f77b4; fill-opacity: 0.5; stroke: #000000; stroke-linejoin: miter"/>
   </g>
   <g id="patch_27">
    <path d="M 741.507174 491.4936 
L 800.535273 491.4936 
L 800.535273 329.5032 
L 741.507174 329.5032 
z
" clip-path="url(#p178e298df1)" style="fill: #1f77b4; fill-opacity: 0.5; stroke: #000000; stroke-linejoin: miter"/>
   </g>
   <g id="patch_28">
    <path d="M 800.535273 491.4936 
L 859.563372 491.4936 
L 859.563372 398.927657 
L 800.535273 398.927657 
z
" clip-path="url(#p178e298df1)" style="fill: #1f77b4; fill-opacity: 0.5; stroke: #000000; stroke-linejoin: miter"/>
   </g>
   <g id="patch_29">
    <path d="M 859.563372 491.4936 
L 918.591471 491.4936 
L 918.591471 375.786171 
L 859.563372 375.786171 
z
" clip-path="url(#p178e298df1)" style="fill: #1f77b4; fill-opacity: 0.5; stroke: #000000; stroke-linejoin: miter"/>
   </g>
   <g id="patch_30">
    <path d="M 918.591471 491.4936 
L 977.61957 491.4936 
L 977.61957 445.210629 
L 918.591471 445.210629 
z
" clip-path="url(#p178e298df1)" style="fill: #1f77b4; fill-opacity: 0.5; stroke: #000000; stroke-linejoin: miter"/>
   </g>
   <g id="matplotlib.axis_7">
    <g id="xtick_16">
     <g id="line2d_32">
      <g>
       <use xlink:href="#ma310a4df7e" x="672.14163" y="491.4936" style="stroke: #000000; stroke-width: 0.8"/>
      </g>
     </g>
     <g id="text_35">
      <!-- 40 -->
      <g transform="translate(664.238505 508.557662) scale(0.15 -0.15)">
       <use xlink:href="#DengXian-34"/>
       <use xlink:href="#DengXian-30" x="52.685547"/>
      </g>
     </g>
    </g>
    <g id="xtick_17">
     <g id="line2d_33">
      <g>
       <use xlink:href="#ma310a4df7e" x="758.167521" y="491.4936" style="stroke: #000000; stroke-width: 0.8"/>
      </g>
     </g>
     <g id="text_36">
      <!-- 50 -->
      <g transform="translate(750.264396 508.557662) scale(0.15 -0.15)">
       <use xlink:href="#DengXian-35"/>
       <use xlink:href="#DengXian-30" x="52.685547"/>
      </g>
     </g>
    </g>
    <g id="xtick_18">
     <g id="line2d_34">
      <g>
       <use xlink:href="#ma310a4df7e" x="844.193413" y="491.4936" style="stroke: #000000; stroke-width: 0.8"/>
      </g>
     </g>
     <g id="text_37">
      <!-- 60 -->
      <g transform="translate(836.290288 508.557662) scale(0.15 -0.15)">
       <use xlink:href="#DengXian-36"/>
       <use xlink:href="#DengXian-30" x="52.685547"/>
      </g>
     </g>
    </g>
    <g id="xtick_19">
     <g id="line2d_35">
      <g>
       <use xlink:href="#ma310a4df7e" x="930.219304" y="491.4936" style="stroke: #000000; stroke-width: 0.8"/>
      </g>
     </g>
     <g id="text_38">
      <!-- 70 -->
      <g transform="translate(922.316179 508.557662) scale(0.15 -0.15)">
       <use xlink:href="#DengXian-37"/>
       <use xlink:href="#DengXian-30" x="52.685547"/>
      </g>
     </g>
    </g>
   </g>
   <g id="matplotlib.axis_8">
    <g id="ytick_12">
     <g id="line2d_36">
      <g>
       <use xlink:href="#m78ae3237bc" x="605.742545" y="491.4936" style="stroke: #000000; stroke-width: 0.8"/>
      </g>
     </g>
     <g id="text_39">
      <!-- 0 -->
      <g transform="translate(590.83942 496.525631) scale(0.15 -0.15)">
       <use xlink:href="#DengXian-30"/>
      </g>
     </g>
    </g>
    <g id="ytick_13">
     <g id="line2d_37">
      <g>
       <use xlink:href="#m78ae3237bc" x="605.742545" y="445.210629" style="stroke: #000000; stroke-width: 0.8"/>
      </g>
     </g>
     <g id="text_40">
      <!-- 2 -->
      <g transform="translate(590.83942 450.24266) scale(0.15 -0.15)">
       <use xlink:href="#DengXian-32"/>
      </g>
     </g>
    </g>
    <g id="ytick_14">
     <g id="line2d_38">
      <g>
       <use xlink:href="#m78ae3237bc" x="605.742545" y="398.927657" style="stroke: #000000; stroke-width: 0.8"/>
      </g>
     </g>
     <g id="text_41">
      <!-- 4 -->
      <g transform="translate(590.83942 403.959688) scale(0.15 -0.15)">
       <use xlink:href="#DengXian-34"/>
      </g>
     </g>
    </g>
    <g id="ytick_15">
     <g id="line2d_39">
      <g>
       <use xlink:href="#m78ae3237bc" x="605.742545" y="352.644686" style="stroke: #000000; stroke-width: 0.8"/>
      </g>
     </g>
     <g id="text_42">
      <!-- 6 -->
      <g transform="translate(590.83942 357.676717) scale(0.15 -0.15)">
       <use xlink:href="#DengXian-36"/>
      </g>
     </g>
    </g>
    <g id="text_43">
     <!-- Count -->
     <g transform="translate(583.361295 426.041218) rotate(-90) scale(0.15 -0.15)">
      <use xlink:href="#DengXian-43"/>
      <use xlink:href="#DengXian-6f" x="62.011719"/>
      <use xlink:href="#DengXian-75" x="119.335938"/>
      <use xlink:href="#DengXian-6e" x="174.414062"/>
      <use xlink:href="#DengXian-74" x="229.443359"/>
     </g>
    </g>
   </g>
   <g id="line2d_40">
    <path d="M 623.450975 458.226606 
L 630.569942 456.02869 
L 637.688909 454.059896 
L 646.587617 451.872871 
L 673.283742 445.612954 
L 678.622967 444.055978 
L 683.962192 442.285496 
L 689.301418 440.263995 
L 694.640643 437.964248 
L 699.979868 435.371487 
L 705.319093 432.484938 
L 710.658318 429.318586 
L 715.997543 425.9011 
L 723.116509 421.028895 
L 732.015218 414.62352 
L 744.47341 405.639642 
L 751.592376 400.810376 
L 756.931601 397.453694 
L 762.270827 394.384298 
L 767.610052 391.643013 
L 772.949277 389.256856 
L 776.50876 387.870174 
L 780.068243 386.647398 
L 783.627727 385.586069 
L 788.966952 384.2855 
L 794.306177 383.311567 
L 799.645402 382.631205 
L 804.984627 382.206622 
L 810.323852 381.998713 
L 817.442819 381.995131 
L 824.561785 382.238564 
L 831.680752 382.681577 
L 838.799719 383.307613 
L 845.918686 384.131648 
L 853.037652 385.196181 
L 858.376877 386.189344 
L 863.716102 387.382715 
L 869.055328 388.806648 
L 874.394553 390.488998 
L 879.733778 392.452654 
L 885.073003 394.713491 
L 890.412228 397.278855 
L 895.751453 400.146673 
L 901.090678 403.305202 
L 906.429903 406.733407 
L 911.769128 410.401891 
L 918.888095 415.603303 
L 927.786803 422.46082 
L 954.482928 443.401603 
L 961.601895 448.631956 
L 968.720862 453.581131 
L 975.839829 458.208819 
L 977.61957 459.312306 
L 977.61957 459.312306 
" clip-path="url(#p178e298df1)" style="fill: none; stroke: #1f77b4; stroke-width: 1.5; stroke-linecap: square"/>
   </g>
   <g id="patch_31">
    <path d="M 605.742545 491.4936 
L 605.742545 321.40368 
" style="fill: none; stroke: #000000; stroke-width: 0.8; stroke-linejoin: miter; stroke-linecap: square"/>
   </g>
   <g id="patch_32">
    <path d="M 995.328 491.4936 
L 995.328 321.40368 
" style="fill: none; stroke: #000000; stroke-width: 0.8; stroke-linejoin: miter; stroke-linecap: square"/>
   </g>
   <g id="patch_33">
    <path d="M 605.742545 491.4936 
L 995.328 491.4936 
" style="fill: none; stroke: #000000; stroke-width: 0.8; stroke-linejoin: miter; stroke-linecap: square"/>
   </g>
   <g id="patch_34">
    <path d="M 605.742545 321.40368 
L 995.328 321.40368 
" style="fill: none; stroke: #000000; stroke-width: 0.8; stroke-linejoin: miter; stroke-linecap: square"/>
   </g>
   <g id="text_44">
    <!-- SiO2-铅钡-未风化 -->
    <g transform="translate(740.370038 315.40368) scale(0.15 -0.15)">
     <use xlink:href="#DengXian-53"/>
     <use xlink:href="#DengXian-69" x="51.416016"/>
     <use xlink:href="#DengXian-4f" x="73.779297"/>
     <use xlink:href="#DengXian-32" x="149.511719"/>
     <use xlink:href="#DengXian-2d" x="202.197266"/>
     <use xlink:href="#DengXian-94c5" x="252.197266"/>
     <use xlink:href="#DengXian-94a1" x="352.197266"/>
     <use xlink:href="#DengXian-2d" x="452.197266"/>
     <use xlink:href="#DengXian-672a" x="502.197266"/>
     <use xlink:href="#DengXian-98ce" x="602.197266"/>
     <use xlink:href="#DengXian-5316" x="702.197266"/>
    </g>
   </g>
  </g>
 </g>
 <defs>
  <clipPath id="p38ee888c4c">
   <rect x="138.24" y="66.2688" width="389.585455" height="170.08992"/>
  </clipPath>
  <clipPath id="pd343649cfd">
   <rect x="605.742545" y="66.2688" width="389.585455" height="170.08992"/>
  </clipPath>
  <clipPath id="pca2b0173aa">
   <rect x="138.24" y="321.40368" width="389.585455" height="170.08992"/>
  </clipPath>
  <clipPath id="p178e298df1">
   <rect x="605.742545" y="321.40368" width="389.585455" height="170.08992"/>
  </clipPath>
 </defs>
</svg>
