<?xml version="1.0" encoding="utf-8" standalone="no"?>
<!DOCTYPE svg PUBLIC "-//W3C//DTD SVG 1.1//EN"
  "http://www.w3.org/Graphics/SVG/1.1/DTD/svg11.dtd">
<svg xmlns:xlink="http://www.w3.org/1999/xlink" width="1105.92pt" height="552.24pt" viewBox="0 0 1105.92 552.24" xmlns="http://www.w3.org/2000/svg" version="1.1">
 <metadata>
  <rdf:RDF xmlns:dc="http://purl.org/dc/elements/1.1/" xmlns:cc="http://creativecommons.org/ns#" xmlns:rdf="http://www.w3.org/1999/02/22-rdf-syntax-ns#">
   <cc:Work>
    <dc:type rdf:resource="http://purl.org/dc/dcmitype/StillImage"/>
    <dc:date>2024-04-04T12:13:26.948625</dc:date>
    <dc:format>image/svg+xml</dc:format>
    <dc:creator>
     <cc:Agent>
      <dc:title>Matplotlib v3.8.3, https://matplotlib.org/</dc:title>
     </cc:Agent>
    </dc:creator>
   </cc:Work>
  </rdf:RDF>
 </metadata>
 <defs>
  <style type="text/css">*{stroke-linejoin: round; stroke-linecap: butt}</style>
 </defs>
 <g id="figure_1">
  <g id="patch_1">
   <path d="M 0 552.24 
L 1105.92 552.24 
L 1105.92 0 
L 0 0 
z
" style="fill: #ffffff"/>
  </g>
  <g id="axes_1">
   <g id="patch_2">
    <path d="M 138.24 491.4936 
L 995.328 491.4936 
L 995.328 66.2688 
L 138.24 66.2688 
z
" style="fill: #ffffff"/>
   </g>
   <g id="matplotlib.axis_1">
    <g id="xtick_1">
     <g id="line2d_1">
      <defs>
       <path id="md4a44edb85" d="M 0 0 
L 0 3.5 
" style="stroke: #000000; stroke-width: 0.8"/>
      </defs>
      <g>
       <use xlink:href="#md4a44edb85" x="177.198545" y="491.4936" style="stroke: #000000; stroke-width: 0.8"/>
      </g>
     </g>
     <g id="text_1">
      <!-- 0 -->
      <g transform="translate(173.246983 508.557662) scale(0.15 -0.15)">
       <defs>
        <path id="DengXian-30" d="M 3106 1953 
Q 3106 850 2750 268 
Q 2394 -313 1697 -313 
Q 1006 -313 654 256 
Q 303 825 303 1953 
Q 303 3100 645 3659 
Q 988 4219 1719 4219 
Q 2422 4219 2764 3656 
Q 3106 3094 3106 1953 
z
M 2706 1953 
Q 2706 2963 2473 3425 
Q 2241 3888 1716 3888 
Q 1172 3888 936 3423 
Q 700 2959 700 1953 
Q 700 969 944 495 
Q 1188 22 1703 22 
Q 2216 22 2461 508 
Q 2706 994 2706 1953 
z
" transform="scale(0.015625)"/>
       </defs>
       <use xlink:href="#DengXian-30"/>
      </g>
     </g>
    </g>
    <g id="xtick_2">
     <g id="line2d_2">
      <g>
       <use xlink:href="#md4a44edb85" x="362.715429" y="491.4936" style="stroke: #000000; stroke-width: 0.8"/>
      </g>
     </g>
     <g id="text_2">
      <!-- 5 -->
      <g transform="translate(358.763866 508.557662) scale(0.15 -0.15)">
       <defs>
        <path id="DengXian-35" d="M 3047 1169 
Q 3047 469 2676 78 
Q 2306 -313 1641 -313 
Q 575 -313 366 672 
L 763 734 
Q 859 350 1075 186 
Q 1291 22 1669 22 
Q 2134 22 2387 315 
Q 2641 609 2641 1153 
Q 2641 1619 2392 1895 
Q 2144 2172 1713 2172 
Q 1459 2172 1265 2095 
Q 1072 2019 875 1844 
L 503 1844 
L 641 4153 
L 2828 4153 
L 2828 3816 
L 997 3816 
L 894 2222 
Q 1113 2381 1323 2442 
Q 1534 2503 1775 2503 
Q 2359 2503 2703 2142 
Q 3047 1781 3047 1169 
z
" transform="scale(0.015625)"/>
       </defs>
       <use xlink:href="#DengXian-35"/>
      </g>
     </g>
    </g>
    <g id="xtick_3">
     <g id="line2d_3">
      <g>
       <use xlink:href="#md4a44edb85" x="548.232312" y="491.4936" style="stroke: #000000; stroke-width: 0.8"/>
      </g>
     </g>
     <g id="text_3">
      <!-- 10 -->
      <g transform="translate(540.329187 508.557662) scale(0.15 -0.15)">
       <defs>
        <path id="DengXian-31" d="M 484 -250 
L 484 84 
L 1609 84 
L 1609 3744 
L 603 3075 
L 603 3434 
L 1653 4153 
L 2000 4153 
L 2000 84 
L 2959 84 
L 2959 -250 
L 484 -250 
z
" transform="scale(0.015625)"/>
       </defs>
       <use xlink:href="#DengXian-31"/>
       <use xlink:href="#DengXian-30" x="52.685547"/>
      </g>
     </g>
    </g>
    <g id="xtick_4">
     <g id="line2d_4">
      <g>
       <use xlink:href="#md4a44edb85" x="733.749195" y="491.4936" style="stroke: #000000; stroke-width: 0.8"/>
      </g>
     </g>
     <g id="text_4">
      <!-- 15 -->
      <g transform="translate(725.84607 508.557662) scale(0.15 -0.15)">
       <use xlink:href="#DengXian-31"/>
       <use xlink:href="#DengXian-35" x="52.685547"/>
      </g>
     </g>
    </g>
    <g id="xtick_5">
     <g id="line2d_5">
      <g>
       <use xlink:href="#md4a44edb85" x="919.266078" y="491.4936" style="stroke: #000000; stroke-width: 0.8"/>
      </g>
     </g>
     <g id="text_5">
      <!-- 20 -->
      <g transform="translate(911.362953 508.557662) scale(0.15 -0.15)">
       <defs>
        <path id="DengXian-32" d="M 347 -250 
L 347 31 
Q 491 394 764 751 
Q 1038 1109 1566 1569 
Q 2109 2038 2326 2359 
Q 2544 2681 2544 3034 
Q 2544 3441 2316 3661 
Q 2088 3881 1681 3881 
Q 1313 3881 1077 3664 
Q 841 3447 800 3069 
L 400 3119 
Q 447 3613 795 3916 
Q 1144 4219 1684 4219 
Q 2281 4219 2615 3912 
Q 2950 3606 2950 3059 
Q 2950 2778 2850 2531 
Q 2750 2284 2550 2039 
Q 2350 1794 1869 1366 
Q 1025 616 803 103 
L 3016 103 
L 3016 -250 
L 347 -250 
z
" transform="scale(0.015625)"/>
       </defs>
       <use xlink:href="#DengXian-32"/>
       <use xlink:href="#DengXian-30" x="52.685547"/>
      </g>
     </g>
    </g>
   </g>
   <g id="matplotlib.axis_2">
    <g id="ytick_1">
     <g id="line2d_6">
      <defs>
       <path id="mdcb851dbdd" d="M 0 0 
L -3.5 0 
" style="stroke: #000000; stroke-width: 0.8"/>
      </defs>
      <g>
       <use xlink:href="#mdcb851dbdd" x="138.24" y="444.537833" style="stroke: #000000; stroke-width: 0.8"/>
      </g>
     </g>
     <g id="text_6">
      <!-- 5 -->
      <g transform="translate(123.336875 449.569864) scale(0.15 -0.15)">
       <use xlink:href="#DengXian-35"/>
      </g>
     </g>
    </g>
    <g id="ytick_2">
     <g id="line2d_7">
      <g>
       <use xlink:href="#mdcb851dbdd" x="138.24" y="378.603698" style="stroke: #000000; stroke-width: 0.8"/>
      </g>
     </g>
     <g id="text_7">
      <!-- 10 -->
      <g transform="translate(115.43375 383.63573) scale(0.15 -0.15)">
       <use xlink:href="#DengXian-31"/>
       <use xlink:href="#DengXian-30" x="52.685547"/>
      </g>
     </g>
    </g>
    <g id="ytick_3">
     <g id="line2d_8">
      <g>
       <use xlink:href="#mdcb851dbdd" x="138.24" y="312.669564" style="stroke: #000000; stroke-width: 0.8"/>
      </g>
     </g>
     <g id="text_8">
      <!-- 15 -->
      <g transform="translate(115.43375 317.701595) scale(0.15 -0.15)">
       <use xlink:href="#DengXian-31"/>
       <use xlink:href="#DengXian-35" x="52.685547"/>
      </g>
     </g>
    </g>
    <g id="ytick_4">
     <g id="line2d_9">
      <g>
       <use xlink:href="#mdcb851dbdd" x="138.24" y="246.735429" style="stroke: #000000; stroke-width: 0.8"/>
      </g>
     </g>
     <g id="text_9">
      <!-- 20 -->
      <g transform="translate(115.43375 251.76746) scale(0.15 -0.15)">
       <use xlink:href="#DengXian-32"/>
       <use xlink:href="#DengXian-30" x="52.685547"/>
      </g>
     </g>
    </g>
    <g id="ytick_5">
     <g id="line2d_10">
      <g>
       <use xlink:href="#mdcb851dbdd" x="138.24" y="180.801294" style="stroke: #000000; stroke-width: 0.8"/>
      </g>
     </g>
     <g id="text_10">
      <!-- 25 -->
      <g transform="translate(115.43375 185.833325) scale(0.15 -0.15)">
       <use xlink:href="#DengXian-32"/>
       <use xlink:href="#DengXian-35" x="52.685547"/>
      </g>
     </g>
    </g>
    <g id="ytick_6">
     <g id="line2d_11">
      <g>
       <use xlink:href="#mdcb851dbdd" x="138.24" y="114.86716" style="stroke: #000000; stroke-width: 0.8"/>
      </g>
     </g>
     <g id="text_11">
      <!-- 30 -->
      <g transform="translate(115.43375 119.899191) scale(0.15 -0.15)">
       <defs>
        <path id="DengXian-33" d="M 3019 963 
Q 3019 356 2662 21 
Q 2306 -313 1656 -313 
Q 409 -313 266 828 
L 669 872 
Q 778 25 1656 25 
Q 2122 25 2367 262 
Q 2613 500 2613 963 
Q 2613 1375 2320 1590 
Q 2028 1806 1500 1806 
L 1200 1806 
L 1200 2172 
L 1491 2172 
Q 1784 2172 2011 2269 
Q 2238 2366 2369 2555 
Q 2500 2744 2500 3022 
Q 2500 3434 2283 3659 
Q 2066 3884 1644 3884 
Q 1266 3884 1027 3689 
Q 788 3494 747 3091 
L 353 3125 
Q 413 3647 755 3933 
Q 1097 4219 1647 4219 
Q 2244 4219 2573 3914 
Q 2903 3609 2903 3056 
Q 2903 2653 2672 2376 
Q 2441 2100 2022 2009 
L 2022 1997 
Q 2491 1938 2755 1658 
Q 3019 1378 3019 963 
z
" transform="scale(0.015625)"/>
       </defs>
       <use xlink:href="#DengXian-33"/>
       <use xlink:href="#DengXian-30" x="52.685547"/>
      </g>
     </g>
    </g>
   </g>
   <g id="line2d_12">
    <path d="M 177.198545 85.5972 
L 214.301922 120.793614 
L 251.405299 228.196769 
L 288.508675 251.40878 
L 325.612052 326.274346 
L 362.715429 333.725738 
L 399.818805 356.225953 
L 436.922182 374.521306 
L 474.025558 386.97355 
L 511.128935 389.112182 
L 548.232312 403.365786 
L 585.335688 409.567719 
L 622.439065 414.556149 
L 659.542442 424.148372 
L 696.645818 435.50042 
L 733.749195 437.003107 
L 770.852571 439.55258 
L 807.955948 453.447365 
L 845.059325 457.057179 
L 882.162701 461.476738 
L 919.266078 471.774753 
L 956.369455 472.1652 
" clip-path="url(#p0bf7ce1ece)" style="fill: none; stroke: #1f77b4; stroke-width: 2; stroke-linecap: square"/>
   </g>
   <g id="patch_3">
    <path d="M 138.24 491.4936 
L 138.24 66.2688 
" style="fill: none; stroke: #000000; stroke-width: 0.8; stroke-linejoin: miter; stroke-linecap: square"/>
   </g>
   <g id="patch_4">
    <path d="M 995.328 491.4936 
L 995.328 66.2688 
" style="fill: none; stroke: #000000; stroke-width: 0.8; stroke-linejoin: miter; stroke-linecap: square"/>
   </g>
   <g id="patch_5">
    <path d="M 138.24 491.4936 
L 995.328 491.4936 
" style="fill: none; stroke: #000000; stroke-width: 0.8; stroke-linejoin: miter; stroke-linecap: square"/>
   </g>
   <g id="patch_6">
    <path d="M 138.24 66.2688 
L 995.328 66.2688 
" style="fill: none; stroke: #000000; stroke-width: 0.8; stroke-linejoin: miter; stroke-linecap: square"/>
   </g>
   <g id="text_12">
    <!-- 铅钡-未风化-样本距离图 -->
    <g transform="translate(467.784 60.2688) scale(0.18 -0.18)">
     <defs>
      <path id="DengXian-94c5" d="M 2484 1913 
Q 3353 2400 3328 3622 
L 3328 3988 
Q 3328 4191 3291 4494 
Q 3572 4453 3809 4453 
L 4647 4453 
Q 4872 4453 5203 4494 
Q 5166 4191 5166 3988 
L 5166 2753 
Q 5159 2716 5159 2694 
Q 5159 2475 5491 2497 
Q 5778 2484 6175 2584 
Q 6047 2369 6047 2113 
Q 5528 2125 5288 2144 
Q 4775 2156 4806 2656 
L 4806 4134 
L 3688 4134 
L 3688 3688 
Q 3691 3619 3691 3534 
Q 3691 2413 2919 1684 
Q 2747 1863 2484 1913 
z
M 5491 1656 
Q 5453 1319 5453 1119 
L 5453 -353 
Q 5453 -556 5491 -863 
L 5056 -863 
Q 5088 -666 5094 -494 
L 3500 -494 
Q 3513 -684 3541 -947 
L 3103 -947 
Q 3150 -616 3144 -359 
L 3144 1119 
Q 3144 1338 3103 1656 
Q 3419 1619 3647 1619 
L 4922 1619 
Q 5159 1619 5491 1656 
z
M 3500 1300 
L 3500 -184 
L 5094 -184 
L 5094 1300 
L 3500 1300 
z
M 191 2828 
Q 1159 3744 1459 4959 
L 1894 4788 
Q 1984 4750 1984 4716 
Q 1991 4684 1913 4647 
Q 1772 4588 1684 4384 
Q 1538 4078 1381 3803 
L 2138 3803 
Q 2356 3803 2656 3841 
L 2656 3444 
Q 2356 3481 2150 3481 
L 1216 3481 
Q 922 3034 628 2675 
Q 428 2778 191 2828 
z
M 897 1594 
L 1388 1594 
L 1388 2400 
L 1228 2400 
Q 1025 2400 709 2363 
L 709 2759 
Q 1006 2719 1228 2719 
L 1978 2719 
Q 2169 2719 2497 2759 
L 2497 2363 
Q 2156 2400 1984 2400 
L 1747 2400 
L 1747 1594 
L 2188 1594 
Q 2413 1594 2706 1631 
L 2706 1234 
Q 2438 1275 2203 1275 
L 1747 1275 
L 1747 -128 
Q 2119 122 2553 494 
Q 2584 288 2669 122 
Q 1813 -475 1509 -794 
L 1191 -391 
Q 1394 -263 1388 13 
L 1388 1275 
L 897 1275 
Q 697 1275 378 1234 
L 378 1631 
Q 684 1594 897 1594 
z
" transform="scale(0.015625)"/>
      <path id="DengXian-94a1" d="M 2753 -959 
Q 2656 -750 2578 -703 
L 2400 -588 
Q 3700 -147 4019 1006 
Q 4084 1306 4109 1734 
Q 4128 2113 4128 2894 
Q 4116 3256 4091 3406 
L 4575 3341 
Q 4653 3334 4659 3303 
Q 4666 3278 4594 3231 
Q 4500 3156 4494 2994 
Q 4494 2303 4481 1941 
Q 4469 1528 4434 1275 
Q 4409 -6 2753 -959 
z
M 5684 813 
L 5247 813 
Q 5288 1038 5288 1325 
L 5288 4103 
L 3391 4103 
L 3391 1281 
Q 3391 947 3431 763 
L 2994 763 
Q 3034 984 3034 1281 
L 3034 3969 
Q 3034 4288 2994 4469 
Q 3163 4428 3500 4428 
L 5119 4428 
Q 5434 4428 5684 4469 
Q 5644 4319 5644 3963 
L 5644 1325 
Q 5644 1044 5684 813 
z
M 4519 481 
L 4794 775 
Q 5538 172 6175 -569 
L 5881 -850 
Q 5259 -78 4519 481 
z
M 1472 5013 
L 1888 4856 
Q 1978 4819 1984 4781 
Q 1991 4744 1906 4716 
Q 1838 4691 1784 4603 
Q 1606 4238 1409 3950 
L 2194 3950 
Q 2516 3956 2747 3988 
L 2747 3591 
Q 2509 3628 2194 3628 
L 1203 3628 
Q 934 3244 556 2847 
Q 422 3041 184 3103 
Q 1209 3994 1472 5013 
z
M 891 1709 
L 1344 1709 
L 1344 2625 
L 1203 2625 
Q 891 2625 684 2584 
L 684 2981 
Q 844 2944 1203 2944 
L 1941 2944 
Q 2272 2944 2456 2981 
L 2456 2584 
Q 2241 2625 1941 2625 
L 1691 2625 
L 1691 1709 
L 2088 1709 
Q 2413 1709 2613 1747 
L 2613 1350 
Q 2388 1388 2100 1388 
L 1691 1388 
L 1691 -78 
Q 2163 244 2553 556 
Q 2572 325 2644 166 
Q 2613 141 2528 84 
Q 2259 -122 2041 -269 
Q 1613 -575 1447 -744 
Q 1275 -513 1113 -353 
Q 1350 -225 1344 31 
L 1344 1388 
L 891 1388 
Q 603 1388 372 1350 
L 372 1747 
Q 556 1709 891 1709 
z
" transform="scale(0.015625)"/>
      <path id="DengXian-2d" d="M 694 1166 
L 694 1522 
L 2506 1522 
L 2506 1166 
L 694 1166 
z
" transform="scale(0.015625)"/>
      <path id="DengXian-672a" d="M 331 -244 
Q 1650 325 2625 2144 
L 1019 2144 
Q 819 2150 531 2106 
L 531 2516 
Q 800 2472 1006 2478 
L 2950 2478 
L 2950 3500 
L 1550 3500 
Q 1338 3506 1088 3463 
L 1088 3872 
Q 1325 3828 1528 3834 
L 2950 3834 
L 2950 4481 
Q 2956 4775 2913 5038 
L 3397 4972 
Q 3481 4966 3481 4947 
Q 3488 4928 3425 4891 
Q 3316 4844 3322 4469 
L 3322 3834 
L 4697 3834 
Q 4891 3828 5166 3872 
L 5166 3463 
Q 4897 3506 4697 3500 
L 3322 3500 
L 3322 2478 
L 5313 2478 
Q 5491 2472 5747 2516 
L 5747 2106 
Q 5491 2150 5313 2144 
L 3647 2144 
Q 4306 569 6022 -141 
Q 5722 -269 5619 -506 
Q 3938 519 3322 2034 
L 3322 -422 
Q 3316 -750 3359 -997 
L 2913 -997 
Q 2956 -709 2950 -428 
L 2950 1991 
Q 1966 294 756 -575 
Q 616 -331 331 -244 
z
" transform="scale(0.015625)"/>
      <path id="DengXian-98ce" d="M 206 -459 
Q 838 128 1075 1166 
Q 1259 1938 1259 3163 
Q 1259 3559 1241 3994 
Q 1228 4300 1178 4628 
Q 1538 4588 1825 4588 
L 4538 4588 
Q 4850 4588 5178 4628 
Q 5172 4581 5153 4488 
Q 5094 4159 5094 4031 
Q 5053 3291 5053 2625 
Q 5053 1681 5141 1025 
Q 5313 -159 5678 -225 
Q 5825 -256 5825 200 
Q 5825 303 5819 416 
Q 5978 281 6228 184 
Q 6138 -697 5778 -738 
Q 4672 -709 4672 2756 
Q 4672 3481 4716 4294 
L 1631 4294 
Q 1666 3600 1666 3044 
Q 1666 1878 1522 1184 
Q 1331 172 634 -709 
Q 428 -563 206 -459 
z
M 1394 447 
Q 2175 850 3003 2022 
Q 2606 2450 1838 3169 
L 2088 3431 
Q 2631 2913 3188 2338 
Q 3681 3188 3816 3756 
L 4213 3572 
Q 4306 3525 4306 3506 
Q 4313 3481 4231 3450 
Q 4116 3400 4025 3213 
Q 3763 2663 3444 2059 
Q 4153 1300 4634 728 
L 4341 475 
Q 3803 1153 3238 1766 
Q 2584 844 1819 184 
Q 1625 347 1394 447 
z
" transform="scale(0.015625)"/>
      <path id="DengXian-5316" d="M 238 2034 
Q 1325 2931 2113 4972 
L 2584 4728 
Q 2650 4697 2644 4678 
Q 2644 4659 2572 4628 
Q 2431 4569 2291 4281 
Q 2100 3884 1875 3488 
L 1875 -319 
Q 1881 -575 1913 -922 
L 1478 -922 
Q 1516 -556 1516 -319 
L 1516 2894 
Q 1147 2303 684 1728 
Q 488 1900 238 2034 
z
M 3866 4250 
L 3866 1991 
Q 4897 2913 5447 3828 
L 5838 3488 
Q 5900 3438 5894 3414 
Q 5888 3391 5806 3366 
Q 5684 3366 5453 3091 
Q 4588 2106 3866 1484 
L 3866 44 
Q 3853 -244 3994 -294 
Q 4128 -372 4665 -372 
Q 5203 -372 5381 -294 
Q 5569 -231 5619 6 
Q 5663 206 5697 569 
Q 5850 428 6156 366 
Q 6144 306 6125 231 
Q 6094 97 6069 -6 
Q 5913 -728 5166 -722 
Q 4903 -731 4703 -731 
Q 4366 -731 4044 -709 
Q 3513 -659 3494 -134 
L 3494 1209 
Q 3066 903 2547 563 
Q 2350 831 2169 966 
Q 2681 1081 3494 1684 
L 3494 4269 
Q 3494 4469 3456 4878 
L 3950 4813 
Q 4019 4806 4019 4781 
Q 4025 4769 3969 4709 
Q 3859 4622 3866 4250 
z
" transform="scale(0.015625)"/>
      <path id="DengXian-6837" d="M 4213 991 
L 4213 2047 
L 3609 2047 
Q 3263 2047 3097 2009 
L 3097 2406 
Q 3256 2369 3609 2369 
L 4213 2369 
L 4213 3372 
L 3353 3372 
Q 3028 3372 2841 3334 
L 2841 3731 
Q 3009 3694 3353 3694 
L 3781 3694 
Q 3475 4206 3047 4647 
L 3328 4903 
Q 3788 4422 4103 3963 
L 3803 3694 
L 4525 3694 
Q 4966 4500 5069 5019 
L 5516 4794 
Q 5600 4756 5600 4728 
Q 5600 4709 5522 4684 
Q 5381 4628 5319 4513 
Q 5159 4147 4878 3694 
L 5447 3694 
Q 5772 3694 5966 3731 
L 5966 3334 
Q 5766 3372 5453 3372 
L 4569 3372 
L 4569 2369 
L 5153 2369 
Q 5503 2369 5672 2406 
L 5672 2009 
Q 5478 2047 5159 2047 
L 4569 2047 
L 4569 991 
L 5650 991 
Q 5984 991 6175 1031 
L 6175 634 
Q 5978 672 5656 672 
L 4569 672 
L 4569 -434 
Q 4569 -794 4609 -1013 
L 4172 -1013 
Q 4213 -769 4213 -441 
L 4213 672 
L 3103 672 
Q 2791 672 2591 634 
L 2591 1031 
Q 2772 991 3103 991 
L 4213 991 
z
M 1344 3219 
L 838 3219 
Q 563 3219 347 3181 
L 347 3566 
Q 519 3525 856 3525 
L 1434 3525 
L 1434 4441 
Q 1434 4750 1394 4928 
L 1875 4863 
Q 1941 4850 1947 4825 
Q 1953 4800 1894 4763 
Q 1784 4709 1791 4441 
L 1791 3525 
L 2094 3525 
Q 2438 3525 2613 3566 
L 2613 3181 
Q 2413 3219 2100 3219 
L 1791 3219 
L 1791 2822 
Q 2322 2375 2784 1863 
L 2497 1544 
Q 2234 1941 1791 2344 
L 1791 -434 
Q 1791 -781 1831 -1019 
L 1394 -1019 
Q 1434 -819 1434 -434 
L 1434 2344 
Q 1063 1381 691 744 
Q 494 909 225 959 
Q 953 1716 1344 3219 
z
" transform="scale(0.015625)"/>
      <path id="DengXian-672c" d="M 197 184 
Q 1619 884 2713 3278 
L 1159 3278 
Q 831 3278 647 3238 
L 647 3634 
Q 813 3597 1159 3597 
L 3047 3597 
L 3047 4506 
Q 3047 4838 3009 4991 
L 3494 4928 
Q 3591 4922 3584 4903 
Q 3591 4884 3488 4825 
Q 3413 4738 3406 4434 
L 3406 3597 
L 5306 3597 
Q 5638 3597 5831 3634 
L 5831 3238 
Q 5600 3278 5319 3278 
L 3744 3278 
Q 4550 1056 6175 263 
Q 5900 122 5691 -84 
Q 4244 941 3406 3169 
L 3406 628 
L 4159 628 
Q 4500 628 4678 666 
L 4678 269 
Q 4500 306 4166 306 
L 3406 306 
L 3406 -481 
Q 3406 -500 3406 -544 
Q 3397 -897 3431 -1056 
L 3009 -1056 
Q 3047 -838 3047 -488 
L 3047 306 
L 2175 306 
Q 1875 306 1656 269 
L 1656 666 
Q 1819 628 2175 628 
L 3047 628 
L 3047 3059 
Q 2094 978 616 -147 
Q 488 56 197 184 
z
" transform="scale(0.015625)"/>
      <path id="DengXian-8ddd" d="M 3138 4616 
Q 3450 4575 3669 4575 
L 5403 4575 
Q 5625 4569 5925 4616 
L 5925 4219 
Q 5606 4263 5403 4256 
L 3531 4256 
L 3531 2988 
L 5056 2988 
Q 5319 2988 5644 3028 
Q 5606 2694 5606 2478 
L 5606 1522 
Q 5606 1294 5644 941 
Q 5338 984 5069 978 
L 3531 978 
L 3531 -341 
L 5556 -341 
Q 5759 -347 6075 -300 
L 6075 -697 
Q 5759 -653 5556 -659 
L 3763 -659 
Q 3500 -659 3138 -697 
Q 3175 -353 3175 -109 
L 3175 4038 
Q 3175 4256 3138 4616 
z
M 3531 2669 
L 3531 1300 
L 5247 1300 
L 5247 2669 
L 3531 2669 
z
M 550 2100 
L 1031 2034 
Q 1106 2028 1112 1997 
Q 1119 1966 1056 1900 
Q 928 1772 934 1491 
L 934 -141 
Q 1288 -19 1509 63 
L 1509 2706 
L 1106 2706 
Q 884 2706 588 2669 
Q 628 2931 628 3156 
L 628 4128 
Q 628 4319 588 4647 
Q 863 4609 1100 4609 
L 2138 4609 
Q 2350 4603 2638 4647 
Q 2591 4306 2597 4128 
L 2597 3156 
Q 2597 2963 2638 2669 
Q 2344 2706 2156 2706 
L 1869 2706 
L 1869 1800 
L 2181 1800 
Q 2388 1791 2700 1838 
L 2700 1441 
Q 2400 1478 2181 1478 
L 1869 1478 
L 1869 191 
Q 2450 397 2822 575 
L 2791 141 
Q 1063 -459 538 -763 
L 269 -331 
Q 434 -288 588 -250 
L 588 1491 
Q 588 1747 550 2100 
z
M 972 4288 
L 972 3028 
L 2253 3028 
L 2253 4288 
L 972 4288 
z
" transform="scale(0.015625)"/>
      <path id="DengXian-79bb" d="M 953 4213 
L 3547 4213 
Q 3144 4525 2619 4775 
L 2869 5056 
Q 3397 4788 3834 4506 
L 3591 4213 
L 5478 4213 
Q 5722 4219 5991 4250 
L 5991 3866 
Q 5703 3897 5478 3903 
L 953 3903 
Q 744 3897 434 3866 
L 434 4250 
Q 744 4219 953 4213 
z
M 991 1447 
Q 1313 1416 1563 1409 
L 2778 1409 
Q 2944 1691 3022 1959 
L 1831 1959 
Q 1594 1953 1275 1919 
Q 1306 2228 1313 2431 
L 1313 2944 
Q 1306 3194 1275 3494 
L 1759 3431 
Q 1797 3419 1797 3394 
Q 1797 3359 1734 3297 
Q 1650 3244 1656 2906 
L 1656 2266 
L 4831 2266 
L 4831 3066 
Q 4825 3316 4794 3609 
L 5281 3547 
Q 5328 3528 5328 3500 
Q 5328 3469 5281 3425 
Q 5172 3353 5178 3034 
L 5178 2425 
Q 5184 2181 5216 1919 
Q 4934 1953 4678 1959 
L 3181 1959 
L 3456 1838 
Q 3519 1806 3519 1776 
Q 3519 1747 3456 1716 
Q 3322 1663 3175 1409 
L 5044 1409 
Q 5300 1416 5600 1447 
Q 5569 1153 5563 909 
L 5563 -319 
Q 5575 -703 5363 -813 
Q 5166 -941 4453 -984 
Q 4409 -666 4306 -506 
Q 4628 -541 4803 -541 
Q 4969 -541 5044 -513 
Q 5216 -475 5203 -238 
L 5203 1100 
L 3034 1100 
Q 2784 678 2528 313 
Q 3244 359 3897 428 
Q 3775 622 3584 838 
L 3922 1000 
Q 4294 519 4641 19 
L 4306 -244 
Q 4213 -50 4072 153 
Q 2241 -44 2047 -141 
L 1869 288 
Q 2188 359 2363 647 
Q 2497 863 2631 1100 
L 1388 1100 
L 1388 -434 
Q 1394 -678 1428 -972 
L 991 -972 
Q 1025 -666 1031 -434 
L 1031 903 
Q 1025 1153 991 1447 
z
M 2016 2700 
Q 2566 2809 3016 3047 
Q 2497 3250 2041 3391 
L 2203 3706 
Q 2503 3584 3244 3303 
Q 3322 3272 3359 3256 
Q 3803 3506 4178 3872 
L 4513 3578 
Q 4541 3550 4541 3528 
Q 4541 3522 4533 3505 
Q 4525 3488 4469 3488 
Q 4347 3488 4219 3413 
Q 3994 3272 3713 3103 
Q 4128 2944 4538 2759 
L 4359 2413 
Q 4044 2606 3384 2881 
Q 2784 2534 2253 2369 
Q 2209 2503 2016 2700 
z
" transform="scale(0.015625)"/>
      <path id="DengXian-56fe" d="M 2338 2753 
L 2584 3053 
Q 2719 2847 3072 2638 
Q 3397 2888 3719 3284 
L 2522 3284 
Q 2156 2841 1844 2522 
Q 1663 2694 1434 2803 
Q 2241 3219 2584 4141 
L 2994 4006 
Q 3059 3988 3059 3963 
Q 3059 3938 2994 3903 
Q 2906 3866 2713 3603 
L 3847 3603 
Q 4091 3609 4441 3641 
Q 3994 3003 3384 2450 
Q 4184 1978 5088 1850 
Q 4856 1619 4769 1422 
Q 3963 1722 3122 2203 
Q 2566 1784 1556 1369 
Q 1388 1606 1209 1734 
Q 2138 1953 2797 2425 
Q 2553 2584 2338 2753 
z
M 2309 722 
L 2478 1056 
Q 3353 697 4191 269 
L 3994 -50 
Q 3200 422 2309 722 
z
M 2675 1528 
L 2834 1819 
Q 3444 1550 3975 1259 
L 3809 941 
Q 3341 1241 2675 1528 
z
M 1159 -947 
L 722 -947 
Q 756 -616 763 -372 
L 763 3994 
Q 756 4256 722 4563 
Q 1063 4531 1319 4525 
L 5125 4525 
Q 5375 4531 5716 4563 
Q 5684 4244 5678 4006 
L 5678 -250 
Q 5684 -453 5716 -819 
L 5281 -819 
Q 5313 -628 5319 -453 
L 1119 -453 
Q 1125 -672 1159 -947 
z
M 1119 -147 
L 5319 -147 
L 5319 4206 
L 1119 4206 
L 1119 -147 
z
" transform="scale(0.015625)"/>
     </defs>
     <use xlink:href="#DengXian-94c5"/>
     <use xlink:href="#DengXian-94a1" x="100"/>
     <use xlink:href="#DengXian-2d" x="200"/>
     <use xlink:href="#DengXian-672a" x="250"/>
     <use xlink:href="#DengXian-98ce" x="350"/>
     <use xlink:href="#DengXian-5316" x="450"/>
     <use xlink:href="#DengXian-2d" x="550"/>
     <use xlink:href="#DengXian-6837" x="600"/>
     <use xlink:href="#DengXian-672c" x="700"/>
     <use xlink:href="#DengXian-8ddd" x="800"/>
     <use xlink:href="#DengXian-79bb" x="900"/>
     <use xlink:href="#DengXian-56fe" x="1000"/>
    </g>
   </g>
  </g>
 </g>
 <defs>
  <clipPath id="p0bf7ce1ece">
   <rect x="138.24" y="66.2688" width="857.088" height="425.2248"/>
  </clipPath>
 </defs>
</svg>
