<?xml version="1.0" encoding="utf-8" standalone="no"?>
<!DOCTYPE svg PUBLIC "-//W3C//DTD SVG 1.1//EN"
  "http://www.w3.org/Graphics/SVG/1.1/DTD/svg11.dtd">
<svg xmlns:xlink="http://www.w3.org/1999/xlink" width="1105.92pt" height="552.24pt" viewBox="0 0 1105.92 552.24" xmlns="http://www.w3.org/2000/svg" version="1.1">
 <metadata>
  <rdf:RDF xmlns:dc="http://purl.org/dc/elements/1.1/" xmlns:cc="http://creativecommons.org/ns#" xmlns:rdf="http://www.w3.org/1999/02/22-rdf-syntax-ns#">
   <cc:Work>
    <dc:type rdf:resource="http://purl.org/dc/dcmitype/StillImage"/>
    <dc:date>2024-04-04T12:11:16.332993</dc:date>
    <dc:format>image/svg+xml</dc:format>
    <dc:creator>
     <cc:Agent>
      <dc:title>Matplotlib v3.8.3, https://matplotlib.org/</dc:title>
     </cc:Agent>
    </dc:creator>
   </cc:Work>
  </rdf:RDF>
 </metadata>
 <defs>
  <style type="text/css">*{stroke-linejoin: round; stroke-linecap: butt}</style>
 </defs>
 <g id="figure_1">
  <g id="patch_1">
   <path d="M 0 552.24 
L 1105.92 552.24 
L 1105.92 0 
L 0 0 
z
" style="fill: #ffffff"/>
  </g>
  <g id="axes_1">
   <g id="patch_2">
    <path d="M 138.24 491.4936 
L 995.328 491.4936 
L 995.328 66.2688 
L 138.24 66.2688 
z
" style="fill: #ffffff"/>
   </g>
   <g id="matplotlib.axis_1">
    <g id="xtick_1">
     <g id="text_1">
      <!-- 48 -->
      <g transform="translate(139.294785 515.112459) rotate(-30) scale(0.15 -0.15)">
       <defs>
        <path id="DengXian-34" d="M 2516 803 
L 2516 -250 
L 2125 -250 
L 2125 803 
L 141 803 
L 141 1116 
L 2088 4153 
L 2516 4153 
L 2516 1131 
L 3113 1131 
L 3113 803 
L 2516 803 
z
M 2125 3628 
L 538 1131 
L 2125 1131 
L 2125 3628 
z
" transform="scale(0.015625)"/>
        <path id="DengXian-38" d="M 3050 972 
Q 3050 359 2697 23 
Q 2344 -313 1688 -313 
Q 1038 -313 680 25 
Q 322 363 322 966 
Q 322 1391 553 1684 
Q 784 1978 1159 2053 
L 1159 2066 
Q 819 2156 619 2440 
Q 419 2725 419 3109 
Q 419 3606 759 3912 
Q 1100 4219 1675 4219 
Q 2266 4219 2606 3911 
Q 2947 3603 2947 3103 
Q 2947 2706 2742 2428 
Q 2538 2150 2200 2075 
L 2200 2063 
Q 2588 1988 2819 1702 
Q 3050 1416 3050 972 
z
M 2541 3088 
Q 2541 3494 2316 3700 
Q 2091 3906 1675 3906 
Q 1263 3906 1042 3695 
Q 822 3484 822 3088 
Q 822 2684 1048 2454 
Q 1275 2225 1681 2225 
Q 2100 2225 2320 2450 
Q 2541 2675 2541 3088 
z
M 2644 1009 
Q 2644 1428 2394 1667 
Q 2144 1906 1678 1906 
Q 1231 1906 978 1656 
Q 725 1406 725 997 
Q 725 516 973 259 
Q 1222 3 1694 3 
Q 2172 3 2408 258 
Q 2644 513 2644 1009 
z
" transform="scale(0.015625)"/>
       </defs>
       <use xlink:href="#DengXian-34"/>
       <use xlink:href="#DengXian-38" x="52.685547"/>
      </g>
     </g>
    </g>
    <g id="xtick_2">
     <g id="text_2">
      <!-- 8 -->
      <g transform="translate(179.104015 511.160896) rotate(-30) scale(0.15 -0.15)">
       <use xlink:href="#DengXian-38"/>
      </g>
     </g>
    </g>
    <g id="xtick_3">
     <g id="text_3">
      <!-- 26 -->
      <g transform="translate(205.224631 515.112459) rotate(-30) scale(0.15 -0.15)">
       <defs>
        <path id="DengXian-32" d="M 347 -250 
L 347 31 
Q 491 394 764 751 
Q 1038 1109 1566 1569 
Q 2109 2038 2326 2359 
Q 2544 2681 2544 3034 
Q 2544 3441 2316 3661 
Q 2088 3881 1681 3881 
Q 1313 3881 1077 3664 
Q 841 3447 800 3069 
L 400 3119 
Q 447 3613 795 3916 
Q 1144 4219 1684 4219 
Q 2281 4219 2615 3912 
Q 2950 3606 2950 3059 
Q 2950 2778 2850 2531 
Q 2750 2284 2550 2039 
Q 2350 1794 1869 1366 
Q 1025 616 803 103 
L 3016 103 
L 3016 -250 
L 347 -250 
z
" transform="scale(0.015625)"/>
        <path id="DengXian-36" d="M 3047 1191 
Q 3047 491 2697 89 
Q 2347 -313 1747 -313 
Q 1075 -313 720 234 
Q 366 781 366 1850 
Q 366 3031 739 3625 
Q 1113 4219 1841 4219 
Q 2284 4219 2553 4026 
Q 2822 3834 2944 3428 
L 2566 3344 
Q 2400 3888 1816 3888 
Q 1303 3888 1033 3402 
Q 763 2916 756 1969 
Q 913 2263 1183 2417 
Q 1453 2572 1800 2572 
Q 2372 2572 2709 2201 
Q 3047 1831 3047 1191 
z
M 2647 1166 
Q 2647 1675 2405 1964 
Q 2163 2253 1716 2253 
Q 1466 2253 1256 2137 
Q 1047 2022 926 1806 
Q 806 1591 806 1306 
Q 806 747 1064 383 
Q 1322 19 1738 19 
Q 2166 19 2406 325 
Q 2647 631 2647 1166 
z
" transform="scale(0.015625)"/>
       </defs>
       <use xlink:href="#DengXian-32"/>
       <use xlink:href="#DengXian-36" x="52.685547"/>
      </g>
     </g>
    </g>
    <g id="xtick_4">
     <g id="text_4">
      <!-- 8严重风化点 -->
      <g transform="translate(180.081956 548.896347) rotate(-30) scale(0.15 -0.15)">
       <defs>
        <path id="DengXian-4e25" d="M 244 -659 
Q 1184 -22 1184 1625 
Q 1184 1847 1172 2041 
Q 1153 2406 1125 2663 
Q 1306 2625 1663 2625 
L 2700 2625 
L 2700 4213 
L 1447 4213 
Q 1119 4213 953 4172 
L 953 4569 
Q 1100 4531 1447 4531 
L 5288 4531 
Q 5631 4531 5791 4569 
L 5791 4172 
Q 5594 4213 5288 4213 
L 4197 4213 
L 4197 2625 
L 5556 2625 
Q 5875 2625 6016 2663 
L 6016 2266 
Q 5850 2303 5569 2303 
L 1575 2303 
Q 1550 891 1394 319 
Q 1241 -313 756 -916 
Q 569 -794 244 -659 
z
M 3072 4213 
L 3072 2625 
L 3828 2625 
L 3828 4213 
L 3072 4213 
z
M 1509 3884 
Q 2081 3359 2316 3084 
L 2009 2797 
Q 1697 3231 1203 3603 
L 1509 3884 
z
M 5275 3944 
L 5650 3647 
Q 5728 3591 5722 3572 
Q 5722 3553 5619 3547 
Q 5497 3525 5381 3425 
Q 5153 3175 4775 2822 
Q 4616 2969 4459 3091 
Q 4966 3513 5275 3944 
z
" transform="scale(0.015625)"/>
        <path id="DengXian-91cd" d="M 909 4481 
Q 1359 4444 1856 4444 
Q 2516 4444 3188 4513 
Q 4325 4641 4934 4922 
L 5228 4538 
Q 5284 4472 5284 4441 
Q 5284 4431 5281 4428 
Q 5272 4413 5238 4413 
Q 5216 4413 5166 4422 
Q 5059 4444 4975 4444 
Q 4906 4444 4831 4428 
Q 4263 4334 3413 4206 
L 3413 3634 
L 5606 3634 
Q 5797 3628 5984 3675 
L 5984 3291 
Q 5791 3334 5613 3328 
L 3413 3328 
L 3413 2925 
L 4769 2925 
Q 4947 2919 5191 2963 
Q 5147 2734 5153 2553 
L 5153 1306 
Q 5147 1106 5191 903 
Q 4959 947 4775 941 
L 3413 941 
L 3413 488 
L 4959 488 
Q 5147 488 5356 525 
L 5356 141 
Q 5119 184 4953 178 
L 3413 178 
L 3413 -384 
L 5613 -384 
Q 5778 -391 6009 -347 
L 6009 -728 
Q 5791 -684 5606 -691 
L 813 -691 
Q 628 -684 409 -728 
L 409 -347 
Q 594 -391 800 -384 
L 3053 -384 
L 3053 178 
L 1544 178 
Q 1381 184 1147 141 
L 1147 525 
Q 1350 481 1522 488 
L 3053 488 
L 3053 941 
L 1709 941 
Q 1528 947 1275 903 
Q 1319 1113 1313 1300 
L 1313 2559 
Q 1319 2725 1275 2963 
Q 1509 2919 1703 2925 
L 3053 2925 
L 3053 3328 
L 781 3328 
Q 609 3334 372 3291 
L 372 3675 
Q 569 3628 769 3634 
L 3053 3634 
L 3053 4159 
Q 2419 4091 1153 4044 
Q 1031 4347 909 4481 
z
M 3053 1234 
L 3053 1784 
L 1656 1784 
L 1656 1234 
L 3053 1234 
z
M 1656 2631 
L 1656 2081 
L 3053 2081 
L 3053 2631 
L 1656 2631 
z
M 3413 2631 
L 3413 2081 
L 4806 2081 
L 4806 2631 
L 3413 2631 
z
M 3413 1784 
L 3413 1234 
L 4806 1234 
L 4806 1784 
L 3413 1784 
z
" transform="scale(0.015625)"/>
        <path id="DengXian-98ce" d="M 206 -459 
Q 838 128 1075 1166 
Q 1259 1938 1259 3163 
Q 1259 3559 1241 3994 
Q 1228 4300 1178 4628 
Q 1538 4588 1825 4588 
L 4538 4588 
Q 4850 4588 5178 4628 
Q 5172 4581 5153 4488 
Q 5094 4159 5094 4031 
Q 5053 3291 5053 2625 
Q 5053 1681 5141 1025 
Q 5313 -159 5678 -225 
Q 5825 -256 5825 200 
Q 5825 303 5819 416 
Q 5978 281 6228 184 
Q 6138 -697 5778 -738 
Q 4672 -709 4672 2756 
Q 4672 3481 4716 4294 
L 1631 4294 
Q 1666 3600 1666 3044 
Q 1666 1878 1522 1184 
Q 1331 172 634 -709 
Q 428 -563 206 -459 
z
M 1394 447 
Q 2175 850 3003 2022 
Q 2606 2450 1838 3169 
L 2088 3431 
Q 2631 2913 3188 2338 
Q 3681 3188 3816 3756 
L 4213 3572 
Q 4306 3525 4306 3506 
Q 4313 3481 4231 3450 
Q 4116 3400 4025 3213 
Q 3763 2663 3444 2059 
Q 4153 1300 4634 728 
L 4341 475 
Q 3803 1153 3238 1766 
Q 2584 844 1819 184 
Q 1625 347 1394 447 
z
" transform="scale(0.015625)"/>
        <path id="DengXian-5316" d="M 238 2034 
Q 1325 2931 2113 4972 
L 2584 4728 
Q 2650 4697 2644 4678 
Q 2644 4659 2572 4628 
Q 2431 4569 2291 4281 
Q 2100 3884 1875 3488 
L 1875 -319 
Q 1881 -575 1913 -922 
L 1478 -922 
Q 1516 -556 1516 -319 
L 1516 2894 
Q 1147 2303 684 1728 
Q 488 1900 238 2034 
z
M 3866 4250 
L 3866 1991 
Q 4897 2913 5447 3828 
L 5838 3488 
Q 5900 3438 5894 3414 
Q 5888 3391 5806 3366 
Q 5684 3366 5453 3091 
Q 4588 2106 3866 1484 
L 3866 44 
Q 3853 -244 3994 -294 
Q 4128 -372 4665 -372 
Q 5203 -372 5381 -294 
Q 5569 -231 5619 6 
Q 5663 206 5697 569 
Q 5850 428 6156 366 
Q 6144 306 6125 231 
Q 6094 97 6069 -6 
Q 5913 -728 5166 -722 
Q 4903 -731 4703 -731 
Q 4366 -731 4044 -709 
Q 3513 -659 3494 -134 
L 3494 1209 
Q 3066 903 2547 563 
Q 2350 831 2169 966 
Q 2681 1081 3494 1684 
L 3494 4269 
Q 3494 4469 3456 4878 
L 3950 4813 
Q 4019 4806 4019 4781 
Q 4025 4769 3969 4709 
Q 3859 4622 3866 4250 
z
" transform="scale(0.015625)"/>
        <path id="DengXian-70b9" d="M 306 -653 
Q 897 -116 1281 678 
L 1663 453 
Q 1734 409 1728 384 
Q 1722 353 1631 319 
Q 1522 275 1441 141 
Q 1153 -325 744 -863 
Q 594 -716 306 -653 
z
M 1247 1075 
Q 1294 1428 1288 1656 
L 1288 2431 
Q 1288 2650 1247 2988 
Q 1569 2950 1806 2950 
L 2803 2950 
L 2803 4409 
Q 2803 4594 2766 4972 
L 3272 4916 
Q 3347 4903 3353 4870 
Q 3359 4838 3297 4781 
Q 3169 4647 3163 4347 
L 3163 4097 
L 5069 4097 
Q 5300 4097 5631 4134 
L 5631 3738 
Q 5300 3775 5069 3775 
L 3163 3775 
L 3163 2950 
L 4441 2950 
Q 4609 2944 4997 2988 
Q 4959 2663 4959 2456 
L 4959 1563 
Q 4959 1394 4997 1075 
Q 4634 1113 4422 1113 
L 1838 1113 
Q 1619 1119 1247 1075 
z
M 1644 2631 
L 1644 1434 
L 4603 1434 
L 4603 2631 
L 1644 2631 
z
M 2081 459 
L 2478 581 
Q 2719 -78 2859 -600 
L 2463 -744 
Q 2350 -84 2081 459 
z
M 3303 500 
L 3669 641 
Q 3981 78 4231 -466 
L 3853 -672 
Q 3653 -63 3303 500 
z
M 5094 775 
Q 5516 147 5931 -588 
L 5550 -831 
Q 5222 -141 4728 550 
L 5094 775 
z
" transform="scale(0.015625)"/>
       </defs>
       <use xlink:href="#DengXian-38"/>
       <use xlink:href="#DengXian-4e25" x="52.685547"/>
       <use xlink:href="#DengXian-91cd" x="152.685547"/>
       <use xlink:href="#DengXian-98ce" x="252.685547"/>
       <use xlink:href="#DengXian-5316" x="352.685547"/>
       <use xlink:href="#DengXian-70b9" x="452.685547"/>
      </g>
     </g>
    </g>
    <g id="xtick_5">
     <g id="text_5">
      <!-- 26严重风化点 -->
      <g transform="translate(206.202572 552.847909) rotate(-30) scale(0.15 -0.15)">
       <use xlink:href="#DengXian-32"/>
       <use xlink:href="#DengXian-36" x="52.685547"/>
       <use xlink:href="#DengXian-4e25" x="105.371094"/>
       <use xlink:href="#DengXian-91cd" x="205.371094"/>
       <use xlink:href="#DengXian-98ce" x="305.371094"/>
       <use xlink:href="#DengXian-5316" x="405.371094"/>
       <use xlink:href="#DengXian-70b9" x="505.371094"/>
      </g>
     </g>
    </g>
    <g id="xtick_6">
     <g id="text_6">
      <!-- 11 -->
      <g transform="translate(304.1194 515.112459) rotate(-30) scale(0.15 -0.15)">
       <defs>
        <path id="DengXian-31" d="M 484 -250 
L 484 84 
L 1609 84 
L 1609 3744 
L 603 3075 
L 603 3434 
L 1653 4153 
L 2000 4153 
L 2000 84 
L 2959 84 
L 2959 -250 
L 484 -250 
z
" transform="scale(0.015625)"/>
       </defs>
       <use xlink:href="#DengXian-31"/>
       <use xlink:href="#DengXian-31" x="52.685547"/>
      </g>
     </g>
    </g>
    <g id="xtick_7">
     <g id="text_7">
      <!-- 2 -->
      <g transform="translate(343.92863 511.160896) rotate(-30) scale(0.15 -0.15)">
       <use xlink:href="#DengXian-32"/>
      </g>
     </g>
    </g>
    <g id="xtick_8">
     <g id="text_8">
      <!-- 36 -->
      <g transform="translate(370.049247 515.112459) rotate(-30) scale(0.15 -0.15)">
       <defs>
        <path id="DengXian-33" d="M 3019 963 
Q 3019 356 2662 21 
Q 2306 -313 1656 -313 
Q 409 -313 266 828 
L 669 872 
Q 778 25 1656 25 
Q 2122 25 2367 262 
Q 2613 500 2613 963 
Q 2613 1375 2320 1590 
Q 2028 1806 1500 1806 
L 1200 1806 
L 1200 2172 
L 1491 2172 
Q 1784 2172 2011 2269 
Q 2238 2366 2369 2555 
Q 2500 2744 2500 3022 
Q 2500 3434 2283 3659 
Q 2066 3884 1644 3884 
Q 1266 3884 1027 3689 
Q 788 3494 747 3091 
L 353 3125 
Q 413 3647 755 3933 
Q 1097 4219 1647 4219 
Q 2244 4219 2573 3914 
Q 2903 3609 2903 3056 
Q 2903 2653 2672 2376 
Q 2441 2100 2022 2009 
L 2022 1997 
Q 2491 1938 2755 1658 
Q 3019 1378 3019 963 
z
" transform="scale(0.015625)"/>
       </defs>
       <use xlink:href="#DengXian-33"/>
       <use xlink:href="#DengXian-36" x="52.685547"/>
      </g>
     </g>
    </g>
    <g id="xtick_9">
     <g id="text_9">
      <!-- 34 -->
      <g transform="translate(403.01417 515.112459) rotate(-30) scale(0.15 -0.15)">
       <use xlink:href="#DengXian-33"/>
       <use xlink:href="#DengXian-34" x="52.685547"/>
      </g>
     </g>
    </g>
    <g id="xtick_10">
     <g id="text_10">
      <!-- 38 -->
      <g transform="translate(435.979093 515.112459) rotate(-30) scale(0.15 -0.15)">
       <use xlink:href="#DengXian-33"/>
       <use xlink:href="#DengXian-38" x="52.685547"/>
      </g>
     </g>
    </g>
    <g id="xtick_11">
     <g id="text_11">
      <!-- 49 -->
      <g transform="translate(468.944016 515.112459) rotate(-30) scale(0.15 -0.15)">
       <defs>
        <path id="DengXian-39" d="M 3013 2047 
Q 3013 894 2638 290 
Q 2263 -313 1538 -313 
Q 622 -313 384 500 
L 759 581 
Q 844 294 1048 155 
Q 1253 16 1547 16 
Q 2588 16 2622 1934 
Q 2494 1666 2208 1494 
Q 1922 1322 1553 1322 
Q 991 1322 658 1717 
Q 325 2113 325 2775 
Q 325 3447 675 3833 
Q 1025 4219 1647 4219 
Q 2316 4219 2664 3678 
Q 3013 3138 3013 2047 
z
M 2572 2634 
Q 2572 3203 2314 3543 
Q 2056 3884 1638 3884 
Q 1203 3884 964 3590 
Q 725 3297 725 2778 
Q 725 2244 965 1945 
Q 1206 1647 1631 1647 
Q 2056 1647 2314 1923 
Q 2572 2200 2572 2634 
z
" transform="scale(0.015625)"/>
       </defs>
       <use xlink:href="#DengXian-34"/>
       <use xlink:href="#DengXian-39" x="52.685547"/>
      </g>
     </g>
    </g>
    <g id="xtick_12">
     <g id="text_12">
      <!-- 51部位1 -->
      <g transform="translate(469.08387 534.705421) rotate(-30) scale(0.15 -0.15)">
       <defs>
        <path id="DengXian-35" d="M 3047 1169 
Q 3047 469 2676 78 
Q 2306 -313 1641 -313 
Q 575 -313 366 672 
L 763 734 
Q 859 350 1075 186 
Q 1291 22 1669 22 
Q 2134 22 2387 315 
Q 2641 609 2641 1153 
Q 2641 1619 2392 1895 
Q 2144 2172 1713 2172 
Q 1459 2172 1265 2095 
Q 1072 2019 875 1844 
L 503 1844 
L 641 4153 
L 2828 4153 
L 2828 3816 
L 997 3816 
L 894 2222 
Q 1113 2381 1323 2442 
Q 1534 2503 1775 2503 
Q 2359 2503 2703 2142 
Q 3047 1781 3047 1169 
z
" transform="scale(0.015625)"/>
        <path id="DengXian-90e8" d="M 788 2438 
L 2169 2438 
Q 2472 2981 2669 3653 
L 3091 3463 
Q 3144 3438 3138 3406 
Q 3138 3366 3072 3341 
Q 2963 3291 2881 3128 
Q 2688 2725 2534 2438 
L 3144 2438 
Q 3391 2444 3669 2478 
L 3669 2081 
Q 3413 2113 3144 2119 
L 788 2119 
Q 556 2113 269 2081 
L 269 2478 
Q 550 2444 788 2438 
z
M 1088 4084 
L 2106 4084 
Q 1856 4416 1472 4744 
L 1766 5006 
Q 2138 4653 2419 4359 
L 2131 4084 
L 2950 4084 
Q 3206 4091 3481 4122 
L 3481 3725 
Q 3219 3756 2950 3763 
L 1088 3763 
Q 850 3756 569 3725 
L 569 4122 
Q 872 4091 1088 4084 
z
M 1275 -838 
L 838 -838 
Q 872 -588 878 -331 
L 878 1044 
Q 872 1269 838 1563 
Q 1119 1522 1350 1522 
L 2675 1522 
Q 2931 1528 3206 1563 
Q 3175 1300 3169 1038 
L 3169 -159 
Q 3175 -391 3206 -678 
L 2772 -678 
Q 2803 -453 2809 -288 
L 1234 -288 
L 1234 -331 
Q 1241 -588 1275 -838 
z
M 1234 1203 
L 1234 19 
L 2809 19 
L 2809 1203 
L 1234 1203 
z
M 1203 3597 
Q 1497 3169 1741 2784 
L 1403 2547 
Q 1166 2994 878 3384 
L 1203 3597 
z
M 3903 4453 
Q 4250 4416 4469 4416 
L 5350 4416 
Q 5613 4416 5900 4453 
Q 5453 3263 5069 2463 
Q 5697 2094 5941 1484 
Q 6050 1184 6050 906 
Q 6050 597 5913 325 
Q 5716 -122 4916 -172 
Q 4825 103 4628 319 
Q 4878 247 5075 247 
Q 5491 247 5631 575 
Q 5697 722 5697 888 
Q 5697 1172 5509 1522 
Q 5222 2028 4647 2344 
Q 5069 3188 5356 4097 
L 4300 4097 
L 4300 -475 
Q 4306 -756 4341 -1025 
L 3903 -1025 
Q 3938 -769 3944 -481 
L 3944 3909 
Q 3938 4159 3903 4453 
z
" transform="scale(0.015625)"/>
        <path id="DengXian-4f4d" d="M 4500 -122 
L 5819 -122 
Q 5972 -128 6222 -84 
L 6222 -466 
Q 5972 -428 5813 -428 
L 2322 -428 
Q 2138 -428 1894 -466 
L 1894 -84 
Q 2113 -128 2309 -122 
L 4122 -122 
Q 4622 1509 4819 2931 
L 5356 2759 
Q 5428 2741 5422 2713 
Q 5422 2681 5350 2638 
Q 5228 2572 5184 2356 
Q 4819 856 4500 -122 
z
M 5978 3669 
L 5978 3272 
Q 5734 3316 5550 3309 
L 2516 3309 
Q 2328 3316 2069 3272 
L 2069 3669 
Q 2303 3628 2491 3628 
L 5544 3628 
Q 5741 3622 5978 3669 
z
M 3009 2688 
Q 3450 1491 3781 409 
L 3341 263 
Q 3009 1594 2578 2522 
L 3009 2688 
z
M 3028 4769 
L 3341 5063 
Q 3916 4506 4378 4000 
L 4025 3675 
Q 3616 4288 3028 4769 
z
M 1684 4966 
L 2156 4756 
Q 2228 4722 2228 4703 
Q 2228 4678 2156 4647 
Q 2059 4581 1997 4453 
Q 1906 4238 1650 3675 
L 1650 -544 
Q 1644 -716 1691 -1031 
L 1253 -1031 
Q 1300 -738 1294 -556 
L 1294 2950 
Q 1019 2438 684 1925 
Q 481 2075 184 2181 
Q 1131 3097 1684 4966 
z
" transform="scale(0.015625)"/>
       </defs>
       <use xlink:href="#DengXian-35"/>
       <use xlink:href="#DengXian-31" x="52.685547"/>
       <use xlink:href="#DengXian-90e8" x="105.371094"/>
       <use xlink:href="#DengXian-4f4d" x="205.371094"/>
       <use xlink:href="#DengXian-31" x="305.371094"/>
      </g>
     </g>
    </g>
    <g id="xtick_13">
     <g id="text_13">
      <!-- 19 -->
      <g transform="translate(534.873862 515.112459) rotate(-30) scale(0.15 -0.15)">
       <use xlink:href="#DengXian-31"/>
       <use xlink:href="#DengXian-39" x="52.685547"/>
      </g>
     </g>
    </g>
    <g id="xtick_14">
     <g id="text_14">
      <!-- 58 -->
      <g transform="translate(567.838785 515.112459) rotate(-30) scale(0.15 -0.15)">
       <use xlink:href="#DengXian-35"/>
       <use xlink:href="#DengXian-38" x="52.685547"/>
      </g>
     </g>
    </g>
    <g id="xtick_15">
     <g id="text_15">
      <!-- 56 -->
      <g transform="translate(600.803708 515.112459) rotate(-30) scale(0.15 -0.15)">
       <use xlink:href="#DengXian-35"/>
       <use xlink:href="#DengXian-36" x="52.685547"/>
      </g>
     </g>
    </g>
    <g id="xtick_16">
     <g id="text_16">
      <!-- 57 -->
      <g transform="translate(633.768631 515.112459) rotate(-30) scale(0.15 -0.15)">
       <defs>
        <path id="DengXian-37" d="M 3031 3809 
Q 2278 2631 1928 1634 
Q 1578 638 1578 -250 
L 1172 -250 
Q 1172 625 1545 1651 
Q 1919 2678 2638 3797 
L 331 3797 
L 331 4153 
L 3031 4153 
L 3031 3809 
z
" transform="scale(0.015625)"/>
       </defs>
       <use xlink:href="#DengXian-35"/>
       <use xlink:href="#DengXian-37" x="52.685547"/>
      </g>
     </g>
    </g>
    <g id="xtick_17">
     <g id="text_17">
      <!-- 52 -->
      <g transform="translate(666.733554 515.112459) rotate(-30) scale(0.15 -0.15)">
       <use xlink:href="#DengXian-35"/>
       <use xlink:href="#DengXian-32" x="52.685547"/>
      </g>
     </g>
    </g>
    <g id="xtick_18">
     <g id="text_18">
      <!-- 41 -->
      <g transform="translate(699.698477 515.112459) rotate(-30) scale(0.15 -0.15)">
       <use xlink:href="#DengXian-34"/>
       <use xlink:href="#DengXian-31" x="52.685547"/>
      </g>
     </g>
    </g>
    <g id="xtick_19">
     <g id="text_19">
      <!-- 50 -->
      <g transform="translate(732.6634 515.112459) rotate(-30) scale(0.15 -0.15)">
       <defs>
        <path id="DengXian-30" d="M 3106 1953 
Q 3106 850 2750 268 
Q 2394 -313 1697 -313 
Q 1006 -313 654 256 
Q 303 825 303 1953 
Q 303 3100 645 3659 
Q 988 4219 1719 4219 
Q 2422 4219 2764 3656 
Q 3106 3094 3106 1953 
z
M 2706 1953 
Q 2706 2963 2473 3425 
Q 2241 3888 1716 3888 
Q 1172 3888 936 3423 
Q 700 2959 700 1953 
Q 700 969 944 495 
Q 1188 22 1703 22 
Q 2216 22 2461 508 
Q 2706 994 2706 1953 
z
" transform="scale(0.015625)"/>
       </defs>
       <use xlink:href="#DengXian-35"/>
       <use xlink:href="#DengXian-30" x="52.685547"/>
      </g>
     </g>
    </g>
    <g id="xtick_20">
     <g id="text_20">
      <!-- 54严重风化点 -->
      <g transform="translate(700.676418 552.847909) rotate(-30) scale(0.15 -0.15)">
       <use xlink:href="#DengXian-35"/>
       <use xlink:href="#DengXian-34" x="52.685547"/>
       <use xlink:href="#DengXian-4e25" x="105.371094"/>
       <use xlink:href="#DengXian-91cd" x="205.371094"/>
       <use xlink:href="#DengXian-98ce" x="305.371094"/>
       <use xlink:href="#DengXian-5316" x="405.371094"/>
       <use xlink:href="#DengXian-70b9" x="505.371094"/>
      </g>
     </g>
    </g>
    <g id="xtick_21">
     <g id="text_21">
      <!-- 43部位2 -->
      <g transform="translate(765.768177 534.705421) rotate(-30) scale(0.15 -0.15)">
       <use xlink:href="#DengXian-34"/>
       <use xlink:href="#DengXian-33" x="52.685547"/>
       <use xlink:href="#DengXian-90e8" x="105.371094"/>
       <use xlink:href="#DengXian-4f4d" x="205.371094"/>
       <use xlink:href="#DengXian-32" x="305.371094"/>
      </g>
     </g>
    </g>
    <g id="xtick_22">
     <g id="text_22">
      <!-- 51部位2 -->
      <g transform="translate(798.7331 534.705421) rotate(-30) scale(0.15 -0.15)">
       <use xlink:href="#DengXian-35"/>
       <use xlink:href="#DengXian-31" x="52.685547"/>
       <use xlink:href="#DengXian-90e8" x="105.371094"/>
       <use xlink:href="#DengXian-4f4d" x="205.371094"/>
       <use xlink:href="#DengXian-32" x="305.371094"/>
      </g>
     </g>
    </g>
    <g id="xtick_23">
     <g id="text_23">
      <!-- 39 -->
      <g transform="translate(864.523093 515.112459) rotate(-30) scale(0.15 -0.15)">
       <use xlink:href="#DengXian-33"/>
       <use xlink:href="#DengXian-39" x="52.685547"/>
      </g>
     </g>
    </g>
    <g id="xtick_24">
     <g id="text_24">
      <!-- 54 -->
      <g transform="translate(897.488016 515.112459) rotate(-30) scale(0.15 -0.15)">
       <use xlink:href="#DengXian-35"/>
       <use xlink:href="#DengXian-34" x="52.685547"/>
      </g>
     </g>
    </g>
    <g id="xtick_25">
     <g id="text_25">
      <!-- 40 -->
      <g transform="translate(930.452939 515.112459) rotate(-30) scale(0.15 -0.15)">
       <use xlink:href="#DengXian-34"/>
       <use xlink:href="#DengXian-30" x="52.685547"/>
      </g>
     </g>
    </g>
    <g id="xtick_26">
     <g id="text_26">
      <!-- 43部位1 -->
      <g transform="translate(930.592793 534.705421) rotate(-30) scale(0.15 -0.15)">
       <use xlink:href="#DengXian-34"/>
       <use xlink:href="#DengXian-33" x="52.685547"/>
       <use xlink:href="#DengXian-90e8" x="105.371094"/>
       <use xlink:href="#DengXian-4f4d" x="205.371094"/>
       <use xlink:href="#DengXian-31" x="305.371094"/>
      </g>
     </g>
    </g>
   </g>
   <g id="matplotlib.axis_2">
    <g id="ytick_1">
     <g id="line2d_1">
      <defs>
       <path id="mba492238a5" d="M 0 0 
L -3.5 0 
" style="stroke: #000000; stroke-width: 0.8"/>
      </defs>
      <g>
       <use xlink:href="#mba492238a5" x="138.24" y="491.4936" style="stroke: #000000; stroke-width: 0.8"/>
      </g>
     </g>
     <g id="text_27">
      <!-- 0 -->
      <g transform="translate(123.336875 496.525631) scale(0.15 -0.15)">
       <use xlink:href="#DengXian-30"/>
      </g>
     </g>
    </g>
    <g id="ytick_2">
     <g id="line2d_2">
      <g>
       <use xlink:href="#mba492238a5" x="138.24" y="403.391148" style="stroke: #000000; stroke-width: 0.8"/>
      </g>
     </g>
     <g id="text_28">
      <!-- 10 -->
      <g transform="translate(115.43375 408.423179) scale(0.15 -0.15)">
       <use xlink:href="#DengXian-31"/>
       <use xlink:href="#DengXian-30" x="52.685547"/>
      </g>
     </g>
    </g>
    <g id="ytick_3">
     <g id="line2d_3">
      <g>
       <use xlink:href="#mba492238a5" x="138.24" y="315.288696" style="stroke: #000000; stroke-width: 0.8"/>
      </g>
     </g>
     <g id="text_29">
      <!-- 20 -->
      <g transform="translate(115.43375 320.320727) scale(0.15 -0.15)">
       <use xlink:href="#DengXian-32"/>
       <use xlink:href="#DengXian-30" x="52.685547"/>
      </g>
     </g>
    </g>
    <g id="ytick_4">
     <g id="line2d_4">
      <g>
       <use xlink:href="#mba492238a5" x="138.24" y="227.186243" style="stroke: #000000; stroke-width: 0.8"/>
      </g>
     </g>
     <g id="text_30">
      <!-- 30 -->
      <g transform="translate(115.43375 232.218275) scale(0.15 -0.15)">
       <use xlink:href="#DengXian-33"/>
       <use xlink:href="#DengXian-30" x="52.685547"/>
      </g>
     </g>
    </g>
    <g id="ytick_5">
     <g id="line2d_5">
      <g>
       <use xlink:href="#mba492238a5" x="138.24" y="139.083791" style="stroke: #000000; stroke-width: 0.8"/>
      </g>
     </g>
     <g id="text_31">
      <!-- 40 -->
      <g transform="translate(115.43375 144.115822) scale(0.15 -0.15)">
       <use xlink:href="#DengXian-34"/>
       <use xlink:href="#DengXian-30" x="52.685547"/>
      </g>
     </g>
    </g>
   </g>
   <g id="LineCollection_1">
    <path d="M 187.687385 491.4936 
L 187.687385 476.426793 
L 220.652308 476.426793 
L 220.652308 491.4936 
" clip-path="url(#p48af86686b)" style="fill: none; stroke: #ff7f0e; stroke-width: 1.5"/>
    <path d="M 253.617231 491.4936 
L 253.617231 440.049236 
L 286.582154 440.049236 
L 286.582154 491.4936 
" clip-path="url(#p48af86686b)" style="fill: none; stroke: #ff7f0e; stroke-width: 1.5"/>
    <path d="M 204.169846 476.426793 
L 204.169846 293.548546 
L 270.099692 293.548546 
L 270.099692 440.049236 
" clip-path="url(#p48af86686b)" style="fill: none; stroke: #ff7f0e; stroke-width: 1.5"/>
   </g>
   <g id="LineCollection_2">
    <path d="M 418.441846 491.4936 
L 418.441846 452.728421 
L 451.406769 452.728421 
L 451.406769 491.4936 
" clip-path="url(#p48af86686b)" style="fill: none; stroke: #2ca02c; stroke-width: 1.5"/>
    <path d="M 385.476923 491.4936 
L 385.476923 416.382852 
L 434.924308 416.382852 
L 434.924308 452.728421 
" clip-path="url(#p48af86686b)" style="fill: none; stroke: #2ca02c; stroke-width: 1.5"/>
    <path d="M 352.512 491.4936 
L 352.512 380.420763 
L 410.200615 380.420763 
L 410.200615 416.382852 
" clip-path="url(#p48af86686b)" style="fill: none; stroke: #2ca02c; stroke-width: 1.5"/>
    <path d="M 550.301538 491.4936 
L 550.301538 453.288614 
L 583.266462 453.288614 
L 583.266462 491.4936 
" clip-path="url(#p48af86686b)" style="fill: none; stroke: #2ca02c; stroke-width: 1.5"/>
    <path d="M 517.336615 491.4936 
L 517.336615 430.163542 
L 566.784 430.163542 
L 566.784 453.288614 
" clip-path="url(#p48af86686b)" style="fill: none; stroke: #2ca02c; stroke-width: 1.5"/>
    <path d="M 484.371692 491.4936 
L 484.371692 415.99232 
L 542.060308 415.99232 
L 542.060308 430.163542 
" clip-path="url(#p48af86686b)" style="fill: none; stroke: #2ca02c; stroke-width: 1.5"/>
    <path d="M 616.231385 491.4936 
L 616.231385 436.568734 
L 649.196308 436.568734 
L 649.196308 491.4936 
" clip-path="url(#p48af86686b)" style="fill: none; stroke: #2ca02c; stroke-width: 1.5"/>
    <path d="M 715.126154 491.4936 
L 715.126154 439.498372 
L 748.091077 439.498372 
L 748.091077 491.4936 
" clip-path="url(#p48af86686b)" style="fill: none; stroke: #2ca02c; stroke-width: 1.5"/>
    <path d="M 682.161231 491.4936 
L 682.161231 404.450153 
L 731.608615 404.450153 
L 731.608615 439.498372 
" clip-path="url(#p48af86686b)" style="fill: none; stroke: #2ca02c; stroke-width: 1.5"/>
    <path d="M 632.713846 436.568734 
L 632.713846 385.303294 
L 706.884923 385.303294 
L 706.884923 404.450153 
" clip-path="url(#p48af86686b)" style="fill: none; stroke: #2ca02c; stroke-width: 1.5"/>
    <path d="M 513.216 415.99232 
L 513.216 373.405954 
L 669.799385 373.405954 
L 669.799385 385.303294 
" clip-path="url(#p48af86686b)" style="fill: none; stroke: #2ca02c; stroke-width: 1.5"/>
    <path d="M 381.356308 380.420763 
L 381.356308 348.669072 
L 591.507692 348.669072 
L 591.507692 373.405954 
" clip-path="url(#p48af86686b)" style="fill: none; stroke: #2ca02c; stroke-width: 1.5"/>
    <path d="M 814.020923 491.4936 
L 814.020923 415.074232 
L 846.985846 415.074232 
L 846.985846 491.4936 
" clip-path="url(#p48af86686b)" style="fill: none; stroke: #2ca02c; stroke-width: 1.5"/>
    <path d="M 781.056 491.4936 
L 781.056 370.145542 
L 830.503385 370.145542 
L 830.503385 415.074232 
" clip-path="url(#p48af86686b)" style="fill: none; stroke: #2ca02c; stroke-width: 1.5"/>
    <path d="M 879.950769 491.4936 
L 879.950769 414.804122 
L 912.915692 414.804122 
L 912.915692 491.4936 
" clip-path="url(#p48af86686b)" style="fill: none; stroke: #2ca02c; stroke-width: 1.5"/>
    <path d="M 945.880615 491.4936 
L 945.880615 375.395259 
L 978.845538 375.395259 
L 978.845538 491.4936 
" clip-path="url(#p48af86686b)" style="fill: none; stroke: #2ca02c; stroke-width: 1.5"/>
    <path d="M 896.433231 414.804122 
L 896.433231 363.773577 
L 962.363077 363.773577 
L 962.363077 375.395259 
" clip-path="url(#p48af86686b)" style="fill: none; stroke: #2ca02c; stroke-width: 1.5"/>
    <path d="M 805.779692 370.145542 
L 805.779692 328.478285 
L 929.398154 328.478285 
L 929.398154 363.773577 
" clip-path="url(#p48af86686b)" style="fill: none; stroke: #2ca02c; stroke-width: 1.5"/>
    <path d="M 486.432 348.669072 
L 486.432 298.963501 
L 867.588923 298.963501 
L 867.588923 328.478285 
" clip-path="url(#p48af86686b)" style="fill: none; stroke: #2ca02c; stroke-width: 1.5"/>
    <path d="M 319.547077 491.4936 
L 319.547077 249.643136 
L 677.010462 249.643136 
L 677.010462 298.963501 
" clip-path="url(#p48af86686b)" style="fill: none; stroke: #2ca02c; stroke-width: 1.5"/>
   </g>
   <g id="LineCollection_3">
    <path d="M 237.134769 293.548546 
L 237.134769 155.892767 
L 498.278769 155.892767 
L 498.278769 249.643136 
" clip-path="url(#p48af86686b)" style="fill: none; stroke: #1f77b4; stroke-width: 1.5"/>
    <path d="M 154.722462 491.4936 
L 154.722462 86.5176 
L 367.706769 86.5176 
L 367.706769 155.892767 
" clip-path="url(#p48af86686b)" style="fill: none; stroke: #1f77b4; stroke-width: 1.5"/>
   </g>
   <g id="patch_3">
    <path d="M 138.24 491.4936 
L 138.24 66.2688 
" style="fill: none; stroke: #000000; stroke-width: 0.8; stroke-linejoin: miter; stroke-linecap: square"/>
   </g>
   <g id="patch_4">
    <path d="M 995.328 491.4936 
L 995.328 66.2688 
" style="fill: none; stroke: #000000; stroke-width: 0.8; stroke-linejoin: miter; stroke-linecap: square"/>
   </g>
   <g id="patch_5">
    <path d="M 138.24 491.4936 
L 995.328 491.4936 
" style="fill: none; stroke: #000000; stroke-width: 0.8; stroke-linejoin: miter; stroke-linecap: square"/>
   </g>
   <g id="patch_6">
    <path d="M 138.24 66.2688 
L 995.328 66.2688 
" style="fill: none; stroke: #000000; stroke-width: 0.8; stroke-linejoin: miter; stroke-linecap: square"/>
   </g>
   <g id="text_32">
    <!-- 铅钡-风化-聚类图 -->
    <g transform="translate(494.784 60.2688) scale(0.18 -0.18)">
     <defs>
      <path id="DengXian-94c5" d="M 2484 1913 
Q 3353 2400 3328 3622 
L 3328 3988 
Q 3328 4191 3291 4494 
Q 3572 4453 3809 4453 
L 4647 4453 
Q 4872 4453 5203 4494 
Q 5166 4191 5166 3988 
L 5166 2753 
Q 5159 2716 5159 2694 
Q 5159 2475 5491 2497 
Q 5778 2484 6175 2584 
Q 6047 2369 6047 2113 
Q 5528 2125 5288 2144 
Q 4775 2156 4806 2656 
L 4806 4134 
L 3688 4134 
L 3688 3688 
Q 3691 3619 3691 3534 
Q 3691 2413 2919 1684 
Q 2747 1863 2484 1913 
z
M 5491 1656 
Q 5453 1319 5453 1119 
L 5453 -353 
Q 5453 -556 5491 -863 
L 5056 -863 
Q 5088 -666 5094 -494 
L 3500 -494 
Q 3513 -684 3541 -947 
L 3103 -947 
Q 3150 -616 3144 -359 
L 3144 1119 
Q 3144 1338 3103 1656 
Q 3419 1619 3647 1619 
L 4922 1619 
Q 5159 1619 5491 1656 
z
M 3500 1300 
L 3500 -184 
L 5094 -184 
L 5094 1300 
L 3500 1300 
z
M 191 2828 
Q 1159 3744 1459 4959 
L 1894 4788 
Q 1984 4750 1984 4716 
Q 1991 4684 1913 4647 
Q 1772 4588 1684 4384 
Q 1538 4078 1381 3803 
L 2138 3803 
Q 2356 3803 2656 3841 
L 2656 3444 
Q 2356 3481 2150 3481 
L 1216 3481 
Q 922 3034 628 2675 
Q 428 2778 191 2828 
z
M 897 1594 
L 1388 1594 
L 1388 2400 
L 1228 2400 
Q 1025 2400 709 2363 
L 709 2759 
Q 1006 2719 1228 2719 
L 1978 2719 
Q 2169 2719 2497 2759 
L 2497 2363 
Q 2156 2400 1984 2400 
L 1747 2400 
L 1747 1594 
L 2188 1594 
Q 2413 1594 2706 1631 
L 2706 1234 
Q 2438 1275 2203 1275 
L 1747 1275 
L 1747 -128 
Q 2119 122 2553 494 
Q 2584 288 2669 122 
Q 1813 -475 1509 -794 
L 1191 -391 
Q 1394 -263 1388 13 
L 1388 1275 
L 897 1275 
Q 697 1275 378 1234 
L 378 1631 
Q 684 1594 897 1594 
z
" transform="scale(0.015625)"/>
      <path id="DengXian-94a1" d="M 2753 -959 
Q 2656 -750 2578 -703 
L 2400 -588 
Q 3700 -147 4019 1006 
Q 4084 1306 4109 1734 
Q 4128 2113 4128 2894 
Q 4116 3256 4091 3406 
L 4575 3341 
Q 4653 3334 4659 3303 
Q 4666 3278 4594 3231 
Q 4500 3156 4494 2994 
Q 4494 2303 4481 1941 
Q 4469 1528 4434 1275 
Q 4409 -6 2753 -959 
z
M 5684 813 
L 5247 813 
Q 5288 1038 5288 1325 
L 5288 4103 
L 3391 4103 
L 3391 1281 
Q 3391 947 3431 763 
L 2994 763 
Q 3034 984 3034 1281 
L 3034 3969 
Q 3034 4288 2994 4469 
Q 3163 4428 3500 4428 
L 5119 4428 
Q 5434 4428 5684 4469 
Q 5644 4319 5644 3963 
L 5644 1325 
Q 5644 1044 5684 813 
z
M 4519 481 
L 4794 775 
Q 5538 172 6175 -569 
L 5881 -850 
Q 5259 -78 4519 481 
z
M 1472 5013 
L 1888 4856 
Q 1978 4819 1984 4781 
Q 1991 4744 1906 4716 
Q 1838 4691 1784 4603 
Q 1606 4238 1409 3950 
L 2194 3950 
Q 2516 3956 2747 3988 
L 2747 3591 
Q 2509 3628 2194 3628 
L 1203 3628 
Q 934 3244 556 2847 
Q 422 3041 184 3103 
Q 1209 3994 1472 5013 
z
M 891 1709 
L 1344 1709 
L 1344 2625 
L 1203 2625 
Q 891 2625 684 2584 
L 684 2981 
Q 844 2944 1203 2944 
L 1941 2944 
Q 2272 2944 2456 2981 
L 2456 2584 
Q 2241 2625 1941 2625 
L 1691 2625 
L 1691 1709 
L 2088 1709 
Q 2413 1709 2613 1747 
L 2613 1350 
Q 2388 1388 2100 1388 
L 1691 1388 
L 1691 -78 
Q 2163 244 2553 556 
Q 2572 325 2644 166 
Q 2613 141 2528 84 
Q 2259 -122 2041 -269 
Q 1613 -575 1447 -744 
Q 1275 -513 1113 -353 
Q 1350 -225 1344 31 
L 1344 1388 
L 891 1388 
Q 603 1388 372 1350 
L 372 1747 
Q 556 1709 891 1709 
z
" transform="scale(0.015625)"/>
      <path id="DengXian-2d" d="M 694 1166 
L 694 1522 
L 2506 1522 
L 2506 1166 
L 694 1166 
z
" transform="scale(0.015625)"/>
      <path id="DengXian-805a" d="M 2956 4263 
L 2956 2484 
L 3250 2547 
Q 3225 2363 3225 2209 
L 2956 2144 
Q 2963 1934 2994 1716 
L 2559 1716 
Q 2584 1869 2597 2094 
Q 1222 1900 494 1747 
L 269 2163 
Q 481 2156 1006 2194 
L 1006 4263 
L 788 4263 
Q 603 4263 331 4225 
L 331 4622 
Q 603 4581 800 4581 
L 2875 4581 
Q 3059 4581 3347 4622 
L 3347 4225 
Q 3122 4256 2956 4263 
z
M 1363 2772 
L 1363 2241 
Q 2150 2309 2597 2406 
L 2597 2772 
L 1363 2772 
z
M 2597 3066 
L 2597 3500 
L 1363 3500 
L 1363 3066 
L 2597 3066 
z
M 1363 4263 
L 1363 3794 
L 2597 3794 
L 2597 4263 
L 1363 4263 
z
M 2400 1166 
L 2694 878 
Q 2753 819 2747 794 
Q 2731 775 2656 769 
Q 2497 763 2247 641 
Q 1631 353 678 72 
Q 575 281 341 428 
Q 1556 550 2400 1166 
z
M 3359 1356 
L 3359 959 
Q 3541 722 3803 506 
Q 4575 1006 5013 1484 
L 5388 1172 
Q 5459 1106 5447 1075 
Q 5434 1038 5331 1031 
Q 5153 1019 4978 897 
Q 4581 628 4063 300 
Q 4959 -269 6138 -359 
Q 5881 -525 5791 -813 
Q 4091 -325 3359 447 
L 3359 -428 
Q 3359 -659 3397 -972 
L 2963 -972 
Q 3003 -647 3003 -428 
L 3003 1313 
Q 2163 1216 1191 1159 
Q 1125 1394 953 1575 
Q 1334 1547 1716 1547 
Q 2338 1547 3016 1619 
Q 4050 1741 4481 1966 
L 4819 1606 
Q 4856 1566 4856 1544 
Q 4856 1534 4850 1528 
Q 4838 1503 4756 1509 
Q 4725 1513 4688 1513 
Q 4575 1513 4422 1484 
Q 3944 1409 3359 1356 
z
M 4366 2809 
Q 3950 3116 3397 3431 
L 3603 3700 
Q 4091 3419 4581 3072 
Q 4884 3450 5088 3950 
L 3841 3950 
Q 3647 3950 3366 3909 
L 3366 4306 
Q 3641 4269 3841 4269 
L 5131 4269 
Q 5356 4269 5663 4306 
Q 5253 3353 4856 2875 
Q 5338 2534 5900 2053 
L 5638 1741 
Q 5147 2228 4634 2606 
Q 4191 2203 3519 1813 
Q 3425 1947 3200 2094 
Q 3909 2388 4366 2809 
z
M 2509 469 
L 2859 213 
Q 2913 172 2906 141 
Q 2894 116 2822 109 
Q 2713 103 2547 -6 
Q 1766 -500 722 -903 
Q 622 -709 372 -569 
Q 1672 -300 2509 469 
z
" transform="scale(0.015625)"/>
      <path id="DengXian-7c7b" d="M 331 -581 
Q 2356 -353 2741 794 
L 966 794 
Q 672 794 441 763 
L 441 1159 
Q 947 1125 966 1125 
L 2803 1125 
Q 2834 1291 2834 1472 
Q 2834 1544 2828 1638 
L 3328 1575 
Q 3384 1563 3390 1530 
Q 3397 1497 3347 1453 
Q 3244 1375 3194 1125 
L 5466 1125 
Q 5863 1141 5978 1159 
L 5978 763 
Q 5672 794 5466 794 
L 3622 794 
Q 4453 -341 5959 -466 
Q 5697 -794 5631 -934 
Q 4006 -519 3175 794 
L 3128 794 
Q 2869 -494 634 -1044 
Q 441 -709 331 -581 
z
M 1119 3353 
L 3016 3353 
L 3016 4397 
Q 3009 4653 2975 4984 
L 3450 4922 
Q 3488 4906 3488 4878 
Q 3488 4847 3438 4794 
Q 3366 4775 3372 4366 
L 3372 3353 
L 5269 3353 
Q 5491 3359 5778 3391 
L 5778 2981 
Q 5478 3016 5269 3022 
L 3372 3022 
L 3372 2906 
Q 4775 2356 5472 1997 
L 5203 1600 
Q 4544 2088 3372 2547 
L 3372 2284 
Q 3378 2041 3413 1753 
L 2975 1753 
Q 3009 2047 3016 2278 
L 3016 2913 
Q 1869 1978 806 1569 
Q 703 1759 459 1997 
Q 1575 2150 2566 3022 
L 1119 3022 
Q 878 3016 603 2981 
L 603 3391 
Q 884 3359 1119 3353 
z
M 3622 3706 
Q 4353 4306 4641 4806 
L 5038 4500 
Q 5081 4459 5069 4422 
Q 5050 4391 4984 4384 
Q 4831 4366 4716 4238 
Q 4263 3731 3938 3456 
Q 3781 3591 3622 3706 
z
M 1472 4453 
L 1747 4716 
Q 2247 4219 2613 3788 
L 2278 3519 
Q 1925 4025 1472 4453 
z
" transform="scale(0.015625)"/>
      <path id="DengXian-56fe" d="M 2338 2753 
L 2584 3053 
Q 2719 2847 3072 2638 
Q 3397 2888 3719 3284 
L 2522 3284 
Q 2156 2841 1844 2522 
Q 1663 2694 1434 2803 
Q 2241 3219 2584 4141 
L 2994 4006 
Q 3059 3988 3059 3963 
Q 3059 3938 2994 3903 
Q 2906 3866 2713 3603 
L 3847 3603 
Q 4091 3609 4441 3641 
Q 3994 3003 3384 2450 
Q 4184 1978 5088 1850 
Q 4856 1619 4769 1422 
Q 3963 1722 3122 2203 
Q 2566 1784 1556 1369 
Q 1388 1606 1209 1734 
Q 2138 1953 2797 2425 
Q 2553 2584 2338 2753 
z
M 2309 722 
L 2478 1056 
Q 3353 697 4191 269 
L 3994 -50 
Q 3200 422 2309 722 
z
M 2675 1528 
L 2834 1819 
Q 3444 1550 3975 1259 
L 3809 941 
Q 3341 1241 2675 1528 
z
M 1159 -947 
L 722 -947 
Q 756 -616 763 -372 
L 763 3994 
Q 756 4256 722 4563 
Q 1063 4531 1319 4525 
L 5125 4525 
Q 5375 4531 5716 4563 
Q 5684 4244 5678 4006 
L 5678 -250 
Q 5684 -453 5716 -819 
L 5281 -819 
Q 5313 -628 5319 -453 
L 1119 -453 
Q 1125 -672 1159 -947 
z
M 1119 -147 
L 5319 -147 
L 5319 4206 
L 1119 4206 
L 1119 -147 
z
" transform="scale(0.015625)"/>
     </defs>
     <use xlink:href="#DengXian-94c5"/>
     <use xlink:href="#DengXian-94a1" x="100"/>
     <use xlink:href="#DengXian-2d" x="200"/>
     <use xlink:href="#DengXian-98ce" x="250"/>
     <use xlink:href="#DengXian-5316" x="350"/>
     <use xlink:href="#DengXian-2d" x="450"/>
     <use xlink:href="#DengXian-805a" x="500"/>
     <use xlink:href="#DengXian-7c7b" x="600"/>
     <use xlink:href="#DengXian-56fe" x="700"/>
    </g>
   </g>
  </g>
 </g>
 <defs>
  <clipPath id="p48af86686b">
   <rect x="138.24" y="66.2688" width="857.088" height="425.2248"/>
  </clipPath>
 </defs>
</svg>
