<?xml version="1.0" encoding="utf-8" standalone="no"?>
<!DOCTYPE svg PUBLIC "-//W3C//DTD SVG 1.1//EN"
  "http://www.w3.org/Graphics/SVG/1.1/DTD/svg11.dtd">
<svg xmlns:xlink="http://www.w3.org/1999/xlink" width="1105.92pt" height="552.24pt" viewBox="0 0 1105.92 552.24" xmlns="http://www.w3.org/2000/svg" version="1.1">
 <metadata>
  <rdf:RDF xmlns:dc="http://purl.org/dc/elements/1.1/" xmlns:cc="http://creativecommons.org/ns#" xmlns:rdf="http://www.w3.org/1999/02/22-rdf-syntax-ns#">
   <cc:Work>
    <dc:type rdf:resource="http://purl.org/dc/dcmitype/StillImage"/>
    <dc:date>2024-04-04T11:52:19.316130</dc:date>
    <dc:format>image/svg+xml</dc:format>
    <dc:creator>
     <cc:Agent>
      <dc:title>Matplotlib v3.8.3, https://matplotlib.org/</dc:title>
     </cc:Agent>
    </dc:creator>
   </cc:Work>
  </rdf:RDF>
 </metadata>
 <defs>
  <style type="text/css">*{stroke-linejoin: round; stroke-linecap: butt}</style>
 </defs>
 <g id="figure_1">
  <g id="patch_1">
   <path d="M 0 552.24 
L 1105.92 552.24 
L 1105.92 0 
L 0 0 
z
" style="fill: #ffffff"/>
  </g>
  <g id="axes_1">
   <g id="patch_2">
    <path d="M 138.24 491.4936 
L 995.328 491.4936 
L 995.328 66.2688 
L 138.24 66.2688 
z
" style="fill: #ffffff"/>
   </g>
   <g id="matplotlib.axis_1">
    <g id="xtick_1">
     <g id="line2d_1">
      <defs>
       <path id="mf40ce0ece6" d="M 0 0 
L 0 3.5 
" style="stroke: #000000; stroke-width: 0.8"/>
      </defs>
      <g>
       <use xlink:href="#mf40ce0ece6" x="145.133899" y="491.4936" style="stroke: #000000; stroke-width: 0.8"/>
      </g>
     </g>
     <g id="text_1">
      <!-- 0 -->
      <g transform="translate(141.182336 508.557662) scale(0.15 -0.15)">
       <defs>
        <path id="DengXian-30" d="M 3106 1953 
Q 3106 850 2750 268 
Q 2394 -313 1697 -313 
Q 1006 -313 654 256 
Q 303 825 303 1953 
Q 303 3100 645 3659 
Q 988 4219 1719 4219 
Q 2422 4219 2764 3656 
Q 3106 3094 3106 1953 
z
M 2706 1953 
Q 2706 2963 2473 3425 
Q 2241 3888 1716 3888 
Q 1172 3888 936 3423 
Q 700 2959 700 1953 
Q 700 969 944 495 
Q 1188 22 1703 22 
Q 2216 22 2461 508 
Q 2706 994 2706 1953 
z
" transform="scale(0.015625)"/>
       </defs>
       <use xlink:href="#DengXian-30"/>
      </g>
     </g>
    </g>
    <g id="xtick_2">
     <g id="line2d_2">
      <g>
       <use xlink:href="#mf40ce0ece6" x="252.016054" y="491.4936" style="stroke: #000000; stroke-width: 0.8"/>
      </g>
     </g>
     <g id="text_2">
      <!-- 10 -->
      <g transform="translate(244.112929 508.557662) scale(0.15 -0.15)">
       <defs>
        <path id="DengXian-31" d="M 484 -250 
L 484 84 
L 1609 84 
L 1609 3744 
L 603 3075 
L 603 3434 
L 1653 4153 
L 2000 4153 
L 2000 84 
L 2959 84 
L 2959 -250 
L 484 -250 
z
" transform="scale(0.015625)"/>
       </defs>
       <use xlink:href="#DengXian-31"/>
       <use xlink:href="#DengXian-30" x="52.685547"/>
      </g>
     </g>
    </g>
    <g id="xtick_3">
     <g id="line2d_3">
      <g>
       <use xlink:href="#mf40ce0ece6" x="358.898209" y="491.4936" style="stroke: #000000; stroke-width: 0.8"/>
      </g>
     </g>
     <g id="text_3">
      <!-- 20 -->
      <g transform="translate(350.995084 508.557662) scale(0.15 -0.15)">
       <defs>
        <path id="DengXian-32" d="M 347 -250 
L 347 31 
Q 491 394 764 751 
Q 1038 1109 1566 1569 
Q 2109 2038 2326 2359 
Q 2544 2681 2544 3034 
Q 2544 3441 2316 3661 
Q 2088 3881 1681 3881 
Q 1313 3881 1077 3664 
Q 841 3447 800 3069 
L 400 3119 
Q 447 3613 795 3916 
Q 1144 4219 1684 4219 
Q 2281 4219 2615 3912 
Q 2950 3606 2950 3059 
Q 2950 2778 2850 2531 
Q 2750 2284 2550 2039 
Q 2350 1794 1869 1366 
Q 1025 616 803 103 
L 3016 103 
L 3016 -250 
L 347 -250 
z
" transform="scale(0.015625)"/>
       </defs>
       <use xlink:href="#DengXian-32"/>
       <use xlink:href="#DengXian-30" x="52.685547"/>
      </g>
     </g>
    </g>
    <g id="xtick_4">
     <g id="line2d_4">
      <g>
       <use xlink:href="#mf40ce0ece6" x="465.780364" y="491.4936" style="stroke: #000000; stroke-width: 0.8"/>
      </g>
     </g>
     <g id="text_4">
      <!-- 30 -->
      <g transform="translate(457.877239 508.557662) scale(0.15 -0.15)">
       <defs>
        <path id="DengXian-33" d="M 3019 963 
Q 3019 356 2662 21 
Q 2306 -313 1656 -313 
Q 409 -313 266 828 
L 669 872 
Q 778 25 1656 25 
Q 2122 25 2367 262 
Q 2613 500 2613 963 
Q 2613 1375 2320 1590 
Q 2028 1806 1500 1806 
L 1200 1806 
L 1200 2172 
L 1491 2172 
Q 1784 2172 2011 2269 
Q 2238 2366 2369 2555 
Q 2500 2744 2500 3022 
Q 2500 3434 2283 3659 
Q 2066 3884 1644 3884 
Q 1266 3884 1027 3689 
Q 788 3494 747 3091 
L 353 3125 
Q 413 3647 755 3933 
Q 1097 4219 1647 4219 
Q 2244 4219 2573 3914 
Q 2903 3609 2903 3056 
Q 2903 2653 2672 2376 
Q 2441 2100 2022 2009 
L 2022 1997 
Q 2491 1938 2755 1658 
Q 3019 1378 3019 963 
z
" transform="scale(0.015625)"/>
       </defs>
       <use xlink:href="#DengXian-33"/>
       <use xlink:href="#DengXian-30" x="52.685547"/>
      </g>
     </g>
    </g>
    <g id="xtick_5">
     <g id="line2d_5">
      <g>
       <use xlink:href="#mf40ce0ece6" x="572.662519" y="491.4936" style="stroke: #000000; stroke-width: 0.8"/>
      </g>
     </g>
     <g id="text_5">
      <!-- 40 -->
      <g transform="translate(564.759394 508.557662) scale(0.15 -0.15)">
       <defs>
        <path id="DengXian-34" d="M 2516 803 
L 2516 -250 
L 2125 -250 
L 2125 803 
L 141 803 
L 141 1116 
L 2088 4153 
L 2516 4153 
L 2516 1131 
L 3113 1131 
L 3113 803 
L 2516 803 
z
M 2125 3628 
L 538 1131 
L 2125 1131 
L 2125 3628 
z
" transform="scale(0.015625)"/>
       </defs>
       <use xlink:href="#DengXian-34"/>
       <use xlink:href="#DengXian-30" x="52.685547"/>
      </g>
     </g>
    </g>
    <g id="xtick_6">
     <g id="line2d_6">
      <g>
       <use xlink:href="#mf40ce0ece6" x="679.544673" y="491.4936" style="stroke: #000000; stroke-width: 0.8"/>
      </g>
     </g>
     <g id="text_6">
      <!-- 50 -->
      <g transform="translate(671.641548 508.557662) scale(0.15 -0.15)">
       <defs>
        <path id="DengXian-35" d="M 3047 1169 
Q 3047 469 2676 78 
Q 2306 -313 1641 -313 
Q 575 -313 366 672 
L 763 734 
Q 859 350 1075 186 
Q 1291 22 1669 22 
Q 2134 22 2387 315 
Q 2641 609 2641 1153 
Q 2641 1619 2392 1895 
Q 2144 2172 1713 2172 
Q 1459 2172 1265 2095 
Q 1072 2019 875 1844 
L 503 1844 
L 641 4153 
L 2828 4153 
L 2828 3816 
L 997 3816 
L 894 2222 
Q 1113 2381 1323 2442 
Q 1534 2503 1775 2503 
Q 2359 2503 2703 2142 
Q 3047 1781 3047 1169 
z
" transform="scale(0.015625)"/>
       </defs>
       <use xlink:href="#DengXian-35"/>
       <use xlink:href="#DengXian-30" x="52.685547"/>
      </g>
     </g>
    </g>
    <g id="xtick_7">
     <g id="line2d_7">
      <g>
       <use xlink:href="#mf40ce0ece6" x="786.426828" y="491.4936" style="stroke: #000000; stroke-width: 0.8"/>
      </g>
     </g>
     <g id="text_7">
      <!-- 60 -->
      <g transform="translate(778.523703 508.557662) scale(0.15 -0.15)">
       <defs>
        <path id="DengXian-36" d="M 3047 1191 
Q 3047 491 2697 89 
Q 2347 -313 1747 -313 
Q 1075 -313 720 234 
Q 366 781 366 1850 
Q 366 3031 739 3625 
Q 1113 4219 1841 4219 
Q 2284 4219 2553 4026 
Q 2822 3834 2944 3428 
L 2566 3344 
Q 2400 3888 1816 3888 
Q 1303 3888 1033 3402 
Q 763 2916 756 1969 
Q 913 2263 1183 2417 
Q 1453 2572 1800 2572 
Q 2372 2572 2709 2201 
Q 3047 1831 3047 1191 
z
M 2647 1166 
Q 2647 1675 2405 1964 
Q 2163 2253 1716 2253 
Q 1466 2253 1256 2137 
Q 1047 2022 926 1806 
Q 806 1591 806 1306 
Q 806 747 1064 383 
Q 1322 19 1738 19 
Q 2166 19 2406 325 
Q 2647 631 2647 1166 
z
" transform="scale(0.015625)"/>
       </defs>
       <use xlink:href="#DengXian-36"/>
       <use xlink:href="#DengXian-30" x="52.685547"/>
      </g>
     </g>
    </g>
    <g id="xtick_8">
     <g id="line2d_8">
      <g>
       <use xlink:href="#mf40ce0ece6" x="893.308983" y="491.4936" style="stroke: #000000; stroke-width: 0.8"/>
      </g>
     </g>
     <g id="text_8">
      <!-- 70 -->
      <g transform="translate(885.405858 508.557662) scale(0.15 -0.15)">
       <defs>
        <path id="DengXian-37" d="M 3031 3809 
Q 2278 2631 1928 1634 
Q 1578 638 1578 -250 
L 1172 -250 
Q 1172 625 1545 1651 
Q 1919 2678 2638 3797 
L 331 3797 
L 331 4153 
L 3031 4153 
L 3031 3809 
z
" transform="scale(0.015625)"/>
       </defs>
       <use xlink:href="#DengXian-37"/>
       <use xlink:href="#DengXian-30" x="52.685547"/>
      </g>
     </g>
    </g>
   </g>
   <g id="matplotlib.axis_2">
    <g id="ytick_1">
     <g id="line2d_9">
      <defs>
       <path id="m9e93cec6ad" d="M 0 0 
L -3.5 0 
" style="stroke: #000000; stroke-width: 0.8"/>
      </defs>
      <g>
       <use xlink:href="#m9e93cec6ad" x="138.24" y="480.1835" style="stroke: #000000; stroke-width: 0.8"/>
      </g>
     </g>
     <g id="text_9">
      <!-- 0.000 -->
      <g transform="translate(96.339219 485.215532) scale(0.15 -0.15)">
       <defs>
        <path id="DengXian-2e" d="M 475 -250 
L 475 291 
L 928 291 
L 928 -250 
L 475 -250 
z
" transform="scale(0.015625)"/>
       </defs>
       <use xlink:href="#DengXian-30"/>
       <use xlink:href="#DengXian-2e" x="52.685547"/>
       <use xlink:href="#DengXian-30" x="74.609375"/>
       <use xlink:href="#DengXian-30" x="127.294922"/>
       <use xlink:href="#DengXian-30" x="179.980469"/>
      </g>
     </g>
    </g>
    <g id="ytick_2">
     <g id="line2d_10">
      <g>
       <use xlink:href="#m9e93cec6ad" x="138.24" y="429.289873" style="stroke: #000000; stroke-width: 0.8"/>
      </g>
     </g>
     <g id="text_10">
      <!-- 0.005 -->
      <g transform="translate(96.339219 434.321905) scale(0.15 -0.15)">
       <use xlink:href="#DengXian-30"/>
       <use xlink:href="#DengXian-2e" x="52.685547"/>
       <use xlink:href="#DengXian-30" x="74.609375"/>
       <use xlink:href="#DengXian-30" x="127.294922"/>
       <use xlink:href="#DengXian-35" x="179.980469"/>
      </g>
     </g>
    </g>
    <g id="ytick_3">
     <g id="line2d_11">
      <g>
       <use xlink:href="#m9e93cec6ad" x="138.24" y="378.396247" style="stroke: #000000; stroke-width: 0.8"/>
      </g>
     </g>
     <g id="text_11">
      <!-- 0.010 -->
      <g transform="translate(96.339219 383.428278) scale(0.15 -0.15)">
       <use xlink:href="#DengXian-30"/>
       <use xlink:href="#DengXian-2e" x="52.685547"/>
       <use xlink:href="#DengXian-30" x="74.609375"/>
       <use xlink:href="#DengXian-31" x="127.294922"/>
       <use xlink:href="#DengXian-30" x="179.980469"/>
      </g>
     </g>
    </g>
    <g id="ytick_4">
     <g id="line2d_12">
      <g>
       <use xlink:href="#m9e93cec6ad" x="138.24" y="327.50262" style="stroke: #000000; stroke-width: 0.8"/>
      </g>
     </g>
     <g id="text_12">
      <!-- 0.015 -->
      <g transform="translate(96.339219 332.534651) scale(0.15 -0.15)">
       <use xlink:href="#DengXian-30"/>
       <use xlink:href="#DengXian-2e" x="52.685547"/>
       <use xlink:href="#DengXian-30" x="74.609375"/>
       <use xlink:href="#DengXian-31" x="127.294922"/>
       <use xlink:href="#DengXian-35" x="179.980469"/>
      </g>
     </g>
    </g>
    <g id="ytick_5">
     <g id="line2d_13">
      <g>
       <use xlink:href="#m9e93cec6ad" x="138.24" y="276.608993" style="stroke: #000000; stroke-width: 0.8"/>
      </g>
     </g>
     <g id="text_13">
      <!-- 0.020 -->
      <g transform="translate(96.339219 281.641024) scale(0.15 -0.15)">
       <use xlink:href="#DengXian-30"/>
       <use xlink:href="#DengXian-2e" x="52.685547"/>
       <use xlink:href="#DengXian-30" x="74.609375"/>
       <use xlink:href="#DengXian-32" x="127.294922"/>
       <use xlink:href="#DengXian-30" x="179.980469"/>
      </g>
     </g>
    </g>
    <g id="ytick_6">
     <g id="line2d_14">
      <g>
       <use xlink:href="#m9e93cec6ad" x="138.24" y="225.715366" style="stroke: #000000; stroke-width: 0.8"/>
      </g>
     </g>
     <g id="text_14">
      <!-- 0.025 -->
      <g transform="translate(96.339219 230.747397) scale(0.15 -0.15)">
       <use xlink:href="#DengXian-30"/>
       <use xlink:href="#DengXian-2e" x="52.685547"/>
       <use xlink:href="#DengXian-30" x="74.609375"/>
       <use xlink:href="#DengXian-32" x="127.294922"/>
       <use xlink:href="#DengXian-35" x="179.980469"/>
      </g>
     </g>
    </g>
    <g id="ytick_7">
     <g id="line2d_15">
      <g>
       <use xlink:href="#m9e93cec6ad" x="138.24" y="174.821739" style="stroke: #000000; stroke-width: 0.8"/>
      </g>
     </g>
     <g id="text_15">
      <!-- 0.030 -->
      <g transform="translate(96.339219 179.853771) scale(0.15 -0.15)">
       <use xlink:href="#DengXian-30"/>
       <use xlink:href="#DengXian-2e" x="52.685547"/>
       <use xlink:href="#DengXian-30" x="74.609375"/>
       <use xlink:href="#DengXian-33" x="127.294922"/>
       <use xlink:href="#DengXian-30" x="179.980469"/>
      </g>
     </g>
    </g>
    <g id="ytick_8">
     <g id="line2d_16">
      <g>
       <use xlink:href="#m9e93cec6ad" x="138.24" y="123.928112" style="stroke: #000000; stroke-width: 0.8"/>
      </g>
     </g>
     <g id="text_16">
      <!-- 0.035 -->
      <g transform="translate(96.339219 128.960144) scale(0.15 -0.15)">
       <use xlink:href="#DengXian-30"/>
       <use xlink:href="#DengXian-2e" x="52.685547"/>
       <use xlink:href="#DengXian-30" x="74.609375"/>
       <use xlink:href="#DengXian-33" x="127.294922"/>
       <use xlink:href="#DengXian-35" x="179.980469"/>
      </g>
     </g>
    </g>
    <g id="ytick_9">
     <g id="line2d_17">
      <g>
       <use xlink:href="#m9e93cec6ad" x="138.24" y="73.034486" style="stroke: #000000; stroke-width: 0.8"/>
      </g>
     </g>
     <g id="text_17">
      <!-- 0.040 -->
      <g transform="translate(96.339219 78.066517) scale(0.15 -0.15)">
       <use xlink:href="#DengXian-30"/>
       <use xlink:href="#DengXian-2e" x="52.685547"/>
       <use xlink:href="#DengXian-30" x="74.609375"/>
       <use xlink:href="#DengXian-34" x="127.294922"/>
       <use xlink:href="#DengXian-30" x="179.980469"/>
      </g>
     </g>
    </g>
   </g>
   <g id="line2d_18">
    <path d="M 177.198545 441.449353 
L 182.542653 437.225465 
L 187.886761 432.653301 
L 193.230869 427.718502 
L 198.574976 422.407896 
L 203.919084 416.709752 
L 209.263192 410.614045 
L 214.6073 404.11272 
L 219.951407 397.199961 
L 225.295515 389.872461 
L 230.639623 382.129676 
L 235.983731 373.974078 
L 241.327838 365.411391 
L 246.671946 356.4508 
L 252.016054 347.105144 
L 258.428983 335.405791 
L 264.841912 323.2124 
L 271.254842 310.569605 
L 278.736593 295.32294 
L 287.287165 277.365242 
L 297.97538 254.372631 
L 322.558276 201.282939 
L 330.040027 185.704949 
L 336.452956 172.795711 
L 342.865886 160.409403 
L 348.209993 150.564075 
L 353.554101 141.216731 
L 357.829387 134.137011 
L 362.104673 127.442738 
L 366.37996 121.161775 
L 370.655246 115.320614 
L 374.930532 109.944192 
L 378.136997 106.230886 
L 381.343461 102.801177 
L 384.549926 99.66352 
L 387.756391 96.825697 
L 390.962855 94.294782 
L 394.16932 92.077115 
L 397.375785 90.178275 
L 400.582249 88.603056 
L 403.788714 87.355447 
L 406.995178 86.438613 
L 410.201643 85.854887 
L 413.408108 85.605755 
L 415.545751 85.625902 
L 417.683394 85.795033 
L 420.889859 86.327612 
L 424.096323 87.193582 
L 427.302788 88.390738 
L 430.509253 89.916043 
L 433.715717 91.765632 
L 436.922182 93.934833 
L 440.128646 96.418186 
L 443.335111 99.209467 
L 446.541576 102.30171 
L 449.74804 105.687241 
L 452.954505 109.357706 
L 456.16097 113.304108 
L 460.436256 118.978526 
L 464.711542 125.102034 
L 468.986828 131.648686 
L 473.262114 138.591097 
L 477.537401 145.900631 
L 482.881508 155.508502 
L 488.225616 165.583743 
L 494.638545 178.204617 
L 501.051475 191.302823 
L 509.602047 209.323656 
L 521.359084 234.715287 
L 540.597872 276.32033 
L 549.148444 294.306073 
L 556.630195 309.584826 
L 564.111946 324.330461 
L 570.524875 336.481032 
L 576.937805 348.133956 
L 582.281912 357.438702 
L 587.62602 366.356813 
L 592.970128 374.875854 
L 598.314236 382.987023 
L 603.658343 390.684959 
L 609.002451 397.967528 
L 614.346559 404.835584 
L 619.690667 411.29272 
L 625.034774 417.345005 
L 630.378882 423.000722 
L 635.72299 428.270092 
L 641.067098 433.165014 
L 646.411205 437.698801 
L 651.755313 441.885926 
L 657.099421 445.741783 
L 662.443529 449.282457 
L 667.787636 452.524512 
L 673.131744 455.484792 
L 678.475852 458.180241 
L 683.81996 460.627745 
L 689.164067 462.843984 
L 694.508175 464.845308 
L 700.921104 466.985578 
L 707.334034 468.865735 
L 713.746963 470.510983 
L 720.159892 471.945115 
L 721.228714 472.1652 
L 721.228714 472.1652 
" clip-path="url(#peaf628f711)" style="fill: none; stroke: #1f77b4; stroke-width: 1.5; stroke-linecap: square"/>
   </g>
   <g id="line2d_19">
    <path d="M 508.533226 430.981497 
L 513.877333 426.190769 
L 519.221441 421.061809 
L 524.565549 415.585742 
L 529.909657 409.75522 
L 535.253764 403.564626 
L 540.597872 397.010285 
L 545.94198 390.090664 
L 551.286088 382.806572 
L 556.630195 375.161346 
L 561.974303 367.161024 
L 567.318411 358.814504 
L 573.73134 348.358669 
L 580.144269 337.448095 
L 586.557199 326.115934 
L 594.038949 312.415895 
L 602.589522 296.219873 
L 612.208916 277.471491 
L 627.172418 247.705151 
L 642.135919 218.058499 
L 650.686492 201.582594 
L 658.168242 187.652878 
L 664.581172 176.189313 
L 669.925279 167.041122 
L 675.269387 158.315756 
L 680.613495 150.063292 
L 684.888781 143.834342 
L 689.164067 137.962729 
L 693.439354 132.471103 
L 697.71464 127.380904 
L 701.989926 122.712219 
L 705.196391 119.498574 
L 708.402855 116.539786 
L 711.60932 113.84258 
L 714.815785 111.413117 
L 718.022249 109.256973 
L 721.228714 107.379119 
L 724.435178 105.7839 
L 727.641643 104.475017 
L 730.848108 103.455516 
L 734.054572 102.727774 
L 737.261037 102.293491 
L 740.467502 102.153683 
L 743.673966 102.308675 
L 746.880431 102.758106 
L 750.086896 103.500925 
L 753.29336 104.535398 
L 756.499825 105.859111 
L 759.70629 107.468987 
L 762.912754 109.361288 
L 766.119219 111.531639 
L 769.325684 113.975036 
L 772.532148 116.685873 
L 775.738613 119.657959 
L 778.945077 122.884541 
L 782.151542 126.358334 
L 786.426828 131.361066 
L 790.702114 136.769588 
L 794.977401 142.562735 
L 799.252687 148.7181 
L 803.527973 155.212176 
L 808.872081 163.768744 
L 814.216189 172.766798 
L 820.629118 184.07541 
L 827.042047 195.856495 
L 834.523798 210.077202 
L 844.143192 228.89381 
L 880.483125 300.631674 
L 889.033697 316.683702 
L 896.515448 330.231356 
L 902.928377 341.416368 
L 909.341306 352.167114 
L 915.754236 362.452851 
L 921.098343 370.651471 
L 926.442451 378.4997 
L 931.786559 385.989889 
L 937.130667 393.117184 
L 942.474774 399.87936 
L 947.818882 406.276641 
L 953.16299 412.311508 
L 956.369455 415.760277 
L 956.369455 415.760277 
" clip-path="url(#peaf628f711)" style="fill: none; stroke: #ff7f0e; stroke-width: 1.5; stroke-linecap: square"/>
   </g>
   <g id="line2d_20">
    <path d="M 337.521778 170.692107 
" clip-path="url(#peaf628f711)" style="fill: none; stroke: #000000; stroke-width: 1.5; stroke-linecap: square"/>
    <defs>
     <path id="mabbdea7f7e" d="M 0 2.5 
C 0.663008 2.5 1.29895 2.236584 1.767767 1.767767 
C 2.236584 1.29895 2.5 0.663008 2.5 0 
C 2.5 -0.663008 2.236584 -1.29895 1.767767 -1.767767 
C 1.29895 -2.236584 0.663008 -2.5 0 -2.5 
C -0.663008 -2.5 -1.29895 -2.236584 -1.767767 -1.767767 
C -2.236584 -1.29895 -2.5 -0.663008 -2.5 0 
C -2.5 0.663008 -2.236584 1.29895 -1.767767 1.767767 
C -1.29895 2.236584 -0.663008 2.5 0 2.5 
z
" style="stroke: #000000"/>
    </defs>
    <g clip-path="url(#peaf628f711)">
     <use xlink:href="#mabbdea7f7e" x="337.521778" y="170.692107" style="stroke: #000000"/>
    </g>
   </g>
   <g id="line2d_21">
    <path d="M 663.718737 177.701822 
" clip-path="url(#peaf628f711)" style="fill: none; stroke: #000000; stroke-width: 1.5; stroke-linecap: square"/>
    <g clip-path="url(#peaf628f711)">
     <use xlink:href="#mabbdea7f7e" x="663.718737" y="177.701822" style="stroke: #000000"/>
    </g>
   </g>
   <g id="patch_3">
    <path d="M 138.24 491.4936 
L 138.24 66.2688 
" style="fill: none; stroke: #000000; stroke-width: 0.8; stroke-linejoin: miter; stroke-linecap: square"/>
   </g>
   <g id="patch_4">
    <path d="M 995.328 491.4936 
L 995.328 66.2688 
" style="fill: none; stroke: #000000; stroke-width: 0.8; stroke-linejoin: miter; stroke-linecap: square"/>
   </g>
   <g id="patch_5">
    <path d="M 138.24 491.4936 
L 995.328 491.4936 
" style="fill: none; stroke: #000000; stroke-width: 0.8; stroke-linejoin: miter; stroke-linecap: square"/>
   </g>
   <g id="patch_6">
    <path d="M 138.24 66.2688 
L 995.328 66.2688 
" style="fill: none; stroke: #000000; stroke-width: 0.8; stroke-linejoin: miter; stroke-linecap: square"/>
   </g>
   <g id="text_18">
    <!-- $\it{x}$ -->
    <g transform="translate(316.145347 170.692107) scale(0.18 -0.18)">
     <defs>
      <path id="DejaVuSans-Oblique-78" d="M 3841 3500 
L 2234 1784 
L 3219 0 
L 2559 0 
L 1819 1388 
L 531 0 
L -166 0 
L 1556 1844 
L 641 3500 
L 1300 3500 
L 1972 2234 
L 3144 3500 
L 3841 3500 
z
" transform="scale(0.015625)"/>
     </defs>
     <use xlink:href="#DejaVuSans-Oblique-78" transform="translate(0 0.3125)"/>
    </g>
   </g>
   <g id="text_19">
    <!-- $\it{y}$ -->
    <g transform="translate(674.406953 177.701822) scale(0.18 -0.18)">
     <defs>
      <path id="DejaVuSans-Oblique-79" d="M 1588 -325 
Q 1188 -997 936 -1164 
Q 684 -1331 294 -1331 
L -159 -1331 
L -63 -850 
L 269 -850 
Q 509 -850 678 -719 
Q 847 -588 1056 -206 
L 1234 128 
L 459 3500 
L 1069 3500 
L 1650 819 
L 3256 3500 
L 3859 3500 
L 1588 -325 
z
" transform="scale(0.015625)"/>
     </defs>
     <use xlink:href="#DejaVuSans-Oblique-79" transform="translate(0 0.3125)"/>
    </g>
   </g>
   <g id="patch_7">
    <path d="M 360.90069 170.74163 
Q 500.623037 174.197034 638.993715 177.61901 
" style="fill: none; stroke: #000000; stroke-width: 1.5; stroke-linecap: round"/>
    <path d="M 621.295892 165.177665 
L 638.993715 177.61901 
L 620.702541 189.170329 
" style="fill: none; stroke: #000000; stroke-width: 1.5; stroke-linecap: round"/>
   </g>
   <g id="text_20">
    <!-- SiO2-铅钡-风化与未风化概率密度对比图 -->
    <g transform="translate(404.585719 60.2688) scale(0.18 -0.18)">
     <defs>
      <path id="DengXian-53" d="M 3022 938 
Q 3022 341 2662 14 
Q 2303 -313 1647 -313 
Q 456 -313 247 772 
L 638 853 
Q 728 419 978 225 
Q 1228 31 1647 31 
Q 2119 31 2367 259 
Q 2616 488 2616 913 
Q 2616 1156 2530 1311 
Q 2444 1466 2297 1567 
Q 2150 1669 1951 1734 
Q 1753 1800 1525 1872 
Q 1044 2019 826 2170 
Q 609 2322 490 2545 
Q 372 2769 372 3097 
Q 372 3631 700 3925 
Q 1028 4219 1613 4219 
Q 2166 4219 2489 3989 
Q 2813 3759 2934 3275 
L 2544 3178 
Q 2456 3541 2226 3711 
Q 1997 3881 1609 3881 
Q 1209 3881 992 3684 
Q 775 3488 775 3113 
Q 775 2878 859 2723 
Q 944 2569 1117 2459 
Q 1291 2350 1741 2209 
Q 2259 2044 2461 1930 
Q 2663 1816 2781 1677 
Q 2900 1538 2961 1356 
Q 3022 1175 3022 938 
z
" transform="scale(0.015625)"/>
      <path id="DengXian-69" d="M 516 3809 
L 516 4294 
L 913 4294 
L 913 3809 
L 516 3809 
z
M 516 -250 
L 516 2931 
L 913 2931 
L 913 -250 
L 516 -250 
z
" transform="scale(0.015625)"/>
      <path id="DengXian-4f" d="M 4503 1972 
Q 4503 1288 4248 766 
Q 3994 244 3523 -34 
Q 3053 -313 2419 -313 
Q 1772 -313 1303 -34 
Q 834 244 587 764 
Q 341 1284 341 1972 
Q 341 3022 892 3620 
Q 1444 4219 2425 4219 
Q 3066 4219 3534 3950 
Q 4003 3681 4253 3168 
Q 4503 2656 4503 1972 
z
M 4072 1972 
Q 4072 2850 3637 3356 
Q 3203 3863 2425 3863 
Q 1638 3863 1203 3364 
Q 769 2866 769 1972 
Q 769 1081 1211 561 
Q 1653 41 2419 41 
Q 3213 41 3642 550 
Q 4072 1059 4072 1972 
z
" transform="scale(0.015625)"/>
      <path id="DengXian-2d" d="M 694 1166 
L 694 1522 
L 2506 1522 
L 2506 1166 
L 694 1166 
z
" transform="scale(0.015625)"/>
      <path id="DengXian-94c5" d="M 2484 1913 
Q 3353 2400 3328 3622 
L 3328 3988 
Q 3328 4191 3291 4494 
Q 3572 4453 3809 4453 
L 4647 4453 
Q 4872 4453 5203 4494 
Q 5166 4191 5166 3988 
L 5166 2753 
Q 5159 2716 5159 2694 
Q 5159 2475 5491 2497 
Q 5778 2484 6175 2584 
Q 6047 2369 6047 2113 
Q 5528 2125 5288 2144 
Q 4775 2156 4806 2656 
L 4806 4134 
L 3688 4134 
L 3688 3688 
Q 3691 3619 3691 3534 
Q 3691 2413 2919 1684 
Q 2747 1863 2484 1913 
z
M 5491 1656 
Q 5453 1319 5453 1119 
L 5453 -353 
Q 5453 -556 5491 -863 
L 5056 -863 
Q 5088 -666 5094 -494 
L 3500 -494 
Q 3513 -684 3541 -947 
L 3103 -947 
Q 3150 -616 3144 -359 
L 3144 1119 
Q 3144 1338 3103 1656 
Q 3419 1619 3647 1619 
L 4922 1619 
Q 5159 1619 5491 1656 
z
M 3500 1300 
L 3500 -184 
L 5094 -184 
L 5094 1300 
L 3500 1300 
z
M 191 2828 
Q 1159 3744 1459 4959 
L 1894 4788 
Q 1984 4750 1984 4716 
Q 1991 4684 1913 4647 
Q 1772 4588 1684 4384 
Q 1538 4078 1381 3803 
L 2138 3803 
Q 2356 3803 2656 3841 
L 2656 3444 
Q 2356 3481 2150 3481 
L 1216 3481 
Q 922 3034 628 2675 
Q 428 2778 191 2828 
z
M 897 1594 
L 1388 1594 
L 1388 2400 
L 1228 2400 
Q 1025 2400 709 2363 
L 709 2759 
Q 1006 2719 1228 2719 
L 1978 2719 
Q 2169 2719 2497 2759 
L 2497 2363 
Q 2156 2400 1984 2400 
L 1747 2400 
L 1747 1594 
L 2188 1594 
Q 2413 1594 2706 1631 
L 2706 1234 
Q 2438 1275 2203 1275 
L 1747 1275 
L 1747 -128 
Q 2119 122 2553 494 
Q 2584 288 2669 122 
Q 1813 -475 1509 -794 
L 1191 -391 
Q 1394 -263 1388 13 
L 1388 1275 
L 897 1275 
Q 697 1275 378 1234 
L 378 1631 
Q 684 1594 897 1594 
z
" transform="scale(0.015625)"/>
      <path id="DengXian-94a1" d="M 2753 -959 
Q 2656 -750 2578 -703 
L 2400 -588 
Q 3700 -147 4019 1006 
Q 4084 1306 4109 1734 
Q 4128 2113 4128 2894 
Q 4116 3256 4091 3406 
L 4575 3341 
Q 4653 3334 4659 3303 
Q 4666 3278 4594 3231 
Q 4500 3156 4494 2994 
Q 4494 2303 4481 1941 
Q 4469 1528 4434 1275 
Q 4409 -6 2753 -959 
z
M 5684 813 
L 5247 813 
Q 5288 1038 5288 1325 
L 5288 4103 
L 3391 4103 
L 3391 1281 
Q 3391 947 3431 763 
L 2994 763 
Q 3034 984 3034 1281 
L 3034 3969 
Q 3034 4288 2994 4469 
Q 3163 4428 3500 4428 
L 5119 4428 
Q 5434 4428 5684 4469 
Q 5644 4319 5644 3963 
L 5644 1325 
Q 5644 1044 5684 813 
z
M 4519 481 
L 4794 775 
Q 5538 172 6175 -569 
L 5881 -850 
Q 5259 -78 4519 481 
z
M 1472 5013 
L 1888 4856 
Q 1978 4819 1984 4781 
Q 1991 4744 1906 4716 
Q 1838 4691 1784 4603 
Q 1606 4238 1409 3950 
L 2194 3950 
Q 2516 3956 2747 3988 
L 2747 3591 
Q 2509 3628 2194 3628 
L 1203 3628 
Q 934 3244 556 2847 
Q 422 3041 184 3103 
Q 1209 3994 1472 5013 
z
M 891 1709 
L 1344 1709 
L 1344 2625 
L 1203 2625 
Q 891 2625 684 2584 
L 684 2981 
Q 844 2944 1203 2944 
L 1941 2944 
Q 2272 2944 2456 2981 
L 2456 2584 
Q 2241 2625 1941 2625 
L 1691 2625 
L 1691 1709 
L 2088 1709 
Q 2413 1709 2613 1747 
L 2613 1350 
Q 2388 1388 2100 1388 
L 1691 1388 
L 1691 -78 
Q 2163 244 2553 556 
Q 2572 325 2644 166 
Q 2613 141 2528 84 
Q 2259 -122 2041 -269 
Q 1613 -575 1447 -744 
Q 1275 -513 1113 -353 
Q 1350 -225 1344 31 
L 1344 1388 
L 891 1388 
Q 603 1388 372 1350 
L 372 1747 
Q 556 1709 891 1709 
z
" transform="scale(0.015625)"/>
      <path id="DengXian-98ce" d="M 206 -459 
Q 838 128 1075 1166 
Q 1259 1938 1259 3163 
Q 1259 3559 1241 3994 
Q 1228 4300 1178 4628 
Q 1538 4588 1825 4588 
L 4538 4588 
Q 4850 4588 5178 4628 
Q 5172 4581 5153 4488 
Q 5094 4159 5094 4031 
Q 5053 3291 5053 2625 
Q 5053 1681 5141 1025 
Q 5313 -159 5678 -225 
Q 5825 -256 5825 200 
Q 5825 303 5819 416 
Q 5978 281 6228 184 
Q 6138 -697 5778 -738 
Q 4672 -709 4672 2756 
Q 4672 3481 4716 4294 
L 1631 4294 
Q 1666 3600 1666 3044 
Q 1666 1878 1522 1184 
Q 1331 172 634 -709 
Q 428 -563 206 -459 
z
M 1394 447 
Q 2175 850 3003 2022 
Q 2606 2450 1838 3169 
L 2088 3431 
Q 2631 2913 3188 2338 
Q 3681 3188 3816 3756 
L 4213 3572 
Q 4306 3525 4306 3506 
Q 4313 3481 4231 3450 
Q 4116 3400 4025 3213 
Q 3763 2663 3444 2059 
Q 4153 1300 4634 728 
L 4341 475 
Q 3803 1153 3238 1766 
Q 2584 844 1819 184 
Q 1625 347 1394 447 
z
" transform="scale(0.015625)"/>
      <path id="DengXian-5316" d="M 238 2034 
Q 1325 2931 2113 4972 
L 2584 4728 
Q 2650 4697 2644 4678 
Q 2644 4659 2572 4628 
Q 2431 4569 2291 4281 
Q 2100 3884 1875 3488 
L 1875 -319 
Q 1881 -575 1913 -922 
L 1478 -922 
Q 1516 -556 1516 -319 
L 1516 2894 
Q 1147 2303 684 1728 
Q 488 1900 238 2034 
z
M 3866 4250 
L 3866 1991 
Q 4897 2913 5447 3828 
L 5838 3488 
Q 5900 3438 5894 3414 
Q 5888 3391 5806 3366 
Q 5684 3366 5453 3091 
Q 4588 2106 3866 1484 
L 3866 44 
Q 3853 -244 3994 -294 
Q 4128 -372 4665 -372 
Q 5203 -372 5381 -294 
Q 5569 -231 5619 6 
Q 5663 206 5697 569 
Q 5850 428 6156 366 
Q 6144 306 6125 231 
Q 6094 97 6069 -6 
Q 5913 -728 5166 -722 
Q 4903 -731 4703 -731 
Q 4366 -731 4044 -709 
Q 3513 -659 3494 -134 
L 3494 1209 
Q 3066 903 2547 563 
Q 2350 831 2169 966 
Q 2681 1081 3494 1684 
L 3494 4269 
Q 3494 4469 3456 4878 
L 3950 4813 
Q 4019 4806 4019 4781 
Q 4025 4769 3969 4709 
Q 3859 4622 3866 4250 
z
" transform="scale(0.015625)"/>
      <path id="DengXian-4e0e" d="M 4494 1141 
L 4494 744 
Q 4191 781 3916 781 
L 1063 781 
Q 831 781 525 744 
L 525 1141 
Q 831 1100 1063 1100 
L 3916 1100 
Q 4184 1100 4494 1141 
z
M 1753 4941 
L 2253 4863 
Q 2316 4856 2316 4831 
Q 2322 4806 2266 4744 
Q 2175 4672 2169 4397 
L 2144 3969 
L 5313 3969 
Q 5544 3969 5850 4006 
L 5850 3609 
Q 5544 3653 5313 3647 
L 2106 3647 
L 2016 2456 
L 4947 2456 
Q 5197 2450 5509 2497 
Q 5478 2241 5453 1856 
Q 5447 1806 5447 1778 
Q 5375 838 5313 341 
Q 5241 -313 4856 -544 
Q 4494 -800 3413 -909 
Q 3378 -653 3194 -353 
Q 3500 -381 3719 -381 
Q 4194 -381 4441 -269 
Q 4819 -122 4903 384 
Q 4997 991 5038 2138 
L 2169 2138 
Q 1913 2138 1516 2100 
Q 1613 2484 1638 2797 
L 1753 4281 
Q 1766 4431 1766 4597 
Q 1766 4763 1753 4941 
z
" transform="scale(0.015625)"/>
      <path id="DengXian-672a" d="M 331 -244 
Q 1650 325 2625 2144 
L 1019 2144 
Q 819 2150 531 2106 
L 531 2516 
Q 800 2472 1006 2478 
L 2950 2478 
L 2950 3500 
L 1550 3500 
Q 1338 3506 1088 3463 
L 1088 3872 
Q 1325 3828 1528 3834 
L 2950 3834 
L 2950 4481 
Q 2956 4775 2913 5038 
L 3397 4972 
Q 3481 4966 3481 4947 
Q 3488 4928 3425 4891 
Q 3316 4844 3322 4469 
L 3322 3834 
L 4697 3834 
Q 4891 3828 5166 3872 
L 5166 3463 
Q 4897 3506 4697 3500 
L 3322 3500 
L 3322 2478 
L 5313 2478 
Q 5491 2472 5747 2516 
L 5747 2106 
Q 5491 2150 5313 2144 
L 3647 2144 
Q 4306 569 6022 -141 
Q 5722 -269 5619 -506 
Q 3938 519 3322 2034 
L 3322 -422 
Q 3316 -750 3359 -997 
L 2913 -997 
Q 2956 -709 2950 -428 
L 2950 1991 
Q 1966 294 756 -575 
Q 616 -331 331 -244 
z
" transform="scale(0.015625)"/>
      <path id="DengXian-6982" d="M 2247 4544 
Q 2572 4506 2747 4506 
L 3128 4506 
Q 3347 4500 3641 4544 
Q 3603 4219 3603 4019 
L 3603 2278 
Q 3609 1991 3628 1813 
Q 3603 1813 3559 1819 
Q 3263 1844 3163 1844 
L 2631 1844 
L 2631 397 
Q 2906 581 3297 928 
Q 3194 1209 3022 1503 
L 3322 1672 
Q 3628 1063 3834 434 
L 3531 244 
Q 3475 447 3413 616 
Q 2784 128 2456 -244 
L 2131 122 
Q 2284 238 2284 384 
L 2284 4006 
Q 2291 4191 2247 4544 
z
M 2631 3016 
L 2631 2163 
L 3256 2163 
L 3256 3016 
L 2631 3016 
z
M 2631 4184 
L 2631 3334 
L 3256 3334 
L 3256 4184 
L 2631 4184 
z
M 2906 -594 
Q 4319 225 4678 1984 
L 4256 1984 
Q 4050 1984 3809 1947 
Q 3884 2169 3928 2444 
L 4031 3103 
Q 4056 3250 4056 3419 
Q 4056 3525 4044 3675 
L 4488 3553 
Q 4544 3541 4544 3514 
Q 4544 3488 4488 3438 
Q 4403 3378 4366 3103 
L 4238 2303 
L 4716 2303 
Q 4800 3206 4831 4281 
L 4506 4281 
Q 4313 4281 3988 4244 
L 3988 4641 
Q 4294 4603 4500 4603 
L 5447 4603 
Q 5650 4594 5966 4641 
L 5966 4244 
Q 5672 4281 5447 4281 
L 5166 4281 
Q 5113 3072 5056 2303 
L 5606 2303 
Q 5806 2303 6125 2344 
L 6125 1947 
Q 5844 1984 5613 1984 
L 5025 1984 
Q 5019 1953 5013 1900 
Q 4984 1759 4972 1691 
L 5281 1663 
Q 5375 1656 5381 1625 
Q 5394 1600 5319 1528 
Q 5234 1459 5234 1259 
L 5234 -191 
Q 5203 -397 5538 -378 
Q 5716 -391 5753 -275 
Q 5806 -184 5825 244 
Q 6003 78 6228 72 
Q 6144 -441 6003 -569 
Q 5875 -716 5466 -709 
Q 4850 -744 4891 -244 
L 4891 1350 
Q 4469 78 3328 -863 
Q 3097 -659 2906 -594 
z
M 1125 3091 
L 922 3091 
Q 703 3091 409 3053 
L 409 3450 
Q 756 3413 922 3413 
L 1241 3413 
L 1241 4488 
Q 1241 4678 1203 4972 
L 1663 4909 
Q 1734 4903 1740 4876 
Q 1747 4850 1691 4794 
Q 1588 4697 1588 4403 
L 1588 3413 
Q 1797 3406 2059 3450 
L 2059 3053 
Q 1797 3097 1588 3091 
L 1588 2516 
Q 1906 2228 2228 1906 
L 1972 1588 
Q 1806 1863 1588 2088 
L 1588 -319 
Q 1588 -556 1625 -903 
L 1203 -903 
Q 1241 -538 1241 -319 
L 1241 2322 
Q 997 1484 628 756 
Q 441 872 213 916 
Q 850 1734 1125 3091 
z
" transform="scale(0.015625)"/>
      <path id="DengXian-7387" d="M 825 716 
L 2950 716 
L 2950 763 
Q 2950 959 2913 1300 
L 3406 1228 
Q 3488 1222 3494 1197 
Q 3500 1178 3444 1134 
Q 3316 1038 3322 775 
L 3322 716 
L 5528 716 
Q 5741 722 6053 756 
L 6053 372 
Q 5728 409 5528 409 
L 3322 409 
L 3322 -359 
Q 3322 -513 3359 -934 
L 2913 -934 
Q 2944 -575 2950 -359 
L 2950 409 
L 825 409 
Q 616 403 300 372 
L 300 756 
Q 628 722 825 716 
z
M 531 3944 
L 531 4325 
Q 897 4288 1056 4288 
L 3309 4288 
Q 2822 4588 2375 4806 
L 2597 5125 
Q 3041 4903 3572 4594 
L 3372 4288 
L 5159 4288 
Q 5369 4294 5703 4325 
L 5703 3944 
Q 5363 3975 5159 3981 
L 3066 3981 
L 3256 3891 
Q 3341 3853 3347 3834 
Q 3353 3816 3284 3781 
Q 3163 3731 3016 3553 
Q 2791 3297 2497 2975 
L 3316 3003 
Q 3547 3303 3750 3647 
L 4091 3456 
Q 4178 3406 4184 3379 
Q 4191 3353 4116 3322 
Q 4019 3291 3616 2828 
Q 3231 2394 2516 1722 
L 3853 1813 
L 3572 2266 
Q 3775 2356 3878 2419 
Q 4256 1819 4550 1319 
Q 4525 1306 4378 1228 
Q 4231 1147 4206 1134 
L 3994 1550 
Q 2859 1472 2175 1331 
Q 2088 1575 1997 1741 
Q 2297 1813 2591 2156 
Q 2803 2381 3128 2772 
Q 2541 2778 2150 2663 
Q 2088 2859 2022 3022 
Q 2266 3072 2413 3278 
Q 2688 3628 2859 3981 
L 1056 3981 
Q 844 3975 531 3944 
z
M 1906 2150 
Q 1153 1313 947 1044 
L 575 1300 
Q 1069 1678 1697 2484 
Q 1791 2272 1906 2150 
z
M 609 3431 
L 872 3659 
Q 1313 3194 1656 2828 
L 1381 2559 
Q 884 3156 609 3431 
z
M 4213 2834 
Q 4781 3291 5088 3788 
L 5363 3591 
Q 5434 3541 5434 3514 
Q 5434 3488 5356 3450 
Q 5241 3400 5100 3231 
Q 4775 2875 4519 2613 
Q 4353 2766 4213 2834 
z
M 4519 2138 
L 4800 2381 
Q 5216 1959 5684 1441 
L 5381 1178 
Q 5025 1631 4519 2138 
z
" transform="scale(0.015625)"/>
      <path id="DengXian-5bc6" d="M 525 1275 
Q 1313 1344 2094 1684 
L 2094 2656 
Q 2094 3022 2053 3175 
L 2559 3084 
Q 2619 3072 2625 3053 
Q 2625 3034 2572 3003 
Q 2444 2938 2450 2572 
L 2450 1863 
Q 3634 2503 4206 3572 
L 4647 3278 
Q 4691 3244 4691 3225 
Q 4684 3213 4634 3206 
Q 4488 3194 4366 3047 
Q 3794 2316 2869 1716 
Q 3050 1697 3244 1697 
Q 3388 1697 3603 1709 
Q 4031 1734 4306 1806 
Q 4581 1825 4603 2431 
Q 4775 2303 5019 2209 
Q 4909 1544 4378 1459 
Q 3853 1375 3297 1363 
Q 2747 1356 2350 1416 
Q 1619 1081 763 897 
Q 703 1106 525 1275 
z
M 616 1941 
Q 1203 2400 1478 3053 
L 1869 2822 
Q 1919 2791 1913 2766 
Q 1906 2747 1844 2734 
Q 1703 2694 1619 2566 
Q 1388 2144 1031 1741 
Q 909 1844 616 1941 
z
M 3469 -391 
Q 3675 -384 4128 -366 
Q 4659 -353 4966 -341 
L 4966 556 
Q 4966 903 4928 1075 
L 5434 991 
Q 5491 978 5497 959 
Q 5497 941 5447 903 
Q 5313 838 5325 475 
L 5325 -634 
Q 5325 -878 5363 -1006 
L 4928 -1006 
Q 4966 -891 4966 -647 
Q 4569 -666 3781 -691 
Q 2456 -744 1825 -775 
Q 1528 -788 1247 -844 
Q 1288 -616 1288 -281 
L 1288 366 
Q 1288 672 1247 884 
L 1753 800 
Q 1806 788 1813 769 
Q 1813 744 1766 709 
Q 1650 616 1644 306 
L 1644 -453 
Q 1784 -447 2081 -441 
Q 2706 -428 3122 -409 
L 3122 750 
Q 3122 1063 3084 1269 
L 3591 1184 
Q 3641 1178 3641 1153 
Q 3647 1134 3597 1100 
Q 3469 1019 3469 666 
L 3469 -391 
z
M 2706 3438 
L 2981 3694 
Q 3378 3366 3634 3053 
L 3366 2784 
Q 3066 3181 2706 3438 
z
M 4744 2875 
L 5019 3138 
Q 5569 2663 5997 2163 
L 5716 1888 
Q 5313 2406 4744 2875 
z
M 2956 5019 
Q 3469 4697 3834 4384 
L 3628 4122 
L 5388 4122 
Q 5703 4122 5919 4159 
Q 5881 3963 5881 3669 
L 5881 3534 
Q 5881 3231 5919 3028 
L 5484 3028 
Q 5522 3219 5522 3534 
L 5522 3803 
L 1094 3803 
L 1094 3469 
Q 1094 3175 1131 2963 
L 697 2963 
Q 738 3169 738 3469 
L 738 3647 
Q 738 3994 697 4159 
Q 922 4122 1222 4122 
L 3519 4122 
Q 3194 4428 2681 4703 
L 2956 5019 
z
" transform="scale(0.015625)"/>
      <path id="DengXian-5ea6" d="M 3419 153 
Q 2809 684 2522 1253 
L 2444 1253 
Q 2259 1259 1947 1216 
L 1947 1613 
Q 2241 1569 2444 1575 
L 4716 1575 
Q 4897 1569 5247 1613 
Q 4819 909 4044 153 
Q 5050 -366 6144 -397 
Q 5959 -569 5863 -863 
Q 4544 -634 3731 -97 
Q 2809 -647 1703 -972 
Q 1588 -697 1409 -531 
Q 2484 -434 3419 153 
z
M 3731 366 
Q 4238 769 4556 1253 
L 2931 1253 
Q 3200 813 3731 366 
z
M 3053 3303 
L 4459 3303 
L 4459 3391 
Q 4469 3681 4422 3975 
L 4903 3903 
Q 4991 3891 4991 3872 
Q 4997 3853 4916 3781 
Q 4819 3694 4819 3372 
L 4819 3303 
L 5331 3303 
Q 5522 3297 5838 3341 
L 5838 2944 
Q 5516 2988 5331 2981 
L 4819 2981 
L 4819 2541 
Q 4813 2338 4856 1991 
Q 4481 2034 4256 2028 
L 3128 2028 
Q 2931 2028 2656 1991 
Q 2694 2266 2694 2484 
L 2694 2981 
L 2163 2981 
Q 1978 2988 1672 2944 
L 1672 3341 
Q 1966 3297 2163 3303 
L 2694 3303 
L 2694 3384 
Q 2694 3641 2656 3950 
L 3144 3878 
Q 3225 3872 3225 3847 
Q 3225 3822 3150 3756 
Q 3053 3688 3053 3347 
L 3053 3303 
z
M 3053 2981 
L 3053 2350 
L 4459 2350 
L 4459 2981 
L 3053 2981 
z
M 275 -447 
Q 794 -13 959 616 
Q 1141 1203 1131 2600 
L 1131 3794 
Q 1141 4072 1094 4391 
Q 1422 4353 1663 4353 
L 3769 4353 
Q 3519 4550 3116 4794 
L 3341 5088 
Q 3756 4838 4091 4588 
L 3928 4353 
L 5538 4353 
Q 5741 4353 6075 4391 
L 6075 3981 
Q 5728 4019 5538 4019 
L 1503 4019 
L 1503 2478 
Q 1509 1259 1356 666 
Q 1216 50 744 -647 
Q 581 -513 275 -447 
z
" transform="scale(0.015625)"/>
      <path id="DengXian-5bf9" d="M 256 -141 
Q 1178 347 1797 1550 
Q 1094 2613 750 3009 
L 1063 3250 
Q 1497 2663 1984 1959 
Q 2291 2706 2388 3750 
L 1119 3750 
Q 928 3750 603 3713 
L 603 4122 
Q 941 4078 1119 4084 
L 2247 4084 
Q 2478 4084 2834 4122 
Q 2663 2644 2247 1600 
Q 2706 891 3144 147 
L 2766 -84 
Q 2572 428 2047 1191 
Q 1550 347 722 -416 
Q 544 -288 256 -141 
z
M 3456 3366 
L 4838 3366 
L 4838 4153 
Q 4844 4538 4800 4884 
L 5319 4813 
Q 5350 4806 5350 4781 
Q 5350 4756 5319 4728 
Q 5216 4628 5209 4231 
L 5209 3366 
L 5613 3366 
Q 5813 3359 6125 3406 
L 6125 2994 
Q 5791 3034 5613 3034 
L 5209 3034 
L 5209 -153 
Q 5222 -569 5013 -691 
Q 4819 -831 4153 -856 
Q 4116 -588 4006 -359 
Q 4313 -400 4506 -400 
Q 4628 -400 4684 -384 
Q 4850 -347 4838 -134 
L 4838 3034 
L 3456 3034 
Q 3256 3041 2931 2994 
L 2931 3406 
Q 3206 3359 3456 3366 
z
M 3225 2259 
L 3584 2450 
Q 3859 1997 4331 1106 
L 3944 897 
Q 3688 1509 3225 2259 
z
" transform="scale(0.015625)"/>
      <path id="DengXian-6bd4" d="M 722 -397 
Q 891 -313 916 -244 
Q 959 -172 953 78 
L 953 3853 
Q 953 4213 916 4409 
L 1388 4359 
Q 1472 4347 1478 4320 
Q 1484 4294 1422 4238 
Q 1313 4141 1313 3841 
L 1313 2663 
L 2406 2663 
Q 2719 2663 2906 2700 
L 2906 2303 
Q 2669 2344 2406 2344 
L 1313 2344 
L 1313 -153 
Q 1375 -122 1503 -63 
Q 2316 294 2797 659 
Q 2753 366 2753 122 
Q 1509 -500 1356 -583 
Q 1203 -666 947 -856 
Q 794 -531 722 -397 
z
M 3822 4191 
L 3822 2509 
Q 4928 3041 5306 3481 
L 5691 3084 
Q 5772 3003 5759 2964 
Q 5747 2925 5638 2931 
Q 5381 2944 5088 2759 
Q 4672 2478 3822 2125 
L 3822 -72 
Q 3794 -384 4147 -384 
Q 4166 -384 4206 -384 
Q 4450 -397 4628 -397 
Q 4928 -397 5119 -366 
Q 5441 -294 5538 91 
Q 5569 275 5569 647 
Q 5753 475 6075 378 
Q 5978 13 5888 -250 
Q 5703 -659 5253 -756 
Q 4922 -797 4603 -797 
Q 4259 -797 3872 -750 
Q 3463 -691 3463 -103 
L 3463 4191 
Q 3463 4519 3425 4744 
L 3897 4691 
Q 3988 4684 3994 4653 
Q 4000 4622 3928 4563 
Q 3822 4469 3822 4191 
z
" transform="scale(0.015625)"/>
      <path id="DengXian-56fe" d="M 2338 2753 
L 2584 3053 
Q 2719 2847 3072 2638 
Q 3397 2888 3719 3284 
L 2522 3284 
Q 2156 2841 1844 2522 
Q 1663 2694 1434 2803 
Q 2241 3219 2584 4141 
L 2994 4006 
Q 3059 3988 3059 3963 
Q 3059 3938 2994 3903 
Q 2906 3866 2713 3603 
L 3847 3603 
Q 4091 3609 4441 3641 
Q 3994 3003 3384 2450 
Q 4184 1978 5088 1850 
Q 4856 1619 4769 1422 
Q 3963 1722 3122 2203 
Q 2566 1784 1556 1369 
Q 1388 1606 1209 1734 
Q 2138 1953 2797 2425 
Q 2553 2584 2338 2753 
z
M 2309 722 
L 2478 1056 
Q 3353 697 4191 269 
L 3994 -50 
Q 3200 422 2309 722 
z
M 2675 1528 
L 2834 1819 
Q 3444 1550 3975 1259 
L 3809 941 
Q 3341 1241 2675 1528 
z
M 1159 -947 
L 722 -947 
Q 756 -616 763 -372 
L 763 3994 
Q 756 4256 722 4563 
Q 1063 4531 1319 4525 
L 5125 4525 
Q 5375 4531 5716 4563 
Q 5684 4244 5678 4006 
L 5678 -250 
Q 5684 -453 5716 -819 
L 5281 -819 
Q 5313 -628 5319 -453 
L 1119 -453 
Q 1125 -672 1159 -947 
z
M 1119 -147 
L 5319 -147 
L 5319 4206 
L 1119 4206 
L 1119 -147 
z
" transform="scale(0.015625)"/>
     </defs>
     <use xlink:href="#DengXian-53"/>
     <use xlink:href="#DengXian-69" x="51.416016"/>
     <use xlink:href="#DengXian-4f" x="73.779297"/>
     <use xlink:href="#DengXian-32" x="149.511719"/>
     <use xlink:href="#DengXian-2d" x="202.197266"/>
     <use xlink:href="#DengXian-94c5" x="252.197266"/>
     <use xlink:href="#DengXian-94a1" x="352.197266"/>
     <use xlink:href="#DengXian-2d" x="452.197266"/>
     <use xlink:href="#DengXian-98ce" x="502.197266"/>
     <use xlink:href="#DengXian-5316" x="602.197266"/>
     <use xlink:href="#DengXian-4e0e" x="702.197266"/>
     <use xlink:href="#DengXian-672a" x="802.197266"/>
     <use xlink:href="#DengXian-98ce" x="902.197266"/>
     <use xlink:href="#DengXian-5316" x="1002.197266"/>
     <use xlink:href="#DengXian-6982" x="1102.197266"/>
     <use xlink:href="#DengXian-7387" x="1202.197266"/>
     <use xlink:href="#DengXian-5bc6" x="1302.197266"/>
     <use xlink:href="#DengXian-5ea6" x="1402.197266"/>
     <use xlink:href="#DengXian-5bf9" x="1502.197266"/>
     <use xlink:href="#DengXian-6bd4" x="1602.197266"/>
     <use xlink:href="#DengXian-56fe" x="1702.197266"/>
    </g>
   </g>
   <g id="legend_1">
    <g id="patch_8">
     <path d="M 861.497531 121.391456 
L 984.828 121.391456 
Q 987.828 121.391456 987.828 118.391456 
L 987.828 76.7688 
Q 987.828 73.7688 984.828 73.7688 
L 861.497531 73.7688 
Q 858.497531 73.7688 858.497531 76.7688 
L 858.497531 118.391456 
Q 858.497531 121.391456 861.497531 121.391456 
z
" style="fill: #ffffff; opacity: 0.8; stroke: #cccccc; stroke-linejoin: miter"/>
    </g>
    <g id="line2d_22">
     <path d="M 864.497531 85.0188 
L 879.497531 85.0188 
L 894.497531 85.0188 
" style="fill: none; stroke: #1f77b4; stroke-width: 1.5; stroke-linecap: square"/>
    </g>
    <g id="text_21">
     <!-- SiO2风化 -->
     <g transform="translate(906.497531 90.2688) scale(0.15 -0.15)">
      <use xlink:href="#DengXian-53"/>
      <use xlink:href="#DengXian-69" x="51.416016"/>
      <use xlink:href="#DengXian-4f" x="73.779297"/>
      <use xlink:href="#DengXian-32" x="149.511719"/>
      <use xlink:href="#DengXian-98ce" x="202.197266"/>
      <use xlink:href="#DengXian-5316" x="302.197266"/>
     </g>
    </g>
    <g id="line2d_23">
     <path d="M 864.497531 106.663331 
L 879.497531 106.663331 
L 894.497531 106.663331 
" style="fill: none; stroke: #ff7f0e; stroke-width: 1.5; stroke-linecap: square"/>
    </g>
    <g id="text_22">
     <!-- SiO2未风化 -->
     <g transform="translate(906.497531 111.913331) scale(0.15 -0.15)">
      <use xlink:href="#DengXian-53"/>
      <use xlink:href="#DengXian-69" x="51.416016"/>
      <use xlink:href="#DengXian-4f" x="73.779297"/>
      <use xlink:href="#DengXian-32" x="149.511719"/>
      <use xlink:href="#DengXian-672a" x="202.197266"/>
      <use xlink:href="#DengXian-98ce" x="302.197266"/>
      <use xlink:href="#DengXian-5316" x="402.197266"/>
     </g>
    </g>
   </g>
  </g>
 </g>
 <defs>
  <clipPath id="peaf628f711">
   <rect x="138.24" y="66.2688" width="857.088" height="425.2248"/>
  </clipPath>
 </defs>
</svg>
