<?xml version="1.0" encoding="utf-8" standalone="no"?>
<!DOCTYPE svg PUBLIC "-//W3C//DTD SVG 1.1//EN"
  "http://www.w3.org/Graphics/SVG/1.1/DTD/svg11.dtd">
<svg xmlns:xlink="http://www.w3.org/1999/xlink" width="1105.92pt" height="552.24pt" viewBox="0 0 1105.92 552.24" xmlns="http://www.w3.org/2000/svg" version="1.1">
 <metadata>
  <rdf:RDF xmlns:dc="http://purl.org/dc/elements/1.1/" xmlns:cc="http://creativecommons.org/ns#" xmlns:rdf="http://www.w3.org/1999/02/22-rdf-syntax-ns#">
   <cc:Work>
    <dc:type rdf:resource="http://purl.org/dc/dcmitype/StillImage"/>
    <dc:date>2024-04-04T12:07:32.094351</dc:date>
    <dc:format>image/svg+xml</dc:format>
    <dc:creator>
     <cc:Agent>
      <dc:title>Matplotlib v3.8.3, https://matplotlib.org/</dc:title>
     </cc:Agent>
    </dc:creator>
   </cc:Work>
  </rdf:RDF>
 </metadata>
 <defs>
  <style type="text/css">*{stroke-linejoin: round; stroke-linecap: butt}</style>
 </defs>
 <g id="figure_1">
  <g id="patch_1">
   <path d="M 0 552.24 
L 1105.92 552.24 
L 1105.92 0 
L 0 0 
z
" style="fill: #ffffff"/>
  </g>
  <g id="axes_1">
   <g id="patch_2">
    <path d="M 138.24 491.4936 
L 995.328 491.4936 
L 995.328 66.2688 
L 138.24 66.2688 
z
" style="fill: #ffffff"/>
   </g>
   <g id="matplotlib.axis_1">
    <g id="xtick_1">
     <g id="line2d_1">
      <defs>
       <path id="me70b76c94a" d="M 0 0 
L 0 3.5 
" style="stroke: #000000; stroke-width: 0.8"/>
      </defs>
      <g>
       <use xlink:href="#me70b76c94a" x="177.198545" y="491.4936" style="stroke: #000000; stroke-width: 0.8"/>
      </g>
     </g>
     <g id="text_1">
      <!-- 0.0 -->
      <g transform="translate(167.65128 508.557662) scale(0.15 -0.15)">
       <defs>
        <path id="DengXian-30" d="M 3106 1953 
Q 3106 850 2750 268 
Q 2394 -313 1697 -313 
Q 1006 -313 654 256 
Q 303 825 303 1953 
Q 303 3100 645 3659 
Q 988 4219 1719 4219 
Q 2422 4219 2764 3656 
Q 3106 3094 3106 1953 
z
M 2706 1953 
Q 2706 2963 2473 3425 
Q 2241 3888 1716 3888 
Q 1172 3888 936 3423 
Q 700 2959 700 1953 
Q 700 969 944 495 
Q 1188 22 1703 22 
Q 2216 22 2461 508 
Q 2706 994 2706 1953 
z
" transform="scale(0.015625)"/>
        <path id="DengXian-2e" d="M 475 -250 
L 475 291 
L 928 291 
L 928 -250 
L 475 -250 
z
" transform="scale(0.015625)"/>
       </defs>
       <use xlink:href="#DengXian-30"/>
       <use xlink:href="#DengXian-2e" x="52.685547"/>
       <use xlink:href="#DengXian-30" x="74.609375"/>
      </g>
     </g>
    </g>
    <g id="xtick_2">
     <g id="line2d_2">
      <g>
       <use xlink:href="#me70b76c94a" x="274.594909" y="491.4936" style="stroke: #000000; stroke-width: 0.8"/>
      </g>
     </g>
     <g id="text_2">
      <!-- 0.5 -->
      <g transform="translate(265.047643 508.557662) scale(0.15 -0.15)">
       <defs>
        <path id="DengXian-35" d="M 3047 1169 
Q 3047 469 2676 78 
Q 2306 -313 1641 -313 
Q 575 -313 366 672 
L 763 734 
Q 859 350 1075 186 
Q 1291 22 1669 22 
Q 2134 22 2387 315 
Q 2641 609 2641 1153 
Q 2641 1619 2392 1895 
Q 2144 2172 1713 2172 
Q 1459 2172 1265 2095 
Q 1072 2019 875 1844 
L 503 1844 
L 641 4153 
L 2828 4153 
L 2828 3816 
L 997 3816 
L 894 2222 
Q 1113 2381 1323 2442 
Q 1534 2503 1775 2503 
Q 2359 2503 2703 2142 
Q 3047 1781 3047 1169 
z
" transform="scale(0.015625)"/>
       </defs>
       <use xlink:href="#DengXian-30"/>
       <use xlink:href="#DengXian-2e" x="52.685547"/>
       <use xlink:href="#DengXian-35" x="74.609375"/>
      </g>
     </g>
    </g>
    <g id="xtick_3">
     <g id="line2d_3">
      <g>
       <use xlink:href="#me70b76c94a" x="371.991273" y="491.4936" style="stroke: #000000; stroke-width: 0.8"/>
      </g>
     </g>
     <g id="text_3">
      <!-- 1.0 -->
      <g transform="translate(362.444007 508.557662) scale(0.15 -0.15)">
       <defs>
        <path id="DengXian-31" d="M 484 -250 
L 484 84 
L 1609 84 
L 1609 3744 
L 603 3075 
L 603 3434 
L 1653 4153 
L 2000 4153 
L 2000 84 
L 2959 84 
L 2959 -250 
L 484 -250 
z
" transform="scale(0.015625)"/>
       </defs>
       <use xlink:href="#DengXian-31"/>
       <use xlink:href="#DengXian-2e" x="52.685547"/>
       <use xlink:href="#DengXian-30" x="74.609375"/>
      </g>
     </g>
    </g>
    <g id="xtick_4">
     <g id="line2d_4">
      <g>
       <use xlink:href="#me70b76c94a" x="469.387636" y="491.4936" style="stroke: #000000; stroke-width: 0.8"/>
      </g>
     </g>
     <g id="text_4">
      <!-- 1.5 -->
      <g transform="translate(459.840371 508.557662) scale(0.15 -0.15)">
       <use xlink:href="#DengXian-31"/>
       <use xlink:href="#DengXian-2e" x="52.685547"/>
       <use xlink:href="#DengXian-35" x="74.609375"/>
      </g>
     </g>
    </g>
    <g id="xtick_5">
     <g id="line2d_5">
      <g>
       <use xlink:href="#me70b76c94a" x="566.784" y="491.4936" style="stroke: #000000; stroke-width: 0.8"/>
      </g>
     </g>
     <g id="text_5">
      <!-- 2.0 -->
      <g transform="translate(557.236734 508.557662) scale(0.15 -0.15)">
       <defs>
        <path id="DengXian-32" d="M 347 -250 
L 347 31 
Q 491 394 764 751 
Q 1038 1109 1566 1569 
Q 2109 2038 2326 2359 
Q 2544 2681 2544 3034 
Q 2544 3441 2316 3661 
Q 2088 3881 1681 3881 
Q 1313 3881 1077 3664 
Q 841 3447 800 3069 
L 400 3119 
Q 447 3613 795 3916 
Q 1144 4219 1684 4219 
Q 2281 4219 2615 3912 
Q 2950 3606 2950 3059 
Q 2950 2778 2850 2531 
Q 2750 2284 2550 2039 
Q 2350 1794 1869 1366 
Q 1025 616 803 103 
L 3016 103 
L 3016 -250 
L 347 -250 
z
" transform="scale(0.015625)"/>
       </defs>
       <use xlink:href="#DengXian-32"/>
       <use xlink:href="#DengXian-2e" x="52.685547"/>
       <use xlink:href="#DengXian-30" x="74.609375"/>
      </g>
     </g>
    </g>
    <g id="xtick_6">
     <g id="line2d_6">
      <g>
       <use xlink:href="#me70b76c94a" x="664.180364" y="491.4936" style="stroke: #000000; stroke-width: 0.8"/>
      </g>
     </g>
     <g id="text_6">
      <!-- 2.5 -->
      <g transform="translate(654.633098 508.557662) scale(0.15 -0.15)">
       <use xlink:href="#DengXian-32"/>
       <use xlink:href="#DengXian-2e" x="52.685547"/>
       <use xlink:href="#DengXian-35" x="74.609375"/>
      </g>
     </g>
    </g>
    <g id="xtick_7">
     <g id="line2d_7">
      <g>
       <use xlink:href="#me70b76c94a" x="761.576727" y="491.4936" style="stroke: #000000; stroke-width: 0.8"/>
      </g>
     </g>
     <g id="text_7">
      <!-- 3.0 -->
      <g transform="translate(752.029462 508.557662) scale(0.15 -0.15)">
       <defs>
        <path id="DengXian-33" d="M 3019 963 
Q 3019 356 2662 21 
Q 2306 -313 1656 -313 
Q 409 -313 266 828 
L 669 872 
Q 778 25 1656 25 
Q 2122 25 2367 262 
Q 2613 500 2613 963 
Q 2613 1375 2320 1590 
Q 2028 1806 1500 1806 
L 1200 1806 
L 1200 2172 
L 1491 2172 
Q 1784 2172 2011 2269 
Q 2238 2366 2369 2555 
Q 2500 2744 2500 3022 
Q 2500 3434 2283 3659 
Q 2066 3884 1644 3884 
Q 1266 3884 1027 3689 
Q 788 3494 747 3091 
L 353 3125 
Q 413 3647 755 3933 
Q 1097 4219 1647 4219 
Q 2244 4219 2573 3914 
Q 2903 3609 2903 3056 
Q 2903 2653 2672 2376 
Q 2441 2100 2022 2009 
L 2022 1997 
Q 2491 1938 2755 1658 
Q 3019 1378 3019 963 
z
" transform="scale(0.015625)"/>
       </defs>
       <use xlink:href="#DengXian-33"/>
       <use xlink:href="#DengXian-2e" x="52.685547"/>
       <use xlink:href="#DengXian-30" x="74.609375"/>
      </g>
     </g>
    </g>
    <g id="xtick_8">
     <g id="line2d_8">
      <g>
       <use xlink:href="#me70b76c94a" x="858.973091" y="491.4936" style="stroke: #000000; stroke-width: 0.8"/>
      </g>
     </g>
     <g id="text_8">
      <!-- 3.5 -->
      <g transform="translate(849.425825 508.557662) scale(0.15 -0.15)">
       <use xlink:href="#DengXian-33"/>
       <use xlink:href="#DengXian-2e" x="52.685547"/>
       <use xlink:href="#DengXian-35" x="74.609375"/>
      </g>
     </g>
    </g>
    <g id="xtick_9">
     <g id="line2d_9">
      <g>
       <use xlink:href="#me70b76c94a" x="956.369455" y="491.4936" style="stroke: #000000; stroke-width: 0.8"/>
      </g>
     </g>
     <g id="text_9">
      <!-- 4.0 -->
      <g transform="translate(946.822189 508.557662) scale(0.15 -0.15)">
       <defs>
        <path id="DengXian-34" d="M 2516 803 
L 2516 -250 
L 2125 -250 
L 2125 803 
L 141 803 
L 141 1116 
L 2088 4153 
L 2516 4153 
L 2516 1131 
L 3113 1131 
L 3113 803 
L 2516 803 
z
M 2125 3628 
L 538 1131 
L 2125 1131 
L 2125 3628 
z
" transform="scale(0.015625)"/>
       </defs>
       <use xlink:href="#DengXian-34"/>
       <use xlink:href="#DengXian-2e" x="52.685547"/>
       <use xlink:href="#DengXian-30" x="74.609375"/>
      </g>
     </g>
    </g>
   </g>
   <g id="matplotlib.axis_2">
    <g id="ytick_1">
     <g id="line2d_10">
      <defs>
       <path id="mfc3fc76b67" d="M 0 0 
L -3.5 0 
" style="stroke: #000000; stroke-width: 0.8"/>
      </defs>
      <g>
       <use xlink:href="#mfc3fc76b67" x="138.24" y="456.638659" style="stroke: #000000; stroke-width: 0.8"/>
      </g>
     </g>
     <g id="text_10">
      <!-- 1.0 -->
      <g transform="translate(112.145469 461.67069) scale(0.15 -0.15)">
       <use xlink:href="#DengXian-31"/>
       <use xlink:href="#DengXian-2e" x="52.685547"/>
       <use xlink:href="#DengXian-30" x="74.609375"/>
      </g>
     </g>
    </g>
    <g id="ytick_2">
     <g id="line2d_11">
      <g>
       <use xlink:href="#mfc3fc76b67" x="138.24" y="386.88346" style="stroke: #000000; stroke-width: 0.8"/>
      </g>
     </g>
     <g id="text_11">
      <!-- 1.5 -->
      <g transform="translate(112.145469 391.915491) scale(0.15 -0.15)">
       <use xlink:href="#DengXian-31"/>
       <use xlink:href="#DengXian-2e" x="52.685547"/>
       <use xlink:href="#DengXian-35" x="74.609375"/>
      </g>
     </g>
    </g>
    <g id="ytick_3">
     <g id="line2d_12">
      <g>
       <use xlink:href="#mfc3fc76b67" x="138.24" y="317.128261" style="stroke: #000000; stroke-width: 0.8"/>
      </g>
     </g>
     <g id="text_12">
      <!-- 2.0 -->
      <g transform="translate(112.145469 322.160292) scale(0.15 -0.15)">
       <use xlink:href="#DengXian-32"/>
       <use xlink:href="#DengXian-2e" x="52.685547"/>
       <use xlink:href="#DengXian-30" x="74.609375"/>
      </g>
     </g>
    </g>
    <g id="ytick_4">
     <g id="line2d_13">
      <g>
       <use xlink:href="#mfc3fc76b67" x="138.24" y="247.373062" style="stroke: #000000; stroke-width: 0.8"/>
      </g>
     </g>
     <g id="text_13">
      <!-- 2.5 -->
      <g transform="translate(112.145469 252.405093) scale(0.15 -0.15)">
       <use xlink:href="#DengXian-32"/>
       <use xlink:href="#DengXian-2e" x="52.685547"/>
       <use xlink:href="#DengXian-35" x="74.609375"/>
      </g>
     </g>
    </g>
    <g id="ytick_5">
     <g id="line2d_14">
      <g>
       <use xlink:href="#mfc3fc76b67" x="138.24" y="177.617863" style="stroke: #000000; stroke-width: 0.8"/>
      </g>
     </g>
     <g id="text_14">
      <!-- 3.0 -->
      <g transform="translate(112.145469 182.649894) scale(0.15 -0.15)">
       <use xlink:href="#DengXian-33"/>
       <use xlink:href="#DengXian-2e" x="52.685547"/>
       <use xlink:href="#DengXian-30" x="74.609375"/>
      </g>
     </g>
    </g>
    <g id="ytick_6">
     <g id="line2d_15">
      <g>
       <use xlink:href="#mfc3fc76b67" x="138.24" y="107.862664" style="stroke: #000000; stroke-width: 0.8"/>
      </g>
     </g>
     <g id="text_15">
      <!-- 3.5 -->
      <g transform="translate(112.145469 112.894695) scale(0.15 -0.15)">
       <use xlink:href="#DengXian-33"/>
       <use xlink:href="#DengXian-2e" x="52.685547"/>
       <use xlink:href="#DengXian-35" x="74.609375"/>
      </g>
     </g>
    </g>
   </g>
   <g id="line2d_16">
    <path d="M 177.198545 85.5972 
L 371.991273 232.066022 
L 566.784 261.392532 
L 761.576727 345.880468 
L 956.369455 472.1652 
" clip-path="url(#p06112cc821)" style="fill: none; stroke: #1f77b4; stroke-width: 2; stroke-linecap: square"/>
   </g>
   <g id="patch_3">
    <path d="M 138.24 491.4936 
L 138.24 66.2688 
" style="fill: none; stroke: #000000; stroke-width: 0.8; stroke-linejoin: miter; stroke-linecap: square"/>
   </g>
   <g id="patch_4">
    <path d="M 995.328 491.4936 
L 995.328 66.2688 
" style="fill: none; stroke: #000000; stroke-width: 0.8; stroke-linejoin: miter; stroke-linecap: square"/>
   </g>
   <g id="patch_5">
    <path d="M 138.24 491.4936 
L 995.328 491.4936 
" style="fill: none; stroke: #000000; stroke-width: 0.8; stroke-linejoin: miter; stroke-linecap: square"/>
   </g>
   <g id="patch_6">
    <path d="M 138.24 66.2688 
L 995.328 66.2688 
" style="fill: none; stroke: #000000; stroke-width: 0.8; stroke-linejoin: miter; stroke-linecap: square"/>
   </g>
   <g id="text_16">
    <!-- 高钾-风化-样本距离图 -->
    <g transform="translate(476.784 60.2688) scale(0.18 -0.18)">
     <defs>
      <path id="DengXian-9ad8" d="M 691 1925 
Q 997 1888 1247 1888 
L 5069 1888 
Q 5269 1881 5606 1925 
Q 5569 1606 5569 1409 
L 5569 -225 
Q 5581 -647 5375 -763 
Q 5203 -903 4500 -953 
Q 4469 -709 4306 -481 
Q 4597 -519 4772 -519 
Q 4934 -519 5075 -473 
Q 5216 -428 5209 -206 
L 5209 1569 
L 1088 1569 
L 1088 -372 
Q 1088 -575 1125 -941 
L 691 -941 
Q 728 -600 728 -372 
L 728 1344 
Q 728 1544 691 1925 
z
M 4403 1153 
Q 4366 884 4366 659 
L 4366 366 
Q 4366 178 4403 -109 
Q 4091 -72 3903 -72 
L 2328 -72 
Q 2119 -72 1791 -109 
Q 1838 200 1831 359 
L 1831 659 
Q 1831 831 1791 1153 
Q 2131 1113 2328 1113 
L 3903 1113 
Q 4091 1113 4403 1153 
z
M 2175 806 
L 2175 238 
L 4019 238 
L 4019 806 
L 2175 806 
z
M 953 4219 
L 3284 4219 
Q 3047 4469 2619 4750 
L 2869 5038 
Q 3278 4763 3669 4428 
L 3488 4219 
L 5453 4219 
Q 5684 4219 5978 4256 
L 5978 3859 
Q 5684 3897 5453 3897 
L 953 3897 
Q 728 3897 434 3859 
L 434 4256 
Q 738 4219 953 4219 
z
M 4788 3519 
Q 4750 3213 4750 3016 
L 4750 2719 
Q 4750 2553 4788 2234 
Q 4488 2272 4256 2272 
L 2069 2272 
Q 1863 2272 1544 2234 
Q 1581 2484 1581 2688 
L 1581 3016 
Q 1581 3206 1544 3519 
Q 1850 3481 2069 3481 
L 4238 3481 
Q 4475 3481 4788 3519 
z
M 1941 3163 
L 1941 2591 
L 4391 2591 
L 4391 3163 
L 1941 3163 
z
" transform="scale(0.015625)"/>
      <path id="DengXian-94be" d="M 2944 4538 
Q 3256 4494 3463 4500 
L 5434 4500 
Q 5638 4500 5966 4538 
Q 5919 4294 5925 4031 
L 5925 1153 
Q 5919 831 5966 634 
L 5528 634 
Q 5575 838 5569 984 
L 4616 984 
L 4616 -366 
Q 4616 -538 4653 -884 
L 4219 -884 
Q 4256 -563 4256 -366 
L 4256 984 
L 3341 984 
Q 3334 788 3378 556 
L 2944 556 
Q 2988 897 2981 1075 
L 2981 4031 
Q 2988 4281 2944 4538 
z
M 3341 2875 
L 4256 2875 
L 4256 4178 
L 3341 4178 
L 3341 2875 
z
M 3341 2553 
L 3341 1306 
L 4256 1306 
L 4256 2553 
L 3341 2553 
z
M 4616 2553 
L 4616 1306 
L 5569 1306 
L 5569 2553 
L 4616 2553 
z
M 4616 4178 
L 4616 2875 
L 5569 2875 
L 5569 4178 
L 4616 4178 
z
M 225 3053 
Q 1025 3706 1428 4972 
L 1850 4794 
Q 1953 4756 1947 4728 
Q 1947 4709 1844 4666 
Q 1741 4603 1678 4488 
Q 1594 4313 1434 4013 
Q 1403 3950 1381 3909 
L 2156 3909 
Q 2350 3903 2675 3950 
L 2675 3553 
Q 2356 3591 2169 3591 
L 1184 3591 
Q 941 3225 647 2841 
Q 481 2988 225 3053 
z
M 947 1613 
L 1356 1613 
L 1356 2478 
L 1269 2478 
Q 1088 2484 756 2438 
L 756 2834 
Q 1031 2791 1269 2797 
L 1906 2797 
Q 2125 2791 2431 2834 
L 2431 2438 
Q 2119 2484 1919 2478 
L 1716 2478 
L 1716 1613 
L 2175 1613 
Q 2400 1606 2694 1650 
L 2694 1253 
Q 2369 1300 2181 1294 
L 1716 1294 
L 1716 -172 
Q 2175 147 2553 459 
Q 2572 269 2675 91 
Q 1825 -475 1447 -800 
L 1131 -409 
Q 1363 -269 1356 -84 
L 1356 1294 
L 947 1294 
Q 756 1300 434 1253 
L 434 1650 
Q 750 1606 947 1613 
z
" transform="scale(0.015625)"/>
      <path id="DengXian-2d" d="M 694 1166 
L 694 1522 
L 2506 1522 
L 2506 1166 
L 694 1166 
z
" transform="scale(0.015625)"/>
      <path id="DengXian-98ce" d="M 206 -459 
Q 838 128 1075 1166 
Q 1259 1938 1259 3163 
Q 1259 3559 1241 3994 
Q 1228 4300 1178 4628 
Q 1538 4588 1825 4588 
L 4538 4588 
Q 4850 4588 5178 4628 
Q 5172 4581 5153 4488 
Q 5094 4159 5094 4031 
Q 5053 3291 5053 2625 
Q 5053 1681 5141 1025 
Q 5313 -159 5678 -225 
Q 5825 -256 5825 200 
Q 5825 303 5819 416 
Q 5978 281 6228 184 
Q 6138 -697 5778 -738 
Q 4672 -709 4672 2756 
Q 4672 3481 4716 4294 
L 1631 4294 
Q 1666 3600 1666 3044 
Q 1666 1878 1522 1184 
Q 1331 172 634 -709 
Q 428 -563 206 -459 
z
M 1394 447 
Q 2175 850 3003 2022 
Q 2606 2450 1838 3169 
L 2088 3431 
Q 2631 2913 3188 2338 
Q 3681 3188 3816 3756 
L 4213 3572 
Q 4306 3525 4306 3506 
Q 4313 3481 4231 3450 
Q 4116 3400 4025 3213 
Q 3763 2663 3444 2059 
Q 4153 1300 4634 728 
L 4341 475 
Q 3803 1153 3238 1766 
Q 2584 844 1819 184 
Q 1625 347 1394 447 
z
" transform="scale(0.015625)"/>
      <path id="DengXian-5316" d="M 238 2034 
Q 1325 2931 2113 4972 
L 2584 4728 
Q 2650 4697 2644 4678 
Q 2644 4659 2572 4628 
Q 2431 4569 2291 4281 
Q 2100 3884 1875 3488 
L 1875 -319 
Q 1881 -575 1913 -922 
L 1478 -922 
Q 1516 -556 1516 -319 
L 1516 2894 
Q 1147 2303 684 1728 
Q 488 1900 238 2034 
z
M 3866 4250 
L 3866 1991 
Q 4897 2913 5447 3828 
L 5838 3488 
Q 5900 3438 5894 3414 
Q 5888 3391 5806 3366 
Q 5684 3366 5453 3091 
Q 4588 2106 3866 1484 
L 3866 44 
Q 3853 -244 3994 -294 
Q 4128 -372 4665 -372 
Q 5203 -372 5381 -294 
Q 5569 -231 5619 6 
Q 5663 206 5697 569 
Q 5850 428 6156 366 
Q 6144 306 6125 231 
Q 6094 97 6069 -6 
Q 5913 -728 5166 -722 
Q 4903 -731 4703 -731 
Q 4366 -731 4044 -709 
Q 3513 -659 3494 -134 
L 3494 1209 
Q 3066 903 2547 563 
Q 2350 831 2169 966 
Q 2681 1081 3494 1684 
L 3494 4269 
Q 3494 4469 3456 4878 
L 3950 4813 
Q 4019 4806 4019 4781 
Q 4025 4769 3969 4709 
Q 3859 4622 3866 4250 
z
" transform="scale(0.015625)"/>
      <path id="DengXian-6837" d="M 4213 991 
L 4213 2047 
L 3609 2047 
Q 3263 2047 3097 2009 
L 3097 2406 
Q 3256 2369 3609 2369 
L 4213 2369 
L 4213 3372 
L 3353 3372 
Q 3028 3372 2841 3334 
L 2841 3731 
Q 3009 3694 3353 3694 
L 3781 3694 
Q 3475 4206 3047 4647 
L 3328 4903 
Q 3788 4422 4103 3963 
L 3803 3694 
L 4525 3694 
Q 4966 4500 5069 5019 
L 5516 4794 
Q 5600 4756 5600 4728 
Q 5600 4709 5522 4684 
Q 5381 4628 5319 4513 
Q 5159 4147 4878 3694 
L 5447 3694 
Q 5772 3694 5966 3731 
L 5966 3334 
Q 5766 3372 5453 3372 
L 4569 3372 
L 4569 2369 
L 5153 2369 
Q 5503 2369 5672 2406 
L 5672 2009 
Q 5478 2047 5159 2047 
L 4569 2047 
L 4569 991 
L 5650 991 
Q 5984 991 6175 1031 
L 6175 634 
Q 5978 672 5656 672 
L 4569 672 
L 4569 -434 
Q 4569 -794 4609 -1013 
L 4172 -1013 
Q 4213 -769 4213 -441 
L 4213 672 
L 3103 672 
Q 2791 672 2591 634 
L 2591 1031 
Q 2772 991 3103 991 
L 4213 991 
z
M 1344 3219 
L 838 3219 
Q 563 3219 347 3181 
L 347 3566 
Q 519 3525 856 3525 
L 1434 3525 
L 1434 4441 
Q 1434 4750 1394 4928 
L 1875 4863 
Q 1941 4850 1947 4825 
Q 1953 4800 1894 4763 
Q 1784 4709 1791 4441 
L 1791 3525 
L 2094 3525 
Q 2438 3525 2613 3566 
L 2613 3181 
Q 2413 3219 2100 3219 
L 1791 3219 
L 1791 2822 
Q 2322 2375 2784 1863 
L 2497 1544 
Q 2234 1941 1791 2344 
L 1791 -434 
Q 1791 -781 1831 -1019 
L 1394 -1019 
Q 1434 -819 1434 -434 
L 1434 2344 
Q 1063 1381 691 744 
Q 494 909 225 959 
Q 953 1716 1344 3219 
z
" transform="scale(0.015625)"/>
      <path id="DengXian-672c" d="M 197 184 
Q 1619 884 2713 3278 
L 1159 3278 
Q 831 3278 647 3238 
L 647 3634 
Q 813 3597 1159 3597 
L 3047 3597 
L 3047 4506 
Q 3047 4838 3009 4991 
L 3494 4928 
Q 3591 4922 3584 4903 
Q 3591 4884 3488 4825 
Q 3413 4738 3406 4434 
L 3406 3597 
L 5306 3597 
Q 5638 3597 5831 3634 
L 5831 3238 
Q 5600 3278 5319 3278 
L 3744 3278 
Q 4550 1056 6175 263 
Q 5900 122 5691 -84 
Q 4244 941 3406 3169 
L 3406 628 
L 4159 628 
Q 4500 628 4678 666 
L 4678 269 
Q 4500 306 4166 306 
L 3406 306 
L 3406 -481 
Q 3406 -500 3406 -544 
Q 3397 -897 3431 -1056 
L 3009 -1056 
Q 3047 -838 3047 -488 
L 3047 306 
L 2175 306 
Q 1875 306 1656 269 
L 1656 666 
Q 1819 628 2175 628 
L 3047 628 
L 3047 3059 
Q 2094 978 616 -147 
Q 488 56 197 184 
z
" transform="scale(0.015625)"/>
      <path id="DengXian-8ddd" d="M 3138 4616 
Q 3450 4575 3669 4575 
L 5403 4575 
Q 5625 4569 5925 4616 
L 5925 4219 
Q 5606 4263 5403 4256 
L 3531 4256 
L 3531 2988 
L 5056 2988 
Q 5319 2988 5644 3028 
Q 5606 2694 5606 2478 
L 5606 1522 
Q 5606 1294 5644 941 
Q 5338 984 5069 978 
L 3531 978 
L 3531 -341 
L 5556 -341 
Q 5759 -347 6075 -300 
L 6075 -697 
Q 5759 -653 5556 -659 
L 3763 -659 
Q 3500 -659 3138 -697 
Q 3175 -353 3175 -109 
L 3175 4038 
Q 3175 4256 3138 4616 
z
M 3531 2669 
L 3531 1300 
L 5247 1300 
L 5247 2669 
L 3531 2669 
z
M 550 2100 
L 1031 2034 
Q 1106 2028 1112 1997 
Q 1119 1966 1056 1900 
Q 928 1772 934 1491 
L 934 -141 
Q 1288 -19 1509 63 
L 1509 2706 
L 1106 2706 
Q 884 2706 588 2669 
Q 628 2931 628 3156 
L 628 4128 
Q 628 4319 588 4647 
Q 863 4609 1100 4609 
L 2138 4609 
Q 2350 4603 2638 4647 
Q 2591 4306 2597 4128 
L 2597 3156 
Q 2597 2963 2638 2669 
Q 2344 2706 2156 2706 
L 1869 2706 
L 1869 1800 
L 2181 1800 
Q 2388 1791 2700 1838 
L 2700 1441 
Q 2400 1478 2181 1478 
L 1869 1478 
L 1869 191 
Q 2450 397 2822 575 
L 2791 141 
Q 1063 -459 538 -763 
L 269 -331 
Q 434 -288 588 -250 
L 588 1491 
Q 588 1747 550 2100 
z
M 972 4288 
L 972 3028 
L 2253 3028 
L 2253 4288 
L 972 4288 
z
" transform="scale(0.015625)"/>
      <path id="DengXian-79bb" d="M 953 4213 
L 3547 4213 
Q 3144 4525 2619 4775 
L 2869 5056 
Q 3397 4788 3834 4506 
L 3591 4213 
L 5478 4213 
Q 5722 4219 5991 4250 
L 5991 3866 
Q 5703 3897 5478 3903 
L 953 3903 
Q 744 3897 434 3866 
L 434 4250 
Q 744 4219 953 4213 
z
M 991 1447 
Q 1313 1416 1563 1409 
L 2778 1409 
Q 2944 1691 3022 1959 
L 1831 1959 
Q 1594 1953 1275 1919 
Q 1306 2228 1313 2431 
L 1313 2944 
Q 1306 3194 1275 3494 
L 1759 3431 
Q 1797 3419 1797 3394 
Q 1797 3359 1734 3297 
Q 1650 3244 1656 2906 
L 1656 2266 
L 4831 2266 
L 4831 3066 
Q 4825 3316 4794 3609 
L 5281 3547 
Q 5328 3528 5328 3500 
Q 5328 3469 5281 3425 
Q 5172 3353 5178 3034 
L 5178 2425 
Q 5184 2181 5216 1919 
Q 4934 1953 4678 1959 
L 3181 1959 
L 3456 1838 
Q 3519 1806 3519 1776 
Q 3519 1747 3456 1716 
Q 3322 1663 3175 1409 
L 5044 1409 
Q 5300 1416 5600 1447 
Q 5569 1153 5563 909 
L 5563 -319 
Q 5575 -703 5363 -813 
Q 5166 -941 4453 -984 
Q 4409 -666 4306 -506 
Q 4628 -541 4803 -541 
Q 4969 -541 5044 -513 
Q 5216 -475 5203 -238 
L 5203 1100 
L 3034 1100 
Q 2784 678 2528 313 
Q 3244 359 3897 428 
Q 3775 622 3584 838 
L 3922 1000 
Q 4294 519 4641 19 
L 4306 -244 
Q 4213 -50 4072 153 
Q 2241 -44 2047 -141 
L 1869 288 
Q 2188 359 2363 647 
Q 2497 863 2631 1100 
L 1388 1100 
L 1388 -434 
Q 1394 -678 1428 -972 
L 991 -972 
Q 1025 -666 1031 -434 
L 1031 903 
Q 1025 1153 991 1447 
z
M 2016 2700 
Q 2566 2809 3016 3047 
Q 2497 3250 2041 3391 
L 2203 3706 
Q 2503 3584 3244 3303 
Q 3322 3272 3359 3256 
Q 3803 3506 4178 3872 
L 4513 3578 
Q 4541 3550 4541 3528 
Q 4541 3522 4533 3505 
Q 4525 3488 4469 3488 
Q 4347 3488 4219 3413 
Q 3994 3272 3713 3103 
Q 4128 2944 4538 2759 
L 4359 2413 
Q 4044 2606 3384 2881 
Q 2784 2534 2253 2369 
Q 2209 2503 2016 2700 
z
" transform="scale(0.015625)"/>
      <path id="DengXian-56fe" d="M 2338 2753 
L 2584 3053 
Q 2719 2847 3072 2638 
Q 3397 2888 3719 3284 
L 2522 3284 
Q 2156 2841 1844 2522 
Q 1663 2694 1434 2803 
Q 2241 3219 2584 4141 
L 2994 4006 
Q 3059 3988 3059 3963 
Q 3059 3938 2994 3903 
Q 2906 3866 2713 3603 
L 3847 3603 
Q 4091 3609 4441 3641 
Q 3994 3003 3384 2450 
Q 4184 1978 5088 1850 
Q 4856 1619 4769 1422 
Q 3963 1722 3122 2203 
Q 2566 1784 1556 1369 
Q 1388 1606 1209 1734 
Q 2138 1953 2797 2425 
Q 2553 2584 2338 2753 
z
M 2309 722 
L 2478 1056 
Q 3353 697 4191 269 
L 3994 -50 
Q 3200 422 2309 722 
z
M 2675 1528 
L 2834 1819 
Q 3444 1550 3975 1259 
L 3809 941 
Q 3341 1241 2675 1528 
z
M 1159 -947 
L 722 -947 
Q 756 -616 763 -372 
L 763 3994 
Q 756 4256 722 4563 
Q 1063 4531 1319 4525 
L 5125 4525 
Q 5375 4531 5716 4563 
Q 5684 4244 5678 4006 
L 5678 -250 
Q 5684 -453 5716 -819 
L 5281 -819 
Q 5313 -628 5319 -453 
L 1119 -453 
Q 1125 -672 1159 -947 
z
M 1119 -147 
L 5319 -147 
L 5319 4206 
L 1119 4206 
L 1119 -147 
z
" transform="scale(0.015625)"/>
     </defs>
     <use xlink:href="#DengXian-9ad8"/>
     <use xlink:href="#DengXian-94be" x="100"/>
     <use xlink:href="#DengXian-2d" x="200"/>
     <use xlink:href="#DengXian-98ce" x="250"/>
     <use xlink:href="#DengXian-5316" x="350"/>
     <use xlink:href="#DengXian-2d" x="450"/>
     <use xlink:href="#DengXian-6837" x="500"/>
     <use xlink:href="#DengXian-672c" x="600"/>
     <use xlink:href="#DengXian-8ddd" x="700"/>
     <use xlink:href="#DengXian-79bb" x="800"/>
     <use xlink:href="#DengXian-56fe" x="900"/>
    </g>
   </g>
  </g>
 </g>
 <defs>
  <clipPath id="p06112cc821">
   <rect x="138.24" y="66.2688" width="857.088" height="425.2248"/>
  </clipPath>
 </defs>
</svg>
